<svg width="56" height="56" viewBox="0 0 56 56" fill="none" xmlns="http://www.w3.org/2000/svg">
<g clip-path="url(#clip0_2085_42929)">
<circle cx="28" cy="28" r="28" fill="#80747C"/>
<mask id="mask0_2085_42929" style="mask-type:alpha" maskUnits="userSpaceOnUse" x="0" y="0" width="56" height="56">
<circle cx="28" cy="28" r="28" fill="white"/>
</mask>
<g mask="url(#mask0_2085_42929)">
<path d="M7 21H49C49 22.2887 47.9553 23.3333 46.6667 23.3333H9.33334C8.04467 23.3333 7 22.2887 7 21Z" fill="#1E1A1D"/>
<rect x="14" y="25.668" width="28" height="1.16667" fill="#1E1A1D"/>
<path d="M13.9998 32.668C13.9998 32.668 15.7498 33.8346 27.9998 33.8346C40.2498 33.8346 41.9998 32.668 41.9998 32.668L39.6665 40.8346L51.3332 44.3346V58.3346H4.6665V44.3346L16.3332 40.8346L13.9998 32.668Z" fill="#1E1A1D"/>
<mask id="mask1_2085_42929" style="mask-type:alpha" maskUnits="userSpaceOnUse" x="4" y="32" width="48" height="27">
<path d="M13.9998 32.668C13.9998 32.668 15.7498 33.8346 27.9998 33.8346C40.2498 33.8346 41.9998 32.668 41.9998 32.668L39.6665 40.8346L51.3332 44.3346V58.3346H4.6665V44.3346L16.3332 40.8346L13.9998 32.668Z" fill="#1E1A1D"/>
</mask>
<g mask="url(#mask1_2085_42929)">
<g opacity="0.1">
<rect x="25.6665" y="33.834" width="4.66667" height="23.3333" fill="#FFFBFF"/>
<rect x="25.6665" y="33.834" width="4.66667" height="23.3333" fill="#9E2A9C" fill-opacity="0.14"/>
</g>
</g>
<path d="M26.8333 25.668C26.8333 28.5675 24.5 32.0846 20.4167 30.918C16.3333 29.7513 14 28.5675 14 25.668L20.4167 25.668L26.8333 25.668Z" fill="#1E1A1D"/>
<path d="M41.9998 25.668C41.9998 28.5675 39.6665 29.7513 35.5832 30.918C31.4998 32.0846 29.1665 28.5675 29.1665 25.668L35.5832 25.668L41.9998 25.668Z" fill="#1E1A1D"/>
<path d="M17.5 7.00088C20.0286 5.25081 25.9778 8.16696 28 8.167C30.0222 8.16703 36.1667 5.25081 38.5 7.00051C40.8333 8.7502 42 21.0005 42 21.0005H14C14 21.0005 14.9714 8.75095 17.5 7.00088Z" fill="#1E1A1D"/>
</g>
</g>
<defs>
<clipPath id="clip0_2085_42929">
<rect width="56" height="56" fill="white"/>
</clipPath>
</defs>
</svg>
