<svg width="24" height="25" viewBox="0 0 24 25" fill="none" xmlns="http://www.w3.org/2000/svg">
<path d="M10.1397 20.6505C11.8648 21.6698 15.0689 22.3146 16.8294 21.0186C18.59 19.7225 19.5773 16.9458 19.0126 14.475C18.448 12.0043 17.2626 11.3993 16.5916 10.9034C15.9207 10.4076 15.3868 8.6878 14.8616 8.36785C14.3364 8.0479 13.7953 8.61119 13.5953 9.62182C13.3952 10.6324 14.4371 11.9923 14.4371 11.9923C14.4371 11.9923 8.927 8.30801 7.8461 7.6321C6.7652 6.9562 6.0455 7.95775 6.02982 8.57634C6.01413 9.19493 6.28767 9.44758 6.28767 9.44758C5.79841 9.12274 5.4297 8.77678 4.83609 8.62438C4.24249 8.47197 3.62213 9.12758 3.5495 9.63861C3.47687 10.1496 3.59298 10.721 4.59254 11.2227C4.59254 11.2227 3.75313 10.8829 3.29361 11.7452C3.07944 12.1471 3.06754 12.669 3.21617 12.9936C3.36481 13.3181 4.18348 13.8658 4.46691 14.0065C4.06724 13.859 3.76618 14.0495 3.51665 14.2189C3.26712 14.3883 2.7218 15.2274 3.1478 15.892C3.5738 16.5567 8.4146 19.6313 10.1397 20.6505Z" fill="#E37100"/>
<path d="M12.1025 19.606C13.7853 20.6936 16.961 21.4665 18.7722 20.2421C20.5833 19.0178 21.6812 16.2829 21.2161 13.7915C20.7511 11.3001 19.5909 10.648 18.9404 10.1256C18.2899 9.60324 17.8255 7.86342 17.3136 7.52265C16.8017 7.18189 16.2383 7.72301 15.9979 8.7248C15.7575 9.72658 16.744 11.1272 16.744 11.1272C16.744 11.1272 11.3861 7.22471 10.3332 6.50597C9.28032 5.78723 8.52101 6.7591 8.48052 7.37656C8.44002 7.99403 8.7032 8.25745 8.7032 8.25745C8.22737 7.91323 7.87284 7.55276 7.28583 7.37666C6.69882 7.20055 6.05265 7.83074 5.95957 8.33845C5.8665 8.84615 5.95957 9.42172 6.9382 9.96309C6.9382 9.96309 6.1131 9.58994 5.61934 10.4331C5.38922 10.8261 5.35639 11.347 5.49188 11.6773C5.62737 12.0076 6.4234 12.5877 6.70096 12.7397C6.30753 12.5762 5.99906 12.7545 5.74294 12.9137C5.48681 13.073 4.90826 13.8895 5.30725 14.5707C5.70623 15.2519 10.4198 18.5183 12.1025 19.606Z" fill="#F2994A"/>
<path d="M18.108 19.9422C16.737 20.6189 14.1501 20.1929 12.4673 19.1052C10.7845 18.0176 6.88521 15.1537 6.1936 14.5942C5.92404 14.3762 5.65063 14.1333 5.52563 13.7974C5.40063 13.4614 5.55152 13.093 5.55152 13.093C5.55152 13.093 5.68928 12.9471 5.74292 12.9137C5.99649 12.7561 6.30136 12.5798 6.68918 12.7349C6.68906 12.7337 6.6929 12.7353 6.70094 12.7397C6.69701 12.738 6.69309 12.7364 6.68918 12.7349C6.69342 12.7736 11.1586 15.8481 11.5356 16.0932C11.6248 16.1512 11.8851 15.7049 11.3997 15.4137C11.3997 15.4137 7.5317 12.6077 7.18021 12.34C7.02596 12.2225 6.30427 11.7029 5.90808 11.3989C5.51189 11.0948 5.5822 10.4965 5.61933 10.4331C6.11308 9.58994 6.93818 9.96309 6.93818 9.96309C8.4805 10.7582 11.9481 13.4972 12.7484 13.9375C12.9672 14.0579 13.013 13.5691 12.0184 12.9137C11.0239 12.2584 8.29655 10.2132 6.89652 9.26606C5.4965 8.31893 6.38427 7.64367 6.44219 7.59732C6.68795 7.40068 6.99418 7.28917 7.28581 7.37666C7.87282 7.55276 8.22735 7.91323 8.70318 8.25745C8.70318 8.25745 13.6259 11.8476 14.2999 12.2172C14.4935 12.3234 14.4739 11.8911 14.1586 11.5867C13.8434 11.2823 10.5386 9.06459 9.22321 8.05366C8.04915 7.15137 8.9722 6.47563 9.05775 6.41938C9.3817 6.20639 9.82298 6.15768 10.3332 6.50597C11.3861 7.22471 17.476 11.679 17.476 11.679C17.476 11.679 16.4295 9.55942 16.244 8.68511C16.0586 7.8108 16.8016 7.18189 17.3136 7.52265C17.8255 7.86342 18.2899 9.60324 18.9404 10.1256C19.5909 10.648 20.7511 11.3001 21.2161 13.7915C21.6812 16.2829 19.479 19.2656 18.108 19.9422Z" fill="#F2C94C"/>
<path d="M11.9891 3.30859L10.0044 4.93504L12.8159 6.78172L11.9891 3.30859Z" fill="#74546F"/>
<path d="M17.0888 3.11564L14.2773 2.81201L15.297 6.69925L17.0888 3.11564Z" fill="#74546F"/>
<path d="M21.0035 6.34065L18.9914 3.96973L17.5023 7.16788L21.0035 6.34065Z" fill="#74546F"/>
</svg>
