<svg width="33" height="33" viewBox="0 0 33 33" fill="none" xmlns="http://www.w3.org/2000/svg">
<path d="M14.0191 27.5339C16.3192 28.8929 20.5913 29.7527 22.9388 28.0246C25.2862 26.2965 26.6025 22.5942 25.8497 19.2999C25.0968 16.0056 23.5163 15.1989 22.6217 14.5377C21.7271 13.8766 21.0153 11.5836 20.315 11.157C19.6148 10.7304 18.8932 11.4814 18.6265 12.8289C18.3598 14.1764 19.749 15.9896 19.749 15.9896C19.749 15.9896 12.4022 11.0772 10.961 10.176C9.51978 9.27476 8.56018 10.6102 8.53927 11.435C8.51835 12.2597 8.88307 12.5966 8.88307 12.5966C8.23072 12.1635 7.73911 11.7022 6.94764 11.499C6.15616 11.2958 5.32902 12.1699 5.23218 12.8513C5.13534 13.5327 5.29015 14.2945 6.62289 14.9634C6.62289 14.9634 5.50368 14.5104 4.89099 15.6602C4.60543 16.196 4.58956 16.8918 4.78774 17.3246C4.98593 17.7573 6.07748 18.4876 6.45539 18.6752C5.9225 18.4785 5.52108 18.7325 5.18837 18.9584C4.85567 19.1843 4.12857 20.303 4.69658 21.1892C5.26458 22.0754 11.719 26.1749 14.0191 27.5339Z" fill="#E37100"/>
<path d="M16.6362 26.1408C18.88 27.591 23.1141 28.6215 25.529 26.989C27.944 25.3565 29.4078 21.71 28.7877 18.3882C28.1676 15.0663 26.6208 14.1968 25.7534 13.5003C24.8861 12.8038 24.2669 10.4841 23.5843 10.0297C22.9017 9.57536 22.1506 10.2969 21.8301 11.6326C21.5095 12.9683 22.8248 14.8358 22.8248 14.8358C22.8248 14.8358 15.681 9.63246 14.2771 8.67414C12.8733 7.71582 11.8609 9.01164 11.8069 9.83493C11.7529 10.6582 12.1038 11.0094 12.1038 11.0094C11.4693 10.5505 10.9966 10.0699 10.2139 9.83505C9.43127 9.60025 8.56972 10.4405 8.44561 11.1174C8.32151 11.7944 8.44561 12.5618 9.75044 13.2836C9.75044 13.2836 8.65031 12.7861 7.99197 13.9103C7.68514 14.4343 7.64136 15.1289 7.82202 15.5693C8.00268 16.0096 9.06405 16.7831 9.43412 16.9857C8.90956 16.7678 8.49826 17.0055 8.15676 17.2178C7.81526 17.4302 7.04386 18.5189 7.57584 19.4271C8.10782 20.3354 14.3925 24.6906 16.6362 26.1408Z" fill="#F2994A"/>
<path d="M24.6433 26.5891C22.8154 27.4914 19.3662 26.9234 17.1225 25.4731C14.8787 24.0229 9.67963 20.2044 8.75748 19.4585C8.39807 19.1678 8.03352 18.8439 7.86686 18.396C7.70019 17.9481 7.90137 17.4569 7.90137 17.4569C7.90137 17.4569 8.08506 17.2623 8.15658 17.2178C8.49467 17.0076 8.90117 16.7725 9.41826 16.9793C9.41809 16.9778 9.42321 16.9799 9.43393 16.9857C9.4287 16.9835 9.42347 16.9814 9.41826 16.9793C9.42391 17.031 15.3775 21.1303 15.8802 21.4571C15.9991 21.5344 16.3462 20.9394 15.699 20.5511C15.699 20.5511 10.5416 16.8098 10.073 16.4529C9.86729 16.2962 8.90504 15.6034 8.37679 15.198C7.84853 14.7926 7.94229 13.9949 7.99178 13.9103C8.65012 12.7861 9.75026 13.2836 9.75026 13.2836C11.8067 14.3437 16.4301 17.9958 17.4972 18.5829C17.7889 18.7433 17.85 18.0916 16.5239 17.2178C15.1978 16.344 11.5614 13.6171 9.69471 12.3543C7.82802 11.0914 9.0117 10.1911 9.08894 10.1293C9.41662 9.86709 9.82492 9.7184 10.2138 9.83505C10.9964 10.0699 11.4692 10.5505 12.1036 11.0094C12.1036 11.0094 18.6673 15.7963 19.5659 16.2891C19.824 16.4307 19.7978 15.8543 19.3775 15.4485C18.9572 15.0426 14.5509 12.0856 12.797 10.7377C11.2315 9.53467 12.4623 8.63368 12.5764 8.55868C13.0083 8.27469 13.5967 8.20975 14.277 8.67414C15.6808 9.63246 23.8007 15.5715 23.8007 15.5715C23.8007 15.5715 22.4053 12.7454 22.1581 11.5797C21.9108 10.4139 22.9015 9.57536 23.5841 10.0297C24.2667 10.4841 24.8859 12.8038 25.7533 13.5003C26.6206 14.1968 28.1674 15.0663 28.7875 18.3882C29.4076 21.71 26.4713 25.6869 24.6433 26.5891Z" fill="#F2C94C"/>
<path d="M16.4851 4.41113L13.8389 6.57973L17.5876 9.04197L16.4851 4.41113Z" fill="#74546F"/>
<path d="M23.2848 4.15387L19.5361 3.74902L20.8957 8.93201L23.2848 4.15387Z" fill="#74546F"/>
<path d="M28.5041 8.45372L25.8212 5.29248L23.8358 9.55669L28.5041 8.45372Z" fill="#74546F"/>
</svg>
