<svg width="24" height="24" viewBox="0 0 24 24" fill="none" xmlns="http://www.w3.org/2000/svg">
<path fill-rule="evenodd" clip-rule="evenodd" d="M15.8267 13.3808L12.8829 20.0043C12.6138 20.6098 12.0134 21 11.3508 21C9.91875 21 8.8187 19.7316 9.02123 18.314L9.63751 14H6.0005C4.22563 14 2.83878 12.4675 3.01538 10.7015L3.61538 4.70149C3.76874 3.16788 5.05924 2 6.6005 2L13.7905 2C14.5649 2 15.2708 2.29342 15.803 2.77514C16.7905 3.5 16.7908 4.5 16.7905 5C16.7903 5.5 16.7903 9.5 16.7905 11.2122C16.7906 11.5 16.2905 12.5 15.8267 13.3808ZM20.7905 14C21.3428 14 21.7905 13.5523 21.7905 13L21.7905 3C21.7905 2.44772 21.3428 2 20.7905 2H18.7905C18.2382 2 17.7905 2.44772 17.7905 3L17.7905 13C17.7905 13.5523 18.2382 14 18.7905 14H20.7905Z" fill="url(#paint0_linear_2949_44205)"/>
<defs>
<linearGradient id="paint0_linear_2949_44205" x1="12.3954" y1="21" x2="12.3954" y2="2" gradientUnits="userSpaceOnUse">
<stop stop-color="#F2994A"/>
<stop offset="1" stop-color="#FF7800"/>
</linearGradient>
</defs>
</svg>
