<svg fill="#007aff" viewBox="0 0 78 78" xmlns="http://www.w3.org/2000/svg"><path d="M39 78c5.34 0 10.362-1.017 15.067-3.052S62.913 70.1 66.49 66.51c3.577-3.59 6.39-7.738 8.438-12.443 2.048-4.705 3.071-9.727 3.071-15.067s-1.023-10.362-3.071-15.067-4.86-8.852-8.438-12.443c-3.577-3.59-7.725-6.403-12.443-8.438C49.329 1.017 44.3 0 38.96 0S28.598 1.017 23.893 3.052 15.047 7.9 11.47 11.49c-3.577 3.59-6.383 7.738-8.418 12.443S-.001 33.66-.001 39s1.018 10.362 3.053 15.067 4.847 8.852 8.437 12.443c3.59 3.59 7.738 6.403 12.443 8.438S33.66 78 39 78zm0-5.016c-4.718 0-9.125-.881-13.22-2.644s-7.699-4.2-10.81-7.31-5.54-6.72-7.29-10.83C5.93 48.093 5.054 43.693 5.054 39s.875-9.092 2.624-13.201c1.75-4.109 4.174-7.725 7.272-10.848s6.7-5.56 10.81-7.31c4.108-1.75 8.509-2.625 13.2-2.625 4.718 0 9.125.875 13.22 2.625a34.133 34.133 0 0 1 10.83 7.31c3.123 3.123 5.566 6.74 7.33 10.848s2.643 8.509 2.643 13.2-.875 9.093-2.624 13.202c-1.75 4.109-4.18 7.718-7.291 10.829s-6.727 5.547-10.848 7.31-8.528 2.644-13.22 2.644zm-16.953-14.27 22.825-11.432c1.089-.544 1.918-1.374 2.489-2.489l11.393-22.786c.544-1.166.505-2.08-.117-2.74-.622-.662-1.543-.694-2.76-.098L33.09 30.562c-1.037.518-1.853 1.348-2.45 2.488L19.208 55.875c-.362.752-.453 1.413-.272 1.984.182.57.551.952 1.108 1.147.558.194 1.225.097 2.003-.292zM39 43.744c-1.322 0-2.45-.467-3.383-1.4-.933-.933-1.4-2.06-1.4-3.383s.467-2.443 1.4-3.363c.933-.92 2.06-1.38 3.383-1.38 1.296 0 2.41.46 3.344 1.38s1.4 2.041 1.4 3.363-.467 2.45-1.4 3.383c-.933.933-2.048 1.4-3.344 1.4z"/></svg>