<svg width="32" height="32" viewBox="0 0 32 32" fill="none" xmlns="http://www.w3.org/2000/svg">
<g clip-path="url(#clip0_2071_41617)">
<path fill-rule="evenodd" clip-rule="evenodd" d="M5.33337 9.06667C5.33337 8.47756 5.81094 8 6.40004 8H25.6C26.1891 8 26.6667 8.47756 26.6667 9.06667C26.6667 9.65577 26.1891 10.1333 25.6 10.1333H6.40004C5.81094 10.1333 5.33337 9.65577 5.33337 9.06667ZM5.33337 15.7333C5.33337 15.1442 5.81094 14.6667 6.40004 14.6667H25.6C26.1891 14.6667 26.6667 15.1442 26.6667 15.7333C26.6667 16.3224 26.1891 16.8 25.6 16.8H6.40004C5.81094 16.8 5.33337 16.3224 5.33337 15.7333ZM6.40004 21.3333C5.81094 21.3333 5.33337 21.8109 5.33337 22.4C5.33337 22.9891 5.81094 23.4667 6.40004 23.4667H25.6C26.1891 23.4667 26.6667 22.9891 26.6667 22.4C26.6667 21.8109 26.1891 21.3333 25.6 21.3333H6.40004Z" fill="#4E444B"/>
</g>
<defs>
<clipPath id="clip0_2071_41617">
<rect width="32" height="32" fill="white"/>
</clipPath>
</defs>
</svg>
