<svg width="32" height="32" viewBox="0 0 32 32" fill="none" xmlns="http://www.w3.org/2000/svg">
<g clip-path="url(#clip0_2127_42930)">
<path fill-rule="evenodd" clip-rule="evenodd" d="M24.5335 18.1211V20.0149C23.2968 20.4891 20.6653 21.2003 16.0002 21.2003C11.335 21.2003 8.70353 20.4891 7.46683 20.0149V18.1211C7.46683 17.4575 7.77926 16.8327 8.31012 16.4345C9.39686 15.6195 10.1018 14.3945 10.2606 13.0453L10.6733 9.53726C10.9911 6.83607 13.2803 4.80033 16.0002 4.80033C18.72 4.80033 21.0093 6.83607 21.327 9.53726L21.7398 13.0453C21.8985 14.3945 22.6035 15.6195 23.6902 16.4345C24.2211 16.8327 24.5335 17.4575 24.5335 18.1211ZM5.3335 18.1211C5.3335 16.786 5.96207 15.5289 7.03012 14.7279C7.64954 14.2633 8.05137 13.5651 8.14184 12.7961L8.55455 9.288C8.99874 5.51243 12.1986 2.66699 16.0002 2.66699C19.8018 2.66699 23.0016 5.51243 23.4458 9.288L23.8585 12.7961C23.949 13.5651 24.3508 14.2633 24.9702 14.7279C26.0383 15.5289 26.6668 16.786 26.6668 18.1211V20.667C26.6668 21.0867 26.4667 21.4778 26.0903 21.6635C24.9389 22.2314 21.9392 23.3337 16.0002 23.3337C10.0611 23.3337 7.0614 22.2314 5.91001 21.6635C5.53363 21.4778 5.3335 21.0867 5.3335 20.667V18.1211ZM19.3335 28.0003C17.4925 28.0003 16.0002 26.508 16.0002 24.667C18.7711 24.667 20.9453 24.4335 22.6214 24.1154C22.6513 24.2948 22.6668 24.4791 22.6668 24.667C22.6668 26.508 21.1744 28.0003 19.3335 28.0003Z" fill="#4E444B"/>
</g>
<defs>
<clipPath id="clip0_2127_42930">
<rect width="32" height="32" fill="white"/>
</clipPath>
</defs>
</svg>
