<svg width="33" height="32" viewBox="0 0 33 32" fill="none" xmlns="http://www.w3.org/2000/svg">
<path fill-rule="evenodd" clip-rule="evenodd" d="M20.4998 7.2853L25.2139 11.9993L29.9279 7.2853L28.4194 5.77683L26.3279 7.86839V2.66602L24.1945 2.67542V7.96303L22.0083 5.77683L20.4998 7.2853ZM10.3665 8.88661C10.6539 8.73998 10.9229 8.6136 11.1665 8.50596C11.9716 8.15027 12.4998 7.99935 12.4998 7.99935V10.2603V10.666C12.4998 12.1388 13.6937 13.3327 15.1665 13.3327C15.7198 13.3327 16.2338 13.1642 16.6598 12.8756C16.8825 12.7248 17.0812 12.5412 17.249 12.3318C17.542 11.966 17.7406 11.5213 17.8079 11.0347C18.1789 11.3637 18.5444 11.7239 18.8947 12.1173C19.0897 12.3363 19.28 12.5656 19.4639 12.8055C20.8213 14.5759 21.8332 16.9262 21.8332 19.9993C21.8332 25.154 17.6545 29.3327 12.4998 29.3327C7.34518 29.3327 3.1665 25.154 3.1665 19.9993C3.1665 13.5583 7.61158 10.2923 10.3665 8.88661ZM17.1665 24.666C17.1665 24.9693 17.1376 25.2659 17.0823 25.5531C18.681 24.2325 19.6998 22.2349 19.6998 19.9993C19.6998 17.6751 19.0153 15.8864 18.0578 14.4975C17.2546 15.1042 16.2524 15.466 15.1665 15.466C12.7313 15.466 10.7196 13.6525 10.4083 11.3024C8.08202 12.7176 5.29984 15.3746 5.29984 19.9993C5.29984 22.2349 6.31869 24.2325 7.91738 25.5531C7.86211 25.2659 7.83317 24.9693 7.83317 24.666C7.83317 20.666 12.4998 18.666 12.4998 18.666C12.4998 18.666 17.1665 20.666 17.1665 24.666ZM12.4998 27.1993C13.899 27.1993 15.0332 26.0651 15.0332 24.666C15.0332 23.56 14.3931 22.5986 13.4448 21.7858C13.1203 21.5076 12.7907 21.2752 12.4998 21.0913C12.209 21.2752 11.8794 21.5076 11.5549 21.7858C10.6065 22.5986 9.9665 23.56 9.9665 24.666C9.9665 26.0651 11.1007 27.1993 12.4998 27.1993Z" fill="#4E444B"/>
</svg>
