<svg width="32" height="32" viewBox="0 0 32 32" fill="none" xmlns="http://www.w3.org/2000/svg">
<path d="M20.667 14.668C21.2225 14.668 21.6945 14.4733 22.083 14.084C22.4723 13.6955 22.667 13.2235 22.667 12.668C22.667 12.1124 22.4723 11.6404 22.083 11.252C21.6945 10.8626 21.2225 10.668 20.667 10.668C20.1114 10.668 19.6394 10.8626 19.251 11.252C18.8617 11.6404 18.667 12.1124 18.667 12.668C18.667 13.2235 18.8617 13.6955 19.251 14.084C19.6394 14.4733 20.1114 14.668 20.667 14.668ZM11.3337 14.668C11.8892 14.668 12.3612 14.4733 12.7497 14.084C13.139 13.6955 13.3337 13.2235 13.3337 12.668C13.3337 12.1124 13.139 11.6404 12.7497 11.252C12.3612 10.8626 11.8892 10.668 11.3337 10.668C10.7781 10.668 10.3061 10.8626 9.91766 11.252C9.52833 11.6404 9.33366 12.1124 9.33366 12.668C9.33366 13.2235 9.52833 13.6955 9.91766 14.084C10.3061 14.4733 10.7781 14.668 11.3337 14.668ZM16.0003 23.3346C17.5114 23.3346 18.8839 22.9071 20.1177 22.052C21.3505 21.196 22.2448 20.068 22.8003 18.668H9.20033C9.75588 20.068 10.6505 21.196 11.8843 22.052C13.1172 22.9071 14.4892 23.3346 16.0003 23.3346ZM16.0003 29.3346C14.1559 29.3346 12.4225 28.9844 10.8003 28.284C9.1781 27.5844 7.76699 26.6346 6.56699 25.4346C5.36699 24.2346 4.41721 22.8235 3.71766 21.2013C3.01721 19.5791 2.66699 17.8457 2.66699 16.0013C2.66699 14.1569 3.01721 12.4235 3.71766 10.8013C4.41721 9.17908 5.36699 7.76797 6.56699 6.56797C7.76699 5.36797 9.1781 4.41775 10.8003 3.7173C12.4225 3.01775 14.1559 2.66797 16.0003 2.66797C17.8448 2.66797 19.5781 3.01775 21.2003 3.7173C22.8225 4.41775 24.2337 5.36797 25.4337 6.56797C26.6337 7.76797 27.5834 9.17908 28.283 10.8013C28.9834 12.4235 29.3337 14.1569 29.3337 16.0013C29.3337 17.8457 28.9834 19.5791 28.283 21.2013C27.5834 22.8235 26.6337 24.2346 25.4337 25.4346C24.2337 26.6346 22.8225 27.5844 21.2003 28.284C19.5781 28.9844 17.8448 29.3346 16.0003 29.3346ZM16.0003 26.668C18.9781 26.668 21.5003 25.6346 23.567 23.568C25.6337 21.5013 26.667 18.9791 26.667 16.0013C26.667 13.0235 25.6337 10.5013 23.567 8.43463C21.5003 6.36797 18.9781 5.33464 16.0003 5.33464C13.0225 5.33464 10.5003 6.36797 8.43366 8.43463C6.36699 10.5013 5.33366 13.0235 5.33366 16.0013C5.33366 18.9791 6.36699 21.5013 8.43366 23.568C10.5003 25.6346 13.0225 26.668 16.0003 26.668Z" fill="#4E444B"/>
</svg>
