<svg width="22" height="22" viewBox="0 0 22 22" fill="none" xmlns="http://www.w3.org/2000/svg">
<g id="Iconly/Regular/Light/Category">
<g id="Category">
<path id="Stroke 1" fill-rule="evenodd" clip-rule="evenodd" d="M2.75 5.95846C2.75 3.55201 2.77577 2.75012 5.95833 2.75012C9.1409 2.75012 9.16667 3.55201 9.16667 5.95846C9.16667 8.3649 9.17682 9.16679 5.95833 9.16679C2.73985 9.16679 2.75 8.3649 2.75 5.95846Z" stroke="#9E2A9C" stroke-width="1.8" stroke-linecap="round" stroke-linejoin="round"/>
<path id="Stroke 3" fill-rule="evenodd" clip-rule="evenodd" d="M12.8333 5.95846C12.8333 3.55201 12.859 2.75012 16.0416 2.75012C19.2242 2.75012 19.2499 3.55201 19.2499 5.95846C19.2499 8.3649 19.2601 9.16679 16.0416 9.16679C12.8231 9.16679 12.8333 8.3649 12.8333 5.95846Z" stroke="#9E2A9C" stroke-width="1.8" stroke-linecap="round" stroke-linejoin="round"/>
<path id="Stroke 5" fill-rule="evenodd" clip-rule="evenodd" d="M2.75 16.0418C2.75 13.6354 2.77577 12.8335 5.95833 12.8335C9.1409 12.8335 9.16667 13.6354 9.16667 16.0418C9.16667 18.4482 9.17682 19.2501 5.95833 19.2501C2.73985 19.2501 2.75 18.4482 2.75 16.0418Z" stroke="#9E2A9C" stroke-width="1.8" stroke-linecap="round" stroke-linejoin="round"/>
<path id="Stroke 7" fill-rule="evenodd" clip-rule="evenodd" d="M12.8333 16.0418C12.8333 13.6354 12.859 12.8335 16.0416 12.8335C19.2242 12.8335 19.2499 13.6354 19.2499 16.0418C19.2499 18.4482 19.2601 19.2501 16.0416 19.2501C12.8231 19.2501 12.8333 18.4482 12.8333 16.0418Z" stroke="#9E2A9C" stroke-width="1.8" stroke-linecap="round" stroke-linejoin="round"/>
</g>
</g>
</svg>
