<svg width="32" height="32" viewBox="0 0 32 32" fill="none" xmlns="http://www.w3.org/2000/svg">
<path d="M7.99992 13.333C6.53325 13.333 5.33325 14.533 5.33325 15.9997C5.33325 17.4663 6.53325 18.6663 7.99992 18.6663C9.46659 18.6663 10.6666 17.4663 10.6666 15.9997C10.6666 14.533 9.46659 13.333 7.99992 13.333ZM23.9999 13.333C22.5333 13.333 21.3333 14.533 21.3333 15.9997C21.3333 17.4663 22.5333 18.6663 23.9999 18.6663C25.4666 18.6663 26.6666 17.4663 26.6666 15.9997C26.6666 14.533 25.4666 13.333 23.9999 13.333ZM15.9999 13.333C14.5333 13.333 13.3333 14.533 13.3333 15.9997C13.3333 17.4663 14.5333 18.6663 15.9999 18.6663C17.4666 18.6663 18.6666 17.4663 18.6666 15.9997C18.6666 14.533 17.4666 13.333 15.9999 13.333Z" fill="#4E444B"/>
</svg>
