<svg width="22" height="22" viewBox="0 0 22 22" fill="none" xmlns="http://www.w3.org/2000/svg">
<g id="Iconly/Regular/Light/Filter 3">
<g id="Filter">
<path id="Stroke 1" fill-rule="evenodd" clip-rule="evenodd" d="M4.18474 2.75012C3.39265 2.75012 2.75 3.40358 2.75 4.20799V5.06603C2.75 5.66189 2.97659 6.23491 3.38191 6.66591L7.82384 11.3891L7.8258 11.3861C8.68332 12.264 9.1658 13.4508 9.1658 14.6882V18.879C9.1658 19.1591 9.4588 19.3378 9.702 19.2058L12.2316 17.8273C12.6135 17.6188 12.8518 17.2136 12.8518 16.7737V14.6772C12.8518 13.4468 13.3274 12.265 14.1771 11.3891L18.6191 6.66591C19.0234 6.23491 19.25 5.66189 19.25 5.06603V4.20799C19.25 3.40358 18.6083 2.75012 17.8162 2.75012H4.18474Z" stroke="#9E2A9C" stroke-width="1.8" stroke-linecap="round" stroke-linejoin="round"/>
</g>
</g>
</svg>
