<svg width="41" height="40" viewBox="0 0 41 40" fill="none" xmlns="http://www.w3.org/2000/svg">
<path fill-rule="evenodd" clip-rule="evenodd" d="M35.875 17.6C35.875 16.6478 35.4678 15.7412 34.7562 15.1086L21.9823 3.75399C21.3508 3.19268 20.3992 3.19268 19.7677 3.75399L6.99379 15.1086C6.28216 15.7412 5.875 16.6478 5.875 17.6V34.4364C5.875 35.3569 6.62119 36.1031 7.54167 36.1031H15.875C16.7955 36.1031 17.5417 35.3569 17.5417 34.4364V29.1031C17.5417 27.4462 18.8848 26.1031 20.5417 26.1031H21.2083C22.8652 26.1031 24.2083 27.4462 24.2083 29.1031V34.4364C24.2083 35.3569 24.9545 36.1031 25.875 36.1031H34.2083C35.1288 36.1031 35.875 35.3569 35.875 34.4364V17.6Z" fill="#9E2A9C"/>
</svg>
