<svg width="32" height="32" viewBox="0 0 32 32" fill="none" xmlns="http://www.w3.org/2000/svg">
<path fill-rule="evenodd" clip-rule="evenodd" d="M18.7424 20.3424V7.14319L12.3424 7.1432L12.3424 20.3425L7.35944 20.3424L15.0313 28.0143C15.2396 28.2226 15.5773 28.2226 15.7856 28.0143L23.4575 20.3424L18.7424 20.3424ZM20.8758 6.34319C20.8758 5.60681 20.2788 5.00986 19.5424 5.00986L11.5424 5.00986C10.806 5.00986 10.2091 5.60682 10.2091 6.3432L10.2091 18.2091L5.42807 18.2091C4.24019 18.2091 3.64531 19.6453 4.48526 20.4853L13.5228 29.5228C14.5642 30.5642 16.2527 30.5642 17.2941 29.5228L26.3316 20.4853C27.1716 19.6453 26.5767 18.2091 25.3888 18.2091L20.8758 18.2091V6.34319Z" fill="#BA1A1A"/>
</svg>
