<?xml version="1.0" encoding="utf-8"?>
<!-- Generator: Adobe Illustrator 24.1.1, SVG Export Plug-In . SVG Version: 6.00 Build 0)  -->
<svg version="1.1" id="Layer_1" xmlns="http://www.w3.org/2000/svg" xmlns:xlink="http://www.w3.org/1999/xlink" x="0px" y="0px"
	 viewBox="0 0 512 512" style="enable-background:new 0 0 512 512;" xml:space="preserve">
<g>
	<path d="M491.3,74.5H111.7c-11.4,0-20.7,9.3-20.7,20.7v19.1c0,11.4,9.3,20.7,20.7,20.7h379.6c11.4,0,20.7-9.3,20.7-20.7V95.2
		C512,83.8,502.7,74.5,491.3,74.5z"/>
	<path d="M491.3,225.8H111.7c-11.4,0-20.7,9.3-20.7,20.7v19.1c0,11.4,9.3,20.7,20.7,20.7h379.6c11.4,0,20.7-9.3,20.7-20.7v-19.1
		C512,235,502.7,225.8,491.3,225.8z"/>
	<path d="M491.3,377H111.7c-11.4,0-20.7,9.3-20.7,20.7v19.1c0,11.4,9.3,20.7,20.7,20.7h379.6c11.4,0,20.7-9.3,20.7-20.7v-19.1
		C512,386.3,502.7,377,491.3,377z"/>
	<circle cx="30.3" cy="104.7" r="30.3"/>
	<circle cx="30.3" cy="249.9" r="30.3"/>
	<path d="M30.3,377c16.7,0,30.3,13.6,30.3,30.3S47,437.5,30.3,437.5S0,424,0,407.3S13.6,377,30.3,377z"/>
</g>
</svg>
