<svg width="32" height="32" viewBox="0 0 32 32" fill="none" xmlns="http://www.w3.org/2000/svg">
<path fill-rule="evenodd" clip-rule="evenodd" d="M16.6732 12.1989C15.4736 10.8138 13.4732 10.4412 11.9701 11.7096C10.4671 12.9779 10.2555 15.0986 11.4358 16.5987C12.1671 17.5281 14.0025 19.2255 15.2933 20.3825C15.7674 20.8076 16.0044 21.0201 16.289 21.1057C16.533 21.1792 16.8134 21.1792 17.0575 21.1057C17.342 21.0201 17.579 20.8076 18.0532 20.3825C19.3439 19.2255 21.1793 17.5281 21.9106 16.5987C23.0909 15.0986 22.9051 12.9646 21.3763 11.7096C19.8474 10.4545 17.8728 10.8138 16.6732 12.1989Z" fill="#4E444B"/>
<path d="M28.0106 15.5999C28.0106 21.8592 22.9365 26.9333 16.6773 26.9333C15.2416 26.9333 13.8683 26.6663 12.6042 26.1793C12.3731 26.0903 12.2575 26.0458 12.1656 26.0246C12.0752 26.0037 12.0098 25.995 11.9171 25.9915C11.8229 25.9879 11.7195 25.9986 11.5127 26.02L4.6847 26.7258C4.03371 26.7931 3.70822 26.8267 3.51621 26.7096C3.34898 26.6076 3.23507 26.4372 3.20475 26.2436C3.16994 26.0214 3.32548 25.7335 3.63656 25.1577L5.81744 21.121C5.99704 20.7886 6.08685 20.6224 6.12752 20.4625C6.16769 20.3047 6.1774 20.1909 6.16455 20.0285C6.15154 19.8641 6.07941 19.6501 5.93514 19.2221C5.55178 18.0847 5.34398 16.8666 5.34398 15.5999C5.34398 9.34071 10.4181 4.2666 16.6773 4.2666C22.9365 4.2666 28.0106 9.34071 28.0106 15.5999Z" stroke="#4E444B" stroke-width="1.8" stroke-linecap="round" stroke-linejoin="round"/>
<path fill-rule="evenodd" clip-rule="evenodd" d="M16.6732 12.1989C15.4736 10.8138 13.4732 10.4412 11.9701 11.7096C10.4671 12.9779 10.2555 15.0986 11.4358 16.5987C12.1671 17.5281 14.0025 19.2255 15.2933 20.3825C15.7674 20.8076 16.0044 21.0201 16.289 21.1057C16.533 21.1792 16.8134 21.1792 17.0575 21.1057C17.342 21.0201 17.579 20.8076 18.0532 20.3825C19.3439 19.2255 21.1793 17.5281 21.9106 16.5987C23.0909 15.0986 22.9051 12.9646 21.3763 11.7096C19.8474 10.4545 17.8728 10.8138 16.6732 12.1989Z" stroke="#4E444B" stroke-width="1.8" stroke-linecap="round" stroke-linejoin="round"/>
</svg>
