<svg width="33" height="32" viewBox="0 0 33 32" fill="none" xmlns="http://www.w3.org/2000/svg">
<g clip-path="url(#clip0_2108_49129)">
<path fill-rule="evenodd" clip-rule="evenodd" d="M25.5589 2.66797C23.198 2.66797 21.2841 4.57975 21.2841 6.93805C21.2841 7.12829 21.2966 7.31576 21.3208 7.49964L14.2113 11.5997C13.0613 10.2544 11.35 9.40069 9.43935 9.40069C5.97522 9.40069 3.16699 12.2058 3.16699 15.6661C3.16699 19.1264 5.97522 21.9316 9.43935 21.9316C11.1365 21.9316 12.6766 21.2579 13.8055 20.1644L21.3035 24.4886C21.278 24.6771 21.2649 24.8693 21.2649 25.0646C21.2649 27.4229 23.1788 29.3346 25.5397 29.3346C27.9006 29.3346 29.8145 27.4229 29.8145 25.0646C29.8145 22.7063 27.9006 20.7945 25.5397 20.7945C24.1735 20.7945 22.9571 21.4349 22.1749 22.4305L15.1067 18.3542C15.4947 17.5393 15.7117 16.6277 15.7117 15.6661C15.7117 14.9113 15.5779 14.187 15.3326 13.5162L22.187 9.56309C22.969 10.5639 24.1886 11.2081 25.5589 11.2081C27.9198 11.2081 29.8337 9.29635 29.8337 6.93805C29.8337 4.57975 27.9198 2.66797 25.5589 2.66797ZM5.39531 15.666C5.39531 13.4349 7.20595 11.6262 9.4395 11.6262C11.673 11.6262 13.4837 13.4349 13.4837 15.666C13.4837 17.897 11.673 19.7057 9.4395 19.7057C7.20595 19.7057 5.39531 17.897 5.39531 15.666ZM23.1597 6.9381C23.1597 5.62304 24.2269 4.55697 25.5434 4.55697C26.8599 4.55697 27.9272 5.62304 27.9272 6.9381C27.9272 8.25317 26.8599 9.31924 25.5434 9.31924C24.2269 9.31924 23.1597 8.25317 23.1597 6.9381ZM23.5044 25.0646C23.5044 23.9416 24.4157 23.0313 25.5399 23.0313C26.664 23.0313 27.5753 23.9416 27.5753 25.0646C27.5753 26.1875 26.664 27.0978 25.5399 27.0978C24.4157 27.0978 23.5044 26.1875 23.5044 25.0646Z" fill="#404042"/>
</g>
<defs>
<clipPath id="clip0_2108_49129">
<rect width="32" height="32" fill="white" transform="translate(0.5)"/>
</clipPath>
</defs>
</svg>
