<svg width="41" height="40" viewBox="0 0 41 40" fill="none" xmlns="http://www.w3.org/2000/svg">
<path fill-rule="evenodd" clip-rule="evenodd" d="M4.20834 10.667C4.20834 8.45785 5.9992 6.66699 8.20834 6.66699H34.875C35.4273 6.66699 35.875 7.11471 35.875 7.66699V15.8337H36.5417C37.094 15.8337 37.5417 16.2814 37.5417 16.8337V23.167C37.5417 23.7193 37.094 24.167 36.5417 24.167H35.875V32.3337C35.875 32.8859 35.4273 33.3337 34.875 33.3337H8.20834C5.9992 33.3337 4.20834 31.5428 4.20834 29.3337V10.667ZM25.0417 15.8337C22.7405 15.8337 20.875 17.6991 20.875 20.0003C20.875 22.3015 22.7405 24.167 25.0417 24.167H34.875C35.4273 24.167 35.875 23.7193 35.875 23.167V16.8337C35.875 16.2814 35.4273 15.8337 34.875 15.8337H25.0417Z" fill="#9E2A9C"/>
</svg>
