<svg width="41" height="40" viewBox="0 0 41 40" fill="none" xmlns="http://www.w3.org/2000/svg">
<g clip-path="url(#clip0_2187_1332)">
<path fill-rule="evenodd" clip-rule="evenodd" d="M7.54166 22.6507C7.54166 20.9818 8.32738 19.4104 9.66244 18.4091C10.4367 17.8284 10.939 16.9556 11.0521 15.9944L11.568 11.6093C12.1232 6.8898 16.123 3.33301 20.875 3.33301C25.627 3.33301 29.6268 6.88981 30.182 11.6093L30.6979 15.9944C30.811 16.9556 31.3133 17.8284 32.0875 18.4091C33.4226 19.4104 34.2083 20.9818 34.2083 22.6507V25.833C34.2083 26.3576 33.9581 26.8465 33.4877 27.0786C32.0484 27.7885 28.2988 29.1663 20.875 29.1663C13.4511 29.1663 9.70153 27.7885 8.2623 27.0786C7.79183 26.8465 7.54166 26.3576 7.54166 25.833V22.6507ZM25.0417 34.9997C22.7405 34.9997 20.875 33.1342 20.875 30.833C24.3386 30.833 27.0564 30.5411 29.1515 30.1435C29.1889 30.3678 29.2083 30.5981 29.2083 30.833C29.2083 33.1342 27.3428 34.9997 25.0417 34.9997Z" fill="#9E2A9C"/>
</g>
<defs>
<clipPath id="clip0_2187_1332">
<rect width="40" height="40" fill="white" transform="translate(0.875)"/>
</clipPath>
</defs>
</svg>
