<svg width="21" height="21" viewBox="0 0 21 21" fill="none" xmlns="http://www.w3.org/2000/svg">
<g id="Edit Square">
<path id="Fill 1" fill-rule="evenodd" clip-rule="evenodd" d="M14.577 20.3687H5.753C2.312 20.3687 0 17.9537 0 14.3597V6.04574C0 2.45174 2.312 0.0367432 5.753 0.0367432H9.492C9.906 0.0367432 10.242 0.372743 10.242 0.786743C10.242 1.20074 9.906 1.53674 9.492 1.53674H5.753C3.169 1.53674 1.5 3.30674 1.5 6.04574V14.3597C1.5 17.0987 3.169 18.8687 5.753 18.8687H14.577C17.161 18.8687 18.831 17.0987 18.831 14.3597V10.3317C18.831 9.91774 19.167 9.58174 19.581 9.58174C19.995 9.58174 20.331 9.91774 20.331 10.3317V14.3597C20.331 17.9537 18.018 20.3687 14.577 20.3687Z" fill="black"/>
<path id="Fill 3" fill-rule="evenodd" clip-rule="evenodd" d="M6.86762 13.4284H9.84462C10.2246 13.4284 10.5806 13.2814 10.8496 13.0124L18.3586 5.50337C18.6666 5.19537 18.8366 4.78537 18.8366 4.34937C18.8366 3.91237 18.6666 3.50137 18.3586 3.19337L17.1416 1.97637C16.5046 1.34137 15.4686 1.34137 14.8306 1.97637L7.35762 9.44937C7.09862 9.70837 6.95162 10.0524 6.94262 10.4174L6.86762 13.4284ZM9.84462 14.9284H6.09862C5.89662 14.9284 5.70262 14.8464 5.56162 14.7014C5.42062 14.5574 5.34362 14.3624 5.34862 14.1594L5.44262 10.3804C5.46162 9.62837 5.76462 8.92137 6.29662 8.38837H6.29762L13.7706 0.915366C14.9926 -0.304634 16.9796 -0.304634 18.2016 0.915366L19.4186 2.13237C20.0116 2.72437 20.3376 3.51137 20.3366 4.34937C20.3366 5.18737 20.0106 5.97337 19.4186 6.56437L11.9096 14.0734C11.3586 14.6244 10.6246 14.9284 9.84462 14.9284Z" fill="black"/>
<path id="Fill 5" fill-rule="evenodd" clip-rule="evenodd" d="M17.7308 7.91673C17.5388 7.91673 17.3468 7.84373 17.2008 7.69673L12.6348 3.13073C12.3418 2.83773 12.3418 2.36273 12.6348 2.06973C12.9278 1.77673 13.4018 1.77673 13.6948 2.06973L18.2608 6.63673C18.5538 6.92973 18.5538 7.40373 18.2608 7.69673C18.1148 7.84373 17.9228 7.91673 17.7308 7.91673Z" fill="black"/>
</g>
</svg>
