<svg width="32" height="32" viewBox="0 0 32 32" fill="none" xmlns="http://www.w3.org/2000/svg">
<path fill-rule="evenodd" clip-rule="evenodd" d="M16.6731 12.199C15.4735 10.8139 13.4731 10.4413 11.97 11.7097C10.467 12.978 10.2554 15.0987 11.4357 16.5988C12.167 17.5282 14.0024 19.2256 15.2932 20.3826C15.7673 20.8077 16.0043 21.0202 16.2889 21.1058C16.5329 21.1793 16.8133 21.1793 17.0574 21.1058C17.3419 21.0202 17.5789 20.8077 18.0531 20.3826C19.3438 19.2256 21.1792 17.5282 21.9105 16.5988C23.0908 15.0987 22.905 12.9647 21.3762 11.7097C19.8473 10.4546 17.8727 10.8139 16.6731 12.199Z" fill="#9E2A9C"/>
<path d="M28.0106 15.5999C28.0106 21.8592 22.9365 26.9333 16.6773 26.9333C15.2416 26.9333 13.8683 26.6663 12.6042 26.1793C12.3731 26.0903 12.2575 26.0458 12.1656 26.0246C12.0752 26.0037 12.0098 25.995 11.9171 25.9915C11.8229 25.9879 11.7195 25.9986 11.5127 26.02L4.6847 26.7258C4.03371 26.7931 3.70822 26.8267 3.51621 26.7096C3.34898 26.6076 3.23507 26.4372 3.20475 26.2436C3.16994 26.0214 3.32548 25.7335 3.63656 25.1577L5.81744 21.121C5.99704 20.7886 6.08685 20.6224 6.12752 20.4625C6.16769 20.3047 6.1774 20.1909 6.16455 20.0285C6.15154 19.8641 6.07941 19.6501 5.93514 19.2221C5.55178 18.0847 5.34398 16.8666 5.34398 15.5999C5.34398 9.34071 10.4181 4.2666 16.6773 4.2666C22.9365 4.2666 28.0106 9.34071 28.0106 15.5999Z" stroke="#9E2A9C" stroke-width="2" stroke-linecap="round" stroke-linejoin="round"/>
<path fill-rule="evenodd" clip-rule="evenodd" d="M16.6731 12.199C15.4735 10.8139 13.4731 10.4413 11.97 11.7097C10.467 12.978 10.2554 15.0987 11.4357 16.5988C12.167 17.5282 14.0024 19.2256 15.2932 20.3826C15.7673 20.8077 16.0043 21.0202 16.2889 21.1058C16.5329 21.1793 16.8133 21.1793 17.0574 21.1058C17.3419 21.0202 17.5789 20.8077 18.0531 20.3826C19.3438 19.2256 21.1792 17.5282 21.9105 16.5988C23.0908 15.0987 22.905 12.9647 21.3762 11.7097C19.8473 10.4546 17.8727 10.8139 16.6731 12.199Z" stroke="#9E2A9C" stroke-width="1.8" stroke-linecap="round" stroke-linejoin="round"/>
</svg>
