<svg width="32" height="32" viewBox="0 0 32 32" fill="none" xmlns="http://www.w3.org/2000/svg">
<path fill-rule="evenodd" clip-rule="evenodd" d="M23.9211 4.79935C24.0953 4.79935 24.2228 4.96384 24.1726 5.13068C23.1155 8.64123 19.8557 11.1993 16.0002 11.1993C12.1447 11.1993 8.88481 8.64123 7.82772 5.13068C7.77748 4.96384 7.90498 4.79935 8.07922 4.79935H23.9211ZM26.6217 3.65403C26.1232 9.08189 21.5581 13.3327 16.0002 13.3327C10.4422 13.3327 5.87716 9.08189 5.37864 3.65403C5.53078 3.08505 6.04987 2.66602 6.66682 2.66602H25.3335C25.9504 2.66602 26.4695 3.08505 26.6217 3.65403ZM24.5335 11.1029C25.3843 10.2424 26.1059 9.2537 26.6668 8.16846V27.9994C26.6668 28.7357 26.0699 29.3327 25.3335 29.3327H6.66683C5.93045 29.3327 5.3335 28.7357 5.3335 27.9994V8.16848C5.8944 9.25372 6.616 10.2424 7.46683 11.1029V26.7994C7.46683 27.0203 7.64592 27.1994 7.86683 27.1994H24.1335C24.3544 27.1994 24.5335 27.0203 24.5335 26.7994V11.1029Z" fill="#4E444B"/>
</svg>
