<svg width="32" height="32" viewBox="0 0 32 32" fill="none" xmlns="http://www.w3.org/2000/svg">
<path d="M5.33301 25.3307V22.6641H7.99967V13.3307C7.99967 11.4863 8.55523 9.84717 9.66634 8.4134C10.7775 6.98051 12.2219 6.04184 13.9997 5.5974V4.66406C13.9997 4.10851 14.1943 3.63651 14.5837 3.24806C14.9721 2.85873 15.4441 2.66406 15.9997 2.66406C16.5552 2.66406 17.0272 2.85873 17.4157 3.24806C17.805 3.63651 17.9997 4.10851 17.9997 4.66406V5.5974C19.7775 6.04184 21.2219 6.98051 22.333 8.4134C23.4441 9.84717 23.9997 11.4863 23.9997 13.3307V22.6641H26.6663V25.3307H5.33301ZM15.9997 29.3307C15.2663 29.3307 14.6388 29.0698 14.117 28.5481C13.5943 28.0254 13.333 27.3974 13.333 26.6641H18.6663C18.6663 27.3974 18.4055 28.0254 17.8837 28.5481C17.361 29.0698 16.733 29.3307 15.9997 29.3307ZM10.6663 22.6641H21.333V13.3307C21.333 11.8641 20.8108 10.6085 19.7663 9.56406C18.7219 8.51962 17.4663 7.9974 15.9997 7.9974C14.533 7.9974 13.2775 8.51962 12.233 9.56406C11.1886 10.6085 10.6663 11.8641 10.6663 13.3307V22.6641Z" fill="#4E444B"/>
</svg>
