<svg width="22" height="22" viewBox="0 0 22 22" fill="none" xmlns="http://www.w3.org/2000/svg">
<g id="Iconly/Regular/Light/Home">
<g id="Home">
<path id="Home_2" d="M8.39419 19.0406V16.2294C8.39418 15.5144 8.97711 14.9334 9.69934 14.9286H12.3449C13.0706 14.9286 13.6589 15.511 13.6589 16.2294V16.2294V19.0493C13.6587 19.6564 14.1481 20.1526 14.7612 20.1668H16.5249C18.2831 20.1668 19.7084 18.7558 19.7084 17.0151V17.0151V9.01815C19.699 8.33339 19.3743 7.69037 18.8266 7.27208L12.7947 2.46166C11.7379 1.62407 10.2358 1.62407 9.17905 2.46166L3.1736 7.28081C2.62382 7.6974 2.29852 8.34149 2.29175 9.02688V17.0151C2.29175 18.7558 3.71705 20.1668 5.47525 20.1668H7.23896C7.86724 20.1668 8.37656 19.6626 8.37656 19.0406V19.0406" stroke="#9E2A9C" stroke-width="1.8" stroke-linecap="round" stroke-linejoin="round"/>
</g>
</g>
</svg>
