<svg width="20" height="20" viewBox="0 0 20 20" fill="none" xmlns="http://www.w3.org/2000/svg">
<path fill-rule="evenodd" clip-rule="evenodd" d="M1.75 4.95846C1.75 2.55201 1.77577 1.75012 4.95833 1.75012C8.1409 1.75012 8.16667 2.55201 8.16667 4.95846C8.16667 7.3649 8.17682 8.16679 4.95833 8.16679C1.73985 8.16679 1.75 7.3649 1.75 4.95846Z" stroke="#4E444B" stroke-width="1.6" stroke-linecap="round" stroke-linejoin="round"/>
<path fill-rule="evenodd" clip-rule="evenodd" d="M11.8333 4.95846C11.8333 2.55201 11.859 1.75012 15.0416 1.75012C18.2242 1.75012 18.2499 2.55201 18.2499 4.95846C18.2499 7.3649 18.2601 8.16679 15.0416 8.16679C11.8231 8.16679 11.8333 7.3649 11.8333 4.95846Z" stroke="#4E444B" stroke-width="1.6" stroke-linecap="round" stroke-linejoin="round"/>
<path fill-rule="evenodd" clip-rule="evenodd" d="M1.75 15.0418C1.75 12.6354 1.77577 11.8335 4.95833 11.8335C8.1409 11.8335 8.16667 12.6354 8.16667 15.0418C8.16667 17.4482 8.17682 18.2501 4.95833 18.2501C1.73985 18.2501 1.75 17.4482 1.75 15.0418Z" stroke="#4E444B" stroke-width="1.6" stroke-linecap="round" stroke-linejoin="round"/>
<path fill-rule="evenodd" clip-rule="evenodd" d="M11.8333 15.0418C11.8333 12.6354 11.859 11.8335 15.0416 11.8335C18.2242 11.8335 18.2499 12.6354 18.2499 15.0418C18.2499 17.4482 18.2601 18.2501 15.0416 18.2501C11.8231 18.2501 11.8333 17.4482 11.8333 15.0418Z" stroke="#4E444B" stroke-width="1.6" stroke-linecap="round" stroke-linejoin="round"/>
</svg>
