<svg width="24" height="24" viewBox="0 0 24 24" fill="none" xmlns="http://www.w3.org/2000/svg">
<path fill-rule="evenodd" clip-rule="evenodd" d="M8.96381 9.61924L11.9076 2.99568C12.1767 2.39021 12.7771 2 13.4397 2C14.8718 2 15.9718 3.26836 15.7693 4.68603L15.153 9H18.79C20.5649 9 21.9517 10.5325 21.7751 12.2985L21.1751 18.2985C21.0218 19.8321 19.7313 21 18.19 21H11C10.2256 21 9.51974 20.7066 8.98751 20.2249C8 19.5 7.99978 18.5 8.00001 18C8.00024 17.5 8.00027 13.5 8.00001 11.7878C7.99995 11.5 8.50001 10.5 8.96381 9.61924ZM4 9C3.44772 9 3 9.44771 3 10V20C3 20.5523 3.44772 21 4 21H6C6.55228 21 7 20.5523 7 20V10C7 9.44771 6.55228 9 6 9H4Z" fill="#2F80ED"/>
</svg>
