<svg width="158" height="64" viewBox="0 0 158 64" fill="none" xmlns="http://www.w3.org/2000/svg">
<path d="M39.8946 47.0832C39.6339 47.2246 37.9978 47.8873 34.9864 49.0713C31.962 50.2624 28.4729 51.728 24.519 53.4681C20.5521 55.2153 18.3299 56.166 17.8523 56.3202C17.3717 56.4611 16.9514 56.4493 16.5916 56.285C16.2286 56.1073 15.968 55.672 15.8097 54.9789C15.7092 54.539 15.8018 54.0468 16.0877 53.5023C16.3735 52.9578 16.7315 52.5688 17.1617 52.3355C17.7222 52.0315 18.6621 51.6565 19.9814 51.2105C21.7944 50.6166 25.4298 49.214 30.8876 47.0027C36.3424 44.778 39.4218 43.4747 40.1257 43.0929C40.582 42.8454 40.8796 42.6091 41.0186 42.3838C41.1415 42.1524 41.1589 41.8434 41.0705 41.4569C40.9274 40.8304 40.4004 39.4534 39.4894 37.326C38.9389 36.0067 38.1026 33.4043 36.9804 29.5188C36.7899 28.8132 36.4375 28.0081 35.9232 27.1036C35.8253 26.932 35.7658 26.7995 35.7445 26.7062C35.6287 26.1997 35.7003 25.7115 35.9592 25.2415C36.2181 24.7715 36.5757 24.4127 37.032 24.1653C37.775 23.7622 38.4351 23.7338 39.0123 24.0798C39.5765 24.4329 39.9408 24.9694 40.1053 25.6891C40.1692 25.969 40.2565 26.5434 40.3671 27.4122C40.4938 28.2872 40.6043 28.9314 40.6987 29.3446C41.6915 33.6897 43.314 37.521 45.5664 40.8384C45.9433 41.398 46.1942 41.951 46.319 42.4974C46.4561 43.0972 46.3085 43.7016 45.8762 44.3106C45.4409 44.9063 44.9821 45.3349 44.4997 45.5965C44.213 45.7521 43.5583 45.9648 42.5358 46.2348C41.3377 46.5701 40.4573 46.8529 39.8946 47.0832Z" fill="#4F3FA0"/>
<path d="M15.7263 15.5678C15.9852 15.4257 17.6102 14.7598 20.6012 13.5699C23.6052 12.3728 25.6603 11.4965 29.5873 9.7482C33.5272 7.99277 35.1055 7.29384 35.5799 7.13879C36.0573 6.9971 36.4748 7.0084 36.8324 7.17268C37.1931 7.35031 37.4523 7.78634 37.61 8.48074C37.7101 8.92142 37.6183 9.41477 37.3347 9.96079C37.0511 10.5068 36.6956 10.897 36.2684 11.1313C35.7117 11.4366 34.7782 11.8135 33.4677 12.2619C31.667 12.8591 30.0954 13.4161 24.6745 15.6384C19.2567 17.874 16.1982 19.1835 15.4991 19.5669C15.046 19.8154 14.7504 20.0526 14.6125 20.2785C14.4905 20.5106 14.4735 20.8203 14.5614 21.2075C14.704 21.8352 15.2284 23.2145 16.1347 25.3455C16.6824 26.667 17.5148 29.2741 18.632 33.1667C18.8217 33.8736 19.1723 34.68 19.6838 35.5858C19.7811 35.7577 19.8403 35.8904 19.8616 35.9839C19.9768 36.4913 19.906 36.9807 19.6491 37.452C19.3922 37.9233 19.0371 38.2832 18.584 38.5317C17.8461 38.9365 17.1903 38.9658 16.6166 38.6196C16.0559 38.2664 15.6937 37.7292 15.5299 37.0081C15.4662 36.7276 15.3791 36.1521 15.2687 35.2816C15.1424 34.4048 15.0321 33.7594 14.9381 33.3454C13.9492 28.992 12.335 25.1544 10.0953 21.8324C9.72052 21.272 9.47094 20.7181 9.34657 20.1706C9.21007 19.5697 9.35636 18.9638 9.78543 18.353C10.2175 17.7556 10.6731 17.3256 11.1521 17.0628C11.4369 16.9066 12.0872 16.6926 13.1029 16.4209C14.2929 16.0836 15.1674 15.7992 15.7263 15.5678Z" fill="#941F93"/>
<path d="M152.486 29.5669C150.932 29.5669 149.703 29.9197 148.801 30.6258C147.898 31.324 147.447 32.2682 147.447 33.4583C147.447 34.2437 147.656 34.898 148.073 35.4216C148.498 35.9373 149.013 36.3143 149.62 36.5524C150.226 36.7824 150.826 36.9846 151.417 37.1591C152.016 37.3257 152.524 37.5121 152.941 37.7184C153.366 37.9167 153.578 38.1707 153.578 38.4801C153.578 39.1624 152.994 39.5035 151.826 39.5035C150.416 39.5035 149.059 39.1227 147.754 38.3611L147.754 38.3627C147.676 38.3197 147.599 38.2767 147.534 38.2418C147.199 38.0878 146.898 38.1923 146.634 38.5553C146.369 38.9073 146.209 39.3233 146.153 39.8029C146.096 40.2826 146.207 40.6311 146.485 40.8487C146.538 40.8784 146.598 40.9105 146.663 40.9435H146.662C148.323 41.8559 150.078 42.312 151.929 42.312C153.461 42.312 154.7 41.9393 155.648 41.1935C156.596 40.4478 157.07 39.4561 157.07 38.2185C157.07 37.4172 156.858 36.7585 156.433 36.2429C156.009 35.7192 155.493 35.3465 154.886 35.1244C154.28 34.8943 153.669 34.7039 153.055 34.5532C152.441 34.3945 151.917 34.2199 151.485 34.0295C151.06 33.8312 150.848 33.5692 150.848 33.2439C150.856 32.6092 151.402 32.2919 152.486 32.2919C153.381 32.2919 154.443 32.4944 155.671 32.899L156.558 30.1976C155.087 29.7771 153.73 29.5669 152.486 29.5669L152.486 29.5669Z" fill="#4F3FA0"/>
<path d="M100.024 41.9118C100.024 41.5877 100.256 39.6112 100.721 35.982C101.185 32.3367 101.444 29.8283 101.862 25.0165C102.28 20.1885 102.452 18.2555 102.56 17.6884C102.684 17.1214 102.932 16.6596 103.304 16.3032C103.691 15.9468 104.287 15.7686 105.092 15.7686C105.604 15.7686 106.06 15.9954 106.463 16.449C106.866 16.9027 107.067 17.3968 107.067 17.9314C107.067 18.6281 106.928 19.7622 106.649 21.3337C106.246 23.4885 105.932 25.3782 105.157 31.9722C104.399 38.5662 104.019 42.3006 104.019 43.1755C104.019 43.7425 104.097 44.1314 104.252 44.342C104.422 44.5364 104.732 44.6336 105.181 44.6336C105.909 44.6336 107.627 44.3987 110.338 43.9288C112.01 43.6534 115.169 43.3861 119.815 43.1269C120.651 43.0945 121.681 42.9082 122.904 42.5679C123.137 42.5031 123.307 42.4707 123.415 42.4707C124.004 42.4707 124.469 42.6732 124.809 43.0783C125.15 43.4833 125.32 43.9694 125.32 44.5364C125.32 45.4599 124.98 46.197 124.298 46.7479C123.617 47.2825 122.858 47.5499 122.022 47.5499C121.697 47.5499 121.054 47.5013 120.094 47.4041C119.118 47.323 118.39 47.2825 117.91 47.2825C112.862 47.2825 107.991 48.1088 103.299 49.7614C102.509 50.0368 101.797 50.1745 101.162 50.1745C100.465 50.1745 99.9232 49.8586 99.536 49.2267C99.1643 48.5949 98.9785 47.9792 98.9785 47.3798C98.9785 47.0233 99.1256 46.2456 99.4199 45.0467C99.7451 43.6372 99.9464 42.5922 100.024 41.9118Z" fill="#4F3FA0"/>
<path d="M114.699 42.3596C112.697 42.3596 111.105 41.7646 109.922 40.5746C108.739 39.3766 108.147 37.8534 108.147 36.0049C108.147 34.1484 108.75 32.6212 109.956 31.4233C111.162 30.2174 112.743 29.6144 114.699 29.6144C116.701 29.6144 118.29 30.2174 119.465 31.4233C120.648 32.6212 121.24 34.1445 121.24 35.993C121.24 37.8256 120.637 39.3449 119.431 40.5508C118.233 41.7567 116.656 42.3596 114.699 42.3596ZM112.493 38.5039C113.031 39.1545 113.767 39.4798 114.699 39.4798C115.632 39.4798 116.364 39.1545 116.895 38.5039C117.433 37.8534 117.702 37.0243 117.702 36.0168C117.702 34.9933 117.437 34.1564 116.906 33.5058C116.383 32.8553 115.647 32.53 114.699 32.53C113.751 32.53 113.012 32.8553 112.481 33.5058C111.958 34.1564 111.696 34.9933 111.696 36.0168C111.696 37.0243 111.962 37.8534 112.493 38.5039Z" fill="#4F3FA0"/>
<path d="M126.889 25.2554C126.337 25.2569 125.78 25.3888 125.218 25.6511C124.656 25.9134 124.343 26.2338 124.279 26.6122C124.279 26.6842 124.283 26.7659 124.288 26.8533C124.288 26.8533 124.288 26.8549 124.288 26.8555V29.9475H122.639L122.468 32.7084H124.288V38.3135C124.273 39.678 124.584 40.6777 125.221 41.3124C125.858 41.9392 126.711 42.2524 127.78 42.2524C128.955 42.2524 130.127 42.0422 131.295 41.6217L131.022 39.0157C130.264 39.1268 129.612 39.1822 129.066 39.1822C128.603 39.1822 128.277 39.083 128.087 38.8847C127.898 38.6784 127.803 38.3571 127.803 37.9208V32.7084H131.136L131.329 29.9475H127.803V28.9655C127.81 28.7004 127.813 28.4106 127.81 28.0894C127.817 27.5751 127.816 27.0865 127.808 26.6239C127.807 26.2983 127.804 26.031 127.798 25.822C127.756 25.4356 127.453 25.2468 126.889 25.2554L126.889 25.2554Z" fill="#4F3FA0"/>
<path d="M143.578 28.7882C143.232 28.7957 142.878 28.8533 142.519 28.9606C141.944 29.1323 141.608 29.3995 141.511 29.7622C141.507 29.8183 141.503 29.8814 141.501 29.9475H141.498V30.0312C141.496 30.1437 141.496 30.2684 141.498 30.4064V39.4559C140.77 39.5669 140.126 39.6224 139.564 39.6224C138.601 39.6224 137.915 39.4082 137.506 38.9797C137.096 38.5434 136.891 37.7502 136.891 36.5998C136.884 36.2111 136.99 33.9936 137.21 29.9475H133.695C133.475 33.232 133.365 35.7432 133.365 37.4806C133.365 39.0911 133.847 40.3007 134.81 41.11C135.78 41.9113 137.312 42.3119 139.405 42.3119C141.081 42.3119 142.95 42.0502 145.013 41.5266V29.9475H145.009C145.022 29.79 145.032 29.646 145.039 29.5266C145.032 29.1396 144.751 28.9068 144.196 28.8284C143.992 28.797 143.787 28.7836 143.578 28.7882Z" fill="#4F3FA0"/>
<path d="M64.558 41.9122C64.558 41.5882 64.7903 39.6116 65.2549 35.9824C65.7195 32.3371 66.1608 28.1085 66.5789 23.2967C66.9971 18.4687 67.2603 15.7711 67.3687 15.2041C67.4926 14.637 67.7404 14.1753 68.1121 13.8188C68.4992 13.4624 69.0954 13.2842 69.9007 13.2842C70.4117 13.2842 70.8686 13.511 71.2712 13.9646C71.6739 14.4183 71.8752 14.9124 71.8752 15.4471C71.8752 16.1437 71.7358 17.2778 71.457 18.8494C71.0544 21.0042 70.4659 25.3786 69.6916 31.9726C68.9328 38.5666 68.5534 42.301 68.5534 43.1759C68.5534 43.7429 68.6308 44.1318 68.7857 44.3424C68.956 44.5368 69.2658 44.634 69.7149 44.634C70.4427 44.634 72.1617 44.3991 74.8717 43.9293C76.5442 43.6538 79.7034 43.3865 84.3492 43.1273C85.1854 43.0949 86.2153 42.9086 87.4387 42.5683C87.671 42.5035 87.8413 42.4711 87.9497 42.4711C88.5382 42.4711 89.0028 42.6736 89.3434 43.0787C89.6841 43.4837 89.8545 43.9698 89.8545 44.5368C89.8545 45.4603 89.5138 46.1975 88.8324 46.7483C88.151 47.283 87.3922 47.5503 86.556 47.5503C86.2307 47.5503 85.5881 47.5017 84.6279 47.4045C83.6523 47.3235 82.9245 47.283 82.4444 47.283C77.3959 47.283 72.5256 48.1092 67.8333 49.7618C67.0435 50.0372 66.3312 50.1749 65.6962 50.1749C64.9994 50.1749 64.4573 49.859 64.0702 49.2271C63.6985 48.5953 63.5127 47.9796 63.5127 47.3802C63.5127 47.0237 63.6598 46.2461 63.9541 45.0472C64.2793 43.6376 64.4806 42.5926 64.558 41.9122Z" fill="#941F93"/>
<path d="M76.9532 42.0149H73.4384V29.948H76.9532V42.0149Z" fill="#941F93"/>
<path d="M81.1362 27.9071C80.9624 27.9049 80.7605 27.9991 80.5301 28.1896C80.1255 28.5159 79.7849 28.9442 79.5085 29.4747C79.232 30.0052 79.1679 30.4336 79.3164 30.7601C79.3973 30.8776 79.5068 31.0173 79.641 31.1763L83.1978 35.8746L78.7047 42.0149H82.5949L85.0405 38.433L87.5317 42.0149H91.49L87.0652 35.8982L91.4445 29.9481H87.6226L85.2225 33.3637L82.7767 29.9481L82.7738 29.9496C82.4238 29.4341 82.0513 28.8888 81.9126 28.6928C81.7436 28.4449 81.6027 28.2432 81.4901 28.0875C81.3893 27.9693 81.2713 27.9094 81.1362 27.9078L81.1362 27.9071Z" fill="#941F93"/>
<path d="M96.7225 42.0149H93.2077V29.948H96.7225V42.0149Z" fill="#941F93"/>
<path d="M76.3333 27.7576C76.2219 28.0676 75.9836 28.2628 75.6184 28.343C75.2531 28.4231 74.8959 28.419 74.5465 28.3304C74.194 28.23 73.9909 28.055 73.9371 27.8053C73.8778 27.0771 73.8808 26.3562 73.9461 25.6426C74.0195 24.914 74.096 24.3803 74.1757 24.0415C74.3146 23.6983 74.6385 23.4847 75.1477 23.4009C75.6568 23.317 76.1321 23.3566 76.5736 23.5197C77.0263 23.6795 77.2246 23.9506 77.1685 24.3332C77.1252 24.5351 77.0663 24.7922 76.9916 25.1043C76.8919 25.5499 76.7799 26.018 76.6558 26.5086C76.5429 26.996 76.4354 27.4123 76.3333 27.7576Z" fill="#941F93"/>
<path d="M96.7685 27.2032C96.8207 27.5299 96.7081 27.8238 96.4306 28.0848C96.153 28.3458 95.8419 28.5296 95.4972 28.6363C95.1441 28.7344 94.8845 28.6895 94.7182 28.5017C94.3179 27.9028 93.9749 27.2776 93.6893 26.6259C93.4036 25.9571 93.214 25.4552 93.1205 25.1203C93.0761 24.7504 93.254 24.3957 93.6543 24.056C94.0546 23.7163 94.4848 23.5012 94.9449 23.4107C95.4132 23.3114 95.7147 23.442 95.8496 23.8023C95.9089 23.9998 95.9811 24.2531 96.0662 24.5623C96.1935 25.0002 96.321 25.4639 96.4488 25.9535C96.5847 26.4344 96.6913 26.851 96.7685 27.2032Z" fill="#941F93"/>
</svg>
