<svg width="48" height="48" viewBox="0 0 48 48" fill="none" xmlns="http://www.w3.org/2000/svg">
<g clip-path="url(#clip0_1943_37777)">
<path d="M34.9035 35.7492C34.6974 35.8431 33.3715 36.2565 30.9259 36.9893C28.47 37.7268 25.6498 38.6493 22.4653 39.7566C19.2706 40.8687 17.4769 41.4697 17.0842 41.5597C16.687 41.639 16.3204 41.6028 15.9844 41.4511C15.6438 41.2887 15.3552 40.9313 15.1185 40.3789C14.9683 40.0283 14.9783 39.6491 15.1486 39.2415C15.3189 38.8338 15.5741 38.5525 15.9143 38.3976C16.3576 38.1957 17.1201 37.9627 18.2019 37.6986C19.6913 37.3505 22.6475 36.4867 27.0705 35.1073C31.489 33.7173 33.9766 32.8955 34.5333 32.642C34.894 32.4777 35.1187 32.3119 35.2072 32.1446C35.2808 31.9714 35.2516 31.7308 35.1196 31.4227C34.9057 30.9233 34.251 29.8121 33.1555 28.089C32.4887 27.0214 31.3901 24.9315 29.8596 21.8193C29.5932 21.255 29.172 20.6024 28.5959 19.8617C28.4864 19.7211 28.4157 19.6136 28.3839 19.5393C28.2109 19.1355 28.2032 18.7581 28.3608 18.407C28.5183 18.0559 28.7775 17.7982 29.1383 17.6339C29.7259 17.3663 30.295 17.3865 30.8458 17.6943C31.3862 18.0069 31.7794 18.45 32.0252 19.0237C32.1207 19.2468 32.2787 19.7018 32.4991 20.3887C32.7343 21.0815 32.9224 21.5926 33.0635 21.922C34.5474 25.3855 36.5046 28.4874 38.9352 31.2277C39.3426 31.6898 39.6396 32.1386 39.8262 32.5742C40.031 33.0523 39.9893 33.5157 39.7011 33.9644C39.4083 34.4024 39.0712 34.7083 38.6898 34.882C38.463 34.9853 37.925 35.1097 37.0757 35.2552C36.0833 35.4405 35.3592 35.6052 34.9035 35.7492Z" fill="#4F3FA0"/>
<path d="M13.2065 11.2892C13.4127 11.1953 14.7386 10.782 17.1842 10.0491C19.6401 9.31163 21.3121 8.76227 24.4965 7.65487C27.6912 6.54279 28.9717 6.10063 29.3643 6.01069C29.7615 5.93138 30.1281 5.96758 30.4641 6.11929C30.8047 6.28162 31.0933 6.63902 31.33 7.19149C31.4802 7.54209 31.4702 7.92123 31.2999 8.32891C31.1296 8.73659 30.8744 9.01788 30.5342 9.1728C30.091 9.37466 29.3284 9.60765 28.2466 9.87178C26.7573 10.2199 25.4625 10.5517 21.0395 11.9311C16.621 13.3212 14.1335 14.143 13.5768 14.3965C13.216 14.5608 12.9914 14.7266 12.9029 14.8938C12.8293 15.067 12.8585 15.3077 12.9905 15.6158C13.2044 16.1151 13.8591 17.2264 14.9546 18.9495C15.6214 20.0171 16.72 22.107 18.2504 25.2192C18.5168 25.7836 18.9381 26.4361 19.5141 27.1768C19.6236 27.3174 19.6943 27.4249 19.7262 27.4993C19.8991 27.903 19.9068 28.2804 19.7493 28.6315C19.5917 28.9826 19.3325 29.2403 18.9717 29.4046C18.3842 29.6722 17.815 29.652 17.2643 29.3442C16.7238 29.0316 16.3307 28.5885 16.0849 28.0148C15.9893 27.7917 15.8313 27.3367 15.611 26.6498C15.3758 25.957 15.1876 25.4459 15.0465 25.1166C13.5627 21.653 11.6055 18.5511 9.17488 15.8107C8.76751 15.3487 8.47051 14.8999 8.28389 14.4643C8.07907 13.9862 8.12077 13.5228 8.409 13.0741C8.70178 12.636 9.03887 12.3301 9.42028 12.1564C9.64706 12.0532 10.1851 11.9288 11.0344 11.7832C12.0268 11.5979 12.7508 11.4333 13.2065 11.2892Z" fill="#941F93"/>
</g>
<defs>
<clipPath id="clip0_1943_37777">
<rect width="47.9999" height="48.0002" fill="white"/>
</clipPath>
</defs>
</svg>
