<?xml version="1.0" encoding="UTF-8"?>
<svg fill="none" viewBox="0 0 1713 1724" xmlns="http://www.w3.org/2000/svg">
<path d="m1705.1 261.28h-879.91v1431.8h879.91v-1431.8z" fill="#281A6B"/>
<g filter="url(#f)">
<path d="m1704.1 261.28c0 62.483-20.31 123.87-58.88 177.98-38.57 54.112-94.04 99.047-160.85 130.29-66.8 31.241-142.59 47.689-219.73 47.689s-152.92-16.448-219.73-47.689c-66.801-31.242-122.28-76.177-160.85-130.29-38.571-54.112-58.876-115.49-58.876-177.98" clip-rule="evenodd" fill="#392985" fill-rule="evenodd"/>
<path d="m1704.1 261.28c0 62.483-20.31 123.87-58.88 177.98-38.57 54.112-94.04 99.047-160.85 130.29-66.8 31.241-142.59 47.689-219.73 47.689s-152.92-16.448-219.73-47.689c-66.801-31.242-122.28-76.177-160.85-130.29-38.571-54.112-58.876-115.49-58.876-177.98" stroke="#FFF000" stroke-linecap="square" stroke-linejoin="bevel" stroke-width=".05"/>
</g>
<path d="m1252.3 697.49c45.02 0 81.51-36.492 81.51-81.507s-36.49-81.507-81.51-81.507-81.51 36.492-81.51 81.507 36.49 81.507 81.51 81.507z" fill="#fff" fill-opacity=".6" stroke="#fff" stroke-linecap="round" stroke-width=".5"/>
<path d="m1213 662.12c-3.63-2.769-6.98-5.916-9.98-9.355-3.01-3.451-5.68-7.217-7.93-11.192-4.66-8.236-7.5-17.194-8.43-26.625 0.04 0.01 4.85 1.045 11.95 3.737 3.53 12.658 8.99 23.646 16.23 32.66-1.93 4.071-2.55 7.696-1.84 10.775z" fill="#6D3EA2"/>
<path d="m1213 662.12c-3.63-2.769-6.98-5.916-9.98-9.355-3.01-3.451-5.68-7.217-7.93-11.192-4.66-8.236-7.5-17.194-8.43-26.625 0.04 0.01 4.87 1.052 11.95 3.737 3.53 12.658 8.99 23.646 16.23 32.66-1.93 4.071-2.55 7.697-1.84 10.775z" fill="#6D3EA2"/>
<path d="m1213 662.12c-3.63-2.769-6.98-5.916-9.98-9.355-3.01-3.451-5.68-7.217-7.93-11.192-4.66-8.236-7.5-17.194-8.43-26.625 0.04 0.01 4.87 1.052 11.95 3.737 3.53 12.658 8.99 23.646 16.23 32.66-1.93 4.071-2.55 7.697-1.84 10.775z" fill="#6D3EA2"/>
<path d="m1214.8 651.34c-8.21-10.213-13.21-21.81-16.23-32.66-7.16-2.717-11.95-3.737-11.95-3.737 1.9 19.212 11.81 36.065 26.34 47.172-0.76-3.29 0.03-6.961 1.84-10.775z" fill="#6D3EA2"/>
<path d="m1295.2 662.12c0.7-3.079 0.08-6.704-1.84-10.776 7.24-9.014 12.7-20.002 16.22-32.66 7.1-2.692 11.91-3.727 11.96-3.737-0.94 9.431-3.78 18.389-8.44 26.625-2.25 3.976-4.92 7.742-7.93 11.193-3 3.438-6.35 6.586-9.97 9.355z" fill="#6D3EA2"/>
<path d="m1295.2 662.12c0.7-3.079 0.08-6.704-1.84-10.776 7.24-9.014 12.7-20.002 16.22-32.66 7.08-2.685 11.91-3.727 11.96-3.737-0.94 9.431-3.78 18.389-8.44 26.625-2.25 3.976-4.92 7.742-7.93 11.193-3 3.438-6.35 6.586-9.97 9.355z" fill="#6D3EA2"/>
<path d="m1295.2 662.12c0.7-3.079 0.08-6.704-1.84-10.776 7.24-9.014 12.7-20.002 16.22-32.66 7.08-2.685 11.91-3.727 11.96-3.737-0.94 9.431-3.78 18.389-8.44 26.625-2.25 3.976-4.92 7.742-7.93 11.193-3 3.438-6.35 6.586-9.97 9.355z" fill="#6D3EA2"/>
<path d="m1321.5 614.94s-4.78 1.02-11.95 3.737c-3.02 10.85-8.02 22.448-16.22 32.66 1.8 3.814 2.59 7.486 1.84 10.776 14.52-11.108 24.43-27.96 26.33-47.173z" fill="#6D3EA2"/>
<path d="m1243.5 675.18c-10.98-1.698-21.52-6.213-30.46-13.059-0.71-3.079-0.09-6.704 1.84-10.776 0.68 0.849 1.3 1.592 1.89 2.271 5.36 6.165 10.55 11.19 15.43 14.936 3.98 3.06 7.78 5.29 11.3 6.628z" fill="#4F3FA0"/>
<path d="m1243.5 675.18c-10.98-1.698-21.52-6.213-30.46-13.059-0.71-3.078-0.09-6.704 1.84-10.776 0.68 0.85 1.3 1.593 1.89 2.271 5.36 6.165 10.55 11.19 15.43 14.936 3.98 3.061 7.78 5.29 11.3 6.628z" fill="#4F3FA0"/>
<path d="m1243.5 675.18c-10.98-1.698-21.52-6.213-30.46-13.059-0.71-3.078-0.09-6.704 1.84-10.776 0.68 0.85 1.3 1.593 1.89 2.271 5.36 6.165 10.55 11.19 15.43 14.936 3.98 3.061 7.78 5.29 11.3 6.628z" fill="#4F3FA0"/>
<path d="m1216.7 653.61c-0.65-0.748-1.27-1.507-1.89-2.271-1.8 3.815-2.59 7.486-1.84 10.776 8.87 6.784 19.43 11.353 30.46 13.059-6.17-2.35-15.05-8.136-26.73-21.564z" fill="#4F3FA0"/>
<path d="m1227.5 634.59c-10.63-8.124-21.58-13.135-28.89-15.909-3.01-10.81-4.34-21.195-4.92-28.004-0.63-7.363-0.55-12.259-0.55-12.308 0.05 0.025 4.89 2.636 11.71 7.102 6.31 4.13 15.66 10.744 24.38 18.802-2.6 10.693-3.17 20.889-1.72 30.304l-0.01 0.013z" fill="#EE1F9A"/>
<path d="m1227.5 634.59c-10.63-8.124-21.58-13.135-28.89-15.909-3.01-10.81-4.34-21.195-4.92-28.004-0.63-7.377-0.55-12.259-0.55-12.308 0.05 0.025 4.88 2.628 11.71 7.102 6.31 4.13 15.66 10.744 24.38 18.802-2.6 10.694-3.17 20.89-1.72 30.304l-0.01 0.013z" fill="#EE1F9A"/>
<path d="m1227.5 634.59c-10.63-8.124-21.58-13.135-28.89-15.909-3.01-10.81-4.34-21.195-4.92-28.004-0.63-7.377-0.55-12.259-0.55-12.308 0.05 0.025 4.88 2.628 11.71 7.102 6.31 4.13 15.66 10.744 24.38 18.802-2.6 10.694-3.17 20.89-1.72 30.304l-0.01 0.013z" fill="#EE1F9A"/>
<path d="m1227.5 634.58c-1.6-10.339-0.62-20.665 1.72-30.304-16.88-15.599-36.09-25.904-36.09-25.904s-0.36 19.385 5.47 40.312c7.84 2.972 18.51 7.98 28.89 15.909 0-4e-3 0.01-8e-3 0.01-0.013z" fill="#EE1F9A"/>
<path d="m1227.5 634.59 0.01-7e-3 0.01 0.02-0.02-0.013z" fill="#EE1F9A"/>
<path d="m1227.5 634.59 0.01-7e-3 0.01 0.02-0.02-0.013z" fill="#EE1F9A"/>
<path d="m1227.5 634.59 0.01-7e-3 0.01 0.02-0.02-0.013z" fill="#EE1F9A"/>
<path d="m1227.5 634.59c0 5e-3 0.01 9e-3 0.02 0.013-0.01-8e-3 -0.01-0.018-0.01-0.027 0 5e-3 -0.01 9e-3 -0.01 0.014z" fill="#EE1F9A"/>
<path d="m1280.7 634.58c1.45-9.415 0.88-19.611-1.72-30.304 8.72-8.058 18.07-14.673 24.38-18.802 6.82-4.467 11.66-7.077 11.71-7.103 0 0.049 0.08 4.946-0.55 12.309-0.58 6.808-1.91 17.194-4.92 28.003-7.31 2.774-18.26 7.786-28.89 15.91l-0.01-0.013z" fill="#EE1F9A"/>
<path d="m1280.7 634.58c1.45-9.415 0.88-19.611-1.72-30.304 8.72-8.058 18.07-14.673 24.38-18.802 6.83-4.474 11.66-7.077 11.71-7.103 0 0.049 0.08 4.932-0.55 12.309-0.58 6.808-1.91 17.194-4.92 28.003-7.31 2.774-18.26 7.786-28.89 15.91l-0.01-0.013z" fill="#EE1F9A"/>
<path d="m1280.7 634.58c1.45-9.415 0.88-19.611-1.72-30.304 8.72-8.058 18.07-14.673 24.38-18.802 6.83-4.474 11.66-7.077 11.71-7.103 0 0.049 0.08 4.932-0.55 12.309-0.58 6.808-1.91 17.194-4.92 28.003-7.31 2.774-18.26 7.786-28.89 15.91l-0.01-0.013z" fill="#EE1F9A"/>
<path d="m1280.7 634.58c0.01 4e-3 0.01 8e-3 0.01 0.013 10.38-7.93 21.05-12.937 28.89-15.91 5.83-20.926 5.47-40.312 5.47-40.312s-19.21 10.306-36.09 25.905c2.34 9.639 3.32 19.964 1.72 30.304z" fill="#EE1F9A"/>
<path d="m1280.7 634.58 0.02 0.011-0.02 0.015v-0.026z" fill="#EE1F9A"/>
<path d="m1280.7 634.58 0.02 0.011-0.02 0.015v-0.026z" fill="#EE1F9A"/>
<path d="m1280.7 634.58 0.02 0.011-0.02 0.015v-0.026z" fill="#EE1F9A"/>
<path d="m1280.7 634.6c0-4e-3 0.01-8e-3 0.01-0.013s0-9e-3 -0.01-0.013v0.026z" fill="#EE1F9A"/>
<path d="m1252.8 675.97c-0.11 0-0.21-1e-3 -0.32-3e-3 -3.02-0.059-5.74-0.279-8.32-0.672-0.25-0.037-0.5-0.076-0.75-0.115-3.51-1.337-7.31-3.567-11.29-6.627-4.88-3.746-10.07-8.771-15.43-14.937-0.59-0.679-1.21-1.421-1.89-2.27 2.33-4.93 6.59-10.566 12.66-16.751l0.01 0.013c0.17 1.088 0.33 1.993 0.5 2.85 2.93 14.497 7.5 25.203 13.6 31.82 4.8 5.22 9.23 6.434 11.43 6.694l-0.2-2e-3z" fill="#5C2586"/>
<path d="m1252.8 675.97c-0.11 0-0.21-1e-3 -0.32-3e-3 -3.02-0.059-5.74-0.279-8.32-0.672-0.25-0.037-0.5-0.076-0.75-0.115-3.51-1.337-7.31-3.567-11.29-6.627-4.88-3.746-10.07-8.771-15.43-14.937-0.59-0.678-1.21-1.421-1.89-2.27 2.33-4.93 6.59-10.566 12.66-16.751l0.01 0.013c0.17 1.088 0.33 1.993 0.5 2.85 2.93 14.497 7.5 25.203 13.6 31.82 4.8 5.22 9.23 6.434 11.43 6.694l-0.2-2e-3z" fill="#5C2586"/>
<path d="m1252.8 675.97c-0.11 0-0.21-1e-3 -0.32-3e-3 -3.02-0.059-5.74-0.279-8.32-0.672-0.25-0.037-0.5-0.076-0.75-0.115-3.51-1.337-7.31-3.567-11.29-6.627-4.88-3.746-10.07-8.771-15.43-14.937-0.59-0.678-1.21-1.421-1.89-2.27 2.33-4.93 6.59-10.566 12.66-16.751l0.01 0.013c0.17 1.088 0.33 1.993 0.5 2.85 2.93 14.497 7.5 25.203 13.6 31.82 4.8 5.22 9.23 6.434 11.43 6.694l-0.2-2e-3z" fill="#5C2586"/>
<path d="m1228 637.45c-0.19-0.95-0.35-1.9-0.5-2.85 0-4e-3 -0.01-8e-3 -0.01-0.013-5.31 5.411-10.05 11.231-12.66 16.751 0.61 0.763 1.24 1.522 1.89 2.27 11.67 13.428 20.55 19.215 26.72 21.564 0.25 0.039 0.5 0.078 0.75 0.115 2.76 0.421 5.53 0.617 8.32 0.672 0.17 3e-3 0.35 3e-3 0.52 5e-3 -3.97-0.467-18.18-4.544-25.03-38.514z" fill="#5C2586"/>
<path d="m1255.2 675.97c2.21-0.26 6.63-1.474 11.44-6.694 6.09-6.617 10.67-17.323 13.59-31.82 0.17-0.858 0.33-1.763 0.5-2.85l0.02-0.013c6.07 6.185 10.33 11.821 12.66 16.751-0.69 0.849-1.3 1.592-1.89 2.27-5.36 6.166-10.56 11.191-15.43 14.937-3.99 3.06-7.79 5.29-11.3 6.627-0.25 0.039-0.5 0.078-0.75 0.115-2.58 0.393-5.3 0.613-8.32 0.672-0.1 2e-3 -0.21 3e-3 -0.32 3e-3l-0.2 2e-3z" fill="#5C2586"/>
<path d="m1255.2 675.97c2.21-0.26 6.63-1.474 11.44-6.694 6.09-6.617 10.67-17.323 13.59-31.82 0.17-0.857 0.33-1.762 0.5-2.85l0.02-0.013c6.07 6.185 10.33 11.821 12.66 16.751-0.69 0.849-1.3 1.592-1.89 2.27-5.36 6.166-10.56 11.191-15.43 14.937-3.99 3.06-7.79 5.29-11.3 6.627-0.25 0.039-0.5 0.078-0.75 0.115-2.58 0.393-5.3 0.613-8.32 0.672-0.1 2e-3 -0.21 3e-3 -0.32 3e-3l-0.2 2e-3z" fill="#5C2586"/>
<path d="m1255.2 675.97c2.21-0.26 6.63-1.474 11.44-6.694 6.09-6.617 10.67-17.323 13.59-31.82 0.17-0.857 0.33-1.762 0.5-2.85l0.02-0.013c6.07 6.185 10.33 11.821 12.66 16.751-0.69 0.849-1.3 1.592-1.89 2.27-5.36 6.166-10.56 11.191-15.43 14.937-3.99 3.06-7.79 5.29-11.3 6.627-0.25 0.039-0.5 0.078-0.75 0.115-2.58 0.393-5.3 0.613-8.32 0.672-0.1 2e-3 -0.21 3e-3 -0.32 3e-3l-0.2 2e-3z" fill="#5C2586"/>
<path d="m1280.2 637.45c0.19-0.95 0.35-1.9 0.5-2.85 0.01-4e-3 0.01-8e-3 0.02-0.013 5.31 5.411 10.05 11.231 12.66 16.751-0.62 0.763-1.24 1.522-1.89 2.27-11.68 13.428-20.56 19.215-26.73 21.564-0.25 0.039-0.5 0.078-0.75 0.115-2.76 0.421-5.52 0.617-8.32 0.672-0.17 3e-3 -0.35 3e-3 -0.52 5e-3 3.98-0.467 18.18-4.544 25.03-38.514z" fill="#5C2586"/>
<path d="m1264.5 620.18c-5.91-4.691-10.34-7.723-10.39-7.753-0.03 0.022-3.36 2.303-8.04 5.912-0.78 0.607-1.57 1.227-2.35 1.841-4-5.377-8.87-10.73-14.48-15.91 1.54-6.358 3.81-12.943 6.74-19.572 2.34-5.303 5.11-10.646 8.23-15.88 5.31-8.903 9.86-14.489 9.9-14.545 0.05 0.056 4.6 5.645 9.9 14.546 3.13 5.233 5.9 10.576 8.24 15.879 2.93 6.629 5.2 13.214 6.74 19.572-5.61 5.18-10.48 10.533-14.49 15.91z" fill="#EE1F9A"/>
<path d="m1264.5 620.18c-5.89-4.676-10.34-7.723-10.39-7.753-0.03 0.022-3.35 2.295-8.04 5.912-0.78 0.607-1.57 1.226-2.35 1.841-4-5.377-8.87-10.73-14.48-15.91 1.54-6.359 3.81-12.943 6.74-19.572 2.34-5.303 5.11-10.646 8.23-15.88 5.31-8.911 9.86-14.489 9.9-14.545 0.05 0.056 4.59 5.634 9.9 14.546 3.12 5.233 5.89 10.576 8.24 15.879 2.93 6.629 5.2 13.213 6.74 19.572-5.61 5.18-10.48 10.533-14.49 15.91z" fill="#EE1F9A"/>
<path d="m1264.5 620.18c-5.89-4.676-10.34-7.723-10.39-7.753-0.03 0.022-3.35 2.295-8.04 5.912-0.78 0.607-1.57 1.226-2.35 1.841-4-5.377-8.87-10.73-14.48-15.91 1.54-6.359 3.81-12.943 6.74-19.572 2.34-5.303 5.11-10.646 8.23-15.88 5.31-8.911 9.86-14.489 9.9-14.545 0.05 0.056 4.59 5.634 9.9 14.546 3.12 5.233 5.89 10.576 8.24 15.879 2.93 6.629 5.2 13.213 6.74 19.572-5.61 5.18-10.48 10.533-14.49 15.91z" fill="#EE1F9A"/>
<path d="m1243.7 620.18c5.96-4.729 10.39-7.753 10.39-7.753s4.43 3.024 10.39 7.753c4.37-5.859 9.37-11.184 14.49-15.91-6.76-27.875-24.88-49.997-24.88-49.997s-18.11 22.122-24.87 49.997c5.12 4.726 10.12 10.051 14.48 15.91z" fill="#EE1F9A"/>
<path d="m1214.8 651.34c-7.24-9.014-12.7-20.002-16.23-32.66 7.31 2.774 18.26 7.786 28.89 15.909-6.07 6.185-10.33 11.821-12.66 16.751z" fill="#941F93"/>
<path d="m1214.8 651.34c-7.24-9.014-12.7-20.002-16.23-32.66 7.31 2.774 18.26 7.785 28.89 15.909-6.07 6.185-10.33 11.821-12.66 16.751z" fill="#941F93"/>
<path d="m1214.8 651.34c-7.24-9.014-12.7-20.002-16.23-32.66 7.31 2.774 18.26 7.785 28.89 15.909-6.07 6.185-10.33 11.821-12.66 16.751z" fill="#941F93"/>
<path d="m1227.5 634.59c-10.37-7.929-21.05-12.936-28.89-15.909 3.03 10.85 8.03 22.447 16.23 32.66 2.61-5.52 7.35-11.34 12.66-16.751z" fill="#941F93"/>
<path d="m1293.4 651.34c-2.33-4.93-6.58-10.565-12.65-16.75 10.62-8.124 21.57-13.136 28.88-15.91-3.53 12.658-8.98 23.646-16.23 32.66z" fill="#941F93"/>
<path d="m1293.4 651.34c-2.33-4.93-6.58-10.565-12.65-16.75 10.62-8.124 21.57-13.136 28.88-15.91-3.53 12.658-8.98 23.646-16.23 32.66z" fill="#941F93"/>
<path d="m1293.4 651.34c-2.33-4.93-6.58-10.565-12.65-16.75 10.62-8.124 21.57-13.136 28.88-15.91-3.53 12.658-8.98 23.646-16.23 32.66z" fill="#941F93"/>
<path d="m1293.4 651.34c8.21-10.212 13.21-21.81 16.23-32.66-7.83 2.973-18.51 7.98-28.88 15.91 5.3 5.411 10.05 11.231 12.65 16.75z" fill="#941F93"/>
<path d="m1254.1 638.64c-0.21-0.525-0.37-0.931-0.53-1.313-2.34-5.731-5.66-11.5-9.86-17.147 5.91-4.69 10.34-7.723 10.39-7.753 0.04 0.03 4.48 3.065 10.39 7.753-4.21 5.647-7.53 11.416-9.87 17.147-0.15 0.39-0.32 0.807-0.52 1.313z" fill="#941F93"/>
<path d="m1254.1 638.64c-0.21-0.522-0.37-0.927-0.53-1.313-2.34-5.731-5.66-11.5-9.86-17.147 5.89-4.676 10.34-7.723 10.39-7.753 0.04 0.03 4.5 3.077 10.39 7.753-4.21 5.647-7.53 11.416-9.87 17.147-0.15 0.385-0.32 0.802-0.52 1.313z" fill="#941F93"/>
<path d="m1254.1 638.64c-0.21-0.522-0.37-0.927-0.53-1.313-2.34-5.731-5.66-11.5-9.86-17.147 5.89-4.676 10.34-7.723 10.39-7.753 0.04 0.03 4.5 3.077 10.39 7.753-4.21 5.647-7.53 11.416-9.87 17.147-0.15 0.385-0.32 0.802-0.52 1.313z" fill="#941F93"/>
<path d="m1254.1 638.64c0.17-0.433 0.34-0.869 0.52-1.313 2.5-6.116 5.92-11.849 9.87-17.147-5.96-4.729-10.39-7.753-10.39-7.753s-4.43 3.024-10.39 7.753c3.94 5.298 7.36 11.031 9.86 17.147 0.18 0.444 0.36 0.88 0.53 1.313z" fill="#941F93"/>
<path d="m1227.5 634.58c-1.46-9.415-0.88-19.61 1.72-30.303 5.6 5.18 10.47 10.533 14.48 15.91-6.21 4.925-11.66 9.769-16.2 14.393z" fill="#ED1466"/>
<path d="m1227.5 634.58c-1.46-9.414-0.88-19.609 1.72-30.303 5.6 5.18 10.47 10.533 14.48 15.91-6.21 4.925-11.66 9.769-16.2 14.393z" fill="#ED1466"/>
<path d="m1227.5 634.58c-1.46-9.414-0.88-19.609 1.72-30.303 5.6 5.18 10.47 10.533 14.48 15.91-6.21 4.925-11.66 9.769-16.2 14.393z" fill="#ED1466"/>
<path d="m1227.5 634.58c5.36-5.461 11.3-10.504 16.2-14.393-4.36-5.858-9.37-11.184-14.48-15.91-2.34 9.639-3.32 19.964-1.72 30.303z" fill="#ED1466"/>
<path d="m1280.7 634.58c-4.54-4.626-9.99-9.469-16.2-14.395 4-5.376 8.88-10.729 14.48-15.91 2.6 10.694 3.17 20.89 1.72 30.305z" fill="#ED1466"/>
<path d="m1280.7 634.58c-4.54-4.626-9.99-9.469-16.2-14.395 4-5.376 8.88-10.729 14.48-15.91 2.6 10.694 3.17 20.89 1.72 30.305z" fill="#ED1466"/>
<path d="m1280.7 634.58c-4.54-4.626-9.99-9.469-16.2-14.395 4-5.376 8.88-10.729 14.48-15.91 2.6 10.694 3.17 20.89 1.72 30.305z" fill="#ED1466"/>
<path d="m1264.5 620.18c4.9 3.89 10.84 8.933 16.2 14.395 1.6-10.34 0.62-20.666-1.72-30.305-5.11 4.727-10.12 10.052-14.48 15.91z" fill="#ED1466"/>
<path d="m1248.7 657.37c-5.47-8.516-12.61-16.175-21.23-22.764v-0.027c4.54-4.625 9.99-9.468 16.2-14.393 4.2 5.647 7.52 11.416 9.86 17.147 0.16 0.382 0.32 0.788 0.53 1.313-2.8 7.056-4.6 13.356-5.36 18.724z" fill="#951059"/>
<path d="m1248.7 657.37c-5.47-8.516-12.61-16.175-21.23-22.764v-0.027c4.54-4.625 9.99-9.468 16.2-14.393 4.2 5.647 7.52 11.416 9.86 17.147 0.16 0.387 0.32 0.791 0.53 1.313-2.8 7.056-4.6 13.356-5.36 18.724z" fill="#951059"/>
<path d="m1248.7 657.37c-5.47-8.516-12.61-16.175-21.23-22.764v-0.027c4.54-4.625 9.99-9.468 16.2-14.393 4.2 5.647 7.52 11.416 9.86 17.147 0.16 0.387 0.32 0.791 0.53 1.313-2.8 7.056-4.6 13.356-5.36 18.724z" fill="#951059"/>
<path d="m1248.7 657.37c0.69-4.892 2.31-11.031 5.36-18.724-0.17-0.433-0.35-0.869-0.53-1.313-2.5-6.116-5.92-11.848-9.86-17.147-4.91 3.889-10.84 8.932-16.2 14.393v0.027c7.67 5.868 15.17 13.335 21.23 22.764z" fill="#951059"/>
<path d="m1259.5 657.37c-0.76-5.368-2.56-11.668-5.36-18.724 0.21-0.514 0.37-0.931 0.53-1.313 2.34-5.731 5.66-11.5 9.86-17.147 6.21 4.925 11.66 9.768 16.2 14.394v0.026c-8.62 6.589-15.76 14.248-21.23 22.764z" fill="#951059"/>
<path d="m1259.5 657.37c-0.76-5.368-2.56-11.668-5.36-18.724 0.2-0.512 0.37-0.929 0.53-1.313 2.34-5.731 5.66-11.5 9.86-17.147 6.21 4.925 11.66 9.768 16.2 14.394v0.026c-8.62 6.589-15.76 14.248-21.23 22.764z" fill="#951059"/>
<path d="m1259.5 657.37c-0.76-5.368-2.56-11.668-5.36-18.724 0.2-0.512 0.37-0.929 0.53-1.313 2.34-5.731 5.66-11.5 9.86-17.147 6.21 4.925 11.66 9.768 16.2 14.394v0.026c-8.62 6.589-15.76 14.248-21.23 22.764z" fill="#951059"/>
<path d="m1264.5 620.18c-3.94 5.299-7.36 11.031-9.86 17.147-0.18 0.444-0.36 0.88-0.53 1.313 3.05 7.693 4.67 13.832 5.36 18.724 6.06-9.428 13.56-16.896 21.23-22.764v-0.026c-5.36-5.462-11.3-10.505-16.2-14.394z" fill="#951059"/>
<path d="m1254 675.98c-0.23-1e-3 -0.46-4e-3 -0.69-7e-3l-0.3-4e-3c-1.01-0.119-2.64-0.466-4.62-1.438-2.38-1.167-4.68-2.936-6.81-5.256-2.75-2.979-5.22-6.861-7.35-11.536-2.56-5.61-4.66-12.434-6.25-20.284-0.17-0.857-0.33-1.762-0.5-2.85 8.62 6.59 15.76 14.249 21.23 22.765-2.11 15.028 4.52 18.287 5.29 18.61z" fill="#54174D"/>
<path d="m1254 675.98c-0.23-1e-3 -0.46-4e-3 -0.69-7e-3l-0.3-4e-3c-1.01-0.119-2.64-0.466-4.62-1.438-2.38-1.167-4.68-2.936-6.81-5.256-2.75-2.979-5.22-6.861-7.35-11.536-2.56-5.609-4.66-12.434-6.25-20.284-0.17-0.857-0.33-1.762-0.5-2.85 8.62 6.59 15.76 14.249 21.23 22.765-2.11 15.028 4.52 18.287 5.29 18.61z" fill="#54174D"/>
<path d="m1254 675.98c-0.23-1e-3 -0.46-4e-3 -0.69-7e-3l-0.3-4e-3c-1.01-0.119-2.64-0.466-4.62-1.438-2.38-1.167-4.68-2.936-6.81-5.256-2.75-2.979-5.22-6.861-7.35-11.536-2.56-5.609-4.66-12.434-6.25-20.284-0.17-0.857-0.33-1.762-0.5-2.85 8.62 6.59 15.76 14.249 21.23 22.765-2.11 15.028 4.52 18.287 5.29 18.61z" fill="#54174D"/>
<path d="m1248.7 657.37c-6.05-9.428-13.55-16.896-21.23-22.764 0.15 0.95 0.31 1.9 0.5 2.85 6.86 33.97 21.06 38.046 25.03 38.514 0.33 4e-3 0.66 0.01 0.99 0.01-0.78-0.326-7.4-3.587-5.29-18.61z" fill="#54174D"/>
<path d="m1254.2 675.98c0.76-0.323 7.4-3.583 5.28-18.61 5.47-8.516 12.61-16.175 21.23-22.765-0.17 1.091-0.33 1.996-0.5 2.85-1.59 7.851-3.69 14.675-6.25 20.284-2.13 4.675-4.6 8.557-7.35 11.536-2.13 2.32-4.42 4.089-6.81 5.256-1.98 0.972-3.61 1.319-4.62 1.438l-0.3 4e-3c-0.23 3e-3 -0.45 6e-3 -0.68 7e-3z" fill="#54174D"/>
<path d="m1254.2 675.98c0.76-0.323 7.4-3.583 5.28-18.61 5.47-8.516 12.61-16.175 21.23-22.765-0.17 1.09-0.33 1.995-0.5 2.85-1.59 7.85-3.69 14.675-6.25 20.284-2.13 4.675-4.6 8.557-7.35 11.536-2.13 2.32-4.42 4.089-6.81 5.256-1.98 0.972-3.61 1.319-4.62 1.438l-0.3 4e-3c-0.23 3e-3 -0.45 6e-3 -0.68 7e-3z" fill="#54174D"/>
<path d="m1254.2 675.98c0.76-0.323 7.4-3.583 5.28-18.61 5.47-8.516 12.61-16.175 21.23-22.765-0.17 1.09-0.33 1.995-0.5 2.85-1.59 7.85-3.69 14.675-6.25 20.284-2.13 4.675-4.6 8.557-7.35 11.536-2.13 2.32-4.42 4.089-6.81 5.256-1.98 0.972-3.61 1.319-4.62 1.438l-0.3 4e-3c-0.23 3e-3 -0.45 6e-3 -0.68 7e-3z" fill="#54174D"/>
<path d="m1259.5 657.37c2.12 15.023-4.51 18.284-5.28 18.61 0.32 0 0.65-6e-3 0.98-0.01 3.97-0.468 18.18-4.544 25.03-38.514 0.19-0.95 0.35-1.9 0.5-2.85-7.68 5.868-15.18 13.336-21.23 22.764z" fill="#54174D"/>
<path d="m1254.1 667.08c-1.54-3.317-3.34-6.584-5.35-9.712 0.75-5.367 2.56-11.667 5.35-18.723 2.8 7.056 4.6 13.356 5.36 18.723-2.01 3.128-3.81 6.395-5.36 9.712z" fill="#8C1338"/>
<path d="m1254.1 667.08c-1.54-3.317-3.34-6.584-5.35-9.712 0.75-5.367 2.56-11.667 5.35-18.723 2.8 7.056 4.6 13.356 5.36 18.723-2.01 3.127-3.81 6.395-5.36 9.712z" fill="#8C1338"/>
<path d="m1254.1 667.08c-1.54-3.317-3.34-6.584-5.35-9.712 0.75-5.367 2.56-11.667 5.35-18.723 2.8 7.056 4.6 13.356 5.36 18.723-2.01 3.127-3.81 6.395-5.36 9.712z" fill="#8C1338"/>
<path d="m1254.1 667.08c1.61-3.449 3.41-6.68 5.36-9.712-0.69-4.891-2.31-11.03-5.36-18.723-3.05 7.693-4.66 13.832-5.35 18.723 1.94 3.032 3.75 6.263 5.35 9.712z" fill="#8C1338"/>
<path d="m1254 675.98c-0.76-0.323-7.4-3.582-5.28-18.61 2.01 3.127 3.82 6.394 5.36 9.711 1.55-3.317 3.35-6.585 5.36-9.711 2.12 15.027-4.52 18.287-5.28 18.61h-0.16z" fill="#500B2B"/>
<path d="m1254 675.98c-0.76-0.323-7.4-3.582-5.28-18.61 2.01 3.127 3.82 6.394 5.36 9.711 1.55-3.317 3.35-6.585 5.36-9.711 2.12 15.028-4.52 18.287-5.28 18.61h-0.08-0.08z" fill="#500B2B"/>
<path d="m1254 675.98c-0.76-0.323-7.4-3.582-5.28-18.61 2.01 3.127 3.82 6.394 5.36 9.711 1.55-3.317 3.35-6.585 5.36-9.711 2.12 15.028-4.52 18.287-5.28 18.61h-0.08-0.08z" fill="#500B2B"/>
<path d="m1254.2 675.98c0.77-0.326 7.4-3.586 5.28-18.609-1.95 3.032-3.75 6.262-5.36 9.711-1.61-3.449-3.41-6.679-5.36-9.711-2.11 15.023 4.51 18.283 5.28 18.609 0.03 1e-3 0.05 1e-3 0.08 1e-3 0 0 0.05 0 0.08-1e-3z" fill="#500B2B"/>
<path d="m1264.7 675.18c3.52-1.337 7.32-3.568 11.3-6.628 4.88-3.745 10.07-8.771 15.43-14.937 0.59-0.677 1.21-1.419 1.89-2.269 1.93 4.072 2.55 7.697 1.84 10.776-8.94 6.845-19.48 11.361-30.46 13.058z" fill="#4F3FA0"/>
<path d="m1264.7 675.18c3.52-1.337 7.32-3.568 11.3-6.628 4.88-3.745 10.07-8.77 15.43-14.937 0.59-0.677 1.21-1.419 1.89-2.269 1.93 4.072 2.55 7.697 1.84 10.776-8.94 6.845-19.48 11.361-30.46 13.058z" fill="#4F3FA0"/>
<path d="m1264.7 675.18c3.52-1.337 7.32-3.568 11.3-6.628 4.88-3.745 10.07-8.77 15.43-14.937 0.59-0.677 1.21-1.419 1.89-2.269 1.93 4.072 2.55 7.697 1.84 10.776-8.94 6.845-19.48 11.361-30.46 13.058z" fill="#4F3FA0"/>
<path d="m1264.7 675.18c6.17-2.349 15.06-8.136 26.73-21.565 0.65-0.747 1.28-1.506 1.89-2.269 1.81 3.814 2.59 7.485 1.84 10.776-8.86 6.783-19.42 11.352-30.46 13.058z" fill="#4F3FA0"/>
<mask id="b" x="1143" y="1090" width="565" height="602" style="mask-type:alpha" maskUnits="userSpaceOnUse">
<rect x="1143.5" y="1090.4" width="564.42" height="600.81" fill="#C4C4C4"/>
</mask>
<g mask="url(#b)">
<g opacity=".3">
<path d="m1415.1 1721.9c-19.6-7.54-38.52-17.09-56.24-28.39-17.77-11.34-34.45-24.51-49.55-39.15-31.29-30.34-55.45-66.22-71.81-106.67 0.23-0.01 22.82-1.68 57.71 1.01 31.99 51.33 70.38 92.79 114.07 123.21-3.24 20.48-1.28 37.3 5.82 49.99z" fill="#6F7375"/>
<path d="m1415.1 1721.9c-19.6-7.54-38.52-17.09-56.24-28.39-17.77-11.34-34.45-24.51-49.55-39.15-31.29-30.34-55.45-66.22-71.81-106.67 0.23-0.02 22.91-1.67 57.71 1.01 31.99 51.33 70.38 92.79 114.07 123.21-3.24 20.48-1.28 37.3 5.82 49.99z" fill="#6F7375"/>
<path d="m1415.1 1721.9c-19.6-7.54-38.52-17.09-56.24-28.39-17.77-11.34-34.45-24.51-49.55-39.15-31.29-30.34-55.45-66.22-71.81-106.67 0.23-0.02 22.91-1.67 57.71 1.01 31.99 51.33 70.38 92.79 114.07 123.21-3.24 20.48-1.28 37.3 5.82 49.99z" fill="#6F7375"/>
<path d="m1409.3 1671.9c-49.51-34.47-86.65-79.21-114.07-123.21-35.2-2.71-57.71-1.01-57.71-1.01 33.32 82.39 98.97 143.98 177.6 174.21-7.59-13.56-8.85-30.8-5.82-49.99z" fill="#6F7375"/>
<path d="m1566.8 1740.1c-50.77 6.75-103.2 0.47-151.64-18.17-7.1-12.69-9.05-29.5-5.81-49.98 4.11 2.86 7.81 5.34 11.3 7.57 31.7 20.28 61.17 35.74 87.59 45.96 21.58 8.35 41.28 13.27 58.56 14.62z" fill="#3F4143"/>
<path d="m1566.8 1740.1c-50.77 6.75-103.2 0.47-151.64-18.17-7.1-12.68-9.05-29.5-5.81-49.98 4.12 2.86 7.81 5.34 11.3 7.57 31.7 20.28 61.17 35.74 87.59 45.96 21.58 8.35 41.28 13.27 58.56 14.62z" fill="#3F4143"/>
<path d="m1566.8 1740.1c-50.77 6.75-103.2 0.47-151.64-18.17-7.1-12.68-9.05-29.5-5.81-49.98 4.12 2.86 7.81 5.34 11.3 7.57 31.7 20.28 61.17 35.74 87.59 45.96 21.58 8.35 41.28 13.27 58.56 14.62z" fill="#3F4143"/>
<path d="m1420.6 1679.5c-3.84-2.46-7.6-5-11.3-7.57-3.03 19.18-1.77 36.42 5.82 49.98 48 18.47 100.62 24.95 151.63 18.17-30.33-2.37-77.11-16.41-146.15-60.58z" fill="#3F4143"/>
<path d="m1443.6 1581.5c-57.53-22.1-112.44-30.04-148.37-32.8-27.33-43.84-46.65-88-58.05-117.32-12.32-31.71-18.31-53.44-18.36-53.65 0.24 0.05 25.05 5.29 61.01 16.17 33.24 10.06 83.16 27.15 132.16 51.44 2.38 50.59 13.03 96.38 31.65 136.08l-0.04 0.08z" fill="#A6A9A7"/>
<path d="m1443.6 1581.5c-57.53-22.1-112.44-30.04-148.37-32.8-27.33-43.84-46.65-88-58.05-117.32-12.35-31.76-18.31-53.44-18.37-53.65 0.25 0.05 25 5.27 61.02 16.17 33.24 10.06 83.15 27.15 132.16 51.44 2.38 50.6 13.03 96.38 31.65 136.08l-0.04 0.08z" fill="#A6A9A7"/>
<path d="m1443.6 1581.5c-57.53-22.1-112.44-30.04-148.37-32.8-27.33-43.84-46.65-88-58.05-117.32-12.35-31.76-18.31-53.44-18.37-53.65 0.25 0.05 25 5.27 61.02 16.17 33.24 10.06 83.15 27.15 132.16 51.44 2.38 50.6 13.03 96.38 31.65 136.08l-0.04 0.08z" fill="#A6A9A7"/>
<path d="m1443.6 1581.4c-20.45-43.6-29.5-90.47-31.65-136.08-94.87-47.01-193.17-67.62-193.17-67.62s23.51 86.1 76.41 170.98c38.51 2.96 92.22 11.23 148.37 32.8 0.02-0.03 0.03-0.05 0.04-0.08z" fill="#A6A9A7"/>
<path d="m1443.6 1581.5 0.03-0.04 0.07 0.08-0.1-0.04z" fill="#A6A9A7"/>
<path d="m1443.6 1581.5 0.03-0.04 0.07 0.08-0.1-0.04z" fill="#A6A9A7"/>
<path d="m1443.6 1581.5 0.03-0.04 0.07 0.08-0.1-0.04z" fill="#A6A9A7"/>
<path d="m1443.6 1581.5c0.04 0.02 0.07 0.03 0.11 0.04l-0.06-0.12c-0.02 0.03-0.03 0.06-0.05 0.08z" fill="#A6A9A7"/>
<path d="m1678.9 1512.5c-5.77-43.47-21.53-87.76-46.86-131.63 28.14-46.9 60.92-88.25 83.46-114.67 24.4-28.58 42.44-46.39 42.62-46.57 0.07 0.21 6.77 21.74 13.52 55.08 6.24 30.83 13.82 78.43 14.49 130.09-28.75 21.73-70.68 58.07-107.16 107.75l-0.07-0.05z" fill="#A6A9A7"/>
<path d="m1678.9 1512.5c-5.77-43.47-21.53-87.76-46.86-131.63 28.14-46.9 60.92-88.25 83.46-114.67 24.43-28.63 42.44-46.39 42.62-46.57 0.07 0.22 6.75 21.68 13.52 55.08 6.24 30.83 13.82 78.43 14.49 130.09-28.75 21.73-70.68 58.07-107.16 107.75l-0.07-0.05z" fill="#A6A9A7"/>
<path d="m1678.9 1512.5c-5.77-43.47-21.53-87.76-46.86-131.63 28.14-46.9 60.92-88.25 83.46-114.67 24.43-28.63 42.44-46.39 42.62-46.57 0.07 0.22 6.75 21.68 13.52 55.08 6.24 30.83 13.82 78.43 14.49 130.09-28.75 21.73-70.68 58.07-107.16 107.75l-0.07-0.05z" fill="#A6A9A7"/>
<path d="m1678.9 1512.5c0.02 0.02 0.04 0.03 0.07 0.05 35.61-48.49 76.35-84.46 107.16-107.75-1.31-100.01-28.01-185.17-28.01-185.17s-71.61 70.44-126.08 161.24c22.83 39.55 40.52 83.89 46.86 131.63z" fill="#A6A9A7"/>
<path d="m1678.9 1512.5 0.07 0.03-0.06 0.08-0.01-0.11z" fill="#A6A9A7"/>
<path d="m1678.9 1512.5 0.07 0.03-0.06 0.08-0.01-0.11z" fill="#A6A9A7"/>
<path d="m1678.9 1512.5 0.07 0.03-0.06 0.08-0.01-0.11z" fill="#A6A9A7"/>
<path d="m1678.9 1512.6c0.02-0.03 0.04-0.05 0.06-0.08-0.02-0.02-0.05-0.03-0.07-0.05 0 0.05 0.01 0.09 0.01 0.13z" fill="#A6A9A7"/>
<path d="m1609.3 1731.4c-0.47 0.13-0.94 0.27-1.41 0.4-13.44 3.66-25.76 6.21-37.66 7.82-1.15 0.16-2.31 0.31-3.46 0.46-17.27-1.35-36.97-6.27-58.56-14.62-26.42-10.22-55.89-25.68-87.59-45.96-3.49-2.23-7.18-4.71-11.3-7.58 3.92-24.8 15.46-55.21 34.3-90.41l0.09 0.04c2.16 4.59 4.03 8.38 5.9 11.94 31.71 60.24 65.81 101.6 101.34 122.92 28.02 16.82 49.16 16.45 59.26 14.73l-0.91 0.26z" fill="#28292A"/>
<path d="m1609.3 1731.4c-0.47 0.13-0.94 0.27-1.41 0.4-13.44 3.66-25.76 6.21-37.66 7.82-1.15 0.16-2.31 0.31-3.46 0.46-17.27-1.35-36.97-6.27-58.56-14.62-26.42-10.22-55.89-25.68-87.59-45.96-3.48-2.23-7.18-4.71-11.3-7.58 3.92-24.8 15.46-55.21 34.3-90.41l0.09 0.04c2.16 4.59 4.03 8.38 5.9 11.94 31.71 60.24 65.81 101.6 101.34 122.92 28.02 16.82 49.16 16.45 59.26 14.73l-0.91 0.26z" fill="#28292A"/>
<path d="m1609.3 1731.4c-0.47 0.13-0.94 0.27-1.41 0.4-13.44 3.66-25.76 6.21-37.66 7.82-1.15 0.16-2.31 0.31-3.46 0.46-17.27-1.35-36.97-6.27-58.56-14.62-26.42-10.22-55.89-25.68-87.59-45.96-3.48-2.23-7.18-4.71-11.3-7.58 3.92-24.8 15.46-55.21 34.3-90.41l0.09 0.04c2.16 4.59 4.03 8.38 5.9 11.94 31.71 60.24 65.81 101.6 101.34 122.92 28.02 16.82 49.16 16.45 59.26 14.73l-0.91 0.26z" fill="#28292A"/>
<path d="m1449.6 1593.5c-2.07-3.95-4.02-7.94-5.9-11.94-0.03-0.01-0.06-0.02-0.09-0.04-16.48 30.79-29.91 62.65-34.3 90.41 3.7 2.58 7.46 5.12 11.3 7.58 69.04 44.17 115.82 58.21 146.15 60.58 1.15-0.15 2.31-0.3 3.46-0.46 12.74-1.72 25.23-4.44 37.66-7.82 0.77-0.22 1.54-0.44 2.32-0.66-18.2 3.1-86.29 3.51-160.6-137.65z" fill="#28292A"/>
<path d="m1619.5 1728.4c9.43-4.01 27.41-15.11 41.91-44.4 18.39-37.14 24.75-90.36 18.91-158.19-0.34-4.02-0.81-8.22-1.48-13.24l0.06-0.08c34.86 19.45 61 38.82 77.69 57.57-1.92 4.64-3.69 8.72-5.42 12.48-15.73 34.19-32.18 63.12-48.89 85.99-13.67 18.69-27.59 33.47-41.4 43.94-1.05 0.49-2.1 0.99-3.16 1.48-10.88 5.07-22.64 9.58-35.92 13.75-0.47 0.15-0.94 0.29-1.4 0.43l-0.9 0.27z" fill="#28292A"/>
<path d="m1619.5 1728.4c9.43-4.01 27.41-15.11 41.91-44.4 18.39-37.14 24.75-90.36 18.91-158.19-0.34-4.01-0.81-8.22-1.48-13.24l0.06-0.08c34.86 19.45 61 38.82 77.69 57.57-1.92 4.64-3.69 8.72-5.42 12.48-15.73 34.19-32.18 63.12-48.89 85.99-13.67 18.69-27.59 33.47-41.4 43.94-1.05 0.49-2.1 0.99-3.16 1.48-10.88 5.07-22.64 9.58-35.92 13.75-0.47 0.15-0.94 0.29-1.4 0.43l-0.9 0.27z" fill="#28292A"/>
<path d="m1619.5 1728.4c9.43-4.01 27.41-15.11 41.91-44.4 18.39-37.14 24.75-90.36 18.91-158.19-0.34-4.01-0.81-8.22-1.48-13.24l0.06-0.08c34.86 19.45 61 38.82 77.69 57.57-1.92 4.64-3.69 8.72-5.42 12.48-15.73 34.19-32.18 63.12-48.89 85.99-13.67 18.69-27.59 33.47-41.4 43.94-1.05 0.49-2.1 0.99-3.16 1.48-10.88 5.07-22.64 9.58-35.92 13.75-0.47 0.15-0.94 0.29-1.4 0.43l-0.9 0.27z" fill="#28292A"/>
<path d="m1680.4 1525.8c-0.38-4.45-0.9-8.85-1.48-13.24 0.02-0.02 0.04-0.05 0.06-0.08 30.5 17.01 59 36.57 77.69 57.57-1.72 4.17-3.51 8.33-5.42 12.48-34.26 74.46-66.04 111.54-90.29 129.93-1.05 0.49-2.1 0.99-3.16 1.48-11.65 5.43-23.63 9.89-35.92 13.75-0.77 0.24-1.54 0.47-2.3 0.7 16.98-7.22 74.51-43.65 60.82-202.59z" fill="#28292A"/>
<path d="m1588.6 1469.9c-32.23-13.05-55.76-20.69-56-20.76-0.11 0.14-11.9 14.53-27.9 36.54-2.69 3.7-5.39 7.46-8.01 11.18-24.68-18.56-53.16-35.88-84.67-51.49-1.41-30.09 0.09-62.12 4.46-95.19 3.5-26.47 8.83-53.66 15.85-80.83 11.94-46.21 24.82-76.79 24.95-77.09 0.28 0.18 27.64 18.97 62.64 51.41 20.58 19.06 39.75 39.07 56.98 59.46 21.54 25.47 40.1 51.62 55.15 77.71-18.08 30.15-32.7 60.12-43.45 89.06z" fill="#A6A9A7"/>
<path d="m1588.6 1469.9c-32.12-13.01-55.76-20.69-56-20.76-0.11 0.14-11.86 14.48-27.9 36.54-2.69 3.7-5.39 7.46-8.01 11.18-24.68-18.56-53.16-35.88-84.67-51.49-1.41-30.09 0.09-62.12 4.46-95.19 3.5-26.47 8.83-53.66 15.85-80.83 11.95-46.25 24.82-76.79 24.95-77.09 0.28 0.18 27.6 18.93 62.64 51.41 20.57 19.07 39.74 39.07 56.98 59.46 21.54 25.47 40.1 51.62 55.15 77.71-18.08 30.15-32.7 60.12-43.45 89.06z" fill="#A6A9A7"/>
<path d="m1588.6 1469.9c-32.12-13.01-55.76-20.69-56-20.76-0.11 0.14-11.86 14.48-27.9 36.54-2.69 3.7-5.39 7.46-8.01 11.18-24.68-18.56-53.16-35.88-84.67-51.49-1.41-30.09 0.09-62.12 4.46-95.19 3.5-26.47 8.83-53.66 15.85-80.83 11.95-46.25 24.82-76.79 24.95-77.09 0.28 0.18 27.6 18.93 62.64 51.41 20.57 19.07 39.74 39.07 56.98 59.46 21.54 25.47 40.1 51.62 55.15 77.71-18.08 30.15-32.7 60.12-43.45 89.06z" fill="#A6A9A7"/>
<path d="m1496.6 1496.8c20.24-28.62 35.92-47.73 35.92-47.73s23.51 7.62 56 20.77c11.71-31.53 26.95-61.55 43.45-89.06-66-114.36-174.77-188.58-174.77-188.58s-51.46 121.21-45.26 253.11c28.74 14.24 57.78 31.27 84.66 51.49z" fill="#A6A9A7"/>
<path d="m1409.3 1671.9c-43.7-30.42-82.08-71.88-114.08-123.21 35.94 2.77 90.85 10.7 148.38 32.8-18.84 35.19-30.38 65.61-34.3 90.41z" fill="#565A5B"/>
<path d="m1409.3 1671.9c-43.7-30.42-82.08-71.88-114.08-123.21 35.94 2.77 90.85 10.7 148.38 32.8-18.84 35.19-30.38 65.61-34.3 90.41z" fill="#565A5B"/>
<path d="m1409.3 1671.9c-43.7-30.42-82.08-71.88-114.08-123.21 35.94 2.77 90.85 10.7 148.38 32.8-18.84 35.19-30.38 65.61-34.3 90.41z" fill="#565A5B"/>
<path d="m1443.6 1581.5c-56.16-21.57-109.87-29.84-148.38-32.8 27.43 44 64.57 88.74 114.08 123.21 4.39-27.77 17.82-59.62 34.3-90.41z" fill="#565A5B"/>
<path d="m1756.6 1570.1c-16.69-18.75-42.83-38.12-77.69-57.56 36.49-49.68 78.42-86.01 107.17-107.75 0.79 60.49-9.13 116.1-29.48 165.31z" fill="#565A5B"/>
<path d="m1756.6 1570.1c-16.69-18.75-42.83-38.12-77.69-57.56 36.49-49.68 78.42-86.01 107.17-107.75 0.79 60.49-9.13 116.1-29.48 165.31z" fill="#565A5B"/>
<path d="m1756.6 1570.1c-16.69-18.75-42.83-38.12-77.69-57.56 36.49-49.68 78.42-86.01 107.17-107.75 0.79 60.49-9.13 116.1-29.48 165.31z" fill="#565A5B"/>
<path d="m1756.6 1570.1c23.06-55.75 30.16-113.46 29.48-165.31-30.81 23.29-71.55 59.26-107.17 107.75 30.5 17.01 59 36.57 77.69 57.56z" fill="#565A5B"/>
<path d="m1566.5 1564.9c-1.6-2.05-2.85-3.63-4.03-5.12-17.77-22.28-39.92-43.46-65.84-62.95 20.07-28.38 35.76-47.53 35.92-47.72 0.23 0.07 23.79 7.72 56 20.76-11.29 30.4-18.5 60.2-21.42 88.54-0.19 1.93-0.4 3.99-0.63 6.49z" fill="#565A5B"/>
<path d="m1566.5 1564.9c-1.59-2.04-2.83-3.62-4.03-5.12-17.77-22.28-39.92-43.46-65.84-62.95 20.01-28.29 35.76-47.53 35.92-47.72 0.23 0.07 23.88 7.76 56 20.76-11.29 30.4-18.5 60.2-21.42 88.54-0.19 1.91-0.4 3.97-0.63 6.49z" fill="#565A5B"/>
<path d="m1566.5 1564.9c-1.59-2.04-2.83-3.62-4.03-5.12-17.77-22.28-39.92-43.46-65.84-62.95 20.01-28.29 35.76-47.53 35.92-47.72 0.23 0.07 23.88 7.76 56 20.76-11.29 30.4-18.5 60.2-21.42 88.54-0.19 1.91-0.4 3.97-0.63 6.49z" fill="#565A5B"/>
<path d="m1566.5 1564.9c0.2-2.14 0.41-4.29 0.63-6.49 3.12-30.25 10.83-60.01 21.42-88.54-32.49-13.15-56-20.76-56-20.76s-15.68 19.1-35.92 47.72c24.32 18.29 46.87 39.17 65.84 62.95 1.37 1.73 2.71 3.42 4.03 5.12z" fill="#565A5B"/>
<path d="m1443.6 1581.4c-18.62-39.7-29.27-85.48-31.65-136.08 31.51 15.61 59.99 32.93 84.66 51.49-21.08 29.81-38.92 58.28-53.01 84.59z" fill="#8A8D8D"/>
<path d="m1443.6 1581.4c-18.62-39.69-29.27-85.48-31.65-136.08 31.51 15.61 59.99 32.93 84.66 51.49-21.08 29.81-38.92 58.28-53.01 84.59z" fill="#8A8D8D"/>
<path d="m1443.6 1581.4c-18.62-39.69-29.27-85.48-31.65-136.08 31.51 15.61 59.99 32.93 84.66 51.49-21.08 29.81-38.92 58.28-53.01 84.59z" fill="#8A8D8D"/>
<path d="m1443.6 1581.4c16.64-31.07 36.37-61.05 53.01-84.59-26.88-20.22-55.92-37.25-84.66-51.49 2.14 45.61 11.19 92.49 31.65 136.08z" fill="#8A8D8D"/>
<path d="m1678.9 1512.5c-26.08-14.54-56.46-28.86-90.31-42.56 10.75-28.95 25.37-58.91 43.46-89.07 25.32 43.87 41.08 88.16 46.85 131.63z" fill="#8A8D8D"/>
<path d="m1678.9 1512.5c-26.08-14.54-56.46-28.86-90.31-42.56 10.75-28.95 25.37-58.91 43.46-89.07 25.32 43.87 41.08 88.16 46.85 131.63z" fill="#8A8D8D"/>
<path d="m1678.9 1512.5c-26.08-14.54-56.46-28.86-90.31-42.56 10.75-28.95 25.37-58.91 43.46-89.07 25.32 43.87 41.08 88.16 46.85 131.63z" fill="#8A8D8D"/>
<path d="m1588.6 1469.9c26.73 10.82 59.52 25.39 90.31 42.56-6.33-47.74-24.03-92.08-46.85-131.63-16.5 27.51-31.75 57.53-43.46 89.07z" fill="#8A8D8D"/>
<path d="m1567.1 1654.6c-35.23-30.52-76.74-55.08-123.39-73.01l-0.05-0.11c14.1-26.32 31.93-54.79 53.02-84.6 25.91 19.49 48.06 40.67 65.83 62.95 1.19 1.49 2.43 3.07 4.03 5.12-3.23 34.79-3.04 64.96 0.56 89.65z" fill="#3F4143"/>
<path d="m1567.1 1654.6c-35.22-30.52-76.74-55.08-123.39-73.01l-0.05-0.11c14.1-26.32 31.93-54.79 53.02-84.6 25.91 19.49 48.06 40.67 65.83 62.95 1.2 1.5 2.44 3.08 4.03 5.12-3.23 34.79-3.04 64.96 0.56 89.65z" fill="#3F4143"/>
<path d="m1567.1 1654.6c-35.22-30.52-76.74-55.08-123.39-73.01l-0.05-0.11c14.1-26.32 31.93-54.79 53.02-84.6 25.91 19.49 48.06 40.67 65.83 62.95 1.2 1.5 2.44 3.08 4.03 5.12-3.23 34.79-3.04 64.96 0.56 89.65z" fill="#3F4143"/>
<path d="m1567.1 1654.6c-3.28-22.5-4.08-51.72-0.56-89.65-1.32-1.7-2.65-3.4-4.03-5.12-18.96-23.78-41.52-44.66-65.83-62.95-16.65 23.54-36.38 53.52-53.02 84.6 0.02 0.03 0.04 0.07 0.05 0.11 41.54 15.96 84.39 39.22 123.39 73.01z" fill="#3F4143"/>
<path d="m1614.4 1640.7c-10.29-22.73-26.43-48.22-47.94-75.76 0.24-2.54 0.44-4.6 0.63-6.48 2.93-28.35 10.13-58.14 21.42-88.54 33.84 13.7 64.23 28.02 90.3 42.56l0.02 0.12c-29.58 40.29-51.25 83.38-64.43 128.1z" fill="#3F4143"/>
<path d="m1614.4 1640.7c-10.29-22.73-26.43-48.22-47.94-75.76 0.24-2.53 0.44-4.59 0.63-6.48 2.93-28.35 10.13-58.14 21.42-88.54 33.84 13.7 64.23 28.02 90.3 42.56l0.02 0.12c-29.58 40.29-51.26 83.39-64.43 128.1z" fill="#3F4143"/>
<path d="m1614.4 1640.7c-10.29-22.73-26.43-48.22-47.94-75.76 0.24-2.53 0.44-4.59 0.63-6.48 2.93-28.35 10.13-58.14 21.42-88.54 33.84 13.7 64.23 28.02 90.3 42.56l0.02 0.12c-29.58 40.29-51.26 83.39-64.43 128.1z" fill="#3F4143"/>
<path d="m1588.6 1469.9c-10.59 28.52-18.29 58.28-21.42 88.54-0.22 2.19-0.43 4.34-0.63 6.48 23.46 30.03 38.56 55.04 47.94 75.76 14.59-49.51 38.09-92.22 64.43-128.1-0.01-0.04-0.01-0.08-0.02-0.12-30.79-17.17-63.58-31.74-90.3-42.56z" fill="#3F4143"/>
<path d="m1614.5 1729.9c-1.01 0.29-2.02 0.58-3.04 0.86l-1.31 0.36c-4.64 0.79-12.28 1.37-22.32-0.35-12.05-2.06-24.48-6.9-36.94-14.38-15.99-9.6-31.96-23.54-47.45-41.42-18.58-21.46-36.71-48.88-53.88-81.5-1.88-3.56-3.75-7.35-5.9-11.94 46.64 17.93 88.16 42.49 123.39 73.01 10.09 69.13 43.66 74.92 47.45 75.36z" fill="#1D1E1F"/>
<path d="m1614.5 1729.9c-1.01 0.29-2.02 0.58-3.04 0.86l-1.31 0.36c-4.64 0.79-12.28 1.37-22.32-0.35-12.05-2.06-24.48-6.9-36.94-14.38-15.99-9.6-31.96-23.54-47.45-41.42-18.58-21.46-36.71-48.88-53.88-81.5-1.88-3.56-3.75-7.35-5.9-11.94 46.64 17.93 88.16 42.49 123.39 73.01 10.09 69.14 43.66 74.92 47.45 75.36z" fill="#1D1E1F"/>
<path d="m1614.5 1729.9c-1.01 0.29-2.02 0.58-3.04 0.86l-1.31 0.36c-4.64 0.79-12.28 1.37-22.32-0.35-12.05-2.06-24.48-6.9-36.94-14.38-15.99-9.6-31.96-23.54-47.45-41.42-18.58-21.46-36.71-48.88-53.88-81.5-1.88-3.56-3.75-7.35-5.9-11.94 46.64 17.93 88.16 42.49 123.39 73.01 10.09 69.14 43.66 74.92 47.45 75.36z" fill="#1D1E1F"/>
<path d="m1567.1 1654.6c-39.01-33.79-81.86-57.04-123.39-73.01 1.88 4 3.82 7.99 5.9 11.94 74.3 141.16 142.39 140.75 160.59 137.65 1.45-0.4 2.9-0.8 4.35-1.23-3.85-0.43-37.37-6.24-47.45-75.35z" fill="#1D1E1F"/>
<path d="m1615.2 1729.7c2.96-2.41 28.09-25.42-0.75-89.05 13.18-44.71 34.85-87.81 64.43-128.1 0.66 5.04 1.13 9.24 1.48 13.24 3.16 36.73 2.71 69.6-1.35 97.69-3.37 23.42-9.28 43.78-17.56 60.5-6.45 13.02-14.3 23.8-23.33 32.05-7.52 6.87-14.26 10.51-18.59 12.35l-1.3 0.4c-1 0.31-2.01 0.62-3.03 0.92z" fill="#1D1E1F"/>
<path d="m1615.2 1729.7c2.96-2.41 28.09-25.42-0.75-89.05 13.17-44.71 34.85-87.81 64.43-128.1 0.66 5.03 1.13 9.24 1.48 13.24 3.16 36.73 2.71 69.6-1.35 97.69-3.37 23.42-9.29 43.78-17.56 60.5-6.45 13.02-14.3 23.8-23.33 32.05-7.52 6.87-14.26 10.51-18.59 12.35l-1.3 0.4c-1 0.31-2.01 0.62-3.03 0.92z" fill="#1D1E1F"/>
<path d="m1615.2 1729.7c2.96-2.41 28.09-25.42-0.75-89.05 13.17-44.71 34.85-87.81 64.43-128.1 0.66 5.03 1.13 9.24 1.48 13.24 3.16 36.73 2.71 69.6-1.35 97.69-3.37 23.42-9.29 43.78-17.56 60.5-6.45 13.02-14.3 23.8-23.33 32.05-7.52 6.87-14.26 10.51-18.59 12.35l-1.3 0.4c-1 0.31-2.01 0.62-3.03 0.92z" fill="#1D1E1F"/>
<path d="m1614.4 1640.7c28.83 63.61 3.76 86.6 0.75 89.05 1.46-0.43 2.89-0.87 4.33-1.32 16.99-7.22 74.52-43.65 60.83-202.59-0.39-4.45-0.9-8.85-1.48-13.24-26.34 35.88-49.84 78.59-64.43 128.1z" fill="#1D1E1F"/>
<path d="m1603.4 1690.5c-11.13-12.65-23.33-24.74-36.27-35.95-3.61-24.69-3.79-54.86-0.56-89.65 21.51 27.54 37.64 53.03 47.94 75.76-4.84 16.42-8.58 33.19-11.11 49.84z" fill="#28292A"/>
<path d="m1603.4 1690.5c-11.13-12.65-23.33-24.74-36.27-35.95-3.61-24.69-3.79-54.86-0.56-89.65 21.51 27.54 37.64 53.03 47.94 75.76-4.83 16.41-8.58 33.19-11.11 49.84z" fill="#28292A"/>
<path d="m1603.4 1690.5c-11.13-12.65-23.33-24.74-36.27-35.95-3.61-24.69-3.79-54.86-0.56-89.65 21.51 27.54 37.64 53.03 47.94 75.76-4.83 16.41-8.58 33.19-11.11 49.84z" fill="#28292A"/>
<path d="m1603.4 1690.5c2.64-17.32 6.42-33.92 11.11-49.84-9.39-20.72-24.49-45.74-47.94-75.76-3.53 37.94-2.73 67.15 0.56 89.65 12.54 10.87 24.69 22.8 36.27 35.95z" fill="#28292A"/>
<path d="m1614.5 1729.9c-3.8-0.43-37.37-6.22-47.46-75.36 12.94 11.21 25.14 23.31 36.27 35.96 2.54-16.66 6.28-33.44 11.11-49.85 28.84 63.63 3.72 86.64 0.75 89.05l-0.33 0.1-0.34 0.1z" fill="#151516"/>
<path d="m1614.5 1729.9c-3.8-0.43-37.37-6.22-47.46-75.36 12.94 11.21 25.14 23.31 36.27 35.96 2.54-16.66 6.28-33.44 11.11-49.85 28.85 63.63 3.72 86.64 0.75 89.05-0.09 0.03-0.33 0.1-0.33 0.1l-0.34 0.1z" fill="#151516"/>
<path d="m1614.5 1729.9c-3.8-0.43-37.37-6.22-47.46-75.36 12.94 11.21 25.14 23.31 36.27 35.96 2.54-16.66 6.28-33.44 11.11-49.85 28.85 63.63 3.72 86.64 0.75 89.05-0.09 0.03-0.33 0.1-0.33 0.1l-0.34 0.1z" fill="#151516"/>
<path d="m1615.2 1729.7c3.01-2.45 28.09-25.44-0.74-89.05-4.69 15.92-8.48 32.53-11.12 49.84-11.57-13.15-23.72-25.08-36.27-35.95 10.09 69.11 43.61 74.92 47.46 75.36 0.12-0.03 0.23-0.07 0.34-0.1 0 0 0.23-0.07 0.33-0.1z" fill="#151516"/>
<path d="m1660.9 1712.5c13.81-10.47 27.74-25.25 41.39-43.94 16.72-22.87 33.17-51.8 48.9-85.99 1.73-3.76 3.51-7.83 5.42-12.48 13.79 15.49 21.23 30.7 22.1 45.22-30.7 41.84-71.44 75.45-117.81 97.19z" fill="#3F4143"/>
<path d="m1660.9 1712.5c13.81-10.47 27.74-25.25 41.39-43.94 16.72-22.87 33.18-51.8 48.9-85.99 1.73-3.75 3.51-7.83 5.42-12.48 13.79 15.49 21.23 30.7 22.1 45.22-30.7 41.84-71.44 75.45-117.81 97.19z" fill="#3F4143"/>
<path d="m1660.9 1712.5c13.81-10.47 27.74-25.25 41.39-43.94 16.72-22.87 33.18-51.8 48.9-85.99 1.73-3.75 3.51-7.83 5.42-12.48 13.79 15.49 21.23 30.7 22.1 45.22-30.7 41.84-71.44 75.45-117.81 97.19z" fill="#3F4143"/>
<path d="m1660.9 1712.5c24.25-18.38 56.04-55.47 90.29-129.93 1.91-4.15 3.7-8.31 5.42-12.48 12.92 14.51 21.16 29.7 22.1 45.22-30.43 41.46-71.21 75.34-117.81 97.19z" fill="#3F4143"/>
</g>
</g>
<g filter="url(#e)">
<path d="m914.8 4.0626-911.77 224.16 364.8 1483.7 911.77-224.16-364.8-1483.7z" fill="#4F3FA0" stroke="#FFDA00" stroke-linecap="square" stroke-linejoin="round" stroke-width=".05"/>
<g filter="url(#d)">
<path d="m608.5 743.49c106.02-26.065 170.83-133.14 144.76-239.15-26.067-106.02-133.14-170.83-239.16-144.76-106.02 26.064-170.83 133.14-144.76 239.15 26.067 106.02 133.14 170.83 239.16 144.76z" fill="#C4C4C4"/>
</g>
<mask id="a" x="136" y="561" width="1122" height="1151" style="mask-type:alpha" maskUnits="userSpaceOnUse">
<rect transform="matrix(.97072 -.24023 .24025 .97071 136.65 782.26)" width="917.42" height="957.74" fill="#C4C4C4"/>
</mask>
<g mask="url(#a)">
<g opacity=".4">
<path d="m142.87 1438.3c-12.757-33.2-22.224-67.94-28.133-103.28-5.934-35.47-8.322-71.75-7.103-107.83 2.528-74.77 20.074-147.32 52.149-215.64 0.275 0.25 27.926 26.21 64.042 72.52-27.999 100.62-36.416 197.37-25.021 287.58-29.281 20.35-48.099 42.77-55.934 66.65z" fill="#6F7375"/>
<path d="m142.87 1438.3c-12.757-33.2-22.224-67.94-28.133-103.28-5.934-35.47-8.322-71.75-7.103-107.83 2.528-74.77 20.074-147.32 52.149-215.64 0.277 0.25 28.012 26.32 64.042 72.52-27.999 100.62-36.417 197.37-25.021 287.58-29.281 20.35-48.102 42.78-55.934 66.65z" fill="#6F7375"/>
<path d="m142.87 1438.3c-12.757-33.2-22.224-67.94-28.133-103.28-5.934-35.47-8.322-71.75-7.103-107.83 2.528-74.77 20.074-147.32 52.149-215.64 0.277 0.25 28.012 26.32 64.042 72.52-27.999 100.62-36.417 197.37-25.021 287.58-29.281 20.35-48.102 42.78-55.934 66.65z" fill="#6F7375"/>
<path d="m198.81 1371.7c-12.912-102.2 1.02-201.33 25.021-287.58-36.445-46.74-64.042-72.52-64.042-72.52-65.343 139.18-68.084 293.6-16.913 426.75 8.371-25.51 28.499-47.58 55.934-66.65z" fill="#6F7375"/>
<path d="m687.7 1761c17.158-18.35 27.771-45.63 31.542-81.1 84.571-33.37 165.35-87.28 240.11-160.21 57.972 9.4 94.022 21.17 94.382 21.29-44.48 60.97-99.662 111.24-164 149.41-31.053 18.42-64.01 33.77-97.96 45.62-33.826 11.81-68.844 20.22-104.08 24.99z" fill="#6F7375"/>
<path d="m687.7 1761c17.158-18.35 27.771-45.63 31.542-81.1 84.571-33.37 165.35-87.28 240.11-160.21 57.832 9.38 94.022 21.17 94.382 21.29-44.48 60.97-99.662 111.24-164 149.41-31.053 18.42-64.01 33.77-97.96 45.62-33.826 11.81-68.844 20.22-104.08 24.99z" fill="#6F7375"/>
<path d="m687.7 1761c17.158-18.35 27.771-45.63 31.542-81.1 84.571-33.37 165.35-87.28 240.11-160.21 57.832 9.38 94.022 21.17 94.382 21.29-44.48 60.97-99.662 111.24-164 149.41-31.053 18.42-64.01 33.77-97.96 45.62-33.826 11.81-68.844 20.22-104.08 24.99z" fill="#6F7375"/>
<path d="m1053.7 1540.9s-35.87-11.79-94.372-21.28c-64.08 62.52-144.3 122.4-240.11 160.21-3.531 33.23-13.205 61.5-31.547 81.1 141.35-19.15 275.42-95.8 366.03-220.03z" fill="#6F7375"/>
<path d="m291.73 1647.4c-65.876-54.72-117.35-127.01-148.85-209.05 7.835-23.87 26.653-46.3 55.934-66.65 1.076 8.49 2.158 16.01 3.313 22.98 10.508 63.31 24.514 118.13 41.629 162.94 13.98 36.61 30.121 66.82 47.977 89.78z" fill="#3F4143"/>
<path d="m291.73 1647.4c-65.876-54.72-117.35-127.01-148.85-209.05 7.832-23.87 26.653-46.3 55.934-66.65 1.076 8.5 2.158 16.02 3.313 22.98 10.508 63.31 24.515 118.13 41.629 162.94 13.978 36.62 30.122 66.82 47.977 89.78z" fill="#3F4143"/>
<path d="m291.73 1647.4c-65.876-54.72-117.35-127.01-148.85-209.05 7.832-23.87 26.653-46.3 55.934-66.65 1.076 8.5 2.158 16.02 3.313 22.98 10.508 63.31 24.515 118.13 41.629 162.94 13.978 36.62 30.122 66.82 47.977 89.78z" fill="#3F4143"/>
<path d="m202.12 1394.7c-1.272-7.68-2.345-15.34-3.313-22.98-27.435 19.07-47.563 41.14-55.934 66.65 31.219 81.29 82.651 154.06 148.85 209.05-31.354-40.32-66.722-114.84-89.606-252.72z" fill="#3F4143"/>
<path d="m350.7 1306.5c-37.458-97.4-89.669-174.72-126.87-222.43 23.91-85.925 57.267-162.33 81.04-211.29 25.712-52.956 46.12-86.203 46.324-86.534 0.215 0.365 21.724 37.269 48.805 94.661 25.033 53.062 60.14 135.1 85.224 224.56-60.59 63.12-105.8 130.75-134.38 201l-0.14 0.04z" fill="#A6A9A7"/>
<path d="m350.69 1306.5c-37.458-97.4-89.669-174.72-126.87-222.43 23.91-85.925 57.267-162.33 81.04-211.29 25.758-53.051 46.12-86.203 46.324-86.534 0.214 0.364 21.68 37.174 48.805 94.661 25.033 53.061 60.139 135.1 85.224 224.56-60.594 63.13-105.81 130.76-134.38 201l-0.14 0.04z" fill="#A6A9A7"/>
<path d="m350.69 1306.5c-37.458-97.4-89.669-174.72-126.87-222.43 23.91-85.925 57.267-162.33 81.04-211.29 25.758-53.051 46.12-86.203 46.324-86.534 0.214 0.364 21.68 37.174 48.805 94.661 25.033 53.061 60.139 135.1 85.224 224.56-60.594 63.13-105.81 130.76-134.38 201l-0.14 0.04z" fill="#A6A9A7"/>
<path d="m350.84 1306.5c31.383-77.14 79.766-144.1 134.38-201-48.56-173.19-134.03-319.22-134.03-319.22s-81.075 131.48-127.36 297.83c39.867 51.13 90.305 127.36 126.87 222.43 0.046-0.01 0.092-0.02 0.141-0.04z" fill="#A6A9A7"/>
<path d="m350.7 1306.5 0.085-0.02-0.023 0.18-0.062-0.16z" fill="#A6A9A7"/>
<path d="m350.7 1306.5 0.085-0.02-0.023 0.18-0.062-0.16z" fill="#A6A9A7"/>
<path d="m350.7 1306.5 0.085-0.02-0.023 0.18-0.062-0.16z" fill="#A6A9A7"/>
<path d="m350.7 1306.5c0.018 0.06 0.039 0.11 0.061 0.16 0.024-0.07 0.052-0.13 0.08-0.2-0.049 0.02-0.095 0.03-0.141 0.04z" fill="#A6A9A7"/>
<path d="m703.3 1515.2c47.845-58.84 85.401-131.01 111.61-214.5 90.499-21.02 179.3-29.67 237.85-33.24 63.35-3.84 106.05-2.73 106.47-2.72-0.19 0.34-19.53 34.23-53.6 82.23-31.49 44.39-82.44 110.38-146.28 172.66-59.722-9.68-152.61-18.28-256.02-4.29l-0.028-0.14z" fill="#A6A9A7"/>
<path d="m703.3 1515.2c47.845-58.84 85.401-131.01 111.61-214.5 90.499-21.02 179.3-29.67 237.85-33.24 63.45-3.85 106.05-2.73 106.47-2.72-0.19 0.34-19.47 34.14-53.6 82.23-31.49 44.39-82.45 110.38-146.28 172.66-59.722-9.68-152.61-18.28-256.02-4.29l-0.028-0.14z" fill="#A6A9A7"/>
<path d="m703.3 1515.2c47.845-58.84 85.401-131.01 111.61-214.5 90.499-21.02 179.3-29.67 237.85-33.24 63.45-3.85 106.05-2.73 106.47-2.72-0.19 0.34-19.47 34.14-53.6 82.23-31.49 44.39-82.45 110.38-146.28 172.66-59.722-9.68-152.61-18.28-256.02-4.29l-0.028-0.14z" fill="#A6A9A7"/>
<path d="m703.3 1515.2c0.011 0.04 0.021 0.08 0.028 0.14 100.94-13.66 192.02-6.08 256.02 4.29 123.59-120.57 199.88-254.89 199.88-254.89s-169.13-4.72-344.32 35.96c-23.628 75.26-59.067 149.88-111.61 214.5z" fill="#A6A9A7"/>
<path d="m703.28 1515.2 0.049 0.12-0.164 0.02 0.115-0.14z" fill="#A6A9A7"/>
<path d="m703.28 1515.2 0.049 0.12-0.164 0.02 0.115-0.14z" fill="#A6A9A7"/>
<path d="m703.28 1515.2 0.049 0.12-0.164 0.02 0.115-0.14z" fill="#A6A9A7"/>
<path d="m703.16 1515.4c0.056 0 0.106-0.01 0.162-0.02-8e-3 -0.05-0.018-0.09-0.029-0.14-0.045 0.05-0.094 0.11-0.133 0.16z" fill="#A6A9A7"/>
<path d="m350.72 1689.6c-0.698-0.42-1.395-0.85-2.089-1.27-19.785-12.26-36.926-24.45-52.405-37.25-1.505-1.24-2.999-2.48-4.491-3.73-17.854-22.96-33.998-53.16-47.98-89.77-17.112-44.82-31.119-99.64-41.626-162.95-1.155-6.97-2.241-14.48-3.313-22.98 35.457-24.65 86.559-46.57 151.89-65.15l0.059 0.15c-3.3 8.12-5.921 14.95-8.252 21.5-39.463 110.86-52.609 202.2-39.073 271.49 10.674 54.64 35.05 80.32 48.626 90.77l-1.346-0.81z" fill="#28292A"/>
<path d="m350.72 1689.6c-0.698-0.42-1.395-0.85-2.089-1.27-19.785-12.26-36.927-24.45-52.405-37.25-1.505-1.24-2.999-2.48-4.491-3.73-17.855-22.96-33.999-53.16-47.98-89.77-17.11-44.82-31.117-99.64-41.626-162.95-1.154-6.96-2.237-14.48-3.313-22.98 35.457-24.65 86.56-46.57 151.89-65.15l0.059 0.15c-3.299 8.12-5.92 14.95-8.252 21.5-39.463 110.86-52.609 202.2-39.073 271.49 10.674 54.64 35.05 80.32 48.626 90.77l-1.346-0.81z" fill="#28292A"/>
<path d="m350.72 1689.6c-0.698-0.42-1.395-0.85-2.089-1.27-19.785-12.26-36.927-24.45-52.405-37.25-1.505-1.24-2.999-2.48-4.491-3.73-17.855-22.96-33.999-53.16-47.98-89.77-17.11-44.82-31.117-99.64-41.626-162.95-1.154-6.96-2.237-14.48-3.313-22.98 35.457-24.65 86.56-46.57 151.89-65.15l0.059 0.15c-3.299 8.12-5.92 14.95-8.252 21.5-39.463 110.86-52.609 202.2-39.073 271.49 10.674 54.64 35.05 80.32 48.626 90.77l-1.346-0.81z" fill="#28292A"/>
<path d="m342.51 1328.2c2.586-7.26 5.372-14.41 8.252-21.5-0.021-0.05-0.042-0.1-0.06-0.15-57.152 16.25-112.19 37.55-151.89 65.15 0.968 7.64 2.04 15.3 3.313 22.98 22.884 137.88 58.252 212.4 89.605 252.72 1.493 1.25 2.987 2.49 4.492 3.73 16.567 13.71 34.098 25.9 52.399 37.24 1.14 0.7 2.292 1.39 3.441 2.09-24.461-18.81-102.03-102.49-9.553-362.26z" fill="#28292A"/>
<path d="m366.08 1698.7c15.685 6.88 49.918 15.91 102.96-1.01 67.257-21.44 141.02-76.89 219.24-164.8 4.627-5.2 9.352-10.78 14.878-17.57l0.163-0.02c15.123 66.22 20.48 121.57 15.916 164.51-7.977 3.15-15.088 5.81-21.742 8.15-60.562 21.22-115.36 35.3-162.88 41.85-38.828 5.34-73.07 5.71-101.78 1.09-1.812-0.71-3.618-1.42-5.428-2.15-18.667-7.41-37.596-16.58-57.858-28.04-0.702-0.4-1.411-0.81-2.116-1.22l-1.359-0.79z" fill="#28292A"/>
<path d="m366.08 1698.7c15.685 6.88 49.918 15.91 102.96-1.01 67.257-21.44 141.02-76.89 219.24-164.8 4.623-5.19 9.348-10.78 14.878-17.57l0.163-0.02c15.123 66.22 20.48 121.57 15.916 164.51-7.977 3.15-15.088 5.81-21.742 8.15-60.562 21.22-115.37 35.3-162.88 41.85-38.828 5.34-73.07 5.71-101.78 1.09-1.812-0.71-3.618-1.42-5.428-2.15-18.667-7.41-37.596-16.58-57.858-28.04-0.702-0.4-1.411-0.81-2.116-1.22l-1.359-0.79z" fill="#28292A"/>
<path d="m366.08 1698.7c15.685 6.88 49.918 15.91 102.96-1.01 67.257-21.44 141.02-76.89 219.24-164.8 4.623-5.19 9.348-10.78 14.878-17.57l0.163-0.02c15.123 66.22 20.48 121.57 15.916 164.51-7.977 3.15-15.088 5.81-21.742 8.15-60.562 21.22-115.37 35.3-162.88 41.85-38.828 5.34-73.07 5.71-101.78 1.09-1.812-0.71-3.618-1.42-5.428-2.15-18.667-7.41-37.596-16.58-57.858-28.04-0.702-0.4-1.411-0.81-2.116-1.22l-1.359-0.79z" fill="#28292A"/>
<path d="m688.28 1532.9c5.12-5.76 10.048-11.63 14.878-17.57 0.055 0 0.104-0.01 0.163-0.02 13.234 57.93 21.023 116.43 15.916 164.51-7.168 2.83-14.398 5.57-21.742 8.15-131.89 46.23-214.24 51.05-264.66 42.94-1.812-0.71-3.623-1.42-5.428-2.15-19.986-7.93-39.113-17.44-57.858-28.04-1.16-0.66-2.318-1.34-3.475-2.01 28.256 12.4 138.91 40.19 322.21-165.81z" fill="#28292A"/>
<path d="m654.34 1353c-20.148-55.37-37.222-93.55-37.391-93.93-0.31 0.03-31.65 2.59-77.272 8.99-7.679 1.07-15.438 2.21-23.057 3.39-4.712-52.58-15.278-108.39-31.404-165.91 36.026-37.53 77.78-73.78 124.1-107.73 37.056-27.158 77.1-52.914 119.02-76.555 71.31-40.21 124.13-60.653 124.66-60.855 0.076 0.559 7.548 56.734 6.577 138.57-0.562 48.124-3.889 95.624-9.885 141.17-7.489 56.94-19.194 110.98-34.783 160.61-58.177 13.52-112.2 31.09-160.56 52.24z" fill="#A6A9A7"/>
<path d="m654.34 1353c-20.075-55.18-37.222-93.55-37.391-93.93-0.31 0.03-31.55 2.57-77.272 8.99-7.675 1.07-15.431 2.21-23.057 3.39-4.712-52.58-15.279-108.39-31.404-165.91 36.03-37.54 77.781-73.78 124.1-107.73 37.056-27.158 77.1-52.914 119.02-76.555 71.373-40.242 124.13-60.653 124.66-60.855 0.076 0.559 7.548 56.634 6.577 138.57-0.567 48.124-3.894 95.624-9.885 141.17-7.489 56.94-19.19 110.97-34.783 160.61-58.177 13.52-112.2 31.09-160.56 52.24z" fill="#A6A9A7"/>
<path d="m654.34 1353c-20.075-55.18-37.222-93.55-37.391-93.93-0.31 0.03-31.55 2.57-77.272 8.99-7.675 1.07-15.431 2.21-23.057 3.39-4.712-52.58-15.279-108.39-31.404-165.91 36.03-37.54 77.781-73.78 124.1-107.73 37.056-27.158 77.1-52.914 119.02-76.555 71.373-40.242 124.13-60.653 124.66-60.855 0.076 0.559 7.548 56.634 6.577 138.57-0.567 48.124-3.894 95.624-9.885 141.17-7.489 56.94-19.19 110.97-34.783 160.61-58.177 13.52-112.2 31.09-160.56 52.24z" fill="#A6A9A7"/>
<path d="m516.63 1271.4c58.696-9.03 100.33-12.38 100.33-12.38s17.079 38.11 37.39 93.93c52.693-23.04 107.48-39.91 160.56-52.24 68.338-217.63 38.091-440.36 38.091-440.36s-209.82 80.572-367.78 245.14c14.713 52.47 26.27 108.62 31.405 165.91z" fill="#A6A9A7"/>
<path d="m198.81 1371.7c-11.397-90.21-2.979-186.96 25.02-287.58 37.201 47.71 89.409 125.03 126.87 222.43-65.33 18.58-116.43 40.5-151.89 65.15z" fill="#565A5B"/>
<path d="m198.81 1371.7c-11.397-90.21-2.979-186.96 25.02-287.58 37.2 47.71 89.411 125.03 126.87 222.43-65.33 18.58-116.43 40.5-151.89 65.15z" fill="#565A5B"/>
<path d="m198.81 1371.7c-11.397-90.21-2.979-186.96 25.02-287.58 37.2 47.71 89.411 125.03 126.87 222.43-65.33 18.58-116.43 40.5-151.89 65.15z" fill="#565A5B"/>
<path d="m350.7 1306.5c-36.564-95.07-87.002-171.3-126.87-222.43-24.001 86.25-37.932 185.38-25.021 287.58 39.699-27.6 94.737-48.9 151.89-65.15z" fill="#565A5B"/>
<path d="m719.24 1679.8c4.561-42.94-0.79-98.28-15.914-164.51 103.41-13.98 196.3-5.38 256.02 4.3-74.757 72.93-155.54 126.84-240.11 160.21z" fill="#565A5B"/>
<path d="m719.24 1679.8c4.566-42.93-0.79-98.28-15.914-164.51 103.41-13.98 196.3-5.38 256.02 4.3-74.757 72.93-155.54 126.84-240.11 160.21z" fill="#565A5B"/>
<path d="m719.24 1679.8c4.566-42.93-0.79-98.28-15.914-164.51 103.41-13.98 196.3-5.38 256.02 4.3-74.757 72.93-155.54 126.84-240.11 160.21z" fill="#565A5B"/>
<path d="m719.24 1679.8c95.812-37.81 176.03-97.69 240.11-160.21-63.999-10.37-155.09-17.95-256.02-4.3 13.229 57.93 21.024 116.44 15.914 164.51z" fill="#565A5B"/>
<path d="m510.56 1438.7c0.752-4.42 1.319-7.84 1.835-11.07 7.76-48.47 9.184-101.05 4.233-156.27 58.207-8.95 99.912-12.34 100.33-12.37 0.169 0.38 17.257 38.6 37.39 93.92-50.791 22.22-96.204 48.74-134.96 78.85-2.633 2.05-5.437 4.25-8.822 6.94z" fill="#565A5B"/>
<path d="m510.56 1438.7c0.75-4.39 1.313-7.81 1.835-11.07 7.76-48.47 9.184-101.05 4.233-156.27 58.029-8.92 99.912-12.34 100.33-12.37 0.169 0.38 17.316 38.75 37.39 93.92-50.791 22.22-96.204 48.74-134.96 78.85-2.602 2.02-5.406 4.22-8.822 6.94z" fill="#565A5B"/>
<path d="m510.56 1438.7c0.75-4.39 1.313-7.81 1.835-11.07 7.76-48.47 9.184-101.05 4.233-156.27 58.029-8.92 99.912-12.34 100.33-12.37 0.169 0.38 17.316 38.75 37.39 93.92-50.791 22.22-96.204 48.74-134.96 78.85-2.602 2.02-5.406 4.22-8.822 6.94z" fill="#565A5B"/>
<path d="m510.56 1438.7c2.898-2.3 5.823-4.61 8.822-6.94 41.372-32.13 87.307-58 134.96-78.85-20.31-55.81-37.39-93.92-37.39-93.92s-41.633 3.35-100.33 12.37c4.646 51.82 4.046 104.54-4.233 156.27-0.6 3.75-1.215 7.42-1.835 11.07z" fill="#565A5B"/>
<path d="m350.84 1306.5c28.579-70.25 73.793-137.88 134.38-201 16.126 57.51 26.692 113.33 31.404 165.9-61.145 9.4-116.93 21.21-165.79 35.1z" fill="#8A8D8D"/>
<path d="m350.84 1306.5c28.576-70.24 73.79-137.87 134.38-201 16.125 57.51 26.692 113.33 31.404 165.9-61.146 9.4-116.93 21.21-165.79 35.1z" fill="#8A8D8D"/>
<path d="m350.84 1306.5c28.576-70.24 73.79-137.87 134.38-201 16.125 57.51 26.692 113.33 31.404 165.9-61.146 9.4-116.93 21.21-165.79 35.1z" fill="#8A8D8D"/>
<path d="m350.84 1306.5c57.699-16.4 117.51-27.67 165.79-35.1-5.135-57.28-16.692-113.43-31.405-165.9-54.617 56.9-103 123.86-134.38 201z" fill="#8A8D8D"/>
<path d="m703.3 1515.2c-11.318-49.52-27.787-104.12-48.946-162.25 48.362-21.15 102.38-38.72 160.56-52.24-26.213 83.49-63.769 155.66-111.61 214.49z" fill="#8A8D8D"/>
<path d="m703.3 1515.2c-11.318-49.52-27.787-104.12-48.946-162.25 48.362-21.15 102.38-38.72 160.56-52.24-26.213 83.49-63.769 155.66-111.61 214.49z" fill="#8A8D8D"/>
<path d="m703.3 1515.2c-11.318-49.52-27.787-104.12-48.946-162.25 48.362-21.15 102.38-38.72 160.56-52.24-26.213 83.49-63.769 155.66-111.61 214.49z" fill="#8A8D8D"/>
<path d="m654.35 1353c16.705 45.9 35.581 103.77 48.946 162.25 52.546-64.61 87.985-139.23 111.61-214.49-53.082 12.33-107.87 29.2-160.56 52.24z" fill="#8A8D8D"/>
<path d="m399.06 1546.1c-1.697-79.85-17.948-160.39-48.306-239.37l0.081-0.2c48.862-13.89 104.64-25.7 165.79-35.1 4.952 55.22 3.528 107.8-4.232 156.26-0.517 3.24-1.083 6.65-1.836 11.07-47.174 37.4-84.692 73.51-111.49 107.34z" fill="#3F4143"/>
<path d="m399.06 1546.1c-1.696-79.85-17.948-160.39-48.306-239.37l0.081-0.2c48.862-13.89 104.64-25.7 165.79-35.1 4.952 55.22 3.528 107.8-4.232 156.26-0.522 3.27-1.086 6.68-1.836 11.07-47.174 37.4-84.692 73.51-111.49 107.34z" fill="#3F4143"/>
<path d="m399.06 1546.1c-1.696-79.85-17.948-160.39-48.306-239.37l0.081-0.2c48.862-13.89 104.64-25.7 165.79-35.1 4.952 55.22 3.528 107.8-4.232 156.26-0.522 3.27-1.086 6.68-1.836 11.07-47.174 37.4-84.692 73.51-111.49 107.34z" fill="#3F4143"/>
<path d="m399.07 1546.1c24.427-30.83 60.058-66.56 111.49-107.34 0.62-3.64 1.235-7.32 1.836-11.07 8.278-51.72 8.878-104.44 4.232-156.26-48.275 7.43-108.09 18.7-165.79 35.1-0.028 0.07-0.056 0.13-0.081 0.2 27.031 70.33 46.43 150.96 48.307 239.37z" fill="#3F4143"/>
<path d="m470.06 1588.1c16.771-39.76 30.395-90.03 40.501-149.38 3.441-2.72 6.239-4.93 8.822-6.93 38.762-30.11 84.174-56.63 134.96-78.85 21.16 58.14 37.629 112.73 48.947 162.26l-0.132 0.16c-83.854 11.36-162.28 35.84-233.1 72.74z" fill="#3F4143"/>
<path d="m470.06 1588.1c16.771-39.76 30.395-90.03 40.501-149.38 3.425-2.71 6.224-4.91 8.822-6.93 38.762-30.11 84.174-56.63 134.96-78.85 21.16 58.14 37.629 112.73 48.947 162.26l-0.132 0.16c-83.854 11.36-162.28 35.84-233.1 72.74z" fill="#3F4143"/>
<path d="m470.06 1588.1c16.771-39.76 30.395-90.03 40.501-149.38 3.425-2.71 6.224-4.91 8.822-6.93 38.762-30.11 84.174-56.63 134.96-78.85 21.16 58.14 37.629 112.73 48.947 162.26l-0.132 0.16c-83.854 11.36-162.28 35.84-233.1 72.74z" fill="#3F4143"/>
<path d="m654.35 1352.9c-47.658 20.85-93.593 46.72-134.96 78.85-2.999 2.33-5.924 4.64-8.822 6.93-11.016 64.71-25.217 113.14-40.501 149.38 78.413-40.86 158.44-62.62 233.1-72.74 0.039-0.05 0.087-0.11 0.132-0.16-13.366-58.48-32.242-116.35-48.947-162.26z" fill="#3F4143"/>
<path d="m358.52 1694.4c-1.519-0.9-3.02-1.81-4.523-2.74l-1.938-1.18c-6.24-4.8-15.609-13.56-24.815-28.01-11.056-17.35-19.065-38.47-23.811-62.76-6.093-31.19-6.728-67.51-1.887-107.94 5.81-48.49 19.591-103.52 40.96-163.55 2.332-6.55 4.952-13.38 8.252-21.49 30.358 78.98 46.609 159.52 48.306 239.37-75.045 94.71-44.299 143.09-40.544 148.3z" fill="#1D1E1F"/>
<path d="m358.52 1694.4c-1.519-0.9-3.02-1.81-4.523-2.74l-1.938-1.18c-6.24-4.8-15.609-13.56-24.815-28.01-11.057-17.35-19.065-38.47-23.811-62.76-6.093-31.19-6.728-67.51-1.887-107.94 5.807-48.49 19.591-103.52 40.96-163.55 2.332-6.55 4.953-13.37 8.252-21.49 30.359 78.98 46.61 159.52 48.306 239.37-75.048 94.71-44.299 143.09-40.544 148.3z" fill="#1D1E1F"/>
<path d="m358.52 1694.4c-1.519-0.9-3.02-1.81-4.523-2.74l-1.938-1.18c-6.24-4.8-15.609-13.56-24.815-28.01-11.057-17.35-19.065-38.47-23.811-62.76-6.093-31.19-6.728-67.51-1.887-107.94 5.807-48.49 19.591-103.52 40.96-163.55 2.332-6.55 4.953-13.37 8.252-21.49 30.359 78.98 46.61 159.52 48.306 239.37-75.048 94.71-44.299 143.09-40.544 148.3z" fill="#1D1E1F"/>
<path d="m399.07 1546.1c-1.876-88.41-21.275-169.04-48.306-239.37-2.88 7.08-5.666 14.23-8.253 21.49-92.474 259.77-14.908 343.45 9.553 362.26 2.152 1.31 4.286 2.63 6.465 3.92-3.813-5.28-34.48-53.63 40.541-148.3z" fill="#1D1E1F"/>
<path d="m359.53 1695c6.375 0.79 63.586 4.48 110.53-106.86 70.827-36.9 149.25-61.38 233.1-72.74-5.549 6.81-10.274 12.4-14.878 17.57-42.363 47.61-83.981 86.15-123.7 114.56-33.117 23.68-65.26 40.59-95.541 50.24-23.575 7.52-45.943 10.65-66.477 9.3-17.098-1.12-29.28-5.13-36.487-8.29l-1.966-1.13c-1.53-0.87-3.057-1.75-4.583-2.65z" fill="#1D1E1F"/>
<path d="m359.53 1695c6.375 0.79 63.586 4.48 110.53-106.86 70.822-36.91 149.25-61.38 233.1-72.74-5.54 6.81-10.27 12.39-14.878 17.57-42.36 47.61-83.981 86.15-123.7 114.56-33.117 23.68-65.265 40.59-95.541 50.24-23.575 7.52-45.943 10.65-66.477 9.3-17.098-1.12-29.28-5.13-36.487-8.29l-1.966-1.13c-1.53-0.87-3.057-1.75-4.583-2.65z" fill="#1D1E1F"/>
<path d="m359.53 1695c6.375 0.79 63.586 4.48 110.53-106.86 70.822-36.91 149.25-61.38 233.1-72.74-5.54 6.81-10.27 12.39-14.878 17.57-42.36 47.61-83.981 86.15-123.7 114.56-33.117 23.68-65.265 40.59-95.541 50.24-23.575 7.52-45.943 10.65-66.477 9.3-17.098-1.12-29.28-5.13-36.487-8.29l-1.966-1.13c-1.53-0.87-3.057-1.75-4.583-2.65z" fill="#1D1E1F"/>
<path d="m470.06 1588.1c-46.933 111.31-104.07 107.66-110.53 106.86 2.179 1.29 4.36 2.52 6.545 3.78 28.256 12.4 138.91 40.19 322.21-165.81 5.12-5.76 10.048-11.63 14.877-17.57-74.667 10.12-154.69 31.88-233.1 72.74z" fill="#1D1E1F"/>
<path d="m395.14 1633.7c3.227-28.81 4.545-58.27 3.922-87.6 26.802-33.82 64.32-69.94 111.49-107.34-10.106 59.35-23.729 109.61-40.5 149.38-26.009 13.55-51.212 28.88-74.916 45.56z" fill="#28292A"/>
<path d="m395.14 1633.7c3.227-28.81 4.545-58.27 3.922-87.6 26.802-33.82 64.32-69.94 111.49-107.34-10.106 59.35-23.729 109.61-40.5 149.38-26.001 13.55-51.212 28.88-74.916 45.56z" fill="#28292A"/>
<path d="m395.14 1633.7c3.227-28.81 4.545-58.27 3.922-87.6 26.802-33.82 64.32-69.94 111.49-107.34-10.106 59.35-23.729 109.61-40.5 149.38-26.001 13.55-51.212 28.88-74.916 45.56z" fill="#28292A"/>
<path d="m395.14 1633.7c24.649-17.34 49.698-32.42 74.916-45.56 15.283-36.24 29.484-84.67 40.5-149.38-51.435 40.78-87.066 76.51-111.49 107.34 0.604 28.43-0.572 57.65-3.922 87.6z" fill="#28292A"/>
<path d="m358.52 1694.4c-3.755-5.21-34.505-53.59 40.545-148.3 0.623 29.33-0.696 58.79-3.923 87.6 23.705-16.68 48.916-32.01 74.916-45.56-46.944 111.34-104.16 107.65-110.53 106.86l-1.008-0.6z" fill="#151516"/>
<path d="m358.52 1694.4c-3.755-5.21-34.504-53.59 40.545-148.3 0.622 29.33-0.696 58.79-3.923 87.6 23.704-16.68 48.916-32.01 74.916-45.56-46.948 111.34-104.16 107.65-110.53 106.86-0.137-0.08-0.504-0.3-0.504-0.3l-0.504-0.3z" fill="#151516"/>
<path d="m358.52 1694.4c-3.755-5.21-34.504-53.59 40.545-148.3 0.622 29.33-0.696 58.79-3.923 87.6 23.704-16.68 48.916-32.01 74.916-45.56-46.948 111.34-104.16 107.65-110.53 106.86-0.137-0.08-0.504-0.3-0.504-0.3l-0.504-0.3z" fill="#151516"/>
<path d="m359.54 1695c6.459 0.8 63.594 4.45 110.53-106.86-25.218 13.14-50.267 28.22-74.916 45.56 3.35-29.95 4.527-59.17 3.923-87.6-75.021 94.68-44.354 143.02-40.541 148.3 0.166 0.1 0.33 0.2 0.5 0.3 6e-3 0.01 0.34 0.2 0.507 0.3z" fill="#151516"/>
<path d="m432.84 1730.9c28.713 4.63 62.958 4.25 101.78-1.09 47.522-6.54 102.32-20.62 162.89-41.85 6.651-2.33 13.758-4.99 21.733-8.14-3.77 35.47-14.379 62.75-31.542 81.1-87.071 11.82-175.2 1.44-254.86-30.02z" fill="#3F4143"/>
<path d="m432.84 1730.9c28.713 4.63 62.958 4.25 101.78-1.09 47.517-6.54 102.32-20.62 162.89-41.85 6.645-2.33 13.758-4.99 21.733-8.14-3.77 35.47-14.379 62.75-31.542 81.1-87.071 11.82-175.2 1.44-254.86-30.02z" fill="#3F4143"/>
<path d="m432.84 1730.9c28.713 4.63 62.958 4.25 101.78-1.09 47.517-6.54 102.32-20.62 162.89-41.85 6.645-2.33 13.758-4.99 21.733-8.14-3.77 35.47-14.379 62.75-31.542 81.1-87.071 11.82-175.2 1.44-254.86-30.02z" fill="#3F4143"/>
<path d="m432.84 1730.9c50.423 8.11 132.77 3.3 264.67-42.94 7.341-2.57 14.571-5.31 21.733-8.14-3.531 33.23-13.201 61.49-31.548 81.1-86.282 11.71-174.8 1.6-254.85-30.02z" fill="#3F4143"/>
</g>
</g>
<g filter="url(#c)">
<path d="m607.49 735.39c102.53-25.207 165.21-128.76 140-231.28-25.21-102.53-128.76-165.21-231.29-140-102.53 25.206-165.21 128.76-140 231.28 25.209 102.53 128.76 165.21 231.29 140z" fill="#EAEAEA"/>
<path d="m746.76 504.29c25.111 102.12-37.323 205.27-139.45 230.38-102.13 25.108-205.27-37.327-230.38-139.45-25.11-102.12 37.324-205.27 139.45-230.38 102.13-25.108 205.27 37.327 230.38 139.45z" stroke="#fff" stroke-linecap="round" stroke-width="1.5"/>
</g>
<path d="m505.43 673.15c-9.586-3.491-18.859-7.967-27.563-13.306-8.735-5.357-16.95-11.616-24.416-18.601-15.469-14.471-27.525-31.705-35.832-51.22 0.109-0.011 11.067-1.016 28.029-0.016 16.001 24.675 35.012 44.49 56.505 58.897-1.388 9.983-0.286 18.141 3.277 24.246z" fill="#6D3EA2"/>
<path d="m505.43 673.15c-9.586-3.491-18.859-7.967-27.563-13.306-8.735-5.357-16.95-11.616-24.416-18.601-15.469-14.472-27.525-31.705-35.832-51.22 0.109-0.011 11.107-1.013 28.029-0.016 16.001 24.675 35.012 44.49 56.505 58.897-1.388 9.983-0.285 18.142 3.277 24.246z" fill="#6D3EA2"/>
<path d="m505.43 673.15c-9.586-3.491-18.859-7.967-27.563-13.306-8.735-5.357-16.95-11.616-24.416-18.601-15.469-14.472-27.525-31.705-35.832-51.22 0.109-0.011 11.107-1.013 28.029-0.016 16.001 24.675 35.012 44.49 56.505 58.897-1.388 9.983-0.285 18.142 3.277 24.246z" fill="#6D3EA2"/>
<path d="m502.16 648.91c-24.351-16.323-42.79-37.746-56.505-58.897-17.118-1.01-28.029 0.016-28.029 0.016 16.923 39.757 49.359 69.122 87.811 83.127-3.807-6.524-4.577-14.892-3.277-24.246z" fill="#6D3EA2"/>
<path d="m681.02 618.16c-0.558-7.047-4.305-14.376-11.14-21.785 9.436-24.095 13.748-51.217 12.816-80.612 13.362-10.499 22.934-15.925 23.03-15.979 4.309 20.768 4.235 41.801-0.215 62.513-2.148 9.998-5.326 19.823-9.444 29.208-4.104 9.35-9.167 18.319-15.047 26.655z" fill="#6D3EA2"/>
<path d="m681.02 618.16c-0.558-7.047-4.305-14.376-11.14-21.785 9.436-24.095 13.748-51.217 12.816-80.612 13.329-10.473 22.934-15.925 23.03-15.979 4.309 20.768 4.235 41.801-0.215 62.513-2.148 9.998-5.326 19.823-9.444 29.208-4.104 9.35-9.167 18.319-15.047 26.655z" fill="#6D3EA2"/>
<path d="m681.02 618.16c-0.558-7.047-4.305-14.376-11.14-21.785 9.436-24.095 13.748-51.217 12.816-80.612 13.329-10.473 22.934-15.925 23.03-15.979 4.309 20.768 4.235 41.801-0.215 62.513-2.148 9.998-5.326 19.823-9.444 29.208-4.104 9.35-9.167 18.319-15.047 26.655z" fill="#6D3EA2"/>
<path d="m705.72 499.78s-9.545 5.383-23.028 15.978c0.799 25.197-2.125 53.314-12.816 80.612 6.404 6.941 10.545 14.255 11.138 21.786 23.594-33.444 33.486-76.067 24.706-118.38z" fill="#6D3EA2"/>
<path d="m579.22 680.67c-24.587 3.721-50.104 1.124-73.791-7.512-3.563-6.106-4.665-14.263-3.277-24.245 2.025 1.356 3.843 2.529 5.556 3.583 15.577 9.582 30.025 16.841 42.945 21.577 10.556 3.871 20.168 6.091 28.567 6.597z" fill="#4F3FA0"/>
<path d="m579.22 680.67c-24.587 3.721-50.103 1.124-73.791-7.512-3.562-6.104-4.665-14.263-3.277-24.245 2.027 1.357 3.844 2.53 5.556 3.583 15.577 9.582 30.026 16.841 42.945 21.577 10.557 3.872 20.168 6.091 28.567 6.597z" fill="#4F3FA0"/>
<path d="m579.22 680.67c-24.587 3.721-50.103 1.124-73.791-7.512-3.562-6.104-4.665-14.263-3.277-24.245 2.027 1.357 3.844 2.53 5.556 3.583 15.577 9.582 30.026 16.841 42.945 21.577 10.557 3.872 20.168 6.091 28.567 6.597z" fill="#4F3FA0"/>
<path d="m507.71 652.5c-1.888-1.162-3.734-2.363-5.556-3.584-1.3 9.354-0.53 17.722 3.277 24.246 23.473 8.557 49.083 11.251 73.791 7.512-14.75-0.89-37.589-7.308-71.512-28.174z" fill="#4F3FA0"/>
<path d="m517.99 604.66c-28.134-10.241-54.869-13.619-72.342-14.651-13.665-21.071-23.446-42.364-29.245-56.516-6.272-15.306-9.375-25.817-9.405-25.922 0.12 0.023 12.212 2.356 29.771 7.332 16.233 4.601 40.624 12.473 64.64 23.848 1.612 24.574 7.197 46.736 16.6 65.872l-0.019 0.037z" fill="#EE1F9A"/>
<path d="m517.99 604.66c-28.134-10.241-54.868-13.619-72.342-14.651-13.665-21.072-23.446-42.364-29.245-56.516-6.283-15.334-9.374-25.817-9.405-25.922 0.12 0.023 12.184 2.348 29.771 7.331 16.233 4.602 40.625 12.474 64.64 23.849 1.613 24.575 7.198 46.738 16.6 65.872l-0.019 0.037z" fill="#EE1F9A"/>
<path d="m517.99 604.66c-28.134-10.241-54.868-13.619-72.342-14.651-13.665-21.072-23.446-42.364-29.245-56.516-6.283-15.334-9.374-25.817-9.405-25.922 0.12 0.023 12.184 2.348 29.771 7.331 16.233 4.602 40.625 12.474 64.64 23.849 1.613 24.575 7.198 46.738 16.6 65.872l-0.019 0.037z" fill="#EE1F9A"/>
<path d="m518.01 604.62c-10.326-21.013-15.146-43.72-16.6-65.871-46.49-22.022-94.411-31.181-94.411-31.181s12.196 41.645 38.65 82.438c18.726 1.106 44.882 4.657 72.342 14.651 6e-3 -0.012 0.013-0.023 0.019-0.037z" fill="#EE1F9A"/>
<path d="m517.99 604.66 0.012-0.021 0.033 0.038-0.045-0.017z" fill="#EE1F9A"/>
<path d="m517.99 604.66 0.012-0.021 0.033 0.038-0.045-0.017z" fill="#EE1F9A"/>
<path d="m517.99 604.66 0.012-0.021 0.033 0.038-0.045-0.017z" fill="#EE1F9A"/>
<path d="m517.98 604.66c0.016 7e-3 0.032 0.012 0.047 0.017-8e-3 -0.017-0.018-0.037-0.027-0.056-6e-3 0.014-0.013 0.026-0.02 0.039z" fill="#EE1F9A"/>
<path d="m631.6 569.05c-3.193-21.08-11.246-42.47-23.94-63.574 13.236-23.045 28.779-43.426 39.487-56.466 11.585-14.105 20.185-22.921 20.27-23.008 0.035 0.104 3.483 10.509 7.061 26.656 3.31 14.932 7.421 38.001 8.217 63.104-13.763 10.817-33.793 28.846-51.059 53.308l-0.036-0.02z" fill="#EE1F9A"/>
<path d="m631.6 569.05c-3.193-21.08-11.246-42.47-23.94-63.574 13.236-23.045 28.779-43.426 39.487-56.466 11.602-14.128 20.185-22.921 20.27-23.008 0.034 0.104 3.475 10.478 7.061 26.656 3.31 14.932 7.421 38.001 8.217 63.104-13.763 10.817-33.793 28.846-51.059 53.308l-0.036-0.02z" fill="#EE1F9A"/>
<path d="m631.6 569.05c-3.193-21.08-11.246-42.47-23.94-63.574 13.236-23.045 28.779-43.426 39.487-56.466 11.602-14.128 20.185-22.921 20.27-23.008 0.034 0.104 3.475 10.478 7.061 26.656 3.31 14.932 7.421 38.001 8.217 63.104-13.763 10.817-33.793 28.846-51.059 53.308l-0.036-0.02z" fill="#EE1F9A"/>
<path d="m631.6 569.05c0.012 6e-3 0.023 0.012 0.036 0.02 16.853-23.877 36.31-41.716 51.059-53.308-1.54-48.598-15.278-89.76-15.278-89.76s-34.133 34.863-59.757 79.474c11.441 19.023 20.434 40.423 23.94 63.574z" fill="#EE1F9A"/>
<path d="m631.6 569.06 0.034 0.012-0.027 0.037-7e-3 -0.049z" fill="#EE1F9A"/>
<path d="m631.6 569.06 0.034 0.012-0.027 0.037-7e-3 -0.049z" fill="#EE1F9A"/>
<path d="m631.6 569.06 0.034 0.012-0.027 0.037-7e-3 -0.049z" fill="#EE1F9A"/>
<path d="m631.61 569.1c0.011-0.013 0.019-0.026 0.029-0.039-0.013-9e-3 -0.025-0.015-0.037-0.022 2e-3 0.02 4e-3 0.042 8e-3 0.061z" fill="#EE1F9A"/>
<path d="m599.79 676.08c-0.226 0.069-0.453 0.137-0.68 0.205-6.493 1.896-12.452 3.246-18.218 4.131-0.558 0.088-1.116 0.171-1.674 0.255-8.399-0.507-18.01-2.725-28.567-6.595-12.921-4.738-27.369-11.998-42.946-21.579-1.713-1.055-3.531-2.226-5.556-3.584 1.681-12.089 7.009-26.975 15.837-44.246l0.045 0.017c1.087 2.211 2.032 4.038 2.973 5.751 15.943 29.006 32.872 48.812 50.318 58.867 13.759 7.931 24.016 7.567 28.905 6.645l-0.437 0.133z" fill="#5C2586"/>
<path d="m599.79 676.08c-0.226 0.069-0.453 0.137-0.68 0.205-6.493 1.896-12.452 3.247-18.218 4.131-0.558 0.088-1.116 0.171-1.674 0.255-8.399-0.507-18.01-2.725-28.567-6.595-12.92-4.739-27.369-11.998-42.946-21.579-1.712-1.053-3.529-2.226-5.556-3.584 1.681-12.089 7.009-26.975 15.837-44.246l0.045 0.017c1.087 2.211 2.032 4.038 2.973 5.751 15.943 29.006 32.872 48.812 50.318 58.867 13.759 7.931 24.016 7.567 28.905 6.645l-0.437 0.133z" fill="#5C2586"/>
<path d="m599.79 676.08c-0.226 0.069-0.453 0.137-0.68 0.205-6.493 1.896-12.452 3.247-18.218 4.131-0.558 0.088-1.116 0.171-1.674 0.255-8.399-0.507-18.01-2.725-28.567-6.595-12.92-4.739-27.369-11.998-42.946-21.579-1.712-1.053-3.529-2.226-5.556-3.584 1.681-12.089 7.009-26.975 15.837-44.246l0.045 0.017c1.087 2.211 2.032 4.038 2.973 5.751 15.943 29.006 32.872 48.812 50.318 58.867 13.759 7.931 24.016 7.567 28.905 6.645l-0.437 0.133z" fill="#5C2586"/>
<path d="m521.01 610.43c-1.044-1.9-2.024-3.821-2.973-5.751-0.015-5e-3 -0.03-0.01-0.045-0.017-7.723 15.109-13.955 30.711-15.837 44.246 1.822 1.22 3.667 2.421 5.556 3.584 33.923 20.866 56.762 27.284 71.513 28.174 0.557-0.084 1.116-0.167 1.674-0.255 6.172-0.946 12.21-2.377 18.216-4.131 0.373-0.111 0.745-0.225 1.119-0.338-8.808 1.662-41.865 2.458-79.223-65.512z" fill="#5C2586"/>
<path d="m604.74 674.53c4.542-2.032 13.174-7.584 19.951-21.948 8.593-18.213 11.2-44.138 7.75-77.057-0.205-1.948-0.472-3.988-0.838-6.42l0.026-0.04c17.102 9.149 29.97 18.335 38.246 27.305-0.891 2.272-1.714 4.272-2.519 6.113-7.329 16.757-15.055 30.962-22.964 42.226-6.464 9.202-13.092 16.507-19.701 21.715-0.507 0.25-1.012 0.499-1.522 0.746-5.239 2.563-10.905 4.854-17.319 7.001-0.223 0.074-0.45 0.147-0.675 0.219l-0.435 0.14z" fill="#5C2586"/>
<path d="m604.74 674.53c4.542-2.032 13.174-7.584 19.951-21.948 8.593-18.213 11.2-44.138 7.75-77.057-0.204-1.947-0.471-3.986-0.838-6.42l0.026-0.04c17.102 9.149 29.97 18.335 38.246 27.305-0.891 2.272-1.714 4.272-2.519 6.113-7.329 16.757-15.057 30.963-22.964 42.226-6.464 9.202-13.092 16.507-19.701 21.715-0.507 0.25-1.012 0.499-1.522 0.746-5.239 2.563-10.905 4.854-17.319 7.001-0.223 0.074-0.45 0.147-0.675 0.219l-0.435 0.14z" fill="#5C2586"/>
<path d="m604.74 674.53c4.542-2.032 13.174-7.584 19.951-21.948 8.593-18.213 11.2-44.138 7.75-77.057-0.204-1.947-0.471-3.986-0.838-6.42l0.026-0.04c17.102 9.149 29.97 18.335 38.246 27.305-0.891 2.272-1.714 4.272-2.519 6.113-7.329 16.757-15.057 30.963-22.964 42.226-6.464 9.202-13.092 16.507-19.701 21.715-0.507 0.25-1.012 0.499-1.522 0.746-5.239 2.563-10.905 4.854-17.319 7.001-0.223 0.074-0.45 0.147-0.675 0.219l-0.435 0.14z" fill="#5C2586"/>
<path d="m632.44 575.53c-0.228-2.157-0.517-4.293-0.838-6.42 9e-3 -0.013 0.017-0.025 0.026-0.04 14.962 8.003 28.979 17.262 38.246 27.305-0.801 2.042-1.631 4.081-2.519 6.113-15.96 36.493-31.058 54.794-42.665 63.941-0.507 0.25-1.014 0.5-1.522 0.746-5.608 2.745-11.385 5.014-17.319 7.001-0.369 0.121-0.74 0.24-1.11 0.359 8.183-3.659 35.787-21.866 27.701-99.005z" fill="#5C2586"/>
<path d="m587.36 549.14c-15.768-6.062-27.265-9.572-27.378-9.606-0.056 0.07-5.647 7.171-13.216 18.005-1.275 1.824-2.55 3.677-3.792 5.505-12.149-8.804-26.136-16.976-41.576-24.29-0.959-14.611-0.521-30.193 1.302-46.309 1.459-12.895 3.802-26.159 6.964-39.426 5.38-22.567 11.36-37.541 11.42-37.69 0.134 0.088 13.592 8.981 30.877 24.442 10.166 9.09 19.656 18.648 28.208 28.406 10.691 12.197 19.938 24.745 27.483 37.293-8.508 14.815-15.335 29.507-20.292 43.67z" fill="#EE1F9A"/>
<path d="m587.36 549.14c-15.713-6.042-27.265-9.572-27.378-9.606-0.056 0.07-5.632 7.146-13.216 18.005-1.273 1.823-2.55 3.674-3.792 5.505-12.149-8.804-26.137-16.976-41.576-24.29-0.959-14.613-0.521-30.193 1.302-46.309 1.459-12.895 3.802-26.159 6.964-39.426 5.386-22.586 11.36-37.541 11.42-37.69 0.134 0.088 13.571 8.963 30.877 24.442 10.164 9.091 19.654 18.648 28.208 28.406 10.691 12.197 19.937 24.743 27.483 37.293-8.508 14.815-15.335 29.507-20.292 43.67z" fill="#EE1F9A"/>
<path d="m587.36 549.14c-15.713-6.042-27.265-9.572-27.378-9.606-0.056 0.07-5.632 7.146-13.216 18.005-1.273 1.823-2.55 3.674-3.792 5.505-12.149-8.804-26.137-16.976-41.576-24.29-0.959-14.613-0.521-30.193 1.302-46.309 1.459-12.895 3.802-26.159 6.964-39.426 5.386-22.586 11.36-37.541 11.42-37.69 0.134 0.088 13.571 8.963 30.877 24.442 10.164 9.091 19.654 18.648 28.208 28.406 10.691 12.197 19.937 24.743 27.483 37.293-8.508 14.815-15.335 29.507-20.292 43.67z" fill="#EE1F9A"/>
<path d="m542.98 563.04c9.568-14.088 17.008-23.51 17.008-23.51s11.483 3.495 27.378 9.606c5.401-15.431 12.529-30.153 20.292-43.67-33.085-55.013-86.568-90.141-86.568-90.141s-23.89 59.366-19.686 123.42c14.086 6.672 28.339 14.697 41.576 24.29z" fill="#EE1F9A"/>
<path d="m502.15 648.91c-21.493-14.407-40.504-34.222-56.505-58.897 17.474 1.033 44.209 4.412 72.342 14.651-8.828 17.271-14.156 32.157-15.837 44.246z" fill="#941F93"/>
<path d="m502.15 648.91c-21.493-14.407-40.504-34.222-56.505-58.897 17.474 1.033 44.207 4.411 72.342 14.651-8.828 17.271-14.156 32.157-15.837 44.246z" fill="#941F93"/>
<path d="m502.15 648.91c-21.493-14.407-40.504-34.222-56.505-58.897 17.474 1.033 44.207 4.411 72.342 14.651-8.828 17.271-14.156 32.157-15.837 44.246z" fill="#941F93"/>
<path d="m517.99 604.66c-27.459-9.994-53.616-13.545-72.341-14.651 13.716 21.151 32.154 42.574 56.505 58.897 1.882-13.535 8.114-29.137 15.836-44.246z" fill="#941F93"/>
<path d="m669.88 596.37c-8.275-8.968-21.142-18.155-38.244-27.303 17.267-24.463 37.296-42.491 51.06-53.309 0.931 29.395-3.38 56.516-12.816 80.612z" fill="#941F93"/>
<path d="m669.88 596.37c-8.274-8.969-21.142-18.155-38.244-27.303 17.267-24.463 37.296-42.491 51.06-53.309 0.931 29.395-3.38 56.516-12.816 80.612z" fill="#941F93"/>
<path d="m669.88 596.37c-8.274-8.969-21.142-18.155-38.244-27.303 17.267-24.463 37.296-42.491 51.06-53.309 0.931 29.395-3.38 56.516-12.816 80.612z" fill="#941F93"/>
<path d="m669.88 596.37c10.691-27.298 13.615-55.415 12.816-80.612-14.75 11.592-34.206 29.432-51.06 53.309 14.961 8.003 28.979 17.261 38.244 27.303z" fill="#941F93"/>
<path d="m577.52 595.52c-0.797-0.982-1.415-1.739-2.004-2.451-8.829-10.675-19.777-20.777-32.538-30.024 9.489-13.97 16.933-23.417 17.008-23.51 0.114 0.034 11.622 3.548 27.378 9.606-5.205 14.875-8.434 29.418-9.597 43.223-0.078 0.938-0.157 1.941-0.247 3.156z" fill="#941F93"/>
<path d="m577.52 595.52c-0.791-0.976-1.409-1.731-2.004-2.451-8.829-10.675-19.777-20.777-32.538-30.024 9.46-13.928 16.933-23.417 17.008-23.51 0.114 0.034 11.666 3.563 27.378 9.606-5.205 14.875-8.434 29.418-9.597 43.223-0.078 0.926-0.157 1.929-0.247 3.156z" fill="#941F93"/>
<path d="m577.52 595.52c-0.791-0.976-1.409-1.731-2.004-2.451-8.829-10.675-19.777-20.777-32.538-30.024 9.46-13.928 16.933-23.417 17.008-23.51 0.114 0.034 11.666 3.563 27.378 9.606-5.205 14.875-8.434 29.418-9.597 43.223-0.078 0.926-0.157 1.929-0.247 3.156z" fill="#941F93"/>
<path d="m577.52 595.52c0.077-1.04 0.157-2.088 0.247-3.156 1.242-14.734 4.713-29.266 9.597-43.223-15.895-6.112-27.378-9.606-27.378-9.606s-7.439 9.422-17.008 23.51c11.974 8.677 23.114 18.631 32.538 30.024 0.683 0.826 1.347 1.641 2.004 2.451z" fill="#941F93"/>
<path d="m518.01 604.63c-9.403-19.135-14.988-41.298-16.6-65.871 15.439 7.313 29.427 15.485 41.576 24.29-9.969 14.675-18.371 28.666-24.976 41.581z" fill="#ED1466"/>
<path d="m518.01 604.63c-9.402-19.133-14.987-41.296-16.6-65.871 15.439 7.313 29.427 15.485 41.576 24.29-9.969 14.675-18.371 28.666-24.976 41.581z" fill="#ED1466"/>
<path d="m518.01 604.63c-9.402-19.133-14.987-41.296-16.6-65.871 15.439 7.313 29.427 15.485 41.576 24.29-9.969 14.675-18.371 28.666-24.976 41.581z" fill="#ED1466"/>
<path d="m518.01 604.63c7.8-15.251 17.106-29.994 24.976-41.581-13.236-9.593-27.49-17.618-41.576-24.29 1.454 22.151 6.275 44.858 16.6 65.871z" fill="#ED1466"/>
<path d="m631.6 569.05c-12.793-6.841-27.676-13.538-44.234-19.904 4.957-14.163 11.785-28.855 20.293-43.671 12.694 21.104 20.747 42.494 23.941 63.575z" fill="#ED1466"/>
<path d="m631.6 569.05c-12.793-6.841-27.676-13.538-44.234-19.904 4.957-14.163 11.785-28.855 20.293-43.671 12.694 21.104 20.747 42.494 23.941 63.575z" fill="#ED1466"/>
<path d="m631.6 569.05c-12.793-6.841-27.676-13.538-44.234-19.904 4.957-14.163 11.785-28.855 20.293-43.671 12.694 21.104 20.747 42.494 23.941 63.575z" fill="#ED1466"/>
<path d="m587.36 549.14c13.073 5.027 29.127 11.826 44.234 19.904-3.507-23.152-12.5-44.552-23.941-63.574-7.764 13.516-14.892 28.239-20.293 43.67z" fill="#ED1466"/>
<path d="m578.6 639.1c-17.382-14.526-37.762-26.106-60.574-34.414l-0.026-0.054c6.605-12.915 15.007-26.906 24.976-41.581 12.76 9.247 23.708 19.349 32.537 30.024 0.589 0.712 1.208 1.469 2.004 2.451-1.254 16.942-0.89 31.604 1.083 43.574z" fill="#951059"/>
<path d="m578.6 639.1c-17.382-14.527-37.762-26.106-60.574-34.414l-0.026-0.054c6.605-12.915 15.007-26.906 24.976-41.581 12.76 9.247 23.708 19.349 32.537 30.024 0.595 0.72 1.214 1.475 2.004 2.451-1.254 16.942-0.89 31.604 1.083 43.574z" fill="#951059"/>
<path d="m578.6 639.1c-17.382-14.527-37.762-26.106-60.574-34.414l-0.026-0.054c6.605-12.915 15.007-26.906 24.976-41.581 12.76 9.247 23.708 19.349 32.537 30.024 0.595 0.72 1.214 1.475 2.004 2.451-1.254 16.942-0.89 31.604 1.083 43.574z" fill="#951059"/>
<path d="m578.6 639.1c-1.798-10.91-2.451-25.102-1.083-43.574-0.657-0.81-1.321-1.625-2.004-2.451-9.424-11.393-20.564-21.347-32.537-30.024-7.87 11.586-17.177 26.33-24.976 41.581 9e-3 0.018 0.018 0.037 0.026 0.054 20.314 7.399 41.329 18.329 60.574 34.414z" fill="#951059"/>
<path d="m601.48 631.93c-5.206-10.957-13.271-23.207-23.964-36.406 0.092-1.235 0.169-2.238 0.248-3.157 1.162-13.804 4.392-28.348 9.597-43.223 16.558 6.366 31.44 13.063 44.233 19.904l8e-3 0.057c-13.998 19.839-24.13 40.977-30.122 62.825z" fill="#951059"/>
<path d="m601.48 631.93c-5.206-10.957-13.271-23.207-23.964-36.406 0.092-1.23 0.169-2.232 0.248-3.157 1.162-13.804 4.392-28.348 9.597-43.223 16.558 6.366 31.44 13.063 44.233 19.904l8e-3 0.057c-13.998 19.839-24.132 40.977-30.122 62.825z" fill="#951059"/>
<path d="m601.48 631.93c-5.206-10.957-13.271-23.207-23.964-36.406 0.092-1.23 0.169-2.232 0.248-3.157 1.162-13.804 4.392-28.348 9.597-43.223 16.558 6.366 31.44 13.063 44.233 19.904l8e-3 0.057c-13.998 19.839-24.132 40.977-30.122 62.825z" fill="#951059"/>
<path d="m587.36 549.14c-4.884 13.958-8.355 28.49-9.597 43.223-0.09 1.068-0.171 2.116-0.248 3.157 11.659 14.391 19.219 26.42 23.964 36.406 6.633-24.189 17.659-45.158 30.122-62.825-4e-3 -0.018-6e-3 -0.039-8e-3 -0.057-15.106-8.078-31.16-14.877-44.233-19.904z" fill="#951059"/>
<path d="m602.33 675.31c-0.491 0.152-0.98 0.3-1.471 0.446l-0.633 0.188c-2.246 0.424-5.951 0.772-10.84 0.024-5.871-0.899-11.949-3.143-18.065-6.668-7.854-4.527-15.733-11.163-23.417-19.722-9.217-10.268-18.268-23.439-26.901-39.146-0.941-1.713-1.886-3.54-2.973-5.751 22.812 8.309 43.192 19.888 60.574 34.414 5.524 33.516 21.878 36.038 23.726 36.215z" fill="#54174D"/>
<path d="m602.33 675.31c-0.491 0.152-0.98 0.3-1.471 0.446l-0.633 0.188c-2.246 0.424-5.951 0.772-10.84 0.024-5.871-0.899-11.949-3.143-18.065-6.668-7.854-4.527-15.733-11.163-23.417-19.722-9.216-10.267-18.268-23.439-26.901-39.146-0.941-1.713-1.886-3.54-2.973-5.751 22.812 8.309 43.192 19.888 60.574 34.414 5.525 33.517 21.878 36.038 23.726 36.215z" fill="#54174D"/>
<path d="m602.33 675.31c-0.491 0.152-0.98 0.3-1.471 0.446l-0.633 0.188c-2.246 0.424-5.951 0.772-10.84 0.024-5.871-0.899-11.949-3.143-18.065-6.668-7.854-4.527-15.733-11.163-23.417-19.722-9.216-10.267-18.268-23.439-26.901-39.146-0.941-1.713-1.886-3.54-2.973-5.751 22.812 8.309 43.192 19.888 60.574 34.414 5.525 33.517 21.878 36.038 23.726 36.215z" fill="#54174D"/>
<path d="m578.6 639.1c-19.246-16.084-40.261-27.014-60.575-34.414 0.95 1.93 1.93 3.851 2.974 5.751 37.357 67.971 70.415 67.175 79.223 65.512 0.702-0.21 1.401-0.415 2.103-0.635-1.873-0.178-18.203-2.709-23.725-36.214z" fill="#54174D"/>
<path d="m602.65 675.21c1.417-1.201 13.41-12.604-1.17-43.281 5.992-21.848 16.124-42.986 30.122-62.825 0.368 2.442 0.634 4.481 0.838 6.42 1.869 17.828 1.948 33.809 0.234 47.499-1.429 11.414-4.114 21.359-7.983 29.559-3.012 6.384-6.724 11.695-11.035 15.783-3.588 3.404-6.829 5.232-8.916 6.165l-0.626 0.206c-0.487 0.16-0.974 0.318-1.464 0.474z" fill="#54174D"/>
<path d="m602.65 675.21c1.417-1.201 13.41-12.604-1.17-43.281 5.99-21.848 16.124-42.986 30.122-62.825 0.369 2.44 0.634 4.48 0.838 6.42 1.868 17.826 1.948 33.809 0.234 47.499-1.429 11.414-4.116 21.36-7.983 29.559-3.012 6.384-6.724 11.695-11.035 15.783-3.588 3.404-6.829 5.232-8.916 6.165l-0.626 0.206c-0.487 0.16-0.974 0.318-1.464 0.474z" fill="#54174D"/>
<path d="m602.65 675.21c1.417-1.201 13.41-12.604-1.17-43.281 5.99-21.848 16.124-42.986 30.122-62.825 0.369 2.44 0.634 4.48 0.838 6.42 1.868 17.826 1.948 33.809 0.234 47.499-1.429 11.414-4.116 21.36-7.983 29.559-3.012 6.384-6.724 11.695-11.035 15.783-3.588 3.404-6.829 5.232-8.916 6.165l-0.626 0.206c-0.487 0.16-0.974 0.318-1.464 0.474z" fill="#54174D"/>
<path d="m601.48 631.93c14.575 30.668 2.607 42.064 1.169 43.279 0.703-0.22 1.394-0.45 2.09-0.678 8.183-3.659 35.787-21.867 27.701-99.006-0.228-2.156-0.517-4.293-0.838-6.42-12.464 17.667-23.49 38.636-30.122 62.825z" fill="#54174D"/>
<path d="m596.54 656.26c-5.519-6.052-11.553-11.824-17.936-17.159-1.974-11.97-2.338-26.632-1.084-43.574 10.693 13.2 18.758 25.449 23.964 36.407-2.199 8.023-3.863 16.207-4.944 24.326z" fill="#8C1338"/>
<path d="m596.54 656.26c-5.519-6.052-11.553-11.824-17.936-17.159-1.974-11.97-2.338-26.632-1.084-43.574 10.693 13.2 18.758 25.449 23.964 36.407-2.198 8.021-3.863 16.207-4.944 24.326z" fill="#8C1338"/>
<path d="m596.54 656.26c-5.519-6.052-11.553-11.824-17.936-17.159-1.974-11.97-2.338-26.632-1.084-43.574 10.693 13.2 18.758 25.449 23.964 36.407-2.198 8.021-3.863 16.207-4.944 24.326z" fill="#8C1338"/>
<path d="m596.54 656.26c1.125-8.442 2.811-16.547 4.944-24.326-4.745-9.987-12.305-22.016-23.964-36.407-1.368 18.472-0.715 32.665 1.084 43.574 6.189 5.173 12.197 10.868 17.936 17.159z" fill="#8C1338"/>
<path d="m602.33 675.31c-1.848-0.178-18.201-2.698-23.726-36.215 6.384 5.335 12.418 11.107 17.937 17.159 1.081-8.119 2.745-16.305 4.944-24.326 14.579 30.676 2.586 42.08 1.17 43.28l-0.162 0.051-0.163 0.051z" fill="#500B2B"/>
<path d="m602.33 675.31c-1.848-0.178-18.201-2.698-23.726-36.215 6.384 5.335 12.418 11.107 17.937 17.159 1.08-8.119 2.745-16.305 4.944-24.326 14.58 30.678 2.586 42.08 1.17 43.28-0.044 0.014-0.162 0.051-0.162 0.051l-0.163 0.051z" fill="#500B2B"/>
<path d="m602.33 675.31c-1.848-0.178-18.201-2.698-23.726-36.215 6.384 5.335 12.418 11.107 17.937 17.159 1.08-8.119 2.745-16.305 4.944-24.326 14.58 30.678 2.586 42.08 1.17 43.28-0.044 0.014-0.162 0.051-0.162 0.051l-0.163 0.051z" fill="#500B2B"/>
<path d="m602.65 675.21c1.437-1.215 13.406-12.611-1.169-43.279-2.133 7.779-3.819 15.884-4.945 24.326-5.739-6.291-11.747-11.986-17.936-17.159 5.522 33.504 21.852 36.036 23.725 36.213 0.056-0.015 0.109-0.032 0.163-0.049 2e-3 0 0.11-0.034 0.162-0.052z" fill="#500B2B"/>
<path d="m624.69 666.42c6.611-5.207 13.238-12.514 19.701-21.715 7.911-11.262 15.637-25.469 22.965-42.226 0.806-1.839 1.629-3.838 2.518-6.111 6.835 7.409 10.584 14.737 11.14 21.785-14.529 20.605-34.005 37.296-56.324 48.267z" fill="#4F3FA0"/>
<path d="m624.69 666.42c6.611-5.207 13.238-12.514 19.701-21.715 7.91-11.261 15.637-25.467 22.965-42.226 0.804-1.839 1.629-3.838 2.518-6.111 6.835 7.409 10.584 14.737 11.14 21.785-14.529 20.605-34.005 37.296-56.324 48.267z" fill="#4F3FA0"/>
<path d="m624.69 666.42c6.611-5.207 13.238-12.514 19.701-21.715 7.91-11.261 15.637-25.467 22.965-42.226 0.804-1.839 1.629-3.838 2.518-6.111 6.835 7.409 10.584 14.737 11.14 21.785-14.529 20.605-34.005 37.296-56.324 48.267z" fill="#4F3FA0"/>
<path d="m624.69 666.42c11.608-9.145 26.707-27.447 42.666-63.941 0.889-2.03 1.719-4.07 2.518-6.111 6.404 6.941 10.544 14.253 11.138 21.786-14.398 20.418-33.894 37.241-56.322 48.266z" fill="#4F3FA0"/>
</g>
<defs>
<filter id="f" x="821.19" y="260.26" width="890.96" height="368" color-interpolation-filters="sRGB" filterUnits="userSpaceOnUse">
<feFlood flood-opacity="0" result="BackgroundImageFix"/>
<feColorMatrix in="SourceAlpha" result="hardAlpha" values="0 0 0 0 0 0 0 0 0 0 0 0 0 0 0 0 0 0 127 0"/>
<feOffset dx="2" dy="5"/>
<feGaussianBlur stdDeviation="3"/>
<feComposite in2="hardAlpha" operator="out"/>
<feColorMatrix values="0 0 0 0 0 0 0 0 0 0 0 0 0 0 0 0 0 0 0.4 0"/>
<feBlend in2="BackgroundImageFix" result="effect1_dropShadow_165:13"/>
<feBlend in="SourceGraphic" in2="effect1_dropShadow_165:13" result="shape"/>
</filter>
<filter id="e" x="2.998" y=".037598" width="1292.6" height="1723.9" color-interpolation-filters="sRGB" filterUnits="userSpaceOnUse">
<feFlood flood-opacity="0" result="BackgroundImageFix"/>
<feColorMatrix in="SourceAlpha" result="hardAlpha" values="0 0 0 0 0 0 0 0 0 0 0 0 0 0 0 0 0 0 127 0"/>
<feOffset dx="8" dy="4"/>
<feGaussianBlur stdDeviation="4"/>
<feComposite in2="hardAlpha" operator="out"/>
<feColorMatrix values="0 0 0 0 0 0 0 0 0 0 0 0 0 0 0 0 0 0 0.35 0"/>
<feBlend in2="BackgroundImageFix" result="effect1_dropShadow_165:13"/>
<feBlend in="SourceGraphic" in2="effect1_dropShadow_165:13" result="shape"/>
</filter>
<filter id="d" x="359.65" y="349.88" width="403.31" height="403.3" color-interpolation-filters="sRGB" filterUnits="userSpaceOnUse">
<feFlood flood-opacity="0" result="BackgroundImageFix"/>
<feColorMatrix in="SourceAlpha" result="hardAlpha" values="0 0 0 0 0 0 0 0 0 0 0 0 0 0 0 0 0 0 127 0"/>
<feOffset/>
<feGaussianBlur stdDeviation="1.96612"/>
<feColorMatrix values="0 0 0 0 1 0 0 0 0 1 0 0 0 0 1 0 0 0 1 0"/>
<feBlend in2="BackgroundImageFix" result="effect1_dropShadow_165:13"/>
<feBlend in="SourceGraphic" in2="effect1_dropShadow_165:13" result="shape"/>
</filter>
<filter id="c" x="314.62" y="302.53" width="502.44" height="502.43" color-interpolation-filters="sRGB" filterUnits="userSpaceOnUse">
<feFlood flood-opacity="0" result="BackgroundImageFix"/>
<feColorMatrix in="SourceAlpha" result="hardAlpha" values="0 0 0 0 0 0 0 0 0 0 0 0 0 0 0 0 0 0 127 0"/>
<feOffset dx="4" dy="4"/>
<feGaussianBlur stdDeviation="30"/>
<feComposite in2="hardAlpha" operator="out"/>
<feColorMatrix values="0 0 0 0 0.917647 0 0 0 0 0.917647 0 0 0 0 0.917647 0 0 0 1 0"/>
<feBlend in2="BackgroundImageFix" result="effect1_dropShadow_165:13"/>
<feBlend in="SourceGraphic" in2="effect1_dropShadow_165:13" result="shape"/>
</filter>
</defs>
</svg>
