<svg width="670" height="756" viewBox="0 0 670 756" fill="none" xmlns="http://www.w3.org/2000/svg">
<path d="M472.311 581.729C468.69 582.86 445.919 586.959 403.998 594.025C361.897 601.148 333.106 606.785 278.105 618.543C222.924 630.356 200.817 635.032 194.162 635.703C187.461 636.188 181.573 634.81 176.497 631.569C171.376 628.141 167.632 621.567 165.265 611.847C163.762 605.679 164.954 599.373 168.84 592.928C172.725 586.484 177.656 582.329 183.63 580.462C191.415 578.029 204.498 575.751 222.879 573.627C248.142 570.962 270.183 568.158 346.146 554.476C422.063 540.608 464.91 532.146 474.687 529.091C481.024 527.111 485.141 524.818 487.04 522.213C488.711 519.478 488.887 515.401 487.567 509.98C485.427 501.195 477.749 481.267 464.532 450.198C456.537 430.972 444.263 393.775 427.709 338.605C424.888 328.624 419.779 316.845 412.38 303.267C410.973 300.689 410.111 298.746 409.792 297.438C408.062 290.335 408.959 284.02 412.484 278.493C416.009 272.967 420.939 269.213 427.276 267.233C437.596 264.008 446.835 265.546 454.994 271.847C462.971 278.204 468.189 286.429 470.648 296.523C471.604 300.448 472.95 308.375 474.686 320.303C476.649 332.362 478.336 341.289 479.747 347.083C494.588 408.018 518.139 463.918 550.4 514.783C555.799 523.354 559.432 531.472 561.299 539.135C563.348 547.546 561.41 555.192 555.488 562.071C549.519 568.764 543.186 573.157 536.487 575.25C532.504 576.495 523.381 577.435 509.119 578.07C492.412 579.068 480.142 580.287 472.311 581.729Z" fill="#4F3FA0"/>
<path d="M197.339 174.197C200.959 173.062 223.726 168.942 265.64 161.837C307.735 154.676 336.521 149.012 391.51 137.204C446.681 125.34 468.783 120.644 475.438 119.966C482.138 119.475 488.028 120.848 493.106 124.085C498.231 127.508 501.981 134.079 504.357 143.796C505.865 149.963 504.679 156.271 500.799 162.718C496.919 169.166 491.993 173.326 486.02 175.198C478.237 177.639 465.156 179.929 446.777 182.069C421.517 184.758 399.478 187.582 323.528 201.333C247.624 215.271 204.784 223.772 195.011 226.837C188.676 228.823 184.56 231.119 182.664 233.725C180.995 236.462 180.823 240.54 182.148 245.959C184.296 254.742 191.993 274.663 205.238 305.721C213.251 324.938 225.559 362.125 242.164 417.28C244.993 427.257 250.114 439.032 257.525 452.604C258.934 455.18 259.799 457.122 260.118 458.43C261.855 465.531 260.963 471.847 257.444 477.377C253.924 482.907 248.997 486.665 242.662 488.651C232.345 491.885 223.105 490.356 214.94 484.063C206.957 477.713 201.731 469.492 199.264 459.401C198.304 455.476 196.951 447.551 195.203 435.624C193.23 423.567 191.534 414.642 190.118 408.849C175.221 347.927 151.618 292.049 119.311 241.214C113.904 232.648 110.263 224.534 108.39 216.872C106.333 208.462 108.263 200.815 114.18 193.93C120.142 187.232 126.471 182.833 133.168 180.734C137.15 179.485 146.272 178.537 160.534 177.889C177.24 176.876 189.508 175.646 197.339 174.197Z" fill="#941F93"/>
</svg>
