<svg width="164" height="70" viewBox="0 0 164 70" fill="none" xmlns="http://www.w3.org/2000/svg">
<path d="M47.0398 49.1408C46.7844 49.2536 45.142 49.7504 42.1124 50.6311C39.0701 51.5174 35.5766 52.626 31.6318 53.9568C27.6742 55.2933 25.4522 56.0155 24.9658 56.1236C24.4738 56.2189 24.0196 56.1754 23.6034 55.9931C23.1815 55.798 22.8239 55.3685 22.5307 54.7046C22.3447 54.2832 22.3571 53.8276 22.5681 53.3377C22.779 52.8477 23.0952 52.5097 23.5166 52.3235C24.0657 52.0809 25.0103 51.8009 26.3504 51.4835C28.1954 51.0651 31.8574 50.0271 37.3365 48.3694C42.81 46.6988 45.8916 45.7113 46.5811 45.4066C47.0281 45.2092 47.3063 45.0099 47.416 44.8089C47.5072 44.6008 47.471 44.3116 47.3075 43.9413C47.0425 43.3412 46.2315 42.0057 44.8744 39.935C44.0484 38.6519 42.6874 36.1404 40.7916 32.4002C40.4616 31.722 39.9397 30.9379 39.2261 30.0477C39.0905 29.8787 39.0029 29.7495 38.9635 29.6602C38.7492 29.175 38.7397 28.7214 38.9349 28.2995C39.13 27.8776 39.4511 27.5679 39.898 27.3704C40.6259 27.0488 41.331 27.073 42.0132 27.443C42.6827 27.8186 43.1697 28.3512 43.4742 29.0406C43.5926 29.3088 43.7883 29.8556 44.0612 30.681C44.3526 31.5136 44.5857 32.1278 44.7605 32.5236C46.5986 36.686 49.0232 40.4138 52.0341 43.707C52.5388 44.2623 52.9067 44.8017 53.1379 45.3251C53.3916 45.8997 53.3399 46.4566 52.9829 46.9958C52.6202 47.5223 52.2026 47.8899 51.7301 48.0986C51.4492 48.2227 50.7827 48.3722 49.7306 48.5471C48.5013 48.7698 47.6043 48.9677 47.0398 49.1408Z" fill="#4F3FA0"/>
<path d="M20.1631 19.7486C20.4185 19.6358 22.061 19.1391 25.0905 18.2584C28.1328 17.372 30.204 16.7118 34.1488 15.381C38.1063 14.0445 39.6924 13.5132 40.1788 13.4051C40.6709 13.3098 41.125 13.3533 41.5413 13.5356C41.9632 13.7307 42.3207 14.1602 42.6139 14.8241C42.8 15.2455 42.7875 15.7011 42.5766 16.191C42.3656 16.681 42.0495 17.019 41.6281 17.2052C41.079 17.4478 40.1344 17.7278 38.7943 18.0452C36.9493 18.4636 35.3455 18.8624 29.8664 20.5201C24.3929 22.1906 21.3114 23.1782 20.6218 23.4828C20.1749 23.6803 19.8966 23.8795 19.787 24.0806C19.6958 24.2887 19.7319 24.5779 19.8955 24.9482C20.1605 25.5483 20.9715 26.8837 22.3285 28.9545C23.1546 30.2376 24.5155 32.7492 26.4113 36.4893C26.7414 37.1675 27.2632 37.9517 27.9768 38.8419C28.1124 39.0108 28.2 39.14 28.2394 39.2294C28.4537 39.7146 28.4632 40.1681 28.268 40.5901C28.0729 41.012 27.7518 41.3217 27.3049 41.5191C26.577 41.8407 25.8719 41.8165 25.1897 41.4465C24.5202 41.0709 24.0332 40.5384 23.7288 39.8489C23.6103 39.5808 23.4147 39.034 23.1417 38.2085C22.8503 37.3759 22.6172 36.7617 22.4424 36.3659C20.6043 32.2035 18.1798 28.4757 15.1688 25.1825C14.6642 24.6272 14.2963 24.0878 14.0651 23.5643C13.8114 22.9898 13.863 22.4329 14.2201 21.8937C14.5828 21.3672 15.0004 20.9996 15.4728 20.7909C15.7538 20.6667 16.4203 20.5172 17.4723 20.3423C18.7017 20.1197 19.5986 19.9218 20.1631 19.7486Z" fill="#941F93"/>
<path d="M145.962 32.9016C144.56 32.9016 143.453 33.2057 142.639 33.8141C141.826 34.4157 141.419 35.2294 141.419 36.2548C141.419 36.9316 141.607 37.4954 141.983 37.9466C142.366 38.391 142.831 38.7159 143.378 38.921C143.924 39.1192 144.465 39.2934 144.998 39.4438C145.538 39.5874 145.996 39.748 146.372 39.9257C146.755 40.0966 146.946 40.3155 146.946 40.5821C146.946 41.17 146.42 41.4639 145.367 41.4639C144.095 41.4639 142.872 41.1358 141.696 40.4795L141.696 40.4809C141.626 40.4439 141.556 40.4068 141.497 40.3767C141.195 40.2441 140.924 40.3341 140.686 40.6469C140.448 40.9502 140.303 41.3087 140.252 41.722C140.201 42.1353 140.301 42.4356 140.552 42.6231C140.599 42.6487 140.654 42.6763 140.712 42.7048H140.712C142.209 43.491 143.791 43.884 145.459 43.884C146.84 43.884 147.958 43.5628 148.812 42.9202C149.667 42.2776 150.094 41.4231 150.094 40.3566C150.094 39.6662 149.903 39.0986 149.52 38.6543C149.137 38.2031 148.672 37.8819 148.125 37.6905C147.578 37.4922 147.028 37.3282 146.475 37.1983C145.921 37.0616 145.449 36.9111 145.059 36.747C144.676 36.5761 144.485 36.3504 144.485 36.0701C144.492 35.5232 144.984 35.2498 145.962 35.2498C146.768 35.2498 147.726 35.4243 148.833 35.7729L149.633 33.4451C148.307 33.0828 147.083 32.9016 145.962 32.9016L145.962 32.9016Z" fill="#4F3FA0"/>
<path d="M98.667 43.5391C98.667 43.2599 98.8764 41.5567 99.2952 38.4295C99.714 35.2884 99.9472 33.1269 100.324 28.9806C100.701 24.8203 100.856 23.1547 100.954 22.6661C101.065 22.1774 101.289 21.7796 101.624 21.4724C101.973 21.1653 102.51 21.0117 103.236 21.0117C103.697 21.0117 104.109 21.2072 104.472 21.5981C104.835 21.989 105.016 22.4148 105.016 22.8755C105.016 23.4758 104.891 24.453 104.639 25.8072C104.276 27.664 103.993 29.2923 103.295 34.9743C102.611 40.6562 102.269 43.8742 102.269 44.6281C102.269 45.1167 102.339 45.4517 102.478 45.6332C102.632 45.8008 102.911 45.8845 103.316 45.8845C103.972 45.8845 105.522 45.6821 107.965 45.2772C109.473 45.0399 112.32 44.8095 116.509 44.5862C117.263 44.5583 118.191 44.3977 119.294 44.1045C119.503 44.0487 119.657 44.0208 119.755 44.0208C120.285 44.0208 120.704 44.1953 121.011 44.5443C121.318 44.8933 121.472 45.3121 121.472 45.8008C121.472 46.5965 121.165 47.2317 120.55 47.7064C119.936 48.1671 119.252 48.3974 118.498 48.3974C118.205 48.3974 117.626 48.3556 116.76 48.2718C115.88 48.202 115.224 48.1671 114.792 48.1671C110.24 48.1671 105.85 48.8791 101.62 50.3031C100.908 50.5404 100.265 50.6591 99.6931 50.6591C99.0648 50.6591 98.5762 50.3868 98.2272 49.8424C97.8921 49.2979 97.7246 48.7674 97.7246 48.2508C97.7246 47.9437 97.8572 47.2736 98.1225 46.2405C98.4157 45.0259 98.5972 44.1255 98.667 43.5391Z" fill="#4F3FA0"/>
<path d="M111.897 43.925C110.092 43.925 108.656 43.4123 107.59 42.3869C106.524 41.3546 105.99 40.0421 105.99 38.4492C105.99 36.8495 106.534 35.5335 107.621 34.5013C108.708 33.4622 110.133 32.9426 111.897 32.9426C113.702 32.9426 115.134 33.4622 116.193 34.5013C117.26 35.5335 117.793 36.8461 117.793 38.439C117.793 40.0181 117.25 41.3273 116.163 42.3664C115.083 43.4055 113.661 43.925 111.897 43.925ZM109.908 40.6026C110.393 41.1632 111.056 41.4435 111.897 41.4435C112.738 41.4435 113.397 41.1632 113.876 40.6026C114.361 40.042 114.604 39.3277 114.604 38.4595C114.604 37.5776 114.365 36.8564 113.886 36.2958C113.415 35.7352 112.751 35.4549 111.897 35.4549C111.042 35.4549 110.376 35.7352 109.897 36.2958C109.426 36.8564 109.19 37.5776 109.19 38.4595C109.19 39.3277 109.429 40.042 109.908 40.6026Z" fill="#4F3FA0"/>
<path d="M122.886 29.1864C122.388 29.1878 121.886 29.3014 121.38 29.5274C120.873 29.7534 120.591 30.0295 120.533 30.3556C120.533 30.4177 120.536 30.488 120.541 30.5634C120.541 30.5634 120.541 30.5647 120.541 30.5653V33.2296H119.054L118.901 35.6087H120.541V40.4385C120.527 41.6143 120.808 42.4758 121.382 43.0227C121.956 43.5627 122.725 43.8327 123.689 43.8327C124.749 43.8327 125.805 43.6515 126.858 43.2892L126.612 41.0436C125.928 41.1393 125.34 41.1871 124.848 41.1871C124.431 41.1871 124.137 41.1016 123.966 40.9307C123.795 40.753 123.71 40.4761 123.71 40.1001V35.6087H126.714L126.889 33.2296H123.71V32.3834C123.717 32.155 123.719 31.9052 123.716 31.6285C123.723 31.1853 123.722 30.7643 123.714 30.3657C123.713 30.0851 123.711 29.8548 123.705 29.6747C123.668 29.3417 123.395 29.179 122.886 29.1865L122.886 29.1864Z" fill="#4F3FA0"/>
<path d="M137.931 32.2306C137.619 32.2371 137.3 32.2867 136.976 32.3792C136.458 32.5272 136.155 32.7574 136.068 33.0699C136.064 33.1183 136.061 33.1726 136.059 33.2296H136.056V33.3018C136.054 33.3986 136.054 33.5062 136.056 33.6251V41.4229C135.4 41.5186 134.819 41.5664 134.313 41.5664C133.445 41.5664 132.826 41.3818 132.457 41.0126C132.088 40.6366 131.903 39.9531 131.903 38.9619C131.896 38.6269 131.992 36.7161 132.19 33.2296H129.021C128.823 36.0598 128.724 38.2237 128.724 39.7208C128.724 41.1086 129.158 42.1509 130.027 42.8482C130.902 43.5387 132.282 43.8839 134.169 43.8839C135.68 43.8839 137.365 43.6584 139.225 43.2072V33.2296H139.221C139.233 33.0939 139.242 32.9698 139.248 32.8669C139.242 32.5335 138.989 32.3328 138.488 32.2653C138.305 32.2383 138.119 32.2267 137.931 32.2306Z" fill="#4F3FA0"/>
<path d="M66.6953 43.5396C66.6953 43.2604 66.9047 41.5572 67.3235 38.43C67.7423 35.2889 68.1402 31.6451 68.5171 27.4988C68.8941 23.3385 69.1314 21.0141 69.2291 20.5254C69.3408 20.0368 69.5642 19.6389 69.8992 19.3318C70.2483 19.0247 70.7857 18.8711 71.5117 18.8711C71.9724 18.8711 72.3842 19.0665 72.7472 19.4574C73.1102 19.8483 73.2917 20.2741 73.2917 20.7348C73.2917 21.3352 73.166 22.3124 72.9147 23.6666C72.5518 25.5234 72.0213 29.2927 71.3232 34.9747C70.6392 40.6567 70.2971 43.8747 70.2971 44.6285C70.2971 45.1172 70.3669 45.4522 70.5065 45.6337C70.6601 45.8012 70.9393 45.885 71.3442 45.885C72.0003 45.885 73.55 45.6826 75.9931 45.2777C77.5008 45.0404 80.3488 44.81 84.537 44.5867C85.2909 44.5587 86.2192 44.3982 87.3221 44.105C87.5315 44.0492 87.6851 44.0213 87.7828 44.0213C88.3133 44.0213 88.7322 44.1958 89.0393 44.5448C89.3464 44.8938 89.5 45.3126 89.5 45.8012C89.5 46.597 89.1929 47.2322 88.5786 47.7069C87.9643 48.1676 87.2802 48.3979 86.5264 48.3979C86.2332 48.3979 85.6538 48.356 84.7883 48.2723C83.9088 48.2025 83.2526 48.1676 82.8198 48.1676C78.2686 48.1676 73.878 48.8796 69.648 50.3036C68.936 50.5409 68.2938 50.6596 67.7214 50.6596C67.0932 50.6596 66.6045 50.3873 66.2555 49.8429C65.9205 49.2984 65.7529 48.7679 65.7529 48.2513C65.7529 47.9442 65.8856 47.2741 66.1508 46.241C66.444 45.0264 66.6255 44.126 66.6953 43.5396Z" fill="#941F93"/>
<path d="M77.8695 43.6282H74.7009V33.2302H77.8695V43.6282Z" fill="#941F93"/>
<path d="M81.6404 31.4715C81.4838 31.4697 81.3018 31.5508 81.094 31.715C80.7294 31.9961 80.4223 32.3652 80.1731 32.8223C79.9238 33.2795 79.866 33.6486 79.9999 33.9299C80.0729 34.0312 80.1716 34.1516 80.2926 34.2886L83.499 38.337L79.4485 43.6281H82.9555L85.1602 40.5417L87.406 43.6281H90.9744L86.9854 38.3574L90.9334 33.2302H87.488L85.3243 36.1734L83.1194 33.2302L83.1168 33.2316C82.8012 32.7874 82.4654 32.3175 82.3404 32.1485C82.1881 31.9349 82.0611 31.7611 81.9595 31.627C81.8686 31.5251 81.7622 31.4735 81.6404 31.4721L81.6404 31.4715Z" fill="#941F93"/>
<path d="M95.6915 43.6282H92.5229V33.2302H95.6915V43.6282Z" fill="#941F93"/>
<path d="M77.3107 31.3427C77.2102 31.6099 76.9954 31.778 76.6662 31.8471C76.3369 31.9162 76.0148 31.9126 75.6999 31.8363C75.3821 31.7498 75.199 31.599 75.1505 31.3838C75.097 30.7563 75.0997 30.1352 75.1586 29.5202C75.2248 28.8924 75.2938 28.4325 75.3656 28.1406C75.4908 27.8448 75.7829 27.6608 76.2418 27.5885C76.7008 27.5163 77.1293 27.5504 77.5273 27.6909C77.9354 27.8286 78.1142 28.0623 78.0636 28.3919C78.0246 28.566 77.9714 28.7874 77.9042 29.0564C77.8142 29.4404 77.7133 29.8438 77.6014 30.2665C77.4996 30.6864 77.4027 31.0452 77.3107 31.3427Z" fill="#941F93"/>
<path d="M95.7329 30.865C95.78 31.1465 95.6785 31.3998 95.4283 31.6247C95.1781 31.8495 94.8976 32.0079 94.5869 32.0999C94.2686 32.1844 94.0345 32.1458 93.8846 31.9839C93.5237 31.4679 93.2146 30.9291 92.9571 30.3676C92.6995 29.7912 92.5286 29.3587 92.4443 29.0702C92.4043 28.7515 92.5647 28.4458 92.9255 28.1531C93.2864 27.8604 93.6742 27.675 94.089 27.597C94.5111 27.5115 94.783 27.624 94.9046 27.9345C94.9581 28.1047 95.0232 28.3229 95.0998 28.5893C95.2146 28.9667 95.3296 29.3663 95.4448 29.7881C95.5673 30.2025 95.6634 30.5615 95.7329 30.865Z" fill="#941F93"/>
</svg>
