<svg width="1792" height="804" viewBox="0 0 1792 804" fill="none" xmlns="http://www.w3.org/2000/svg">
<path d="M868.898 512.051H1050.16V582.89H784.732V221.386H868.898V512.051Z" fill="#941F93"/>
<path d="M1179.2 282.897H1098.83V205H1179.2V282.897ZM1178.18 582.89H1099.85V327.266H1178.18V582.89Z" fill="#941F93"/>
<path d="M1502.17 582.89H1413.95L1358.43 507.009L1303.93 582.89H1217.23L1317.36 452.809L1219.25 327.266H1307.98L1362.49 399.617L1415.98 327.266H1501.16L1403.56 453.313L1502.17 582.89Z" fill="#941F93"/>
<path d="M1619.8 282.897H1539.44V205H1619.8V282.897ZM1618.79 582.89H1540.45V327.266H1618.79V582.89Z" fill="#941F93"/>
<path d="M574.997 597.411C571.578 599.055 549.64 606.406 509.184 619.466C468.557 632.608 421.884 648.977 369.164 668.572C316.274 688.249 286.585 698.901 280.097 700.529C273.537 701.979 267.511 701.468 262.02 698.995C256.456 696.345 251.8 690.382 248.05 681.107C245.671 675.221 245.937 668.809 248.849 661.87C251.761 654.932 256.038 650.106 261.679 647.394C269.03 643.86 281.646 639.712 299.526 634.95C324.137 628.656 373.034 613.242 446.216 588.708C519.326 563.997 560.497 549.422 569.729 544.983C575.712 542.107 579.454 539.242 580.956 536.39C582.214 533.442 581.798 529.382 579.707 524.209C576.318 515.826 565.836 497.22 548.26 468.391C537.567 450.525 520.037 415.496 495.671 363.303C491.436 353.836 484.675 342.921 475.389 330.556C473.624 328.21 472.489 326.412 471.984 325.164C469.244 318.386 469.218 312.008 471.906 306.029C474.593 300.05 478.928 295.623 484.912 292.746C494.656 288.061 504.021 288.246 513.005 293.299C521.819 298.434 528.173 305.818 532.067 315.449C533.581 319.195 536.06 326.843 539.505 338.395C543.192 350.042 546.154 358.631 548.389 364.16C571.894 422.305 603.289 474.207 642.573 519.867C649.157 527.566 653.926 535.072 656.883 542.384C660.127 550.41 659.317 558.256 654.453 565.92C649.516 573.406 643.885 578.67 637.56 581.711C633.799 583.519 624.908 585.77 610.888 588.463C594.501 591.868 582.537 594.851 574.997 597.411Z" fill="#4F3FA0"/>
<path d="M224.37 189.957C227.789 188.313 249.726 180.962 290.182 167.902C330.81 154.76 358.481 145.014 411.201 125.419C464.091 105.742 485.288 97.9158 491.776 96.2876C498.336 94.8378 504.361 95.3492 509.853 97.8216C515.416 100.472 520.073 106.435 523.822 115.71C526.201 121.596 525.935 128.008 523.023 134.947C520.111 141.885 515.834 146.711 510.193 149.423C502.842 152.957 490.227 157.105 472.347 161.867C447.735 168.161 426.332 174.126 353.15 198.66C280.04 223.371 238.869 237.946 229.638 242.385C223.655 245.261 219.912 248.126 218.411 250.978C217.153 253.926 217.569 257.986 219.66 263.159C223.049 271.542 233.531 290.148 251.106 318.977C261.8 336.842 279.329 371.872 303.695 424.064C307.931 433.531 314.691 444.447 323.977 456.811C325.743 459.158 326.878 460.955 327.382 462.204C330.122 468.982 330.149 475.36 327.461 481.338C324.773 487.317 320.438 491.745 314.455 494.621C304.711 499.306 295.346 499.122 286.361 494.069C277.547 488.933 271.194 481.55 267.3 471.918C265.786 468.173 263.307 460.524 259.862 448.973C256.174 437.325 253.213 428.737 250.978 423.208C227.472 365.063 196.078 313.161 156.794 267.501C150.21 259.802 145.44 252.296 142.484 244.984C139.24 236.957 140.05 229.112 144.914 221.448C149.851 213.962 155.482 208.698 161.807 205.657C165.568 203.849 174.458 201.598 188.479 198.905C204.866 195.5 216.829 192.517 224.37 189.957Z" fill="#941F93"/>
</svg>
