<svg width="750" height="340" viewBox="0 0 750 340" fill="none" xmlns="http://www.w3.org/2000/svg">
<path d="M75.5919 260.774C75.5919 269.058 82.3076 275.774 90.5919 275.774H223.388C231.672 275.774 238.388 282.489 238.388 290.774V324.396C238.388 332.68 231.672 339.396 223.388 339.396H14.9999C6.71567 339.396 -6.10352e-05 332.68 -6.10352e-05 324.396V29.7197C-6.10352e-05 21.4355 6.71567 14.7197 14.9999 14.7197H60.5919C68.8762 14.7197 75.5919 21.4355 75.5919 29.7197V260.774Z" fill="#941F93"/>
<path d="M354.28 54.9645C354.28 63.2487 347.565 69.9645 339.28 69.9645H297.104C288.82 69.9645 282.104 63.2487 282.104 54.9645V15.0029C282.104 6.71867 288.82 0.00292969 297.104 0.00292969H339.28C347.565 0.00292969 354.28 6.71866 354.28 15.0029V54.9645ZM353.37 324.396C353.37 332.68 346.654 339.396 338.37 339.396H298.015C289.73 339.396 283.015 332.68 283.015 324.396V124.813C283.015 116.529 289.73 109.813 298.015 109.813H338.37C346.654 109.813 353.37 116.529 353.37 124.813V324.396Z" fill="#941F93"/>
<path d="M626.023 315.312C633.539 325.187 626.496 339.396 614.087 339.396H572.729C567.945 339.396 563.448 337.114 560.624 333.253L527.472 287.944C521.447 279.709 509.137 279.763 503.184 288.051L470.791 333.147C467.973 337.07 463.438 339.396 458.608 339.396H418.91C406.463 339.396 399.431 325.11 407.024 315.246L471.273 231.786C475.449 226.361 475.422 218.795 471.206 213.4L409.195 134.05C401.499 124.202 408.516 109.813 421.014 109.813H462.465C467.175 109.813 471.612 112.026 474.446 115.788L506.804 158.741C512.839 166.751 524.884 166.697 530.846 158.632L562.443 115.896C565.271 112.07 569.746 109.813 574.504 109.813H612.856C625.323 109.813 632.349 124.14 624.716 133.997L562.833 213.915C558.675 219.285 558.644 226.779 562.757 232.183L626.023 315.312Z" fill="#941F93"/>
<path d="M750.001 54.9645C750.001 63.2487 743.285 69.9645 735.001 69.9645H692.824C684.54 69.9645 677.824 63.2487 677.824 54.9645V15.0029C677.824 6.71867 684.54 0.00292969 692.824 0.00292969H735.001C743.285 0.00292969 750.001 6.71866 750.001 15.0029V54.9645ZM749.09 324.396C749.09 332.68 742.374 339.396 734.09 339.396H693.735C685.45 339.396 678.735 332.68 678.735 324.396V124.813C678.735 116.529 685.45 109.813 693.735 109.813H734.09C742.374 109.813 749.09 116.529 749.09 124.813V324.396Z" fill="#941F93"/>
</svg>
