<svg width="1220" height="1184" viewBox="0 0 1220 1184" fill="none" xmlns="http://www.w3.org/2000/svg">
<path d="M886.931 881.634C881.692 883.948 848.001 894.134 785.857 912.192C723.452 930.366 651.79 953.098 570.873 980.388C489.693 1007.79 444.115 1022.6 434.137 1024.82C424.044 1026.77 414.728 1025.88 406.188 1022.14C397.534 1018.14 390.198 1009.32 384.182 995.704C380.364 987.06 380.618 977.714 384.944 967.664C389.27 957.614 395.755 950.68 404.398 946.862C415.661 941.887 435.038 936.146 462.528 929.638C500.373 921.061 575.491 899.776 687.882 865.784C800.157 831.53 863.367 811.279 877.511 805.031C886.679 800.982 892.387 796.896 894.635 792.772C896.506 788.503 895.763 782.57 892.408 774.974C886.97 762.663 870.33 735.266 842.487 692.783C825.539 666.462 797.615 614.937 758.715 538.208C751.943 524.295 741.237 508.207 726.597 489.944C723.813 486.478 722.017 483.828 721.207 481.995C716.811 472.041 716.614 462.737 720.617 454.082C724.62 445.427 731.205 439.075 740.373 435.026C755.303 428.431 769.766 428.929 783.762 436.521C797.497 444.228 807.488 455.153 813.735 469.298C816.165 474.798 820.181 486.015 825.782 502.949C831.761 520.03 836.544 532.63 840.131 540.75C877.848 626.139 927.593 702.616 989.367 770.18C999.72 781.572 1007.27 792.638 1012.01 803.377C1017.22 815.164 1016.16 826.587 1008.84 837.648C1001.4 848.446 992.834 855.986 983.142 860.267C977.38 862.812 963.708 865.877 942.127 869.462C916.909 874.027 898.51 878.085 886.931 881.634Z" fill="#4F3FA0"/>
<path d="M335.58 278.706C340.819 276.392 374.51 266.206 436.653 248.148C499.059 229.974 541.545 216.436 622.462 189.147C703.641 161.741 736.177 150.845 746.155 148.629C756.248 146.675 765.564 147.569 774.103 151.31C782.758 155.313 790.094 164.124 796.11 177.745C799.928 186.389 799.674 195.735 795.348 205.785C791.022 215.835 784.537 222.769 775.893 226.587C764.63 231.562 745.254 237.303 717.764 243.811C679.919 252.388 647.019 260.564 534.629 294.556C422.353 328.81 359.144 349.061 344.999 355.309C335.832 359.358 330.124 363.444 327.876 367.568C326.005 371.837 326.748 377.77 330.103 385.366C335.54 397.677 352.181 425.074 380.024 467.557C396.972 493.878 424.896 545.403 463.796 622.132C470.567 636.044 481.273 652.132 495.914 670.395C498.697 673.861 500.493 676.511 501.303 678.345C505.7 688.298 505.897 697.602 501.894 706.257C497.891 714.912 491.305 721.264 482.138 725.314C467.208 731.908 452.745 731.41 438.748 723.819C425.014 716.112 415.023 705.186 408.775 691.042C406.346 685.541 402.33 674.324 396.728 657.39C390.749 640.31 385.966 627.71 382.38 619.59C344.663 534.201 294.917 457.724 233.144 390.16C222.791 378.768 215.242 367.702 210.499 356.963C205.293 345.176 206.351 333.753 213.674 322.692C221.112 311.894 229.677 304.354 239.369 300.073C245.131 297.528 258.803 294.463 280.384 290.878C305.602 286.313 324.001 282.256 335.58 278.706Z" fill="#941F93"/>
</svg>
