<svg width="32" height="32" viewBox="0 0 32 32" fill="none" xmlns="http://www.w3.org/2000/svg">
<path d="M8.00016 13.3335C6.5335 13.3335 5.3335 14.5335 5.3335 16.0002C5.3335 17.4668 6.5335 18.6668 8.00016 18.6668C9.46683 18.6668 10.6668 17.4668 10.6668 16.0002C10.6668 14.5335 9.46683 13.3335 8.00016 13.3335ZM24.0002 13.3335C22.5335 13.3335 21.3335 14.5335 21.3335 16.0002C21.3335 17.4668 22.5335 18.6668 24.0002 18.6668C25.4668 18.6668 26.6668 17.4668 26.6668 16.0002C26.6668 14.5335 25.4668 13.3335 24.0002 13.3335ZM16.0002 13.3335C14.5335 13.3335 13.3335 14.5335 13.3335 16.0002C13.3335 17.4668 14.5335 18.6668 16.0002 18.6668C17.4668 18.6668 18.6668 17.4668 18.6668 16.0002C18.6668 14.5335 17.4668 13.3335 16.0002 13.3335Z" fill="#4E444B"/>
</svg>
