<svg width="33" height="33" viewBox="0 0 33 33" fill="none" xmlns="http://www.w3.org/2000/svg">
<path d="M15.9354 24.687C19.0171 25.967 20.6679 18.98 17.9698 13.5146C15.2717 8.04915 15.2089 5.4892 14.9321 4.72822C14.6554 3.96723 13.5135 2.89374 11.5768 3.34397C9.64003 3.7942 12.5458 6.28519 13.2029 8.49855C13.8601 10.7119 12.9937 23.6169 15.9354 24.687Z" fill="#DE3730"/>
<path d="M15.9356 24.6871C19.0173 25.9671 20.6681 18.9801 17.97 13.5147C15.2719 8.04926 22.0235 4.90108 21.7468 4.1401C21.4701 3.37912 20.2505 2.86074 18.3851 3.34542C16.5197 3.8301 13.6527 5.24746 14.3098 7.46082C14.9669 9.67418 12.9939 23.617 15.9356 24.6871Z" fill="#DE3730"/>
<path d="M13.1685 6.90708L14.7596 11.5425L19.1528 6.38859C19.1528 6.38859 18.1496 4.00157 15.5553 4.52045C12.961 5.03933 13.1685 6.90708 13.1685 6.90708Z" fill="#FF897D"/>
<path d="M16.2782 24.8422C19.3599 26.1222 24.4106 20.0868 21.7125 14.6214C19.0144 9.15594 25.2407 5.52393 24.964 4.76294C24.6873 4.00196 23.993 3.96742 22.1276 4.4521C20.2622 4.93678 14.1031 7.59994 14.7602 9.81329C15.4173 12.0267 13.3365 23.7721 16.2782 24.8422Z" fill="#FF5449"/>
<path d="M16.2779 24.8421C19.3596 26.1221 25.9673 20.4326 23.9927 14.8684C22.0182 9.30412 22.8542 7.74142 26.9447 6.84172C26.9447 6.84172 25.2061 5.3514 23.7533 6.31973C22.3005 7.28807 18.5993 12.9965 19.2565 15.2098C19.9136 17.4232 13.3363 23.772 16.2779 24.8421Z" fill="#DE3730"/>
<path d="M16.2779 24.8415C19.9598 24.8415 20.278 18.8411 19.6113 16.1745C18.9447 13.5078 14.9447 8.17497 12.9447 6.17488C10.9447 4.1748 6.94433 2.84119 6.27763 4.84174C5.61093 6.8423 8.75423 6.84846 9.61124 9.50818C10.0793 10.961 8.74895 13.8597 8.27794 15.5082C6.9446 20.1749 12.596 24.8415 16.2779 24.8415Z" fill="#BA1A1A"/>
<path d="M15.3977 29.4275C15.6133 27.6967 15.5849 26.6522 15.3977 24.7204C13.1116 24.5809 11.1389 23.2632 9.98077 21.9931C8.82262 20.7231 4.75049 19.1538 4.75049 19.1538C6.73055 19.1535 9.16618 20.3351 10.9894 21.4329C13.6019 23.0059 14.129 23.2383 16.5184 24.0476C19.5779 23.7801 20.74 21.1339 22.9814 20.6108C25.2229 20.0876 28.8093 21.9931 28.8093 21.9931C28.8093 21.9931 24.289 20.5738 22.9814 21.9931C21.6738 23.4125 19.5083 25.0083 17.3777 24.9818C17.1298 26.7179 17.0828 27.7269 17.3777 29.4275H15.3977Z" fill="#598300"/>
</svg>
