<svg width="24" height="25" viewBox="0 0 24 25" fill="none" xmlns="http://www.w3.org/2000/svg">
<path d="M11.3668 18.7958C13.6781 19.7558 14.9162 14.5155 12.8926 10.4164C10.869 6.31738 10.8219 4.39742 10.6144 3.82668C10.4068 3.25594 9.55043 2.45082 8.09787 2.7885C6.64531 3.12617 8.82465 4.99441 9.31749 6.65443C9.81032 8.31445 9.16054 17.9932 11.3668 18.7958Z" fill="#DE3730"/>
<path d="M11.367 18.7959C13.6783 19.7559 14.9164 14.5156 12.8928 10.4165C10.8692 6.31747 15.9329 3.95633 15.7254 3.38559C15.5178 2.81485 14.6032 2.42607 13.2041 2.78958C11.8051 3.1531 9.6548 4.21612 10.1476 5.87614C10.6405 7.53616 9.16074 17.9933 11.367 18.7959Z" fill="#DE3730"/>
<path d="M9.29153 5.46095L10.4849 8.93751L13.7797 5.07208C13.7797 5.07208 13.0274 3.28182 11.0817 3.67098C9.13595 4.06014 9.29153 5.46095 9.29153 5.46095Z" fill="#FF897D"/>
<path d="M11.6238 18.9121C13.9351 19.8721 17.7231 15.3455 15.6995 11.2464C13.6759 7.14735 18.3457 4.42334 18.1382 3.8526C17.9306 3.28187 17.4099 3.25596 16.0108 3.61947C14.6118 3.98298 9.99246 5.98035 10.4853 7.64037C10.9781 9.30039 9.41754 18.1095 11.6238 18.9121Z" fill="#FF5449"/>
<path d="M11.6237 18.912C13.935 19.872 18.8907 15.6048 17.4098 11.4317C15.9289 7.25848 16.5559 6.08646 19.6238 5.41169C19.6238 5.41169 18.3199 4.29395 17.2302 5.0202C16.1406 5.74644 13.3648 10.0277 13.8576 11.6878C14.3505 13.3478 9.41747 18.1094 11.6237 18.912Z" fill="#DE3730"/>
<path d="M11.6235 18.9115C14.3849 18.9115 14.6235 14.4112 14.1235 12.4112C13.6235 10.4112 10.6235 6.41162 9.12354 4.91156C7.62354 3.4115 4.62329 2.41129 4.12326 3.9117C3.62323 5.41212 5.98071 5.41674 6.62347 7.41153C6.97455 8.50111 5.97675 10.6751 5.62349 11.9115C4.62349 15.4115 8.86207 18.9115 11.6235 18.9115Z" fill="#BA1A1A"/>
<path d="M10.9634 22.3512C11.1251 21.0532 11.1038 20.2698 10.9634 18.821C9.24883 18.7163 7.76935 17.728 6.90074 16.7755C6.03212 15.823 2.97803 14.646 2.97803 14.646C4.46308 14.6457 6.28979 15.5319 7.6572 16.3553C9.61655 17.5351 10.0119 17.7094 11.804 18.3163C14.0986 18.1157 14.9701 16.1311 16.6512 15.7387C18.3323 15.3464 21.0221 16.7755 21.0221 16.7755C21.0221 16.7755 17.6319 15.711 16.6512 16.7755C15.6705 17.84 14.0464 19.0369 12.4484 19.017C12.2625 20.3191 12.2273 21.0758 12.4484 22.3512H10.9634Z" fill="#598300"/>
</svg>
