<?xml version="1.0" encoding="UTF-8"?>
<svg viewBox="0 0 1151 195" xmlns="http://www.w3.org/2000/svg">
<path d="m42.49 155.23h91.508v35.814h-134v-182.76h42.49v146.95z" fill="#941F93"/>
<path d="m199.14 39.382h-40.571v-39.382h40.571v39.382zm-0.512 151.67h-39.547v-129.23h39.547v129.23z" fill="#941F93"/>
<path d="m362.19 191.05h-44.538l-28.029-38.363-27.516 38.363h-43.77l50.553-65.764-49.53-63.471h44.795l27.516 36.578 27.005-36.578h43.002l-49.274 63.725 49.786 65.51z" fill="#941F93"/>
<path d="m421.58 39.382h-40.571v-39.382h40.571v39.382zm-0.512 151.67h-39.547v-129.23h39.547v129.23z" fill="#941F93"/>
<path d="m496.58 155.23h91.508v35.814h-134v-182.76h42.49v146.95z" fill="#4F3FA0"/>
<path d="m673.45 194.74c-22.525 0-40.442-6.373-53.753-19.118-13.31-12.83-19.965-29.143-19.965-48.941 0-19.882 6.783-36.238 20.349-49.068 13.566-12.915 31.356-19.372 53.369-19.372 22.525 0 40.4 6.4574 53.625 19.372 13.311 12.83 19.966 29.144 19.966 48.941 0 19.627-6.783 35.898-20.35 48.813-13.481 12.915-31.228 19.373-53.241 19.373zm-24.828-41.294c6.057 6.967 14.334 10.451 24.828 10.451 10.495 0 18.728-3.484 24.701-10.451 6.058-6.967 9.087-15.846 9.087-26.637 0-10.961-2.986-19.925-8.959-26.892-5.887-6.9673-14.163-10.451-24.829-10.451-10.665 0-18.984 3.4837-24.956 10.451-5.888 6.967-8.831 15.931-8.831 26.892 0 10.791 2.986 19.67 8.959 26.637z" fill="#4F3FA0"/>
<path d="m835.09 160.72c6.143 0 13.481-0.595 22.013-1.785l3.072 27.912c-13.14 4.503-26.322 6.755-39.547 6.755-12.03 0-21.629-3.356-28.796-10.069-7.167-6.797-10.665-17.503-10.495-32.117v-60.029h-20.477l1.92-29.568h18.557v-33.137l39.547-5.2255v38.362h39.675l-2.176 29.568h-37.499v55.823c0 4.673 1.066 8.114 3.2 10.323 2.133 2.125 5.802 3.187 11.006 3.187z" fill="#4F3FA0"/>
<path d="m974.98 61.813h39.543v124.01c-23.204 5.608-44.236 8.412-63.092 8.412-23.549 0-40.784-4.291-51.705-12.872-10.836-8.667-16.254-21.624-16.254-38.873 0-18.607 1.237-45.5 3.711-80.676h39.547c-2.474 43.333-3.669 67.082-3.583 71.245 0 12.32 2.303 20.817 6.911 25.49 4.607 4.588 12.329 6.882 23.165 6.882 6.314 0 13.566-0.594 21.757-1.784v-101.83z" fill="#4F3FA0"/>
<path d="m1098.6 58.245c13.99 0 29.26 2.2516 45.82 6.7548l-9.99 28.931c-13.82-4.3333-25.76-6.5-35.83-6.5-12.2 0-18.35 3.3987-18.43 10.196 0 3.4832 2.39 6.2872 7.17 8.4122 4.86 2.039 10.75 3.908 17.66 5.607 6.91 1.615 13.78 3.654 20.6 6.118 6.83 2.379 12.63 6.372 17.41 11.98 4.78 5.523 7.17 12.575 7.17 21.157 0 13.255-5.34 23.876-16 31.863-10.67 7.986-24.62 11.98-41.85 11.98-20.82 0-40.57-4.886-59.26-14.657l12.29-27.657c14.67 8.157 29.95 12.236 45.82 12.236 13.14 0 19.71-3.654 19.71-10.961 0-3.314-2.39-6.033-7.17-8.157-4.69-2.209-10.41-4.206-17.15-5.99-6.66-1.869-13.4-4.036-20.22-6.5-6.83-2.549-12.63-6.585-17.41-12.108-4.69-5.608-7.04-12.617-7.04-21.029 0-12.745 5.08-22.856 15.23-30.333 10.16-7.562 23.98-11.343 41.47-11.343z" fill="#4F3FA0"/>
</svg>
