<svg width="2592" height="1242" viewBox="0 0 2592 1242" fill="none" xmlns="http://www.w3.org/2000/svg">
<g clip-path="url(#clip0_209_18504)">
<rect width="2592" height="1242" rx="73.3533" fill="#1E1E1E"/>
<g style="mix-blend-mode:exclusion">
<path d="M2026.07 -60C1794.46 -59.0983 1606.93 122.665 1606 347.153C1606 392.111 1613.49 436.768 1628.15 479.407C1639.09 508.434 1671.57 524.064 1702.05 515.09C1731.51 504.14 1747.15 472.923 1737.75 443.724C1725.3 410.489 1719.77 375.235 1721.41 339.939C1726.46 177.799 1866.14 50.3117 2033.42 55.2069C2200.71 60.102 2332.24 195.49 2327.19 357.63C2322.45 509.422 2199.11 632.701 2042.68 641.933C2042.68 641.933 1983.72 645.411 1954.39 648.889C1943.58 650.392 1932.86 652.453 1922.27 655.073C1920.76 656.575 1918.33 656.575 1916.78 655.116L1916.73 655.073C1915.67 653.741 1915.67 651.852 1916.73 650.521L1925.86 602.257L1981.24 360.851C1987.88 330.707 1968.08 301.036 1936.98 294.595C1905.88 288.154 1875.27 307.348 1868.62 337.492C1868.62 337.492 1736.91 928.383 1736.91 933.75C1729.38 962.477 1747.28 991.676 1776.92 998.976C1777.23 999.061 1777.58 999.147 1777.89 999.19H1780.95C1810.54 1006.62 1840.75 989.357 1848.37 960.674C1848.51 960.201 1848.64 959.729 1848.73 959.213C1848.64 958.312 1848.64 957.41 1848.73 956.551C1850.37 949.595 1866.98 870.973 1866.98 870.973C1879.56 811.63 1928.92 766.157 1990.67 756.968C2003.39 755.079 2056.81 751.601 2056.81 751.601C2287.54 729.315 2455.93 529.947 2432.89 306.317C2411.89 102.355 2237.57 -54.6755 2026.07 -60Z" fill="#1E1E1E"/>
<path d="M1982.37 901.087C1956.7 895.471 1931.59 912.793 1926.24 939.738C1926.18 939.99 1926.15 940.242 1926.09 940.495C1920.54 967.282 1936.69 993.754 1962.22 999.591C1962.25 999.591 1962.28 999.591 1962.31 999.622H1963.63C1988.62 1005.96 2013.76 989.81 2019.76 963.59C2019.82 963.401 2019.85 963.18 2019.91 962.991V960.246C2024.33 933.175 2007.87 907.208 1982.37 901.087Z" fill="#E6007A"/>
</g>
</g>
<defs>
<clipPath id="clip0_209_18504">
<rect width="2592" height="1242" rx="73.3533" fill="white"/>
</clipPath>
</defs>
</svg>
