<svg width="2592" height="1242" viewBox="0 0 2592 1242" fill="none" xmlns="http://www.w3.org/2000/svg">
<g clip-path="url(#clip0_209_18504)">
<rect width="2592" height="1242" rx="73.3533" fill="black"/>
<g opacity="0.5">
<path opacity="0.05" d="M8200.34 -2783.37L9581.85 2034.53L6100.19 5639.9L1237.01 4427.37L-144.507 -390.527L3337.16 -3995.9L8200.34 -2783.37Z" stroke="white" stroke-width="5"/>
<path opacity="0.1" d="M7919.95 -2733.38L9398.37 1816.71L6197.09 5372.08L1517.4 4377.38L38.9821 -172.699L3240.26 -3728.08L7919.95 -2733.38Z" stroke="white" stroke-width="5"/>
<path opacity="0.14" d="M7647.48 -2668.41L9205.87 1613.22L6277.06 5103.63L1789.87 4312.42L231.479 30.7854L3160.28 -3459.63L7647.48 -2668.41Z" stroke="white" stroke-width="5"/>
<path opacity="0.19" d="M7383.62 -2588.97L9005.15 1424.43L6340.2 4835.41L2053.73 4232.98L432.203 219.576L3097.15 -3191.4L7383.62 -2588.97Z" stroke="white" stroke-width="5"/>
<path opacity="0.23" d="M7129.05 -2495.59L8796.99 1250.65L6386.61 4568.25L2308.3 4139.6L640.364 393.352L3050.74 -2924.24L7129.05 -2495.59Z" stroke="white" stroke-width="5"/>
<path opacity="0.28" d="M6884.4 -2388.82L8582.2 1092.17L6416.47 4302.99L2552.95 4032.82L855.154 551.836L3020.88 -2658.99L6884.4 -2388.82Z" stroke="white" stroke-width="5"/>
<path opacity="0.32" d="M6650.3 -2269.24L8361.59 949.218L6429.96 4040.46L2787.05 3913.25L1075.76 694.787L3007.38 -2396.46L6650.3 -2269.24Z" stroke="white" stroke-width="5"/>
<path opacity="0.37" d="M6427.33 -2137.48L8135.99 822.004L6427.33 3781.48L3010.02 3781.48L1301.36 822L3010.02 -2137.48L6427.33 -2137.48Z" stroke="white" stroke-width="5"/>
<path opacity="0.41" d="M6216.05 -1994.15L7906.22 710.692L6408.85 3526.84L3221.3 3638.15L1531.12 933.312L3028.5 -1882.84L6216.05 -1994.15Z" stroke="white" stroke-width="5"/>
<path opacity="0.46" d="M6016.98 -1839.93L7673.13 615.408L6374.82 3277.34L3420.36 3483.93L1764.22 1028.6L3062.53 -1633.33L6016.98 -1839.93Z" stroke="white" stroke-width="5"/>
<path opacity="0.5" d="M5830.63 -1675.49L7437.55 536.238L6325.59 3033.73L3606.72 3319.5L1999.8 1107.77L3111.76 -1389.73L5830.63 -1675.49Z" stroke="white" stroke-width="5"/>
<path opacity="0.55" d="M5657.45 -1501.55L7200.32 473.231L6261.54 2796.78L3779.9 3145.55L2237.03 1170.77L3175.81 -1152.78L5657.45 -1501.55Z" stroke="white" stroke-width="5"/>
<path opacity="0.59" d="M5497.87 -1318.81L6962.27 426.397L6183.08 2567.21L3939.48 2962.82L2475.08 1217.61L3254.27 -923.206L5497.87 -1318.81Z" stroke="white" stroke-width="5"/>
<path opacity="0.64" d="M5352.28 -1128.03L6724.26 395.704L6090.65 2345.74L4085.07 2772.03L2713.09 1248.3L3346.7 -701.732L5352.28 -1128.03Z" stroke="white" stroke-width="5"/>
</g>
<path d="M2147.16 400.104L1840.64 728.256C1819.44 750.604 1860.2 777.656 1889.55 758.837L2191.18 569.473C2199.33 564.768 2210.74 568.297 2210.74 576.53V1168.15C2210.74 1176.38 2196.07 1179.91 2189.55 1174.03L1276.52 385.99C1247.17 360.114 1204.78 346 1157.5 346H1124.89C1040.11 346 970 396.575 970 458.913V1291.64C970 1353.98 1040.11 1404.56 1126.52 1404.56C1180.32 1404.56 1230.87 1384.56 1260.21 1350.45L1566.73 1022.3C1587.93 999.952 1547.17 972.9 1517.82 991.719L1216.19 1179.91C1208.04 1184.61 1196.63 1181.08 1196.63 1172.85V582.411C1196.63 574.178 1211.3 570.649 1217.82 576.53L2130.85 1364.57C2160.2 1390.44 2204.22 1404.56 2249.87 1404.56H2282.48C2368.89 1404.56 2439 1353.98 2439 1291.64V458.913C2439 396.575 2368.89 346 2282.48 346C2227.05 346 2176.5 365.995 2147.16 400.104Z" fill="white"/>
</g>
<defs>
<clipPath id="clip0_209_18504">
<rect width="2592" height="1242" rx="73.3533" fill="white"/>
</clipPath>
</defs>
</svg>
