<svg xmlns="http://www.w3.org/2000/svg" viewBox="0 0 196.7 163.08"><defs><style>.cls-1{fill:#171714;}</style></defs><g id="Layer_2" data-name="Layer 2"><g id="Layer_2-2" data-name="Layer 2"><path class="cls-1" d="M193,163.08H3.7a3.7,3.7,0,0,1-3.7-3.7V23.6A23.62,23.62,0,0,1,23.6,0H173.09A23.63,23.63,0,0,1,196.7,23.6V159.38A3.7,3.7,0,0,1,193,163.08ZM7.39,155.69H189.3V23.6A16.23,16.23,0,0,0,173.09,7.39H23.6A16.23,16.23,0,0,0,7.39,23.6Z"/><path class="cls-1" d="M98.35,92.76a28.47,28.47,0,1,1,28.46-28.47A28.49,28.49,0,0,1,98.35,92.76Zm0-49.54a21.07,21.07,0,1,0,21.07,21.07A21.09,21.09,0,0,0,98.35,43.22Z"/><path class="cls-1" d="M75.61,58.17H20.06a3.69,3.69,0,0,1-3.69-3.7V4.05a3.7,3.7,0,0,1,7.39,0V50.78H75.61a3.7,3.7,0,1,1,0,7.39Z"/><path class="cls-1" d="M176.63,58.17H121.08a3.7,3.7,0,0,1,0-7.39h51.85V4.05a3.7,3.7,0,0,1,7.4,0V54.47A3.7,3.7,0,0,1,176.63,58.17Z"/><path class="cls-1" d="M176.63,147.6H20.06a3.7,3.7,0,0,1-3.69-3.7V74.12a3.7,3.7,0,0,1,3.69-3.7H75.61a3.7,3.7,0,1,1,0,7.39H23.76v62.4H172.93V77.81H121.08a3.7,3.7,0,0,1,0-7.39h55.55a3.7,3.7,0,0,1,3.7,3.7V143.9A3.7,3.7,0,0,1,176.63,147.6Z"/></g></g></svg>