<svg width="563" height="669" viewBox="0 0 563 669" fill="none" xmlns="http://www.w3.org/2000/svg">
<path d="M381.076 558.736C377.314 559.221 354.177 559.304 311.667 558.983C268.968 558.687 239.635 559.239 183.429 561.267C127.034 563.319 104.452 564.085 97.781 563.591C91.0978 562.905 85.5383 560.525 81.1026 556.451C76.6545 552.186 74.1088 545.062 73.4653 535.079C73.0569 528.743 75.3255 522.74 80.2712 517.068C85.2169 511.397 90.7937 508.161 97.0018 507.359C105.091 506.315 118.371 506.344 136.842 507.444C162.184 509.206 184.377 510.272 261.561 509.989C338.733 509.515 382.399 508.621 392.557 507.31C399.142 506.461 403.595 504.918 405.916 502.682C408.038 500.279 408.919 496.294 408.56 490.726C407.978 481.703 403.877 460.745 396.256 427.852C391.721 407.531 386.093 368.767 379.37 311.56C378.326 301.242 375.339 288.754 370.411 274.097C369.473 271.315 368.961 269.252 368.874 267.908C368.404 260.612 370.384 254.549 374.815 249.719C379.246 244.888 384.753 242.048 391.338 241.198C402.061 239.814 410.892 242.933 417.833 250.555C424.586 258.201 428.296 267.207 428.964 277.574C429.224 281.606 429.173 289.646 428.812 301.695C428.651 313.911 428.762 322.995 429.146 328.946C433.18 391.533 446.666 450.673 469.604 506.368C473.434 515.746 475.602 524.371 476.109 532.242C476.666 540.881 473.431 548.074 466.403 553.821C459.364 559.375 452.364 562.602 445.403 563.5C441.264 564.034 432.117 563.376 417.961 561.525C401.334 559.606 389.039 558.676 381.076 558.736Z" fill="#4F3FA0"/>
<path d="M181.049 109.647C184.811 109.158 207.948 109.054 250.459 109.336C293.158 109.593 322.49 109.014 378.694 106.934C435.087 104.831 457.669 104.044 464.34 104.532C471.024 105.212 476.586 107.587 481.025 111.656C485.477 115.917 488.029 123.039 488.682 133.022C489.096 139.357 486.833 145.363 481.893 151.038C476.952 156.714 471.378 159.956 465.171 160.763C457.083 161.814 443.803 161.798 425.331 160.715C399.988 158.976 377.794 157.93 300.609 158.284C223.438 158.83 179.773 159.763 169.616 161.083C163.032 161.939 158.581 163.486 156.261 165.723C154.142 168.129 153.264 172.115 153.628 177.682C154.218 186.704 158.339 207.659 165.99 240.545C170.543 260.862 176.207 299.621 182.982 356.821C184.036 367.138 187.034 379.623 191.976 394.276C192.917 397.057 193.431 399.12 193.519 400.464C193.996 407.759 192.021 413.824 187.594 418.658C183.168 423.493 177.663 426.338 171.08 427.194C160.358 428.588 151.523 425.477 144.576 417.862C137.816 410.222 134.097 401.219 133.42 390.853C133.156 386.821 133.2 378.781 133.55 366.732C133.7 354.516 133.58 345.432 133.191 339.481C129.099 276.898 115.559 217.77 92.5695 162.097C88.7317 152.722 86.5555 144.099 86.0409 136.228C85.4761 127.589 88.7047 120.394 95.7268 114.641C102.761 109.08 109.759 105.847 116.718 104.942C120.857 104.404 130.005 105.054 144.162 106.892C160.791 108.796 173.086 109.714 181.049 109.647Z" fill="#941F93"/>
</svg>
