<?xml version="1.0" encoding="utf-8"?>
<!-- Generator: Adobe Illustrator 19.0.0, SVG Export Plug-In . SVG Version: 6.00 Build 0)  -->
<svg version="1.1" id="Layer_1" xmlns="http://www.w3.org/2000/svg" xmlns:xlink="http://www.w3.org/1999/xlink" x="0px" y="0px"
	 viewBox="0 0 512 512" style="enable-background:new 0 0 512 512;" xml:space="preserve">
<g id="XMLID_1_">
	<path id="XMLID_5_" d="M33,255.6c0-58.2,21.2-111.7,61.3-154.9c6.3-6.3,6.3-16.5-0.8-22.8c-3.1-3.1-7.1-4.7-11-4.7
		c-4.7,0-8.7,1.6-11.8,4.7C24.4,127.4,0,188.8,0,255.6s24.4,128.2,70.8,177.7c3.1,3.1,7.1,5.5,11.8,5.5c3.9,0,7.9-1.6,11-4.7
		c3.1-3.1,4.7-7.1,4.7-11.8c0-4.7-1.6-8.7-4.7-11.8C54.3,367.3,33,313.8,33,255.6z M441.2,77.9c-3.1-3.1-7.1-4.7-11.8-4.7
		c-3.9,0-7.9,1.6-11,4.7c-3.1,3.1-4.7,7.1-4.7,11.8c0,4.7,1.6,8.7,4.7,11.8c40.1,43.3,61.3,96.7,61.3,154.9s-21.2,111.7-61.3,154.9
		c-6.3,6.3-6.3,16.5,0,22.8c3.1,3.1,7.1,4.7,11,4.7c4.7,0,8.7-1.6,11.8-5.5c46.4-48.8,70.8-110.1,70.8-177S487.6,127.4,441.2,77.9
		L441.2,77.9z"/>
	<path id="XMLID_8_" d="M146.3,360.2c-27.5-27.5-42.5-64.5-42.5-103.8c0-40.1,15.7-77.9,44-105.4c6.3-6.3,6.3-16.5,0-22.8
		c-3.1-3.1-7.1-4.7-11.8-4.7c-3.9,0-7.9,1.6-11,4.7C90.4,162,71.6,207.6,71.6,256.4c0,47.2,18.1,92,51.9,125.8
		c3.1,3.1,7.1,4.7,11,4.7c3.9,0,7.9-1.6,11-4.7c3.1-3.1,4.7-7.1,4.7-11C151,367.3,148.6,363.4,146.3,360.2z M387.7,128.2
		c-3.1-3.1-7.1-4.7-11-4.7c-4.7,0-8.7,1.6-11.8,4.7c-6.3,6.3-6.3,16.5,0,22.8c28.3,28.3,44,64.5,44,104.6
		c0,39.3-14.9,77.1-42.5,104.6c-6.3,6.3-6.3,16.5,0,22.8c3.1,3.1,7.1,4.7,11,4.7c4.7,0,8.7-1.6,11-4.7
		c33.8-33.8,51.9-79.4,51.9-127.4C441.2,206.8,422.3,162.8,387.7,128.2z"/>
	<path id="XMLID_12_" d="M200.6,173c-3.1-3.1-7.1-4.7-11.8-4.7c-3.9,0-7.9,1.6-11,4.7c-22.8,22-35.4,51.9-35.4,83.4
		c0,30.7,11.8,59.8,33.8,82.6c3.1,3.1,7.1,4.7,11.8,4.7c3.9,0,7.9-1.6,11-4.7c3.1-3.1,4.7-7.1,4.7-11s-1.6-8.7-4.7-11.8
		c-15.7-15.7-24.4-37-24.4-59.8s9.4-44.8,25.2-60.6C206.8,189.5,206.8,179.3,200.6,173L200.6,173z M335.8,172.2
		c-3.1-3.1-7.1-4.7-11-4.7c-4.7,0-8.7,1.6-11.8,4.7c-6.3,6.3-6.3,16.5,0,22.8c16.5,16.5,26,37.8,26,61.3c0,22.8-8.7,44-24.4,59.8
		c-3.1,3.1-4.7,7.1-4.7,11s1.6,7.9,4.7,11c3.1,3.1,7.1,4.7,11,4.7c3.9,0,8.7-1.6,11-4.7c22-22,33.8-51.1,33.8-82.6
		C371.2,224.9,358.6,195,335.8,172.2L335.8,172.2z M256.4,212.4c-23.6,0-43.3,19.7-43.3,43.3s19.7,43.3,43.3,43.3
		c23.6,0,43.3-19.7,43.3-43.3S280,212.4,256.4,212.4z"/>
</g>
</svg>
