<?xml version="1.0" encoding="UTF-8"?>
<svg version="1.1" viewBox="0 0 196.7 196.7" xmlns="http://www.w3.org/2000/svg">
<defs>
<style>.cls-1{fill:#949494;}</style>
</defs>
<g transform="translate(.58542 33.564)" data-name="Layer 2">
<g data-name="Layer 2">
<path class="cls-1" d="m193 163.08h-189.3a3.7 3.7 0 0 1-3.7-3.7v-135.78a23.62 23.62 0 0 1 23.6-23.6h149.49a23.63 23.63 0 0 1 23.61 23.6v135.78a3.7 3.7 0 0 1-3.7 3.7zm-185.61-7.39h181.91v-132.09a16.23 16.23 0 0 0-16.21-16.21h-149.49a16.23 16.23 0 0 0-16.21 16.21z"/>
<path class="cls-1" d="m98.35 92.76a28.47 28.47 0 1 1 28.46-28.47 28.49 28.49 0 0 1-28.46 28.47zm0-49.54a21.07 21.07 0 1 0 21.07 21.07 21.09 21.09 0 0 0-21.07-21.07z"/>
<path class="cls-1" d="m75.61 58.17h-55.55a3.69 3.69 0 0 1-3.69-3.7v-50.42a3.7 3.7 0 0 1 7.39 0v46.73h51.85a3.7 3.7 0 1 1 0 7.39z"/>
<path class="cls-1" d="m176.63 58.17h-55.55a3.7 3.7 0 0 1 0-7.39h51.85v-46.73a3.7 3.7 0 0 1 7.4 0v50.42a3.7 3.7 0 0 1-3.7 3.7z"/>
<path class="cls-1" d="m176.63 147.6h-156.57a3.7 3.7 0 0 1-3.69-3.7v-69.78a3.7 3.7 0 0 1 3.69-3.7h55.55a3.7 3.7 0 1 1 0 7.39h-51.85v62.4h149.17v-62.4h-51.85a3.7 3.7 0 0 1 0-7.39h55.55a3.7 3.7 0 0 1 3.7 3.7v69.78a3.7 3.7 0 0 1-3.7 3.7z"/>
</g>
</g>
</svg>
