<svg width="28" height="28" viewBox="0 0 28 28" fill="none" xmlns="http://www.w3.org/2000/svg">
<path fill-rule="evenodd" clip-rule="evenodd" d="M27.4279 5.38067L22.7139 0.666626L17.9998 5.38067L19.5083 6.88915L21.5999 4.79758V9.99996L23.7332 9.99055V4.70295L25.9194 6.88915L27.4279 5.38067ZM7.8665 6.88723C8.15388 6.74059 8.42287 6.61421 8.6665 6.50657C9.47162 6.15088 9.99984 5.99996 9.99984 5.99996V8.26088V8.66663C9.99984 10.1394 11.1937 11.3333 12.6665 11.3333C13.2198 11.3333 13.7338 11.1648 14.1598 10.8763C14.3825 10.7254 14.5812 10.5419 14.749 10.3324C15.042 9.9666 15.2406 9.52191 15.3079 9.03527C15.6789 9.3643 16.0444 9.72451 16.3947 10.118C16.5897 10.3369 16.78 10.5662 16.9639 10.8061C18.3213 12.5765 19.3332 14.9269 19.3332 18C19.3332 23.1546 15.1545 27.3333 9.99984 27.3333C4.84518 27.3333 0.666504 23.1546 0.666504 18C0.666504 11.5589 5.11158 8.29288 7.8665 6.88723ZM14.6665 22.6666C14.6665 22.9699 14.6376 23.2665 14.5823 23.5537C16.181 22.2331 17.1998 20.2355 17.1998 18C17.1998 15.6757 16.5153 13.887 15.5578 12.4981C14.7546 13.1048 13.7524 13.4666 12.6665 13.4666C10.2313 13.4666 8.21963 11.6532 7.90832 9.30301C5.58202 10.7182 2.79984 13.3752 2.79984 18C2.79984 20.2355 3.81869 22.2331 5.41738 23.5537C5.36211 23.2665 5.33317 22.9699 5.33317 22.6666C5.33317 18.6666 9.99984 16.6666 9.99984 16.6666C9.99984 16.6666 14.6665 18.6666 14.6665 22.6666ZM9.99984 25.2C11.399 25.2 12.5332 24.0657 12.5332 22.6666C12.5332 21.5606 11.8931 20.5992 10.9448 19.7864C10.6203 19.5082 10.2907 19.2758 9.99984 19.0919C9.70895 19.2758 9.37941 19.5082 9.05486 19.7864C8.10655 20.5992 7.4665 21.5606 7.4665 22.6666C7.4665 24.0657 8.60072 25.2 9.99984 25.2Z" fill="#9E2A9C"/>
</svg>
