<svg width="15" height="16" viewBox="0 0 15 16" fill="none" xmlns="http://www.w3.org/2000/svg">
<path fill-rule="evenodd" clip-rule="evenodd" d="M7.8193 14.7532L10.0272 9.78557C10.1605 10.4774 10.7692 11 11.5 11H13.375C13.9963 11 14.5 10.4963 14.5 9.875L14.5 1.625C14.5 1.00368 13.9963 0.5 13.375 0.5H11.5C10.7286 0.5 10.0932 1.08232 10.0094 1.83136C9.6102 1.47006 9.0808 1.25 8.5 1.25L3.10748 1.25C1.95154 1.25 0.983665 2.12591 0.868646 3.27612L0.418647 7.77612C0.286191 9.10066 1.32633 10.25 2.65748 10.25L5.38524 10.25L4.92303 13.4855C4.77114 14.5487 5.59617 15.5 6.67021 15.5C7.16715 15.5 7.61747 15.2073 7.8193 14.7532ZM10 3.5C10 2.67157 9.32843 2 8.5 2L3.10748 2C2.33685 2 1.6916 2.58394 1.61492 3.35075L1.16492 7.85074C1.07662 8.73377 1.77005 9.5 2.65748 9.5L6.25 9.5L5.66549 13.5915C5.57815 14.203 6.05258 14.75 6.67021 14.75C6.87076 14.75 7.05249 14.6319 7.13394 14.4486L10 8L10 3.5ZM13.75 9.875C13.75 10.0821 13.5821 10.25 13.375 10.25H11.5C11.0858 10.25 10.75 9.91421 10.75 9.5V8.15916L10.75 3.5V2C10.75 1.58579 11.0858 1.25 11.5 1.25H13.375C13.5821 1.25 13.75 1.41789 13.75 1.625L13.75 9.875Z" fill="white"/>
</svg>
