<svg width="60" height="60" viewBox="0 0 60 60" fill="none" xmlns="http://www.w3.org/2000/svg">
<circle cx="30" cy="30" r="24" fill="#FFFBFF"/>
<circle cx="30" cy="30" r="24" fill="#9E2A9C" fill-opacity="0.05"/>
<mask id="mask0_1955_40612" style="mask-type:alpha" maskUnits="userSpaceOnUse" x="6" y="6" width="48" height="48">
<circle cx="30" cy="30" r="24" fill="#FFDBD1"/>
</mask>
<g mask="url(#mask0_1955_40612)">
<path fill-rule="evenodd" clip-rule="evenodd" d="M31.9106 6C31.1742 6 30.5773 6.5969 30.5773 7.33328V8.22222C30.5773 10.4444 26.1328 17.1111 26.1328 17.1111V20.4444L26.1328 23.7778V27.1111H40.5773C41.1909 27.1111 41.6884 26.6136 41.6884 26V24.8889C41.6884 24.2752 41.1909 23.7778 40.5773 23.7778C41.1909 23.7778 41.6884 23.2803 41.6884 22.6667V21.5556C41.6884 20.9419 41.1909 20.4444 40.5773 20.4444C41.1909 20.4444 41.6884 19.947 41.6884 19.3333L41.6884 18.2222C41.6884 17.6086 41.1909 17.1111 40.5773 17.1111C41.1909 17.1111 41.6884 16.6137 41.6884 16V14.8889C41.6884 14.2752 41.1909 13.7778 40.5773 13.7778H33.355C33.355 13.7778 33.9106 12.6667 33.9106 11V7.9992C33.9106 6.89463 33.0152 6 31.9106 6Z" fill="#FFDBD1"/>
<path fill-rule="evenodd" clip-rule="evenodd" d="M24.8847 16.2791L24.8954 16.263L24.9304 16.21C24.9615 16.1629 25.0077 16.0926 25.0668 16.0018C25.185 15.8202 25.3549 15.557 25.559 15.2337C25.9681 14.586 26.5114 13.703 27.0527 12.7558C27.5968 11.8036 28.1247 10.8112 28.5121 9.9394C28.9333 8.99176 29.0773 8.42385 29.0773 8.22222V7.33328C29.0773 5.76839 30.3459 4.5 31.9106 4.5C33.8428 4.5 35.4106 6.06541 35.4106 7.9992V11C35.4106 11.4639 35.3747 11.8925 35.3194 12.2778H40.5773C42.0193 12.2778 43.1884 13.4468 43.1884 14.8889V16C43.1884 16.3973 43.0996 16.774 42.9408 17.1111C43.0996 17.4483 43.1884 17.8249 43.1884 18.2222V19.3333C43.1884 19.7307 43.0996 20.1073 42.9408 20.4444C43.0996 20.7816 43.1884 21.1582 43.1884 21.5556V22.6667C43.1884 23.064 43.0996 23.4406 42.9408 23.7778C43.0996 24.1149 43.1884 24.4915 43.1884 24.8889V26C43.1884 27.4421 42.0193 28.6111 40.5773 28.6111H24.6328L24.6328 16.6569L24.8847 16.2791ZM26.1328 17.1111L26.1328 27.1111H40.5773C41.1909 27.1111 41.6884 26.6136 41.6884 26V24.8889C41.6884 24.2752 41.1909 23.7778 40.5773 23.7778C41.1909 23.7778 41.6884 23.2803 41.6884 22.6667V21.5556C41.6884 20.9419 41.1909 20.4444 40.5773 20.4444C41.1909 20.4444 41.6884 19.947 41.6884 19.3333V18.2222C41.6884 17.6086 41.1909 17.1111 40.5773 17.1111C41.1909 17.1111 41.6884 16.6136 41.6884 16V14.8889C41.6884 14.2752 41.1909 13.7778 40.5773 13.7778L33.355 13.7778C33.355 13.7778 33.6388 13.2102 33.8008 12.2778C33.8654 11.9057 33.9106 11.4754 33.9106 11V7.9992C33.9106 6.89463 33.0152 6 31.9106 6C31.1742 6 30.5773 6.5969 30.5773 7.33328V8.22222C30.5773 10.4444 26.1328 17.1111 26.1328 17.1111Z" fill="#4E444B"/>
<path d="M1.5 16H23.5216C24.35 16 25.0216 16.6716 25.0216 17.5V26.7222C25.0216 27.5507 24.35 28.2222 23.5216 28.2222H1.5L1.5 16Z" fill="#D961D3"/>
<path fill-rule="evenodd" clip-rule="evenodd" d="M0 14.5L23.5216 14.5C25.1784 14.5 26.5216 15.8431 26.5216 17.5L26.5216 26.7222C26.5216 28.3791 25.1784 29.7222 23.5216 29.7222L0 29.7222L0 14.5ZM1.5 16L1.5 28.2222L23.5216 28.2222C24.35 28.2222 25.0216 27.5507 25.0216 26.7222L25.0216 17.5C25.0216 16.6716 24.35 16 23.5216 16L1.5 16Z" fill="#4E444B"/>
<path d="M20.5781 15.5H20.0781V16L20.0781 28.2222V28.7222H20.5781H24.0226C24.851 28.7222 25.5226 28.0506 25.5226 27.2222L25.5226 17C25.5226 16.1716 24.851 15.5 24.0226 15.5L20.5781 15.5Z" fill="#810082" stroke="#4E444B"/>
<path fill-rule="evenodd" clip-rule="evenodd" d="M27.7779 55.2188C28.5143 55.2188 29.1112 54.6219 29.1112 53.8855V52.9965C29.1112 50.7743 33.5557 44.1076 33.5557 44.1076V40.7743V37.441V34.1076L19.1112 34.1076C18.4976 34.1076 18.0001 34.6051 18.0001 35.2188L18.0001 36.3299C18.0001 36.9435 18.4976 37.441 19.1112 37.441C18.4976 37.441 18.0001 37.9384 18.0001 38.5521V39.6632C18.0001 40.2768 18.4976 40.7743 19.1112 40.7743C18.4976 40.7743 18.0001 41.2718 18.0001 41.8854V42.9965C18.0001 43.6102 18.4976 44.1076 19.1112 44.1076C18.4976 44.1076 18.0001 44.6051 18.0001 45.2188L18.0001 46.3299C18.0001 46.9435 18.4976 47.441 19.1112 47.441H26.3334C26.3334 47.441 25.7779 48.5521 25.7779 50.2188L25.7779 53.2196C25.7779 54.3241 26.6733 55.2188 27.7779 55.2188Z" fill="#FFDBD1"/>
<path fill-rule="evenodd" clip-rule="evenodd" d="M34.8037 44.9397L34.793 44.9558L34.758 45.0087C34.727 45.0559 34.6808 45.1262 34.6217 45.2169C34.5034 45.3986 34.3336 45.6618 34.1295 45.985C33.7204 46.6327 33.1771 47.5157 32.6358 48.463C32.0917 49.4151 31.5638 50.4076 31.1764 51.2793C30.7552 52.227 30.6112 52.7949 30.6112 52.9965V53.8855C30.6112 55.4504 29.3426 56.7188 27.7779 56.7188C25.8457 56.7188 24.2779 55.1533 24.2779 53.2196L24.2779 50.2188C24.2779 49.7548 24.3137 49.3263 24.3691 48.941H19.1112C17.6691 48.941 16.5001 47.7719 16.5001 46.3299L16.5001 45.2188C16.5001 44.8214 16.5889 44.4448 16.7476 44.1076C16.5889 43.7705 16.5001 43.3939 16.5001 42.9965V41.8854C16.5001 41.4881 16.5889 41.1115 16.7476 40.7743C16.5889 40.4372 16.5001 40.0605 16.5001 39.6632L16.5001 38.5521C16.5001 38.1547 16.5889 37.7781 16.7476 37.441C16.5889 37.1038 16.5001 36.7272 16.5001 36.3299V35.2188C16.5001 33.7767 17.6691 32.6076 19.1112 32.6076L35.0557 32.6076L35.0557 44.5618L34.8037 44.9397ZM33.5557 44.1076L33.5557 34.1076L19.1112 34.1076C18.4976 34.1076 18.0001 34.6051 18.0001 35.2188V36.3299C18.0001 36.9435 18.4976 37.441 19.1112 37.441C18.4976 37.441 18.0001 37.9384 18.0001 38.5521L18.0001 39.6632C18.0001 40.2768 18.4976 40.7743 19.1112 40.7743C18.4976 40.7743 18.0001 41.2718 18.0001 41.8854V42.9965C18.0001 43.6102 18.4976 44.1076 19.1112 44.1076C18.4976 44.1076 18.0001 44.6051 18.0001 45.2188L18.0001 46.3299C18.0001 46.9435 18.4976 47.441 19.1112 47.441H26.3334C26.3334 47.441 26.0496 48.0086 25.8877 48.941C25.8231 49.3131 25.7779 49.7433 25.7779 50.2188L25.7779 53.2196C25.7779 54.3241 26.6733 55.2188 27.7779 55.2188C28.5143 55.2188 29.1112 54.6219 29.1112 53.8855V52.9965C29.1112 50.7743 33.5557 44.1076 33.5557 44.1076Z" fill="#4E444B"/>
<path d="M56.2354 45.2188L36.1664 45.2187C35.3379 45.2187 34.6664 44.5472 34.6664 43.7187L34.6664 34.4965C34.6664 33.6681 35.3379 32.9965 36.1664 32.9965L56.2354 32.9965L56.2354 45.2188Z" fill="#D961D3"/>
<path fill-rule="evenodd" clip-rule="evenodd" d="M57.7354 46.7188L36.1664 46.7188C34.5095 46.7188 33.1664 45.3756 33.1664 43.7188V34.4965C33.1664 32.8397 34.5095 31.4965 36.1664 31.4965L57.7354 31.4965V46.7188ZM56.2354 45.2188V32.9965L36.1664 32.9965C35.3379 32.9965 34.6664 33.6681 34.6664 34.4965V43.7188C34.6664 44.5472 35.3379 45.2188 36.1664 45.2188L56.2354 45.2188Z" fill="#4E444B"/>
<path d="M39.1104 45.7188H39.6104V45.2188V32.9965V32.4965H39.1104H35.6659C34.8375 32.4965 34.1659 33.1681 34.1659 33.9965V44.2188C34.1659 45.0472 34.8375 45.7188 35.6659 45.7188H39.1104Z" fill="#810082" stroke="#4E444B"/>
</g>
<path fill-rule="evenodd" clip-rule="evenodd" d="M27.7789 55.2188C28.5152 55.2188 29.1122 54.6219 29.1122 53.8855V52.9965C29.1122 50.7743 33.5566 44.1076 33.5566 44.1076V40.7743V37.441V34.1076L19.1122 34.1076C18.4985 34.1076 18.0011 34.6051 18.0011 35.2188L18.0011 36.3299C18.0011 36.9435 18.4985 37.441 19.1122 37.441C18.4985 37.441 18.0011 37.9384 18.0011 38.5521V39.6632C18.0011 40.2768 18.4985 40.7743 19.1122 40.7743C18.4985 40.7743 18.0011 41.2718 18.0011 41.8854V42.9965C18.0011 43.6102 18.4985 44.1076 19.1122 44.1076C18.4985 44.1076 18.0011 44.6051 18.0011 45.2188L18.0011 46.3299C18.0011 46.9435 18.4985 47.441 19.1122 47.441H26.3344C26.3344 47.441 25.7789 48.5521 25.7789 50.2188L25.7789 53.2196C25.7789 54.3241 26.6743 55.2188 27.7789 55.2188Z" fill="#FFDBD1"/>
<path fill-rule="evenodd" clip-rule="evenodd" d="M34.8047 44.9397L34.8025 44.943L34.794 44.9558L34.759 45.0087C34.7279 45.0559 34.6818 45.1262 34.6227 45.2169C34.5044 45.3986 34.3346 45.6618 34.1304 45.985C33.7214 46.6327 33.1781 47.5157 32.6368 48.463C32.0927 49.4151 31.5648 50.4076 31.1774 51.2793C30.7562 52.227 30.6122 52.7949 30.6122 52.9965V53.8855C30.6122 55.4504 29.3436 56.7188 27.7789 56.7188C25.8467 56.7188 24.2789 55.1533 24.2789 53.2196L24.2789 50.2188C24.2789 49.7548 24.3147 49.3263 24.3701 48.941H19.1122C17.6701 48.941 16.5011 47.7719 16.5011 46.3299L16.5011 45.2188C16.5011 44.8214 16.5898 44.4448 16.7486 44.1076C16.5898 43.7705 16.5011 43.3939 16.5011 42.9965V41.8854C16.5011 41.4881 16.5898 41.1115 16.7486 40.7743C16.5898 40.4372 16.5011 40.0605 16.5011 39.6632L16.5011 38.5521C16.5011 38.1547 16.5898 37.7781 16.7486 37.441C16.5898 37.1038 16.5011 36.7272 16.5011 36.3299V35.2188C16.5011 33.7767 17.6701 32.6076 19.1122 32.6076L35.0566 32.6076L35.0566 44.5618L34.8047 44.9397ZM33.5566 44.1076L33.5566 34.1076L19.1122 34.1076C18.4985 34.1076 18.0011 34.6051 18.0011 35.2188V36.3299C18.0011 36.9435 18.4985 37.441 19.1122 37.441C18.4985 37.441 18.0011 37.9384 18.0011 38.5521L18.0011 39.6632C18.0011 40.2768 18.4985 40.7743 19.1122 40.7743C18.4985 40.7743 18.0011 41.2718 18.0011 41.8854V42.9965C18.0011 43.6102 18.4985 44.1076 19.1122 44.1076C18.4985 44.1076 18.0011 44.6051 18.0011 45.2188L18.0011 46.3299C18.0011 46.9435 18.4985 47.441 19.1122 47.441H26.3344C26.3344 47.441 26.0506 48.0086 25.8887 48.941C25.8241 49.3131 25.7789 49.7433 25.7789 50.2188L25.7789 53.2196C25.7789 54.3241 26.6743 55.2188 27.7789 55.2188C28.5152 55.2188 29.1122 54.6219 29.1122 53.8855V52.9965C29.1122 50.7743 33.5566 44.1076 33.5566 44.1076Z" fill="#4E444B"/>
<path fill-rule="evenodd" clip-rule="evenodd" d="M31.9106 6C31.1742 6 30.5773 6.5969 30.5773 7.33328V8.22222C30.5773 10.4444 26.1328 17.1111 26.1328 17.1111V20.4444L26.1328 23.7778V27.1111H40.5773C41.1909 27.1111 41.6884 26.6136 41.6884 26V24.8889C41.6884 24.2752 41.1909 23.7778 40.5773 23.7778C41.1909 23.7778 41.6884 23.2803 41.6884 22.6667V21.5556C41.6884 20.9419 41.1909 20.4444 40.5773 20.4444C41.1909 20.4444 41.6884 19.947 41.6884 19.3333L41.6884 18.2222C41.6884 17.6086 41.1909 17.1111 40.5773 17.1111C41.1909 17.1111 41.6884 16.6137 41.6884 16V14.8889C41.6884 14.2752 41.1909 13.7778 40.5773 13.7778H33.355C33.355 13.7778 33.9106 12.6667 33.9106 11V7.9992C33.9106 6.89463 33.0152 6 31.9106 6Z" fill="#FFDBD1"/>
<path fill-rule="evenodd" clip-rule="evenodd" d="M24.8847 16.2791L24.8954 16.263L24.9304 16.21C24.9615 16.1629 25.0077 16.0926 25.0668 16.0018C25.185 15.8202 25.3549 15.557 25.559 15.2337C25.9681 14.586 26.5114 13.703 27.0527 12.7558C27.5968 11.8036 28.1247 10.8112 28.5121 9.9394C28.9333 8.99176 29.0773 8.42385 29.0773 8.22222V7.33328C29.0773 5.76839 30.3459 4.5 31.9106 4.5C33.8428 4.5 35.4106 6.06541 35.4106 7.9992V11C35.4106 11.4639 35.3747 11.8925 35.3194 12.2778H40.5773C42.0193 12.2778 43.1884 13.4468 43.1884 14.8889V16C43.1884 16.3973 43.0996 16.774 42.9408 17.1111C43.0996 17.4483 43.1884 17.8249 43.1884 18.2222V19.3333C43.1884 19.7307 43.0996 20.1073 42.9408 20.4444C43.0996 20.7816 43.1884 21.1582 43.1884 21.5556V22.6667C43.1884 23.064 43.0996 23.4406 42.9408 23.7778C43.0996 24.1149 43.1884 24.4915 43.1884 24.8889V26C43.1884 27.4421 42.0193 28.6111 40.5773 28.6111H24.6328L24.6328 16.6569L24.8847 16.2791ZM26.1328 17.1111L26.1328 27.1111H40.5773C41.1909 27.1111 41.6884 26.6136 41.6884 26V24.8889C41.6884 24.2752 41.1909 23.7778 40.5773 23.7778C41.1909 23.7778 41.6884 23.2803 41.6884 22.6667V21.5556C41.6884 20.9419 41.1909 20.4444 40.5773 20.4444C41.1909 20.4444 41.6884 19.947 41.6884 19.3333V18.2222C41.6884 17.6086 41.1909 17.1111 40.5773 17.1111C41.1909 17.1111 41.6884 16.6136 41.6884 16V14.8889C41.6884 14.2752 41.1909 13.7778 40.5773 13.7778L33.355 13.7778C33.355 13.7778 33.6388 13.2102 33.8008 12.2778C33.8654 11.9057 33.9106 11.4754 33.9106 11V7.9992C33.9106 6.89463 33.0152 6 31.9106 6C31.1742 6 30.5773 6.5969 30.5773 7.33328V8.22222C30.5773 10.4444 26.1328 17.1111 26.1328 17.1111Z" fill="#4E444B"/>
</svg>
