<svg width="15" height="16" viewBox="0 0 15 16" fill="none" xmlns="http://www.w3.org/2000/svg">
<path fill-rule="evenodd" clip-rule="evenodd" d="M7.1807 1.24676L4.97285 6.21443C4.8395 5.52258 4.23078 5 3.5 5H1.625C1.00368 5 0.5 5.50368 0.5 6.125V14.375C0.5 14.9963 1.00368 15.5 1.625 15.5H3.5C4.27141 15.5 4.90682 14.9177 4.99062 14.1686C5.3898 14.5299 5.9192 14.75 6.5 14.75H11.8925C13.0485 14.75 14.0163 13.8741 14.1314 12.7239L14.5814 8.22388C14.7138 6.89934 13.6737 5.75 12.3425 5.75H9.61476L10.077 2.51452C10.2289 1.45127 9.40383 0.5 8.32979 0.5C7.83285 0.5 7.38253 0.792654 7.1807 1.24676ZM5 12.5C5 13.3284 5.67157 14 6.5 14H11.8925C12.6631 14 13.3084 13.4161 13.3851 12.6493L13.8351 8.14926C13.9234 7.26623 13.23 6.5 12.3425 6.5H8.75L9.33451 2.40845C9.42185 1.79703 8.94742 1.25 8.32979 1.25C8.12924 1.25 7.94751 1.3681 7.86606 1.55136L5 8V12.5ZM1.25 6.125C1.25 5.91789 1.41789 5.75 1.625 5.75H3.5C3.91421 5.75 4.25 6.08579 4.25 6.5V7.84084V12.5V14C4.25 14.4142 3.91421 14.75 3.5 14.75H1.625C1.41789 14.75 1.25 14.5821 1.25 14.375V6.125Z" fill="white"/>
</svg>
