<svg xmlns="http://www.w3.org/2000/svg" viewBox="0 0 346.97 318.81"><defs><style>.cls-1{fill:#61c4f2;}.cls-2{fill:#263357;}.cls-3{fill:#f86464;}</style></defs><g id="Layer_2" data-name="Layer 2"><g id="icons"><path class="cls-1" d="M202.44,14.31l55.59,268a4.93,4.93,0,0,1-3.83,5.84l-42.13,8.74,68.1,15.38L340.41,45.46Z"/><path class="cls-2" d="M281.42,318.81a4.87,4.87,0,0,1-1.14-.14l-66.1-17a4.59,4.59,0,0,1,2.28-8.9L278,308.6l58.93-261L204.33,15a4.59,4.59,0,1,1,2.2-8.92l137,33.65a4.6,4.6,0,0,1,3.38,5.47l-61,270a4.57,4.57,0,0,1-4.47,3.58Z"/><path class="cls-2" d="M244.2,110a50,50,0,0,1-11-1.24,4.59,4.59,0,0,1,2-9c15,3.38,29.53-2,31.74-11.77a4.54,4.54,0,0,1,2-2.87,4.6,4.6,0,0,1,3.47-.6l54.64,12.34a4.59,4.59,0,1,1-2,8.95L274.42,94.38C269.82,104,258,110,244.2,110Z"/><path class="cls-3" d="M6.54,43.35,62.09,311.16l177.47-36.81L184,6.54ZM142.72,253.66l-71.63-47,47-71.63,71.63,47Z"/><path class="cls-2" d="M60.81,317.7A4.59,4.59,0,0,1,56.32,314L.1,43a4.57,4.57,0,0,1,3.56-5.42L184.35.09a4.6,4.6,0,0,1,5.43,3.57l56.22,271a4.59,4.59,0,0,1-3.56,5.43L61.75,317.6A4.36,4.36,0,0,1,60.81,317.7ZM10,45.63,64.38,307.68l171.7-35.62L181.72,10Z"/><path class="cls-2" d="M102.44,109.54c-14.13,0-26.26-6.23-30.78-16.12L20.8,104a4.59,4.59,0,0,1-1.87-9L73.78,83.61a4.58,4.58,0,0,1,5.43,3.56c2,9.81,16.48,15.45,31.53,12.33s26.05-14,24-23.85a4.6,4.6,0,0,1,3.57-5.43l54.85-11.38a4.59,4.59,0,0,1,1.87,9L144.17,78.38c-.26,13.41-13.38,26.33-31.57,30.11A50.46,50.46,0,0,1,102.44,109.54Z"/><path class="cls-2" d="M142.71,258.25a4.54,4.54,0,0,1-2.51-.75l-71.63-47a4.58,4.58,0,0,1-1.32-6.35l47-71.63a4.59,4.59,0,0,1,6.35-1.32l71.63,47a4.57,4.57,0,0,1,1.32,6.35l-47,71.63A4.58,4.58,0,0,1,142.71,258.25ZM77.45,205.33l64,42,42-64-64-42Z"/><rect class="cls-1" x="107.11" y="171.04" width="46.6" height="46.6" transform="matrix(0.55, -0.84, 0.84, 0.55, -103.62, 196.72)"/></g></g></svg>