<svg width="24" height="24" viewBox="0 0 24 24" fill="none" xmlns="http://www.w3.org/2000/svg">
<path fill-rule="evenodd" clip-rule="evenodd" d="M8 5.51277V5.48723C7.99479 4.44814 7.35417 4 7.00003 4C6.7072 4 6.21848 4.30642 6.05511 5H7V6H5C3.89543 6 3 6.89543 3 8V18C3 19.1046 3.89543 20 5 20H19C20.1046 20 21 19.1046 21 18V8C21 6.89543 20.1046 6 19 6H18.92C18.7347 7.14112 17.9276 8 16.96 8V7C17.3156 7 17.96 6.54819 17.96 5.5C17.96 4.45181 17.3156 4 16.96 4C16.6672 4 16.1784 4.30642 16.0151 5H17V6H13.92C13.7347 7.14112 12.9276 8 11.96 8V7C12.3156 7 12.96 6.54819 12.96 5.5C12.96 4.45181 12.3156 4 11.96 4C11.6672 4 11.1784 4.30642 11.0151 5H12V6H8.96002C8.77472 7.14112 7.96762 8 7.00003 8V7C7.35417 7 7.99479 6.55186 8 5.51277ZM15 5H13.92C13.7347 3.85888 12.9276 3 11.96 3C10.9924 3 10.1853 3.85888 10 5H8.96002C8.77472 3.85888 7.96762 3 7.00003 3C6.03245 3 5.22535 3.85888 5.04004 5H5C3.34315 5 2 6.34315 2 8V18C2 19.6569 3.34315 21 5 21H19C20.6569 21 22 19.6569 22 18V8C22 6.34315 20.6569 5 19 5H18.92C18.7347 3.85888 17.9276 3 16.96 3C15.9924 3 15.1853 3.85888 15 5ZM4.5 11C4.22386 11 4 11.2239 4 11.5C4 11.7761 4.22386 12 4.5 12H7V15H4.5C4.22386 15 4 15.2239 4 15.5C4 15.7761 4.22386 16 4.5 16H7V18.5C7 18.7761 7.22386 19 7.5 19C7.77614 19 8 18.7761 8 18.5V16H11.5V18.5C11.5 18.7761 11.7239 19 12 19C12.2761 19 12.5 18.7761 12.5 18.5V16H16V18.5C16 18.7761 16.2239 19 16.5 19C16.7761 19 17 18.7761 17 18.5V16H19.5C19.7761 16 20 15.7761 20 15.5C20 15.2239 19.7761 15 19.5 15H17V12H19.5C19.7761 12 20 11.7761 20 11.5C20 11.2239 19.7761 11 19.5 11H16.5H12H7.5H4.5ZM8 12V15H11.5V12H8ZM16 12V15H12.5V12H16Z" fill="#1A1919"/>
</svg>
