<svg width="64" height="64" viewBox="0 0 64 64" fill="none" xmlns="http://www.w3.org/2000/svg">
<circle cx="32" cy="32" r="32" fill="black"/>
<path fill-rule="evenodd" clip-rule="evenodd" d="M34.399 21.1999C34.399 22.5254 33.3245 23.5999 31.999 23.5999C30.6735 23.5999 29.599 22.5254 29.599 21.1999C29.599 21.044 29.698 20.6266 30.0516 19.9278C30.3783 19.2824 30.8306 18.5713 31.3084 17.8911C31.5426 17.5575 31.7777 17.2389 31.999 16.9479C32.2204 17.2389 32.4554 17.5575 32.6897 17.8911C33.1674 18.5713 33.6198 19.2824 33.9464 19.9278C34.3 20.6266 34.399 21.044 34.399 21.1999ZM27.999 21.1999C27.999 19.7234 29.7857 17.1831 30.9709 15.6605C31.559 14.9049 31.999 14.3999 31.999 14.3999C31.999 14.3999 32.439 14.9049 33.0271 15.6605C34.2123 17.1831 35.999 19.7234 35.999 21.1999C35.999 23.1349 34.625 24.749 32.7994 25.1198V27.1903C34.4851 27.1509 36.355 26.9984 37.936 26.8376C39.8734 26.6406 41.5994 28.1423 41.5994 30.0896V31.697C41.5994 32.5962 40.8675 33.2825 39.999 33.3033V47.1997C39.999 48.5252 38.9245 49.5997 37.599 49.5997H26.399C25.0735 49.5997 23.999 48.5252 23.999 47.1997V32.5367C23.1301 32.4281 22.3994 31.732 22.3994 30.8355V30.0896C22.3994 28.1423 24.1254 26.6406 26.0628 26.8376C27.6438 26.9984 29.5137 27.1509 31.1994 27.1903V25.12C29.3734 24.7495 27.999 23.1352 27.999 21.1999ZM31.9227 27.1999C31.9483 27.2 31.9739 27.2 31.9994 27.2C32.0249 27.2 32.0505 27.2 32.0762 27.1999H31.9227ZM25.599 32.5265V47.1997C25.599 47.6415 25.9572 47.9997 26.399 47.9997H37.599C38.0409 47.9997 38.399 47.6415 38.399 47.1997V33.1766C37.7876 33.1703 37.195 33.241 36.5359 33.4276C36.2107 33.5197 35.9994 33.8255 35.9994 34.1635V38.7999C35.9994 39.794 34.9935 40.7999 33.9994 40.7999C33.0053 40.7999 31.9994 39.794 31.9994 38.7999V34.8166C31.9994 34.0976 31.5208 33.4631 30.8228 33.2911C29.1288 32.8734 27.361 32.5637 25.599 32.5265ZM23.9994 30.0896C23.9994 29.1277 24.8684 28.3244 25.9009 28.4294C27.7539 28.6178 30.0433 28.8 31.9994 28.8C33.9555 28.8 36.2449 28.6178 38.0979 28.4294C39.1304 28.3244 39.9994 29.1277 39.9994 30.0896V31.6918C39.9951 31.695 39.9887 31.6984 39.9807 31.7008C39.9726 31.7031 39.9605 31.7051 39.9422 31.7026C38.667 31.5253 37.5015 31.4913 36.1 31.8881C35.0231 32.193 34.3994 33.1774 34.3994 34.1635V38.7933C34.3983 38.799 34.3939 38.8188 34.3782 38.8522C34.3525 38.9069 34.307 38.9752 34.2408 39.0413C34.1747 39.1075 34.1064 39.153 34.0517 39.1787C34.0264 39.1906 34.0089 39.196 33.9994 39.1984C33.99 39.196 33.9725 39.1906 33.9471 39.1787C33.8924 39.153 33.8241 39.1075 33.758 39.0413C33.6919 38.9752 33.6463 38.9069 33.6206 38.8522C33.6049 38.8188 33.6005 38.799 33.5994 38.7933V34.8166C33.5994 33.3907 32.6465 32.0927 31.2058 31.7376C29.0319 31.2016 26.6486 30.8124 24.2536 30.951C24.1698 30.9558 24.0875 30.9247 24.0346 30.8794C24.011 30.8592 24.0022 30.8437 24.0001 30.8394L23.9995 30.8381C23.9994 30.8379 23.9994 30.8376 23.9994 30.8367C23.9994 30.8363 23.9994 30.836 23.9994 30.8355V30.0896Z" fill="white"/>
</svg>
