<svg width="25" height="25" viewBox="0 0 25 25" fill="none" xmlns="http://www.w3.org/2000/svg">
<path d="M12.7156 2.35578L12.7213 2.35851L12.7418 2.36836C12.7594 2.37687 12.7849 2.38928 12.8177 2.40553C12.8832 2.43802 12.9779 2.48592 13.0977 2.54884C13.3373 2.67466 13.6775 2.8608 14.0848 3.10438C14.8983 3.59089 15.9851 4.30988 17.0745 5.23902C19.2343 7.08122 21.5 9.83335 21.5 13.3069C21.5 17.5237 18.332 22.3069 12.5 22.3069C6.65597 22.3069 3.5 17.1445 3.5 13.3069C3.5 11.3735 4.16476 9.78506 4.82082 8.68742C5.14942 8.13764 5.47838 7.70662 5.72679 7.4114C5.85113 7.26362 5.9557 7.14939 6.03051 7.07084C6.06793 7.03155 6.09795 7.00114 6.11933 6.97988L6.14477 6.95486L6.15236 6.94755L6.15481 6.9452L6.1557 6.94436L6.68635 6.44229L6.96274 7.11753C7.13543 7.53943 7.29621 7.9429 7.44882 8.32588L7.44883 8.32589C7.58797 8.67508 7.72033 9.00723 7.84874 9.32078L8.33257 10.4391C8.42339 10.6333 8.51406 10.8163 8.60572 10.9874C8.97326 11.6734 9.29416 12.0448 9.60323 12.2064C9.70742 11.8921 9.88015 11.5909 10.073 11.3118C10.393 10.8486 10.8224 10.3716 11.2595 9.90327C11.3634 9.79192 11.4677 9.68105 11.5715 9.57063L11.5715 9.57063C12.3718 8.71954 13.1467 7.89548 13.5528 7.08333L13.7987 6.5915L14.265 6.88293L14.2668 6.88405L14.27 6.88608L14.2807 6.89291L14.3186 6.91744C14.351 6.93859 14.3971 6.96929 14.4551 7.00917C14.5711 7.0889 14.7348 7.20556 14.9303 7.35624C15.3204 7.657 15.8415 8.09649 16.3641 8.65175C17.3968 9.74899 18.5 11.3676 18.5 13.3069C18.5 16.6229 15.7739 19.3069 12.5 19.3069C9.22608 19.3069 6.5 16.6229 6.5 13.3069C6.5 12.7027 6.59108 12.1334 6.74873 11.5942L7.5146 12.9249C7.50496 13.0506 7.5 13.1779 7.5 13.3069C7.5 16.0661 9.77392 18.3069 12.5 18.3069C15.2261 18.3069 17.5 16.0661 17.5 13.3069C17.5 11.7463 16.6032 10.3649 15.6359 9.33712C15.1585 8.82988 14.6796 8.42562 14.3197 8.14825C14.2641 8.10539 14.2115 8.06564 14.1622 8.02908C13.6627 8.81099 12.9443 9.57289 12.2982 10.2581C12.1934 10.3694 12.0904 10.4786 11.9905 10.5856C11.5526 11.0548 11.1695 11.484 10.8957 11.8802C10.615 12.2865 10.5 12.5879 10.5 12.8069V13.3069H10C8.98577 13.3069 8.31771 12.526 7.79785 11.5942L7.21947 10.4019C6.98556 9.86594 6.74888 9.27184 6.4989 8.64436C6.44616 8.51198 6.39283 8.37812 6.33881 8.243C6.14329 8.49013 5.91134 8.81204 5.67918 9.20047C5.08524 10.1942 4.5 11.6057 4.5 13.3069C4.5 16.7386 7.34403 21.3069 12.5 21.3069C17.668 21.3069 20.5 17.0902 20.5 13.3069C20.5 10.2805 18.5157 7.78264 16.4255 5.99985C15.3899 5.11648 14.3517 4.42922 13.5715 3.96261C13.3258 3.81565 13.1061 3.6909 12.9209 3.58912C12.7791 4.29364 12.4586 4.94748 12.0604 5.56293C11.5903 6.28944 10.9845 7.00178 10.3881 7.70296L10.3881 7.70297C10.3023 7.80384 10.2167 7.90449 10.1317 8.00491C9.70665 8.50723 9.29496 9.00767 8.92836 9.51904L8.45491 8.47845C8.7543 8.08966 9.06483 7.71762 9.36831 7.35896C9.45579 7.25558 9.54265 7.15339 9.62864 7.05222C10.2301 6.34459 10.789 5.68701 11.2208 5.01968C11.7103 4.26323 12 3.54659 12 2.80693V2.01904L12.7129 2.35452L12.7156 2.35578Z" fill="#CECCCA"/>
</svg>
