<svg width="41" height="40" viewBox="0 0 41 40" fill="none" xmlns="http://www.w3.org/2000/svg">
<g clip-path="url(#clip0_2187_827)">
<path fill-rule="evenodd" clip-rule="evenodd" d="M34.2083 19.7155C36.1503 19.0291 37.5417 17.177 37.5417 15C37.5417 12.8623 35.544 8.04134 34.6416 5.97274C34.3815 5.37641 33.7916 5 33.1409 5H8.60908C7.95847 5 7.36852 5.37641 7.10838 5.97274C6.20602 8.04134 4.20834 12.8623 4.20834 15C4.20834 17.177 5.59969 19.0291 7.54168 19.7155V21.4566V31.6666C7.54168 33.5076 9.03406 35 10.875 35H30.875C32.716 35 34.2083 33.5076 34.2083 31.6666V19.7155ZM34.875 15C34.875 16.2887 33.8303 17.3333 32.5417 17.3333C31.253 17.3333 30.1545 16.3222 29.8973 14.393C29.5746 11.973 28.8698 7.66276 28.8698 7.66276H31.9262C32.26 7.66276 32.5609 7.8606 32.6882 8.16915C33.2742 9.58905 34.875 13.5961 34.875 15ZM17.0417 17.3334C18.3303 17.3334 19.5438 16.4766 19.5438 13.6072V7.6681H15.5376C15.5376 7.6681 15.0012 11.2446 14.7043 13.4904C14.3227 16.3756 15.753 17.3334 17.0417 17.3334ZM24.875 17.3333C26.1636 17.3333 27.2083 16.2886 27.2083 15C27.2083 13.7113 26.2136 7.67578 26.2136 7.67578H22.2096V13.8708C22.2096 16.1901 23.5863 17.3333 24.875 17.3333ZM9.2083 17.3337C10.497 17.3337 11.6064 16.2886 11.8637 14.4013C12.2229 11.7671 12.8805 7.66998 12.8805 7.66998L9.83634 7.67008C9.49896 7.67009 9.19572 7.87175 9.07005 8.18485C8.48545 9.64132 6.87497 13.7657 6.87497 15.0003C6.87497 16.289 7.91964 17.3337 9.2083 17.3337Z" fill="#9E2A9C"/>
</g>
<defs>
<clipPath id="clip0_2187_827">
<rect width="40" height="40" fill="white" transform="translate(0.875)"/>
</clipPath>
</defs>
</svg>
