<svg width="32" height="32" viewBox="0 0 32 32" fill="none" xmlns="http://www.w3.org/2000/svg">
<g clip-path="url(#clip0_2265_43089)">
<path fill-rule="evenodd" clip-rule="evenodd" d="M25.0589 2.66797C22.698 2.66797 20.7841 4.57975 20.7841 6.93805C20.7841 7.12829 20.7966 7.31576 20.8208 7.49964L13.7113 11.5997C12.5613 10.2544 10.85 9.40069 8.93935 9.40069C5.47522 9.40069 2.66699 12.2058 2.66699 15.6661C2.66699 19.1264 5.47522 21.9316 8.93935 21.9316C10.6365 21.9316 12.1766 21.2579 13.3055 20.1644L20.8035 24.4886C20.778 24.6771 20.7649 24.8693 20.7649 25.0646C20.7649 27.4229 22.6788 29.3346 25.0397 29.3346C27.4006 29.3346 29.3145 27.4229 29.3145 25.0646C29.3145 22.7063 27.4006 20.7945 25.0397 20.7945C23.6735 20.7945 22.4571 21.4349 21.6749 22.4305L14.6067 18.3542C14.9947 17.5393 15.2117 16.6277 15.2117 15.6661C15.2117 14.9113 15.0779 14.187 14.8326 13.5162L21.687 9.56309C22.469 10.5639 23.6886 11.2081 25.0589 11.2081C27.4198 11.2081 29.3337 9.29635 29.3337 6.93805C29.3337 4.57975 27.4198 2.66797 25.0589 2.66797ZM4.89531 15.666C4.89531 13.4349 6.70595 11.6262 8.9395 11.6262C11.173 11.6262 12.9837 13.4349 12.9837 15.666C12.9837 17.897 11.173 19.7057 8.9395 19.7057C6.70595 19.7057 4.89531 17.897 4.89531 15.666ZM22.6597 6.9381C22.6597 5.62304 23.7269 4.55697 25.0434 4.55697C26.3599 4.55697 27.4272 5.62304 27.4272 6.9381C27.4272 8.25317 26.3599 9.31924 25.0434 9.31924C23.7269 9.31924 22.6597 8.25317 22.6597 6.9381ZM23.0044 25.0646C23.0044 23.9416 23.9157 23.0313 25.0399 23.0313C26.164 23.0313 27.0753 23.9416 27.0753 25.0646C27.0753 26.1875 26.164 27.0978 25.0399 27.0978C23.9157 27.0978 23.0044 26.1875 23.0044 25.0646Z" fill="#9E2A9C"/>
</g>
<defs>
<clipPath id="clip0_2265_43089">
<rect width="32" height="32" fill="white"/>
</clipPath>
</defs>
</svg>
