<svg width="32" height="32" viewBox="0 0 32 32" fill="none" xmlns="http://www.w3.org/2000/svg">
<path fill-rule="evenodd" clip-rule="evenodd" d="M29.4279 7.38079L24.7139 2.66675L19.9998 7.38079L21.5083 8.88927L23.5999 6.7977V12.0001L25.7332 11.9907V6.70307L27.9194 8.88927L29.4279 7.38079ZM9.8665 8.88735C10.1539 8.74072 10.4229 8.61433 10.6665 8.50669C11.4716 8.151 11.9998 8.00008 11.9998 8.00008V10.261V10.6667C11.9998 12.1395 13.1937 13.3334 14.6665 13.3334C15.2198 13.3334 15.7338 13.1649 16.1598 12.8764C16.3825 12.7256 16.5812 12.542 16.749 12.3325C17.042 11.9667 17.2406 11.522 17.3079 11.0354C17.6789 11.3644 18.0444 11.7246 18.3947 12.1181C18.5897 12.3371 18.78 12.5663 18.9639 12.8063C20.3213 14.5766 21.3332 16.927 21.3332 20.0001C21.3332 25.1547 17.1545 29.3334 11.9998 29.3334C6.84518 29.3334 2.6665 25.1547 2.6665 20.0001C2.6665 13.559 7.11158 10.293 9.8665 8.88735ZM16.6665 24.6667C16.6665 24.9701 16.6376 25.2666 16.5823 25.5538C18.181 24.2332 19.1998 22.2356 19.1998 20.0001C19.1998 17.6758 18.5153 15.8871 17.5578 14.4982C16.7546 15.1049 15.7524 15.4667 14.6665 15.4667C12.2313 15.4667 10.2196 13.6533 9.90832 11.3031C7.58202 12.7183 4.79984 15.3753 4.79984 20.0001C4.79984 22.2356 5.81869 24.2332 7.41738 25.5538C7.36211 25.2666 7.33317 24.9701 7.33317 24.6667C7.33317 20.6667 11.9998 18.6667 11.9998 18.6667C11.9998 18.6667 16.6665 20.6667 16.6665 24.6667ZM11.9998 27.2001C13.399 27.2001 14.5332 26.0659 14.5332 24.6667C14.5332 23.5607 13.8931 22.5993 12.9448 21.7865C12.6203 21.5083 12.2907 21.2759 11.9998 21.0921C11.709 21.2759 11.3794 21.5083 11.0549 21.7865C10.1065 22.5993 9.4665 23.5607 9.4665 24.6667C9.4665 26.0659 10.6007 27.2001 11.9998 27.2001Z" fill="#9E2A9C"/>
</svg>
