<svg width="41" height="40" viewBox="0 0 41 40" fill="none" xmlns="http://www.w3.org/2000/svg">
<path fill-rule="evenodd" clip-rule="evenodd" d="M28.1048 35.0152C28.9654 34.702 29.4091 33.7504 29.0959 32.8898L28.385 30.9369C29.4078 30.2332 30.327 29.3899 31.1149 28.4343L32.9993 29.313C33.8293 29.7 34.8159 29.3409 35.203 28.5109L36.6046 25.5052C36.9916 24.6751 36.6325 23.6885 35.8025 23.3015L33.9201 22.4237C34.0652 21.6378 34.141 20.8277 34.141 19.9999C34.141 19.5691 34.1205 19.1432 34.0803 18.723L36.0335 18.0121C36.894 17.6989 37.3378 16.7473 37.0245 15.8867L35.8902 12.7702C35.577 11.9096 34.6254 11.4659 33.7648 11.7791L31.8121 12.4899C31.1084 11.4671 30.265 10.5479 29.3094 9.75987L30.188 7.8757C30.575 7.04568 30.2159 6.05906 29.3859 5.67202L26.3802 4.27041C25.5501 3.88336 24.5635 4.24247 24.1765 5.07248L23.2987 6.9548C22.5129 6.80973 21.7028 6.73391 20.8751 6.73391C20.4443 6.73391 20.0182 6.75444 19.598 6.79459L18.8871 4.84154C18.5739 3.98095 17.6223 3.53723 16.7617 3.85046L13.6452 4.98476C12.7846 5.29799 12.3409 6.24956 12.6541 7.11015L13.3649 9.06295C12.3421 9.76662 11.423 10.61 10.635 11.5657L8.7507 10.687C7.92068 10.3 6.93406 10.6591 6.54701 11.4891L5.1454 14.4948C4.75836 15.3249 5.11746 16.3115 5.94748 16.6985L7.82997 17.5763C7.68492 18.3621 7.60911 19.1721 7.60911 19.9999C7.60911 20.4307 7.62964 20.8567 7.66979 21.277L5.71654 21.9879C4.85595 22.3011 4.41223 23.2527 4.72546 24.1133L5.85976 27.2298C6.17299 28.0904 7.12456 28.5341 7.98515 28.2209L9.93816 27.51C10.6418 28.5328 11.4852 29.4519 12.4407 30.2399L11.562 32.1243C11.175 32.9543 11.5341 33.9409 12.3641 34.328L15.3698 35.7296C16.1999 36.1166 17.1865 35.7575 17.5735 34.9275L18.4514 33.0449C19.2372 33.19 20.0473 33.2658 20.8751 33.2658C21.3058 33.2658 21.7317 33.2453 22.1519 33.2051L22.8629 35.1585C23.1761 36.019 24.1277 36.4628 24.9883 36.1495L28.1048 35.0152ZM20.8745 24.6866C23.4631 24.6866 25.5616 22.5881 25.5616 19.9995C25.5616 17.4109 23.4631 15.3124 20.8745 15.3124C18.2859 15.3124 16.1874 17.4109 16.1874 19.9995C16.1874 22.5881 18.2859 24.6866 20.8745 24.6866Z" fill="#9E2A9C"/>
</svg>
