<svg width="32" height="32" viewBox="0 0 32 32" fill="none" xmlns="http://www.w3.org/2000/svg">
<g clip-path="url(#clip0_2144_43434)">
<path fill-rule="evenodd" clip-rule="evenodd" d="M9.79981 14.4867C9.06703 15.4088 7.93581 16 6.6665 16C4.45736 16 2.6665 14.2091 2.6665 12C2.6665 10.2898 4.26464 6.43307 4.98654 4.7782C5.19464 4.30113 5.66661 4 6.18709 4H25.8126C26.3331 4 26.805 4.30113 27.0131 4.7782C27.735 6.43307 29.3332 10.2898 29.3332 12C29.3332 14.2091 27.5423 16 25.3332 16C24.1017 16 23.0003 15.4435 22.2665 14.5684C21.5328 15.4435 20.4313 16 19.1999 16C17.9305 16 16.7993 15.4087 16.0665 14.4866C15.3337 15.4087 14.2025 16 12.9331 16C11.6638 16 10.5326 15.4088 9.79981 14.4867ZM27.1998 12C27.1998 13.0309 26.3641 13.8667 25.3332 13.8667C24.3022 13.8667 23.4234 13.0577 23.2176 11.5144C22.9595 9.57841 22.3957 6.13021 22.3957 6.13021H24.8408C25.1078 6.13021 25.3485 6.28848 25.4504 6.53532C25.9192 7.67124 27.1998 10.8769 27.1998 12ZM12.9332 13.8667C13.9641 13.8667 14.9349 13.1813 14.9349 10.8857V6.13448H11.7299C11.7299 6.13448 11.3008 8.9957 11.0632 10.7923C10.758 13.1005 11.9022 13.8667 12.9332 13.8667ZM19.1998 13.8667C20.2307 13.8667 21.0665 13.0309 21.0665 12C21.0665 10.9691 20.2707 6.14062 20.2707 6.14062H17.0675V11.0967C17.0675 12.9521 18.1689 13.8667 19.1998 13.8667ZM6.66647 13.8669C7.6974 13.8669 8.58493 13.0309 8.79082 11.521C9.07819 9.41369 9.60421 6.13599 9.60421 6.13599L7.1689 6.13606C6.89899 6.13607 6.65641 6.2974 6.55587 6.54788C6.08819 7.71306 4.7998 11.0126 4.7998 12.0003C4.7998 13.0312 5.63554 13.8669 6.66647 13.8669ZM24.5331 25.2V17.2736C24.7941 17.3129 25.0613 17.3333 25.3332 17.3333C25.7936 17.3333 26.2403 17.275 26.6665 17.1653V25.3333C26.6665 26.8061 25.4726 28 23.9998 28H7.99984C6.52708 28 5.33317 26.8061 5.33317 25.3333V17.1653C5.75933 17.275 6.2061 17.3333 6.6665 17.3333C6.93838 17.3333 7.20552 17.3129 7.46647 17.2736V25.2C7.46647 25.5682 7.76495 25.8666 8.13314 25.8666H23.8665C24.2347 25.8666 24.5331 25.5682 24.5331 25.2Z" fill="#4E444B"/>
</g>
<defs>
<clipPath id="clip0_2144_43434">
<rect width="32" height="32" fill="white"/>
</clipPath>
</defs>
</svg>
