<svg width="41" height="40" viewBox="0 0 41 40" fill="none" xmlns="http://www.w3.org/2000/svg">
<g clip-path="url(#clip0_2187_1378)">
<path fill-rule="evenodd" clip-rule="evenodd" d="M9.67334 7.61947C12.4382 5.11671 16.0467 3.52872 20.0212 3.33301V6.67149C20.0212 6.67149 20.0212 6.6715 20.0212 6.6715C20.2968 6.65451 20.5746 6.64589 20.8545 6.64589C25.6582 6.64589 29.8686 9.18622 32.2155 12.9968C31.814 12.3448 31.3579 11.73 30.8536 11.1588L33.2143 8.79806C35.7171 11.5629 37.305 15.1713 37.5007 19.1459H34.1623C34.108 18.2663 33.9684 17.4098 33.7518 16.5846C34.0363 17.6684 34.1878 18.8061 34.1878 19.9792C34.1878 23.961 32.4425 27.5351 29.6751 29.9782L32.0358 32.3389C29.2709 34.8417 25.6624 36.4297 21.6879 36.6254V33.2869C21.4122 33.3039 21.1344 33.3126 20.8545 33.3126C20.5746 33.3126 20.2968 33.3039 20.0212 33.2869V36.6254C16.0467 36.4297 12.4382 34.8417 9.6734 32.339L12.034 29.9783C11.6172 29.6103 11.2235 29.2167 10.8555 28.7998L8.49488 31.1605C5.99208 28.3956 4.40406 24.7871 4.20834 20.8125H7.54675C7.52975 20.5369 7.52113 20.2591 7.52113 19.9792C7.52113 19.6993 7.52975 19.4215 7.54675 19.1459H4.20834C4.40406 15.1713 5.99206 11.5628 8.49483 8.79798L10.8555 11.1586C11.2235 10.7418 11.6172 10.3481 12.034 9.98014L9.67334 7.61947ZM21.6879 3.33301V6.67149C24.7426 6.85986 27.5191 8.0768 29.6751 9.98023L32.0358 7.61954C29.2709 5.11674 25.6625 3.52872 21.6879 3.33301ZM34.1623 20.8125C33.9739 23.8672 32.757 26.6436 30.8536 28.7997L33.2143 31.1604C35.717 28.3955 37.305 24.7871 37.5007 20.8125H34.1623ZM20.3544 13.3471C20.6638 13.1685 21.045 13.1685 21.3544 13.3471L26.348 16.2302C26.6574 16.4088 26.848 16.7389 26.848 17.0962V22.8623C26.848 23.2195 26.6574 23.5497 26.348 23.7283L21.3544 26.6113C21.045 26.79 20.6638 26.79 20.3544 26.6114L15.3608 23.7283C15.0514 23.5497 14.8609 23.2195 14.8609 22.8623V17.0962C14.8609 16.7389 15.0514 16.4088 15.3609 16.2302L20.3544 13.3471ZM29.0147 14.6906C29.3241 14.8692 29.5147 15.1993 29.5147 15.5566V24.4019C29.5147 24.7591 29.3241 25.0893 29.0147 25.2679L21.3544 29.6906C21.045 29.8692 20.6638 29.8692 20.3544 29.6906L12.6942 25.2679C12.3848 25.0893 12.1942 24.7591 12.1942 24.4019V15.5566C12.1942 15.1993 12.3848 14.8692 12.6942 14.6906L20.3544 10.2679C20.6638 10.0893 21.045 10.0893 21.3544 10.2679L29.0147 14.6906Z" fill="#9E2A9C"/>
</g>
<defs>
<clipPath id="clip0_2187_1378">
<rect width="40" height="40" fill="white" transform="translate(0.875)"/>
</clipPath>
</defs>
</svg>
