<svg width="32" height="32" viewBox="0 0 32 32" fill="none" xmlns="http://www.w3.org/2000/svg">
<path fill-rule="evenodd" clip-rule="evenodd" d="M25.6877 13.6819C25.8015 13.7832 25.8667 13.9282 25.8667 14.0806V26.3497C25.8667 26.5706 25.6876 26.7497 25.4667 26.7497H22.1333V28.8831H26.6667C27.403 28.8831 28 28.2861 28 27.5497V14.0806C28 13.3189 27.6743 12.5935 27.105 12.0875L16.8858 3.00378C16.3806 2.55473 15.6194 2.55473 15.1142 3.00378L4.89503 12.0875C4.32573 12.5935 4 13.3189 4 14.0806V27.5497C4 28.2861 4.59695 28.8831 5.33333 28.8831H9.86666V26.7497H6.53333C6.31242 26.7497 6.13333 26.5706 6.13333 26.3497V14.0806C6.13333 13.9282 6.19848 13.7832 6.31234 13.6819L16 5.07069L25.6877 13.6819ZM11.2 26.3523V28.8831H12C12.7364 28.8831 13.3333 28.2861 13.3333 27.5497V23.5497C13.3333 22.077 14.5272 20.8831 16 20.8831C17.4728 20.8831 18.6667 22.077 18.6667 23.5497V27.5497C18.6667 28.2861 19.2636 28.8831 20 28.8831H20.8V26.3522L20.8 26.3497V23.5497C20.8 20.8988 18.651 18.7497 16 18.7497C13.349 18.7497 11.2 20.8988 11.2 23.5497V26.3497L11.2 26.3523Z" fill="#4E444B"/>
</svg>
