<svg width="32" height="32" viewBox="0 0 32 32" fill="none" xmlns="http://www.w3.org/2000/svg">
<path fill-rule="evenodd" clip-rule="evenodd" d="M12.3352 2.7703C13.2286 2.44513 14.2165 2.90577 14.5416 3.79918L14.9765 4.99385C15.204 4.97939 15.4334 4.97206 15.6644 4.97206C16.2134 4.97206 16.753 5.01347 17.2801 5.0934L17.817 3.94218C18.2188 3.08052 19.243 2.70772 20.1047 3.10952L22.4275 4.19267C23.2891 4.59447 23.6619 5.61871 23.2601 6.48037L22.7227 7.63282C23.3008 8.14122 23.8235 8.71107 24.2806 9.3322L25.475 8.89749C26.3684 8.57231 27.3563 9.03295 27.6814 9.92636L28.558 12.3347C28.8832 13.2281 28.4225 14.216 27.5291 14.5412L26.3344 14.976C26.3489 15.2035 26.3562 15.4328 26.3562 15.6638C26.3562 16.2128 26.3148 16.7524 26.2348 17.2796L27.3861 17.8165C28.2478 18.2183 28.6206 19.2425 28.2188 20.1042L27.1356 22.427C26.7338 23.2886 25.7096 23.6614 24.8479 23.2596L23.6953 22.7222C23.187 23.3002 22.6171 23.8228 21.996 24.28L22.4308 25.4745C22.756 26.3679 22.2954 27.3558 21.4019 27.6809L18.9936 28.5575C18.1002 28.8827 17.1123 28.422 16.7872 27.5286L16.3522 26.3338C16.1248 26.3482 15.8954 26.3555 15.6644 26.3555C15.1155 26.3555 14.5759 26.3141 14.0488 26.2342L13.5118 27.3856C13.11 28.2473 12.0858 28.6201 11.2241 28.2183L8.90133 27.1352C8.03966 26.7334 7.66687 25.7091 8.06867 24.8475L8.60617 23.6948C8.02817 23.1864 7.50551 22.6166 7.04837 21.9955L5.85379 22.4303C4.96039 22.7555 3.97254 22.2949 3.64737 21.4015L2.77079 18.9931C2.44562 18.0997 2.90626 17.1118 3.79966 16.7867L4.9945 16.3518C4.98004 16.1243 4.9727 15.8949 4.9727 15.6638C4.9727 15.1149 5.01411 14.5753 5.09403 14.0482L3.94267 13.5113C3.081 13.1095 2.70821 12.0853 3.11001 11.2236L4.19315 8.90084C4.59495 8.03918 5.61919 7.66638 6.48086 8.06818L7.63337 8.60561C8.14176 8.02758 8.71159 7.50489 9.3327 7.04771L8.89797 5.8533C8.5728 4.9599 9.03344 3.97205 9.92685 3.64688L12.3352 2.7703ZM11.0796 5.52739L11.9668 7.96486L11.6314 8.14513C10.3745 8.82086 9.30612 9.80284 8.52654 10.9912L8.31772 11.3095L5.9662 10.213L5.25496 11.7382L7.60544 12.8343L7.49555 13.199C7.2606 13.9788 7.13417 14.8061 7.13417 15.6638C7.13417 16.2617 7.19562 16.8449 7.31241 17.4073L7.3898 17.78L4.95244 18.6672L5.52803 20.2486L7.9655 19.3615L8.14578 19.6968C8.8215 20.9538 9.80349 22.0221 10.9918 22.8017L11.3102 23.0105L10.2136 25.362L11.7389 26.0733L12.8349 23.7228L13.1997 23.8327C13.9795 24.0676 14.8068 24.1941 15.6644 24.1941C16.2624 24.1941 16.8455 24.1326 17.408 24.0158L17.7807 23.9384L18.6678 26.3758L20.2493 25.8002L19.3621 23.3627L19.6974 23.1825C20.9544 22.5067 22.0228 21.5248 22.8023 20.3364L23.0112 20.0181L25.3627 21.1146L26.0739 19.5894L23.7234 18.4933L23.8333 18.1286C24.0683 17.3488 24.1947 16.5215 24.1947 15.6638C24.1947 15.0659 24.1333 14.4827 24.0165 13.9203L23.9391 13.5475L26.3764 12.6604L25.8008 11.079L23.3634 11.9661L23.1831 11.6308C22.5074 10.3738 21.5254 9.30547 20.337 8.52589L20.0187 8.31707L21.1153 5.96556L19.59 5.25432L18.494 7.6048L18.1292 7.49491C17.3494 7.25996 16.5221 7.13352 15.6644 7.13352C15.0665 7.13352 14.4834 7.19498 13.9209 7.31177L13.5482 7.38916L12.6611 4.95179L11.0796 5.52739ZM12.0208 15.6638C12.0208 13.6515 13.6521 12.0201 15.6644 12.0201C17.6768 12.0201 19.3081 13.6515 19.3081 15.6638C19.3081 17.6761 17.6768 19.3075 15.6644 19.3075C13.6521 19.3075 12.0208 17.6761 12.0208 15.6638ZM15.6644 14.1816C14.8458 14.1816 14.1822 14.8452 14.1822 15.6638C14.1822 16.4824 14.8458 17.146 15.6644 17.146C16.483 17.146 17.1466 16.4824 17.1466 15.6638C17.1466 14.8452 16.483 14.1816 15.6644 14.1816Z" fill="#4E444B"/>
</svg>
