<svg width="32" height="32" viewBox="0 0 32 32" fill="none" xmlns="http://www.w3.org/2000/svg">
<path fill-rule="evenodd" clip-rule="evenodd" d="M25.8665 7.86732C25.8665 7.6464 25.6874 7.46732 25.4665 7.46732H7.99984C6.23253 7.46732 4.79984 8.90001 4.79984 10.6673V21.334C4.79984 23.1013 6.23253 24.534 7.99984 24.534H25.4665C25.6874 24.534 25.8665 24.3549 25.8665 24.134V21.334H27.9998V25.334C27.9998 26.0704 27.4029 26.6673 26.6665 26.6673H7.99984C5.05432 26.6673 2.6665 24.2795 2.6665 21.334V10.6673C2.6665 7.7218 5.05432 5.33398 7.99984 5.33398H26.6665C27.4029 5.33398 27.9998 5.93094 27.9998 6.66732V10.6673H25.8665V7.86732ZM26.7998 14.134C27.0208 14.134 27.1998 14.3131 27.1998 14.534V17.4673C27.1998 17.6882 27.0208 17.8673 26.7998 17.8673H19.9998C18.9689 17.8673 18.1332 17.0316 18.1332 16.0007C18.1332 14.9697 18.9689 14.134 19.9998 14.134H26.7998ZM15.9998 16.0007C15.9998 13.7915 17.7907 12.0007 19.9998 12.0007H27.9998C28.7362 12.0007 29.3332 12.5976 29.3332 13.334V18.6673C29.3332 19.4037 28.7362 20.0007 27.9998 20.0007H19.9998C17.7907 20.0007 15.9998 18.2098 15.9998 16.0007Z" fill="#4E444B"/>
</svg>
