<svg width="32" height="32" viewBox="0 0 32 32" fill="none" xmlns="http://www.w3.org/2000/svg">
<g clip-path="url(#clip0_2083_40099)">
<path fill-rule="evenodd" clip-rule="evenodd" d="M15.3168 27.1644C12.7259 27.0123 10.3717 25.9795 8.54924 24.361L7.03851 25.8717C9.25039 27.8739 12.1372 29.1443 15.3168 29.3009V27.1644ZM7.60643 23.4182C5.98792 21.5958 4.95507 19.2415 4.80297 16.6506H2.6665C2.82308 19.8303 4.09347 22.717 6.0957 24.9289L7.60643 23.4182ZM4.80297 15.3173C4.95507 12.7263 5.98794 10.3721 7.60646 8.54966L6.09573 7.03893C4.09349 9.25082 2.82308 12.1376 2.6665 15.3173H4.80297ZM8.54928 7.60686C10.3717 5.98838 12.7259 4.95556 15.3168 4.80346V2.66699C12.1372 2.82356 9.25043 4.09394 7.03855 6.09613L8.54928 7.60686ZM16.6501 4.80346V2.66699C19.8298 2.82356 22.7165 4.09396 24.9284 6.09618L23.4177 7.60691C21.5953 5.98841 19.2411 4.95556 16.6501 4.80346ZM24.3605 8.54972L25.8712 7.03899C27.8735 9.25088 29.1438 12.1376 29.3004 15.3173H27.1639C27.0118 12.7264 25.979 10.3721 24.3605 8.54972ZM27.1639 16.6506H29.3004C29.1438 19.8302 27.8735 22.717 25.8713 24.9289L24.3605 23.4181C25.979 21.5957 27.0118 19.2415 27.1639 16.6506ZM23.4177 24.3609L24.9285 25.8717C22.7166 27.8739 19.8298 29.1443 16.6501 29.3009V27.1644C19.2411 27.0123 21.5953 25.9795 23.4177 24.3609ZM15.4834 10.736C15.7928 10.5574 16.174 10.5574 16.4834 10.736L20.2782 12.927C20.5876 13.1056 20.7782 13.4357 20.7782 13.793V18.1749C20.7782 18.5322 20.5876 18.8623 20.2782 19.041L16.4834 21.2319C16.174 21.4106 15.7928 21.4106 15.4834 21.2319L11.6885 19.041C11.3791 18.8623 11.1885 18.5322 11.1885 18.1749V13.793C11.1885 13.4357 11.3791 13.1056 11.6885 12.927L15.4834 10.736ZM22.4116 11.6953C22.721 11.8739 22.9116 12.2041 22.9116 12.5613V19.4066C22.9116 19.7639 22.721 20.094 22.4116 20.2726L16.4834 23.6953C16.174 23.8739 15.7928 23.8739 15.4834 23.6953L9.55518 20.2726C9.24577 20.094 9.05518 19.7639 9.05518 19.4066V12.5613C9.05518 12.2041 9.24577 11.8739 9.55518 11.6953L15.4834 8.27264C15.7928 8.09401 16.174 8.09401 16.4834 8.27264L22.4116 11.6953Z" fill="#4E444B"/>
</g>
<defs>
<clipPath id="clip0_2083_40099">
<rect width="32" height="32" fill="white"/>
</clipPath>
</defs>
</svg>
