<svg width="64" height="64" viewBox="0 0 64 64" fill="none" xmlns="http://www.w3.org/2000/svg">
<circle cx="32" cy="32" r="32" fill="black"/>
<path d="M31.2002 23.1999C31.2002 22.7581 31.5584 22.3999 32.0002 22.3999L-nan -nanL32.0002 22.3999C32.442 22.3999 32.8002 22.7581 32.8002 23.1999V38.3999H31.2002V23.1999Z" fill="white"/>
<path d="M21.9377 24.6015C21.751 24.2011 21.9242 23.7251 22.3247 23.5384L-nan -nanL22.3247 23.5384C22.7251 23.3516 23.2011 23.5249 23.3878 23.9253L29.4735 36.9762L28.0234 37.6523L21.9377 24.6015Z" fill="white"/>
<path d="M40.4851 23.9248C40.6719 23.5243 41.1479 23.3511 41.5483 23.5378L-nan -nanL41.5483 23.5378C41.9487 23.7245 42.122 24.2005 41.9352 24.6009L35.8495 37.6518L34.3994 36.9756L40.4851 23.9248Z" fill="white"/>
<path fill-rule="evenodd" clip-rule="evenodd" d="M41.9996 40.8002H21.9996C20.4532 40.8002 19.1996 42.0538 19.1996 43.6002C19.1996 45.1466 20.4532 46.4002 21.9996 46.4002H41.9996C43.546 46.4002 44.7996 45.1466 44.7996 43.6002C44.7996 42.0538 43.546 40.8002 41.9996 40.8002ZM21.9996 39.2002C19.5696 39.2002 17.5996 41.1701 17.5996 43.6002C17.5996 46.0302 19.5696 48.0002 21.9996 48.0002H41.9996C44.4297 48.0002 46.3996 46.0302 46.3996 43.6002C46.3996 41.1701 44.4297 39.2002 41.9996 39.2002H21.9996Z" fill="white"/>
<path fill-rule="evenodd" clip-rule="evenodd" d="M42 38.3998H22C21.7791 38.3998 21.6 38.5789 21.6 38.7998C21.6 39.0207 21.7791 39.1998 22 39.1998H42C42.2209 39.1998 42.4 39.0207 42.4 38.7998C42.4 38.5789 42.2209 38.3998 42 38.3998ZM22 36.7998C20.8954 36.7998 20 37.6952 20 38.7998C20 39.9044 20.8954 40.7998 22 40.7998H42C43.1046 40.7998 44 39.9044 44 38.7998C44 37.6952 43.1046 36.7998 42 36.7998H22Z" fill="white"/>
<path fill-rule="evenodd" clip-rule="evenodd" d="M31.9996 13.5996H35.1996V15.1996H31.9996V13.5996ZM36.7996 13.5996H40.6943C42.078 13.5996 43.1996 14.7213 43.1996 16.1049C43.1996 17.5931 41.9931 18.7996 40.5049 18.7996H25.9996C24.4532 18.7996 23.1996 20.0532 23.1996 21.5996H21.5996C21.5996 19.1696 23.5696 17.1996 25.9996 17.1996H40.5049C41.1095 17.1996 41.5996 16.7095 41.5996 16.1049C41.5996 15.6049 41.1943 15.1996 40.6943 15.1996H36.7996V13.5996Z" fill="white"/>
<path fill-rule="evenodd" clip-rule="evenodd" d="M39.999 50.3994H41.5994C41.5994 48.1903 37.3013 46.3994 31.9994 46.3994C26.6975 46.3994 22.3994 48.1903 22.3994 50.3994H23.999C23.999 50.3993 23.999 50.3992 23.999 50.399C23.999 49.0735 27.5807 47.999 31.999 47.999C36.4173 47.999 39.999 49.0735 39.999 50.399C39.999 50.3992 39.999 50.3993 39.999 50.3994Z" fill="white"/>
</svg>
