<svg width="340" height="120" viewBox="0 0 340 120" fill="none" xmlns="http://www.w3.org/2000/svg">
<g clip-path="url(#clip0_281_7531)">
<path d="M18.6257 4.39209H159.334L155.755 119.99H43.7412L24.9253 115.534L0.820312 119.99L18.6257 4.39209Z" fill="#001D32"/>
<path d="M18.6257 4.39209H159.334L184.169 96.1323L190.57 119.777H43.6674L38.5358 96.1323L18.6257 4.39209Z" fill="#003351"/>
<path d="M18.6257 4.39209H159.334L183.573 93.9285L184.169 96.1323H40.249L38.0575 93.9285L18.6257 4.39209Z" fill="#001D32"/>
<path d="M184.169 96.1323L159.334 4.39209H20.2471L40.2833 96.1323H184.169Z" fill="#004B74"/>
<path d="M170.532 108.574C168.153 106.317 168.323 102.495 170.939 100.518C181.175 92.7805 204.602 75.7423 214.08 74.4316C226.374 72.7315 244.488 87.8262 244.488 87.8262L346.949 65.2822V101.188C346.949 101.188 255.508 119.767 244.488 119.767C233.467 119.767 222.191 119.767 222.191 119.767L203.823 101.191L175.816 109.813C173.96 110.384 171.94 109.911 170.532 108.574Z" fill="#926F66"/>
<path d="M92.6257 86.8089C101.26 86.8089 108.26 94.1892 108.26 103.293C108.26 112.397 101.26 119.777 92.6257 119.777C83.9912 119.777 61.3332 103.293 61.3332 103.293C61.3332 103.293 83.9912 86.8089 92.6257 86.8089Z" fill="#ECB2FF"/>
<path d="M105.782 103.937L216.597 113.014" stroke="#3D4B27" stroke-width="4"/>
<path d="M146.794 87.0213C155.429 87.0213 162.429 94.4016 162.429 103.506C162.429 112.61 155.429 119.99 146.794 119.99C138.16 119.99 115.502 103.506 115.502 103.506C115.502 103.506 138.16 87.0213 146.794 87.0213Z" fill="#ECB2FF"/>
<rect x="59.6931" y="16.9712" width="78.1713" height="9.89052" rx="4.94526" fill="#F3F2F2"/>
<ellipse cx="26.1027" cy="9.37888" rx="2.34514" ry="2.47263" fill="#CECCCA"/>
<path d="M23.3823 1.84033C23.272 1.40023 23.521 0.9492 23.9384 0.832927C24.3558 0.716655 24.7836 0.979168 24.8939 1.41927L26.8906 9.38795C27.0009 9.82805 26.7519 10.2791 26.3345 10.3954C25.9171 10.5116 25.4893 10.2491 25.379 9.80901L23.3823 1.84033Z" fill="#384E62"/>
<ellipse cx="37.6215" cy="9.37888" rx="2.34514" ry="2.47263" fill="#CECCCA"/>
<path d="M34.9011 1.84033C34.7908 1.40023 35.0398 0.9492 35.4572 0.832927C35.8746 0.716655 36.3024 0.979168 36.4127 1.41927L38.4094 9.38795C38.5197 9.82805 38.2707 10.2791 37.8533 10.3954C37.4359 10.5116 37.0081 10.2491 36.8978 9.80901L34.9011 1.84033Z" fill="#384E62"/>
<ellipse cx="49.1403" cy="9.37888" rx="2.34514" ry="2.47263" fill="#CECCCA"/>
<path d="M46.4199 1.84033C46.3096 1.40023 46.5586 0.9492 46.976 0.832927C47.3934 0.716655 47.8212 0.979168 47.9315 1.41927L49.9282 9.38795C50.0385 9.82805 49.7895 10.2791 49.3721 10.3954C48.9547 10.5116 48.5269 10.2491 48.4166 9.80901L46.4199 1.84033Z" fill="#384E62"/>
<ellipse cx="60.6593" cy="9.37888" rx="2.34514" ry="2.47263" fill="#CECCCA"/>
<path d="M57.9389 1.84033C57.8287 1.40023 58.0776 0.9492 58.495 0.832927C58.9124 0.716655 59.3402 0.979168 59.4505 1.41927L61.4472 9.38795C61.5575 9.82805 61.3085 10.2791 60.8911 10.3954C60.4737 10.5116 60.046 10.2491 59.9357 9.80901L57.9389 1.84033Z" fill="#384E62"/>
<ellipse cx="72.1781" cy="9.37888" rx="2.34514" ry="2.47263" fill="#CECCCA"/>
<path d="M69.4577 1.84033C69.3475 1.40023 69.5964 0.9492 70.0138 0.832927C70.4312 0.716655 70.859 0.979168 70.9693 1.41927L72.966 9.38795C73.0763 9.82805 72.8273 10.2791 72.4099 10.3954C71.9925 10.5116 71.5648 10.2491 71.4545 9.80901L69.4577 1.84033Z" fill="#384E62"/>
<ellipse cx="83.6969" cy="9.37888" rx="2.34514" ry="2.47263" fill="#CECCCA"/>
<path d="M80.9765 1.84033C80.8663 1.40023 81.1152 0.9492 81.5326 0.832927C81.95 0.716655 82.3778 0.979168 82.4881 1.41927L84.4848 9.38795C84.5951 9.82805 84.3461 10.2791 83.9287 10.3954C83.5113 10.5116 83.0836 10.2491 82.9733 9.80901L80.9765 1.84033Z" fill="#384E62"/>
<ellipse cx="95.2157" cy="9.37888" rx="2.34514" ry="2.47263" fill="#CECCCA"/>
<path d="M92.4953 1.84033C92.3851 1.40023 92.634 0.9492 93.0514 0.832927C93.4688 0.716655 93.8966 0.979168 94.0069 1.41927L96.0036 9.38795C96.1139 9.82805 95.8649 10.2791 95.4475 10.3954C95.0301 10.5116 94.6024 10.2491 94.4921 9.80901L92.4953 1.84033Z" fill="#384E62"/>
<ellipse cx="106.735" cy="9.37888" rx="2.34514" ry="2.47263" fill="#CECCCA"/>
<path d="M104.014 1.84033C103.904 1.40023 104.153 0.9492 104.57 0.832927C104.988 0.716655 105.415 0.979168 105.526 1.41927L107.522 9.38795C107.633 9.82805 107.384 10.2791 106.966 10.3954C106.549 10.5116 106.121 10.2491 106.011 9.80901L104.014 1.84033Z" fill="#384E62"/>
<ellipse cx="118.253" cy="8.75632" rx="2.34514" ry="2.47263" fill="#CECCCA"/>
<path d="M115.533 1.21777C115.423 0.777669 115.672 0.326641 116.089 0.210369C116.506 0.0940963 116.934 0.356609 117.044 0.796708L119.041 8.7654C119.152 9.20549 118.903 9.65652 118.485 9.77279C118.068 9.88907 117.64 9.62655 117.53 9.18646L115.533 1.21777Z" fill="#384E62"/>
<ellipse cx="129.772" cy="8.75632" rx="2.34514" ry="2.47263" fill="#CECCCA"/>
<path d="M127.052 1.21777C126.941 0.777669 127.19 0.326641 127.608 0.210369C128.025 0.0940963 128.453 0.356609 128.563 0.796708L130.56 8.7654C130.67 9.20549 130.421 9.65652 130.004 9.77279C129.587 9.88907 129.159 9.62655 129.048 9.18646L127.052 1.21777Z" fill="#384E62"/>
<ellipse cx="141.291" cy="8.75632" rx="2.34514" ry="2.47263" fill="#CECCCA"/>
<path d="M138.571 1.21777C138.46 0.777669 138.709 0.326641 139.127 0.210369C139.544 0.0940963 139.972 0.356609 140.082 0.796708L142.079 8.7654C142.189 9.20549 141.94 9.65652 141.523 9.77279C141.105 9.88907 140.678 9.62655 140.567 9.18646L138.571 1.21777Z" fill="#384E62"/>
<ellipse cx="152.809" cy="8.75632" rx="2.34514" ry="2.47263" fill="#CECCCA"/>
<path d="M150.089 1.21777C149.979 0.777669 150.228 0.326641 150.645 0.210369C151.063 0.0940963 151.491 0.356609 151.601 0.796708L153.598 8.7654C153.708 9.20549 153.459 9.65652 153.042 9.77279C152.624 9.88907 152.196 9.62655 152.086 9.18646L150.089 1.21777Z" fill="#384E62"/>
<ellipse cx="45.6988" cy="38.0258" rx="3.90856" ry="4.12105" fill="#E6E5E5"/>
<ellipse cx="62.8966" cy="38.0258" rx="3.90856" ry="4.12105" fill="#E6E5E5"/>
<ellipse cx="80.0941" cy="38.0253" rx="3.90856" ry="4.12105" fill="#E6E5E5"/>
<ellipse cx="97.2919" cy="38.0253" rx="3.90856" ry="4.12105" fill="#E6E5E5"/>
<ellipse cx="114.49" cy="38.0253" rx="3.90856" ry="4.12105" fill="#E6E5E5"/>
<ellipse cx="131.687" cy="38.0253" rx="3.90856" ry="4.12105" fill="#E6E5E5"/>
<ellipse cx="148.885" cy="38.0253" rx="3.90856" ry="4.12105" fill="#E6E5E5"/>
<ellipse cx="49.6693" cy="52.7353" rx="3.90856" ry="4.12105" fill="#E6E5E5"/>
<ellipse cx="66.8671" cy="52.7353" rx="3.90856" ry="4.12105" fill="#E6E5E5"/>
<ellipse cx="84.0646" cy="52.7348" rx="3.90856" ry="4.12105" fill="#E6E5E5"/>
<ellipse cx="101.262" cy="52.7348" rx="3.90856" ry="4.12105" fill="#E6E5E5"/>
<ellipse cx="118.46" cy="52.7348" rx="3.90856" ry="4.12105" fill="#E6E5E5"/>
<ellipse cx="135.658" cy="52.7348" rx="3.90856" ry="4.12105" fill="#E6E5E5"/>
<ellipse cx="152.855" cy="52.7348" rx="3.90856" ry="4.12105" fill="#E6E5E5"/>
<ellipse cx="53.578" cy="67.4458" rx="3.90856" ry="4.12105" fill="#E6E5E5"/>
<ellipse cx="70.7757" cy="67.4458" rx="3.90856" ry="4.12105" fill="#E6E5E5"/>
<ellipse cx="87.9733" cy="67.4453" rx="3.90856" ry="4.12105" fill="#E6E5E5"/>
<ellipse cx="105.171" cy="67.4453" rx="3.90856" ry="4.12105" fill="#E6E5E5"/>
<ellipse cx="122.369" cy="67.4453" rx="3.90856" ry="4.12105" fill="#E6E5E5"/>
<ellipse cx="139.566" cy="67.4453" rx="3.90856" ry="4.12105" fill="#E6E5E5"/>
<ellipse cx="156.764" cy="67.4453" rx="3.90856" ry="4.12105" fill="#E6E5E5"/>
<ellipse cx="57.5323" cy="82.1557" rx="3.90856" ry="4.12105" fill="#E6E5E5"/>
<ellipse cx="74.7301" cy="82.1557" rx="3.90856" ry="4.12105" fill="#E6E5E5"/>
<ellipse cx="91.9276" cy="82.1552" rx="3.90856" ry="4.12105" fill="#E6E5E5"/>
<ellipse cx="109.125" cy="82.1552" rx="3.90856" ry="4.12105" fill="#E6E5E5"/>
<path d="M98.8543 48.2105C97.8334 47.3493 96.4407 46.7356 95.4549 45.9041C94.8795 45.4187 93.2472 46.5704 92.6023 46.9482C90.3257 48.2817 91.2786 50.3742 92.2624 52.1375C93.6199 54.5708 95.5645 56.0832 97.9084 57.4672C99.5763 58.4519 101.244 59.0134 102.993 59.8515C103.657 60.17 104.432 60.0174 105.106 60.4125C105.856 60.8518 105.076 59.1396 104.973 58.8697" stroke="#FB8D6F" stroke-width="3" stroke-linecap="round"/>
<path d="M99.3867 48.2101C99.3867 46.6026 99.3323 44.9854 99.3867 43.3791C99.4332 42.0061 101.528 42.8054 102.151 43.0051C104.07 43.6212 106.666 44.9466 107.309 47.1504C108.123 49.941 105.879 52.4916 104.841 54.802C103.801 57.1169 102.479 59.9686 100.451 61.3939" stroke="#FB8D6F" stroke-width="3" stroke-linecap="round"/>
<g clip-path="url(#clip1_281_7531)">
<line y1="-2" x2="87.6453" y2="-2" transform="matrix(0.998361 0.0572317 -0.0514981 0.998673 252.498 114.747)" stroke="#3D4B27" stroke-width="4"/>
<path d="M252.14 115.503L330.952 113.101" stroke="#3D4B27" stroke-width="4"/>
<path d="M159.426 103.704C159.426 103.704 185.645 106.876 216.6 110.622" stroke="#3D4B27" stroke-width="4"/>
<path d="M192.689 111.844C192.689 107.47 196.235 103.924 200.609 103.924H234.902V119.763H200.609C196.235 119.763 192.689 116.217 192.689 111.844Z" fill="#926F66"/>
</g>
</g>
<defs>
<clipPath id="clip0_281_7531">
<rect width="339.18" height="120" fill="white" transform="translate(0.820312)"/>
</clipPath>
<clipPath id="clip1_281_7531">
<rect width="215" height="106" fill="white" transform="translate(125 14)"/>
</clipPath>
</defs>
</svg>
