<svg width="320" height="121" viewBox="0 0 320 121" fill="none" xmlns="http://www.w3.org/2000/svg">
<g clip-path="url(#clip0_299_2564)">
<path d="M124.418 9.67139H10.9904L-0.179688 94.2486H113.248L124.418 9.67139Z" fill="white"/>
<path fill-rule="evenodd" clip-rule="evenodd" d="M113.248 94.2486H-0.179688L10.9904 9.67139H124.418L113.248 94.2486ZM123.848 10.1714L112.81 93.7486H0.39069L11.4288 10.1714H123.848Z" fill="#384E62"/>
<path d="M125.418 9.67139H11.9904L0.820312 94.2486H114.248L125.418 9.67139Z" fill="white"/>
<path fill-rule="evenodd" clip-rule="evenodd" d="M114.248 94.2486H0.820312L11.9904 9.67139H125.418L114.248 94.2486ZM124.848 10.1714L113.81 93.7486H1.39069L12.4288 10.1714H124.848Z" fill="#384E62"/>
<path d="M126.418 9.67139H12.9904L1.82031 94.2486H115.248L126.418 9.67139Z" fill="white"/>
<path fill-rule="evenodd" clip-rule="evenodd" d="M115.248 94.2486H1.82031L12.9904 9.67139H126.418L115.248 94.2486ZM125.848 10.1714L114.81 93.7486H2.39069L13.4288 10.1714H125.848Z" fill="#384E62"/>
<path d="M127.418 9.67139H13.9904L2.82031 94.2486H116.248L127.418 9.67139Z" fill="white"/>
<path fill-rule="evenodd" clip-rule="evenodd" d="M116.248 94.2486H2.82031L13.9904 9.67139H127.418L116.248 94.2486ZM126.848 10.1714L115.81 93.7486H3.39069L14.4288 10.1714H126.848Z" fill="#384E62"/>
<path d="M15.1339 9.67284L134.342 9.67285L114.023 120.5H0.595703L15.1339 9.67284Z" fill="#B5B2B0"/>
<path d="M17.4257 14.7188L43.6781 117.672H3.9834L17.4257 14.7188Z" fill="#9C9896"/>
<path d="M47.5958 120.5H161.023L132.418 9.67139H18.9902L40.8201 94.2486L47.5958 120.5Z" fill="#CECCCA"/>
<path d="M132.418 9.67139H18.9902L40.8201 94.2486H154.248L132.418 9.67139Z" fill="#F3F2F2"/>
<path fill-rule="evenodd" clip-rule="evenodd" d="M154.248 94.2486L132.418 9.67139H18.9902L40.8201 94.2486H154.248ZM41.2074 93.7486H153.602L132.031 10.1714H19.6357L41.2074 93.7486Z" fill="#384E62"/>
<path d="M133.365 9.67139H19.9375L41.7674 94.2486H155.195L133.365 9.67139Z" fill="#FDFCFC"/>
<path fill-rule="evenodd" clip-rule="evenodd" d="M155.195 94.2486L133.365 9.67139H19.9375L41.7674 94.2486H155.195ZM42.1547 93.7486H154.549L132.978 10.1714H20.5829L42.1547 93.7486Z" fill="#384E62"/>
<path d="M20.9375 9.67139L42.7674 94.2486H156.195L134.365 9.67139H106.008H77.6513H49.2944H20.9375Z" fill="white"/>
<path fill-rule="evenodd" clip-rule="evenodd" d="M156.195 94.2486L134.365 9.67139H20.9375L42.7674 94.2486H156.195ZM43.1547 93.7486H155.549L133.978 10.1714H21.5829L43.1547 93.7486Z" fill="#384E62"/>
<path d="M42.276 33.2959C42.244 33.5259 42.22 33.7529 42.204 33.9769C42.188 34.2009 42.172 34.4249 42.156 34.6489C42.132 34.6449 42.108 34.6429 42.084 34.6429C42.06 34.6429 42.037 34.6429 42.015 34.6429C41.991 34.6429 41.967 34.6429 41.943 34.6429C41.921 34.6429 41.898 34.6449 41.874 34.6489C41.938 34.3049 41.995 33.9629 42.045 33.6229C42.095 33.2829 42.141 32.9379 42.183 32.5879C42.205 32.5919 42.225 32.5959 42.243 32.5999C42.263 32.6019 42.284 32.6029 42.306 32.6029C42.324 32.6029 42.343 32.6019 42.363 32.5999C42.383 32.5959 42.404 32.5919 42.426 32.5879C42.48 32.7079 42.536 32.8299 42.594 32.9539C42.654 33.0779 42.713 33.2019 42.771 33.3259C42.831 33.4479 42.89 33.5679 42.948 33.6859C43.008 33.8039 43.065 33.9159 43.119 34.0219C43.239 33.7979 43.358 33.5639 43.476 33.3199C43.596 33.0739 43.71 32.8299 43.818 32.5879C43.868 32.5979 43.911 32.6029 43.947 32.6029C43.981 32.6029 44.023 32.5979 44.073 32.5879C44.093 32.7599 44.114 32.9449 44.136 33.1429C44.16 33.3409 44.183 33.5349 44.205 33.7249C44.227 33.9129 44.249 34.0889 44.271 34.2529C44.293 34.4169 44.313 34.5489 44.331 34.6489C44.291 34.6449 44.25 34.6429 44.208 34.6429C44.168 34.6429 44.128 34.6429 44.088 34.6429C44.048 34.6429 44.007 34.6429 43.965 34.6429C43.923 34.6429 43.881 34.6449 43.839 34.6489C43.829 34.4429 43.812 34.2199 43.788 33.9799C43.766 33.7399 43.743 33.5019 43.719 33.2659H43.713C43.599 33.5019 43.487 33.7339 43.377 33.9619C43.267 34.1899 43.158 34.4189 43.05 34.6489C43.04 34.6469 43.03 34.6449 43.02 34.6429C43.012 34.6429 43.003 34.6429 42.993 34.6429C42.983 34.6429 42.973 34.6429 42.963 34.6429C42.955 34.6449 42.946 34.6469 42.936 34.6489C42.828 34.4249 42.72 34.2009 42.612 33.9769C42.506 33.7529 42.396 33.5259 42.282 33.2959H42.276Z" fill="#B5B2B0"/>
<path d="M45.46 33.8569C45.46 33.6809 45.438 33.5449 45.394 33.4489C45.35 33.3509 45.277 33.3019 45.175 33.3019C45.083 33.3019 45.01 33.3559 44.956 33.4639C44.904 33.5719 44.878 33.7409 44.878 33.9709C44.878 34.0549 44.883 34.1329 44.893 34.2049C44.903 34.2769 44.919 34.3399 44.941 34.3939C44.965 34.4459 44.995 34.4869 45.031 34.5169C45.069 34.5469 45.116 34.5619 45.172 34.5619C45.364 34.5619 45.46 34.3269 45.46 33.8569ZM44.434 33.9679C44.434 33.8339 44.454 33.7169 44.494 33.6169C44.536 33.5169 44.591 33.4339 44.659 33.3679C44.727 33.2999 44.805 33.2499 44.893 33.2179C44.983 33.1839 45.075 33.1669 45.169 33.1669C45.403 33.1669 45.584 33.2329 45.712 33.3649C45.84 33.4969 45.904 33.6759 45.904 33.9019C45.904 34.0239 45.886 34.1339 45.85 34.2319C45.814 34.3299 45.763 34.4139 45.697 34.4839C45.633 34.5519 45.556 34.6029 45.466 34.6369C45.376 34.6709 45.277 34.6879 45.169 34.6879C45.079 34.6879 44.99 34.6759 44.902 34.6519C44.816 34.6279 44.738 34.5879 44.668 34.5319C44.598 34.4739 44.541 34.3989 44.497 34.3069C44.455 34.2149 44.434 34.1019 44.434 33.9679Z" fill="#B5B2B0"/>
<path d="M46.487 33.4309C46.543 33.3469 46.608 33.2819 46.682 33.2359C46.758 33.1899 46.844 33.1669 46.94 33.1669C47.09 33.1669 47.205 33.2109 47.285 33.2989C47.367 33.3849 47.408 33.5249 47.408 33.7189C47.408 33.8209 47.406 33.9109 47.402 33.9889C47.398 34.0669 47.396 34.1449 47.396 34.2229C47.396 34.2869 47.397 34.3569 47.399 34.4329C47.403 34.5069 47.407 34.5789 47.411 34.6489C47.385 34.6449 47.352 34.6429 47.312 34.6429C47.272 34.6429 47.23 34.6429 47.186 34.6429C47.142 34.6429 47.1 34.6429 47.06 34.6429C47.02 34.6429 46.987 34.6449 46.961 34.6489C46.975 34.5449 46.984 34.4229 46.988 34.2829C46.992 34.1409 46.994 33.9789 46.994 33.7969C46.994 33.6709 46.972 33.5789 46.928 33.5209C46.886 33.4609 46.826 33.4309 46.748 33.4309C46.658 33.4309 46.592 33.4699 46.55 33.5479C46.508 33.6259 46.487 33.7339 46.487 33.8719V33.9919C46.487 34.1139 46.488 34.2289 46.49 34.3369C46.494 34.4449 46.501 34.5489 46.511 34.6489C46.485 34.6449 46.452 34.6429 46.412 34.6429C46.374 34.6429 46.332 34.6429 46.286 34.6429C46.24 34.6429 46.198 34.6429 46.16 34.6429C46.122 34.6429 46.089 34.6449 46.061 34.6489C46.071 34.5489 46.077 34.4449 46.079 34.3369C46.083 34.2289 46.085 34.1139 46.085 33.9919V33.8719C46.085 33.7499 46.083 33.6359 46.079 33.5299C46.077 33.4219 46.071 33.3139 46.061 33.2059C46.097 33.2099 46.132 33.2139 46.166 33.2179C46.202 33.2199 46.238 33.2209 46.274 33.2209C46.31 33.2209 46.345 33.2199 46.379 33.2179C46.415 33.2139 46.453 33.2099 46.493 33.2059L46.481 33.4309H46.487Z" fill="#B5B2B0"/>
<ellipse cx="45.166" cy="15.8957" rx="2" ry="1.71404" fill="#001D32"/>
<ellipse cx="45.3926" cy="15.8957" rx="0.75" ry="0.642763" fill="#003351"/>
<path fill-rule="evenodd" clip-rule="evenodd" d="M44.7998 16.2517C45.3452 15.1204 45.6733 13.7465 45.6733 12.2479C45.6733 10.1952 45.0578 8.37655 44.1114 7.09459C43.1648 5.81233 41.938 5.12012 40.6733 5.12012C39.4087 5.12012 38.1818 5.81233 37.2352 7.09459C36.7078 7.80904 36.2831 8.69019 36.0105 9.68564H34.9775C35.7698 6.45228 38.0205 4.12012 40.6733 4.12012C43.987 4.12012 46.6733 7.75904 46.6733 12.2479C46.6733 13.7036 46.3908 15.0699 45.896 16.2517H44.7998Z" fill="#003351"/>
<ellipse cx="73.1553" cy="15.8957" rx="2" ry="1.71404" fill="#001D32"/>
<ellipse cx="73.3818" cy="15.8957" rx="0.75" ry="0.642763" fill="#003351"/>
<path fill-rule="evenodd" clip-rule="evenodd" d="M72.7891 16.2517C73.3345 15.1204 73.6626 13.7465 73.6626 12.2479C73.6626 10.1952 73.047 8.37655 72.1007 7.09459C71.1541 5.81233 69.9272 5.12012 68.6626 5.12012C67.3979 5.12012 66.171 5.81233 65.2245 7.09459C64.697 7.80904 64.2724 8.69019 63.9998 9.68564H62.9668C63.759 6.45228 66.0098 4.12012 68.6626 4.12012C71.9763 4.12012 74.6626 7.75904 74.6626 12.2479C74.6626 13.7036 74.3801 15.0699 73.8853 16.2517H72.7891Z" fill="#003351"/>
<ellipse cx="101.143" cy="15.8957" rx="2" ry="1.71404" fill="#001D32"/>
<ellipse cx="101.369" cy="15.8957" rx="0.75" ry="0.642763" fill="#003351"/>
<path fill-rule="evenodd" clip-rule="evenodd" d="M100.776 16.2517C101.322 15.1204 101.65 13.7465 101.65 12.2479C101.65 10.1952 101.034 8.37655 100.088 7.09459C99.1414 5.81233 97.9145 5.12012 96.6499 5.12012C95.3852 5.12012 94.1583 5.81233 93.2118 7.09459C92.6844 7.80904 92.2597 8.69019 91.9871 9.68564H90.9541C91.7464 6.45228 93.9971 4.12012 96.6499 4.12012C99.9636 4.12012 102.65 7.75904 102.65 12.2479C102.65 13.7036 102.367 15.0699 101.873 16.2517H100.776Z" fill="#003351"/>
<ellipse cx="124.913" cy="15.8957" rx="2" ry="1.71404" fill="#001D32"/>
<ellipse cx="125.14" cy="15.8957" rx="0.75" ry="0.642763" fill="#003351"/>
<path fill-rule="evenodd" clip-rule="evenodd" d="M124.547 16.2517C125.092 15.1204 125.42 13.7465 125.42 12.2479C125.42 10.1952 124.805 8.37655 123.858 7.09459C122.912 5.81233 121.685 5.12012 120.42 5.12012C119.156 5.12012 117.929 5.81233 116.982 7.09459C116.455 7.80904 116.03 8.69019 115.758 9.68564H114.725C115.517 6.45228 117.768 4.12012 120.42 4.12012C123.734 4.12012 126.42 7.75904 126.42 12.2479C126.42 13.7036 126.138 15.0699 125.643 16.2517H124.547Z" fill="#003351"/>
<path d="M49.881 25.1138C49.5763 23.2852 50.9864 21.6206 52.8402 21.6206H116.103C117.57 21.6206 118.821 22.6808 119.062 24.1274C119.367 25.956 117.957 27.6206 116.103 27.6206H52.8402C51.3737 27.6206 50.1221 26.5604 49.881 25.1138Z" fill="#E6E5E5"/>
<path fill-rule="evenodd" clip-rule="evenodd" d="M133.064 36.4751L146.075 86.2429H50.2561L37.04 36.4751H133.064ZM37.6901 36.9751L40.795 48.667H55.3245L52.2569 36.9751H37.6901ZM52.7738 36.9751L55.8415 48.667H69.9456L66.7839 36.9751H52.7738ZM70.0808 49.167H55.9727L59.1059 61.109H73.31L70.0808 49.167ZM73.8279 61.109L70.5987 49.167H83.6736L87.0307 61.109H73.8279ZM73.4452 61.609H59.2371L62.3704 73.5509H76.6744L73.4452 61.609ZM77.1923 73.5509L73.9631 61.609H87.1713L90.5284 73.5509H77.1923ZM76.8096 74.0509H62.5016L65.5693 85.7429H79.9712L76.8096 74.0509ZM80.4891 85.7429L77.3275 74.0509H90.6689L93.9557 85.7429H80.4891ZM94.4751 85.7429H107.156L104.057 74.0509H91.1883L94.4751 85.7429ZM91.0477 73.5509H103.924L100.759 61.609H87.6906L91.0477 73.5509ZM87.5501 61.109H100.627L97.4614 49.167H84.193L87.5501 61.109ZM84.0524 48.667H97.3289L94.2299 36.9751H80.7656L84.0524 48.667ZM80.2462 36.9751H67.3019L70.4635 48.667H83.5331L80.2462 36.9751ZM94.7472 36.9751L97.8461 48.667H110.455L107.419 36.9751H94.7472ZM107.935 36.9751L110.972 48.667H122.997L119.944 36.9751H107.935ZM120.461 36.9751L123.513 48.667H135.735L132.678 36.9751H120.461ZM135.866 49.167H123.644L126.761 61.109H138.987L135.866 49.167ZM139.118 61.609H126.892L130.009 73.5509H142.24L139.118 61.609ZM142.371 74.0509H130.14L133.192 85.7429H145.427L142.371 74.0509ZM132.676 85.7429L129.623 74.0509H117.564L120.6 85.7429H132.676ZM120.084 85.7429L117.047 74.0509H104.574L107.673 85.7429H120.084ZM104.442 73.5509H116.917L113.816 61.609H101.276L104.442 73.5509ZM101.144 61.109H113.686L110.585 49.167H97.9787L101.144 61.109ZM111.102 49.167L114.203 61.109H126.245L123.127 49.167H111.102ZM126.375 61.609H114.333L117.434 73.5509H129.493L126.375 61.609ZM65.0524 85.7429L61.9847 74.0509H47.5358L50.6407 85.7429H65.0524ZM47.403 73.5509H61.8535L58.7202 61.609H44.2318L47.403 73.5509ZM44.099 61.109H58.589L55.4557 49.167H40.9278L44.099 61.109Z" fill="#E6E5E5"/>
<path d="M57.2836 32.8533C57.2836 32.7953 57.2826 32.7423 57.2806 32.6943C57.2806 32.6463 57.2786 32.6113 57.2746 32.5893C57.2446 32.5893 57.2076 32.5903 57.1636 32.5923C57.1196 32.5943 57.0726 32.5973 57.0226 32.6013C56.9726 32.6033 56.9216 32.6073 56.8696 32.6133C56.8176 32.6173 56.7696 32.6223 56.7256 32.6283C56.7296 32.6063 56.7326 32.5843 56.7346 32.5623C56.7386 32.5403 56.7406 32.5183 56.7406 32.4963C56.7406 32.4743 56.7386 32.4523 56.7346 32.4303C56.7326 32.4083 56.7296 32.3863 56.7256 32.3643C56.7936 32.3663 56.8546 32.3683 56.9086 32.3703C56.9646 32.3723 57.0206 32.3743 57.0766 32.3763C57.1346 32.3763 57.1966 32.3773 57.2626 32.3793C57.3306 32.3793 57.4116 32.3793 57.5056 32.3793C57.5996 32.3793 57.6796 32.3793 57.7456 32.3793C57.8136 32.3773 57.8756 32.3763 57.9316 32.3763C57.9876 32.3743 58.0416 32.3723 58.0936 32.3703C58.1476 32.3683 58.2056 32.3663 58.2676 32.3643C58.2636 32.3863 58.2596 32.4083 58.2556 32.4303C58.2536 32.4523 58.2526 32.4743 58.2526 32.4963C58.2526 32.5183 58.2536 32.5403 58.2556 32.5623C58.2596 32.5843 58.2636 32.6063 58.2676 32.6283C58.2276 32.6223 58.1826 32.6173 58.1326 32.6133C58.0826 32.6073 58.0326 32.6033 57.9826 32.6013C57.9346 32.5973 57.8886 32.5943 57.8446 32.5923C57.8006 32.5903 57.7636 32.5893 57.7336 32.5893C57.7316 32.5993 57.7296 32.6133 57.7276 32.6313C57.7276 32.6493 57.7276 32.6703 57.7276 32.6943V32.8533V33.6033C57.7276 33.7693 57.7296 33.9173 57.7336 34.0473C57.7376 34.1753 57.7436 34.3013 57.7516 34.4253C57.7176 34.4213 57.6806 34.4193 57.6406 34.4193C57.6006 34.4193 57.5556 34.4193 57.5056 34.4193C57.4556 34.4193 57.4106 34.4193 57.3706 34.4193C57.3306 34.4193 57.2936 34.4213 57.2596 34.4253C57.2676 34.3013 57.2736 34.1753 57.2776 34.0473C57.2816 33.9173 57.2836 33.7693 57.2836 33.6033V32.8533Z" fill="#B5B2B0"/>
<path d="M59.0138 34.2093C58.9578 34.2933 58.8918 34.3573 58.8158 34.4013C58.7418 34.4433 58.6567 34.4643 58.5608 34.4643C58.4108 34.4643 58.2948 34.4223 58.2128 34.3383C58.1328 34.2543 58.0928 34.1153 58.0928 33.9213C58.0928 33.8193 58.0948 33.7293 58.0987 33.6513C58.1027 33.5733 58.1048 33.4953 58.1048 33.4173C58.1048 33.3533 58.1027 33.2843 58.0987 33.2103C58.0968 33.1343 58.0938 33.0583 58.0898 32.9823C58.1158 32.9863 58.1488 32.9903 58.1888 32.9943C58.2287 32.9963 58.2708 32.9973 58.3148 32.9973C58.3588 32.9973 58.4008 32.9963 58.4408 32.9943C58.4808 32.9903 58.5138 32.9863 58.5398 32.9823C58.5258 33.0903 58.5168 33.2153 58.5128 33.3573C58.5087 33.4993 58.5067 33.6613 58.5067 33.8433C58.5067 33.9693 58.5278 34.0623 58.5698 34.1223C58.6138 34.1803 58.6748 34.2093 58.7528 34.2093C58.8428 34.2093 58.9088 34.1703 58.9508 34.0923C58.9928 34.0143 59.0138 33.9063 59.0138 33.7683V33.6483C59.0138 33.5263 59.0117 33.4123 59.0078 33.3063C59.0057 33.1983 58.9998 33.0903 58.9898 32.9823C59.0458 32.9923 59.1207 32.9973 59.2148 32.9973C59.2608 32.9973 59.3028 32.9963 59.3407 32.9943C59.3787 32.9903 59.4117 32.9863 59.4397 32.9823C59.4297 33.0903 59.4227 33.1983 59.4188 33.3063C59.4167 33.4123 59.4158 33.5263 59.4158 33.6483V33.7683C59.4158 33.8903 59.4167 34.0053 59.4188 34.1133C59.4227 34.2213 59.4297 34.3253 59.4397 34.4253C59.4037 34.4213 59.3678 34.4193 59.3318 34.4193C59.2978 34.4193 59.2628 34.4193 59.2268 34.4193C59.1908 34.4193 59.1548 34.4193 59.1188 34.4193C59.0848 34.4193 59.0477 34.4213 59.0078 34.4253L59.0198 34.2093H59.0138Z" fill="#B5B2B0"/>
<path d="M60.0407 33.7083C60.0407 33.7883 60.0487 33.8633 60.0647 33.9333C60.0807 34.0033 60.1047 34.0643 60.1367 34.1163C60.1707 34.1663 60.2127 34.2063 60.2627 34.2363C60.3147 34.2643 60.3747 34.2783 60.4427 34.2783C60.5807 34.2783 60.7037 34.2333 60.8117 34.1433L60.8477 34.1703L60.7817 34.3383C60.7317 34.3763 60.6717 34.4063 60.6017 34.4283C60.5317 34.4523 60.4397 34.4643 60.3257 34.4643C60.2277 34.4643 60.1347 34.4503 60.0467 34.4223C59.9587 34.3963 59.8807 34.3523 59.8127 34.2903C59.7467 34.2283 59.6937 34.1503 59.6537 34.0563C59.6157 33.9603 59.5967 33.8463 59.5967 33.7143C59.5967 33.5843 59.6137 33.4713 59.6477 33.3753C59.6837 33.2793 59.7327 33.1993 59.7947 33.1353C59.8567 33.0713 59.9297 33.0233 60.0137 32.9913C60.0997 32.9593 60.1927 32.9433 60.2927 32.9433C60.4907 32.9433 60.6417 33.0013 60.7457 33.1173C60.8517 33.2333 60.9047 33.3973 60.9047 33.6093V33.6723C60.9047 33.6903 60.9037 33.7023 60.9017 33.7083H60.0407ZM60.5027 33.5733C60.4987 33.4233 60.4797 33.3033 60.4457 33.2133C60.4137 33.1233 60.3587 33.0783 60.2807 33.0783C60.2367 33.0783 60.1997 33.0933 60.1697 33.1233C60.1397 33.1533 60.1157 33.1923 60.0977 33.2403C60.0797 33.2863 60.0657 33.3393 60.0557 33.3993C60.0477 33.4573 60.0427 33.5153 60.0407 33.5733H60.5027Z" fill="#B5B2B0"/>
<path d="M71.7629 32.9616C71.7269 33.0636 71.6859 33.1786 71.6399 33.3066C71.5939 33.4326 71.5469 33.5616 71.4989 33.6936C71.4529 33.8256 71.4079 33.9556 71.3639 34.0836C71.3199 34.2116 71.2819 34.3256 71.2499 34.4256C71.2039 34.4216 71.1529 34.4196 71.0969 34.4196C71.0709 34.4196 71.0449 34.4196 71.0189 34.4196C70.9929 34.4196 70.9669 34.4216 70.9409 34.4256C70.9189 34.3436 70.8899 34.2376 70.8539 34.1076C70.8179 33.9776 70.7789 33.8396 70.7369 33.6936C70.6949 33.5476 70.6519 33.4006 70.6079 33.2526C70.5639 33.1026 70.5229 32.9656 70.4849 32.8416C70.4469 32.7176 70.4149 32.6126 70.3889 32.5266C70.3629 32.4386 70.3459 32.3846 70.3379 32.3646C70.3819 32.3686 70.4249 32.3726 70.4669 32.3766C70.5089 32.3786 70.5499 32.3796 70.5899 32.3796C70.6299 32.3796 70.6699 32.3786 70.7099 32.3766C70.7519 32.3726 70.7929 32.3686 70.8329 32.3646C70.8629 32.4926 70.8949 32.6246 70.9289 32.7606C70.9629 32.8946 70.9969 33.0276 71.0309 33.1596C71.0669 33.2896 71.1009 33.4166 71.1329 33.5406C71.1669 33.6626 71.1979 33.7756 71.2259 33.8796H71.2319C71.2759 33.7536 71.3229 33.6176 71.3729 33.4716C71.4249 33.3236 71.4749 33.1796 71.5229 33.0396C71.5709 32.8976 71.6149 32.7676 71.6549 32.6496C71.6949 32.5296 71.7259 32.4346 71.7479 32.3646C71.7739 32.3686 71.7989 32.3726 71.8229 32.3766C71.8469 32.3786 71.8719 32.3796 71.8979 32.3796C71.9239 32.3796 71.9489 32.3786 71.9729 32.3766C71.9969 32.3726 72.0219 32.3686 72.0479 32.3646C72.0559 32.4086 72.0709 32.4676 72.0929 32.5416C72.1149 32.6156 72.1399 32.6976 72.1679 32.7876C72.1979 32.8776 72.2289 32.9726 72.2609 33.0726C72.2949 33.1726 72.3279 33.2716 72.3599 33.3696C72.3939 33.4676 72.4249 33.5606 72.4529 33.6486C72.4809 33.7366 72.5039 33.8136 72.5219 33.8796H72.5279C72.5679 33.7536 72.6099 33.6146 72.6539 33.4626C72.6999 33.3106 72.7439 33.1636 72.7859 33.0216C72.8279 32.8796 72.8659 32.7496 72.8999 32.6316C72.9339 32.5136 72.9579 32.4246 72.9719 32.3646C73.0219 32.3746 73.0639 32.3796 73.0979 32.3796C73.1199 32.3796 73.1419 32.3786 73.1639 32.3766C73.1879 32.3726 73.2119 32.3686 73.2359 32.3646C73.2219 32.4026 73.1999 32.4646 73.1699 32.5506C73.1399 32.6366 73.1049 32.7386 73.0649 32.8566C73.0249 32.9726 72.9819 33.0996 72.9359 33.2376C72.8899 33.3756 72.8439 33.5146 72.7979 33.6546C72.7519 33.7946 72.7069 33.9316 72.6629 34.0656C72.6209 34.1996 72.5839 34.3196 72.5519 34.4256C72.5059 34.4216 72.4549 34.4196 72.3989 34.4196C72.3729 34.4196 72.3469 34.4196 72.3209 34.4196C72.2949 34.4196 72.2689 34.4216 72.2429 34.4256C72.1789 34.1816 72.1059 33.9396 72.0239 33.6996C71.9439 33.4576 71.8589 33.2116 71.7689 32.9616H71.7629Z" fill="#B5B2B0"/>
<path d="M73.6066 33.7086C73.6066 33.7886 73.6146 33.8636 73.6306 33.9336C73.6466 34.0036 73.6706 34.0646 73.7026 34.1166C73.7366 34.1666 73.7786 34.2066 73.8286 34.2366C73.8806 34.2646 73.9406 34.2786 74.0086 34.2786C74.1466 34.2786 74.2696 34.2336 74.3776 34.1436L74.4136 34.1706L74.3476 34.3386C74.2976 34.3766 74.2376 34.4066 74.1676 34.4286C74.0976 34.4526 74.0056 34.4646 73.8916 34.4646C73.7936 34.4646 73.7006 34.4506 73.6126 34.4226C73.5246 34.3966 73.4466 34.3526 73.3786 34.2906C73.3126 34.2286 73.2596 34.1506 73.2196 34.0566C73.1816 33.9606 73.1626 33.8466 73.1626 33.7146C73.1626 33.5846 73.1796 33.4716 73.2136 33.3756C73.2496 33.2796 73.2986 33.1996 73.3606 33.1356C73.4226 33.0716 73.4956 33.0236 73.5796 32.9916C73.6656 32.9596 73.7586 32.9436 73.8586 32.9436C74.0566 32.9436 74.2076 33.0016 74.3116 33.1176C74.4176 33.2336 74.4706 33.3976 74.4706 33.6096V33.6726C74.4706 33.6906 74.4696 33.7026 74.4676 33.7086H73.6066ZM74.0686 33.5736C74.0646 33.4236 74.0456 33.3036 74.0116 33.2136C73.9796 33.1236 73.9246 33.0786 73.8466 33.0786C73.8026 33.0786 73.7656 33.0936 73.7356 33.1236C73.7056 33.1536 73.6816 33.1926 73.6636 33.2406C73.6456 33.2866 73.6316 33.3396 73.6216 33.3996C73.6136 33.4576 73.6086 33.5156 73.6066 33.5736H74.0686Z" fill="#B5B2B0"/>
<path d="M75.0066 33.7386C75.0066 33.8406 75.0136 33.9266 75.0276 33.9966C75.0416 34.0666 75.0606 34.1236 75.0846 34.1676C75.1086 34.2096 75.1356 34.2406 75.1656 34.2606C75.1976 34.2786 75.2306 34.2876 75.2646 34.2876C75.3466 34.2876 75.4136 34.2416 75.4656 34.1496C75.5196 34.0556 75.5466 33.9006 75.5466 33.6846C75.5466 33.4986 75.5216 33.3636 75.4716 33.2796C75.4216 33.1936 75.3576 33.1506 75.2796 33.1506C75.2476 33.1506 75.2156 33.1596 75.1836 33.1776C75.1516 33.1956 75.1226 33.2276 75.0966 33.2736C75.0706 33.3176 75.0486 33.3776 75.0306 33.4536C75.0146 33.5296 75.0066 33.6246 75.0066 33.7386ZM75.9486 33.3966C75.9486 33.5926 75.9506 33.7726 75.9546 33.9366C75.9586 34.1006 75.9646 34.2636 75.9726 34.4256C75.9466 34.4216 75.9136 34.4196 75.8736 34.4196C75.8336 34.4196 75.7916 34.4196 75.7476 34.4196C75.7076 34.4196 75.6686 34.4196 75.6306 34.4196C75.5946 34.4196 75.5666 34.4216 75.5466 34.4256C75.5486 34.4216 75.5506 34.4086 75.5526 34.3866C75.5546 34.3646 75.5566 34.3396 75.5586 34.3116C75.5626 34.2836 75.5656 34.2576 75.5676 34.2336C75.5696 34.2096 75.5706 34.1946 75.5706 34.1886L75.5646 34.1826C75.5266 34.2726 75.4746 34.3426 75.4086 34.3926C75.3426 34.4406 75.2516 34.4646 75.1356 34.4646C75.0336 34.4646 74.9466 34.4456 74.8746 34.4076C74.8026 34.3676 74.7436 34.3126 74.6976 34.2426C74.6516 34.1726 74.6176 34.0906 74.5956 33.9966C74.5736 33.9026 74.5626 33.8016 74.5626 33.6936C74.5626 33.5856 74.5776 33.4866 74.6076 33.3966C74.6376 33.3046 74.6786 33.2256 74.7306 33.1596C74.7826 33.0916 74.8436 33.0386 74.9136 33.0006C74.9856 32.9626 75.0616 32.9436 75.1416 32.9436C75.2316 32.9436 75.3116 32.9646 75.3816 33.0066C75.4536 33.0486 75.5066 33.1016 75.5406 33.1656H75.5466C75.5466 32.9856 75.5446 32.8166 75.5406 32.6586C75.5366 32.4986 75.5306 32.3336 75.5226 32.1636C75.5486 32.1676 75.5816 32.1716 75.6216 32.1756C75.6616 32.1776 75.7036 32.1786 75.7476 32.1786C75.7916 32.1786 75.8336 32.1776 75.8736 32.1756C75.9136 32.1716 75.9466 32.1676 75.9726 32.1636C75.9646 32.3316 75.9586 32.4976 75.9546 32.6616C75.9506 32.8256 75.9486 33.0056 75.9486 33.2016V33.3966Z" fill="#B5B2B0"/>
<path d="M85.8451 33.0543C85.8451 32.9963 85.8441 32.9433 85.8421 32.8953C85.8421 32.8473 85.8401 32.8123 85.8361 32.7903C85.8061 32.7903 85.7691 32.7913 85.7251 32.7933C85.6811 32.7953 85.6341 32.7983 85.5841 32.8023C85.5341 32.8043 85.4831 32.8083 85.4311 32.8143C85.3791 32.8183 85.3311 32.8233 85.2871 32.8293C85.2911 32.8073 85.2941 32.7853 85.2961 32.7633C85.3001 32.7413 85.3021 32.7193 85.3021 32.6973C85.3021 32.6753 85.3001 32.6533 85.2961 32.6313C85.2941 32.6093 85.2911 32.5873 85.2871 32.5653C85.3551 32.5673 85.4161 32.5693 85.4701 32.5713C85.5261 32.5733 85.5821 32.5753 85.6381 32.5773C85.6961 32.5773 85.7581 32.5783 85.8241 32.5803C85.8921 32.5803 85.9731 32.5803 86.0671 32.5803C86.1611 32.5803 86.2411 32.5803 86.3071 32.5803C86.3751 32.5783 86.4371 32.5773 86.4931 32.5773C86.5491 32.5753 86.6031 32.5733 86.6551 32.5713C86.7091 32.5693 86.7671 32.5673 86.8291 32.5653C86.8251 32.5873 86.8211 32.6093 86.8171 32.6313C86.8151 32.6533 86.8141 32.6753 86.8141 32.6973C86.8141 32.7193 86.8151 32.7413 86.8171 32.7633C86.8211 32.7853 86.8251 32.8073 86.8291 32.8293C86.7891 32.8233 86.7441 32.8183 86.6941 32.8143C86.6441 32.8083 86.5941 32.8043 86.5441 32.8023C86.4961 32.7983 86.4501 32.7953 86.4061 32.7933C86.3621 32.7913 86.3251 32.7903 86.2951 32.7903C86.2931 32.8003 86.2911 32.8143 86.2891 32.8323C86.2891 32.8503 86.2891 32.8713 86.2891 32.8953V33.0543V33.8043C86.2891 33.9703 86.2911 34.1183 86.2951 34.2483C86.2991 34.3763 86.3051 34.5023 86.3131 34.6263C86.2791 34.6223 86.2421 34.6203 86.2021 34.6203C86.1621 34.6203 86.1171 34.6203 86.0671 34.6203C86.0171 34.6203 85.9721 34.6203 85.9321 34.6203C85.8921 34.6203 85.8551 34.6223 85.8211 34.6263C85.8291 34.5023 85.8351 34.3763 85.8391 34.2483C85.8431 34.1183 85.8451 33.9703 85.8451 33.8043V33.0543Z" fill="#B5B2B0"/>
<path d="M86.8393 33.4023C86.8393 33.2063 86.8373 33.0263 86.8333 32.8623C86.8293 32.6983 86.8233 32.5323 86.8153 32.3643C86.8413 32.3683 86.8743 32.3723 86.9143 32.3763C86.9543 32.3783 86.9963 32.3793 87.0403 32.3793C87.0843 32.3793 87.1263 32.3783 87.1663 32.3763C87.2063 32.3723 87.2393 32.3683 87.2653 32.3643C87.2573 32.5323 87.2513 32.6983 87.2473 32.8623C87.2433 33.0263 87.2413 33.2063 87.2413 33.4023L87.2473 33.4083C87.2993 33.3243 87.3623 33.2593 87.4363 33.2133C87.5123 33.1673 87.5983 33.1443 87.6943 33.1443C87.8443 33.1443 87.9593 33.1883 88.0393 33.2763C88.1213 33.3623 88.1623 33.5023 88.1623 33.6963C88.1623 33.7983 88.1603 33.8883 88.1563 33.9663C88.1523 34.0443 88.1503 34.1223 88.1503 34.2003C88.1503 34.2643 88.1513 34.3343 88.1533 34.4103C88.1573 34.4843 88.1613 34.5563 88.1653 34.6263C88.1393 34.6223 88.1063 34.6203 88.0663 34.6203C88.0263 34.6203 87.9843 34.6203 87.9403 34.6203C87.8963 34.6203 87.8543 34.6203 87.8143 34.6203C87.7743 34.6203 87.7413 34.6223 87.7153 34.6263C87.7293 34.5223 87.7383 34.4003 87.7423 34.2603C87.7463 34.1183 87.7483 33.9563 87.7483 33.7743C87.7483 33.6483 87.7263 33.5563 87.6823 33.4983C87.6403 33.4383 87.5803 33.4083 87.5023 33.4083C87.4123 33.4083 87.3463 33.4473 87.3043 33.5253C87.2623 33.6033 87.2413 33.7113 87.2413 33.8493V33.9693C87.2413 33.9973 87.2413 34.0383 87.2413 34.0923C87.2433 34.1443 87.2453 34.2023 87.2473 34.2663C87.2493 34.3283 87.2513 34.3923 87.2533 34.4583C87.2573 34.5223 87.2613 34.5783 87.2653 34.6263C87.2393 34.6223 87.2063 34.6203 87.1663 34.6203C87.1263 34.6203 87.0843 34.6203 87.0403 34.6203C86.9963 34.6203 86.9543 34.6203 86.9143 34.6203C86.8743 34.6203 86.8413 34.6223 86.8153 34.6263C86.8233 34.4643 86.8293 34.3013 86.8333 34.1373C86.8373 33.9733 86.8393 33.7933 86.8393 33.5973V33.4023Z" fill="#B5B2B0"/>
<path d="M89.3063 34.4103C89.2503 34.4943 89.1843 34.5583 89.1083 34.6023C89.0343 34.6443 88.9493 34.6653 88.8533 34.6653C88.7033 34.6653 88.5873 34.6233 88.5053 34.5393C88.4253 34.4553 88.3853 34.3163 88.3853 34.1223C88.3853 34.0203 88.3873 33.9303 88.3913 33.8523C88.3953 33.7743 88.3973 33.6963 88.3973 33.6183C88.3973 33.5543 88.3953 33.4853 88.3913 33.4113C88.3893 33.3353 88.3863 33.2593 88.3823 33.1833C88.4083 33.1873 88.4413 33.1913 88.4813 33.1953C88.5213 33.1973 88.5633 33.1983 88.6073 33.1983C88.6513 33.1983 88.6933 33.1973 88.7333 33.1953C88.7733 33.1913 88.8063 33.1873 88.8323 33.1833C88.8183 33.2913 88.8093 33.4163 88.8053 33.5583C88.8013 33.7003 88.7993 33.8623 88.7993 34.0443C88.7993 34.1703 88.8203 34.2633 88.8623 34.3233C88.9063 34.3813 88.9673 34.4103 89.0453 34.4103C89.1353 34.4103 89.2013 34.3713 89.2433 34.2933C89.2853 34.2153 89.3063 34.1073 89.3063 33.9693V33.8493C89.3063 33.7273 89.3043 33.6133 89.3003 33.5073C89.2983 33.3993 89.2923 33.2913 89.2823 33.1833C89.3383 33.1933 89.4133 33.1983 89.5073 33.1983C89.5533 33.1983 89.5953 33.1973 89.6333 33.1953C89.6713 33.1913 89.7043 33.1873 89.7323 33.1833C89.7223 33.2913 89.7153 33.3993 89.7113 33.5073C89.7093 33.6133 89.7083 33.7273 89.7083 33.8493V33.9693C89.7083 34.0913 89.7093 34.2063 89.7113 34.3143C89.7153 34.4223 89.7223 34.5263 89.7323 34.6263C89.6963 34.6223 89.6603 34.6203 89.6243 34.6203C89.5903 34.6203 89.5553 34.6203 89.5193 34.6203C89.4833 34.6203 89.4473 34.6203 89.4113 34.6203C89.3773 34.6203 89.3403 34.6223 89.3003 34.6263L89.3123 34.4103H89.3063Z" fill="#B5B2B0"/>
<path d="M99.9967 33.1806C99.9967 33.0146 99.9947 32.8676 99.9907 32.7396C99.9867 32.6096 99.9807 32.4796 99.9727 32.3496C100.063 32.3516 100.152 32.3546 100.24 32.3586C100.328 32.3626 100.417 32.3646 100.507 32.3646C100.655 32.3646 100.786 32.3636 100.9 32.3616C101.016 32.3576 101.094 32.3536 101.134 32.3496C101.126 32.3816 101.122 32.4236 101.122 32.4756C101.122 32.5076 101.123 32.5326 101.125 32.5506C101.127 32.5686 101.13 32.5886 101.134 32.6106C101.076 32.6066 101.012 32.6026 100.942 32.5986C100.874 32.5946 100.807 32.5906 100.741 32.5866C100.677 32.5826 100.619 32.5796 100.567 32.5776C100.515 32.5756 100.478 32.5746 100.456 32.5746C100.448 32.6846 100.443 32.7936 100.441 32.9016C100.441 33.0096 100.441 33.1186 100.441 33.2286C100.571 33.2266 100.688 33.2236 100.792 33.2196C100.898 33.2156 101.008 33.2106 101.122 33.2046C101.116 33.2386 101.112 33.2646 101.11 33.2826C101.108 33.3006 101.107 33.3196 101.107 33.3396C101.107 33.3556 101.108 33.3726 101.11 33.3906C101.114 33.4066 101.118 33.4306 101.122 33.4626C100.894 33.4446 100.667 33.4356 100.441 33.4356V33.5886C100.441 33.7546 100.443 33.9026 100.447 34.0326C100.451 34.1606 100.457 34.2866 100.465 34.4106C100.431 34.4066 100.394 34.4046 100.354 34.4046C100.314 34.4046 100.269 34.4046 100.219 34.4046C100.169 34.4046 100.124 34.4046 100.084 34.4046C100.044 34.4046 100.007 34.4066 99.9727 34.4106C99.9807 34.2866 99.9867 34.1606 99.9907 34.0326C99.9947 33.9026 99.9967 33.7546 99.9967 33.5886V33.1806Z" fill="#B5B2B0"/>
<path d="M101.636 33.3396C101.688 33.2016 101.751 33.1006 101.825 33.0366C101.899 32.9706 101.987 32.9376 102.089 32.9376C102.099 32.9376 102.107 32.9386 102.113 32.9406C102.121 32.9406 102.129 32.9406 102.137 32.9406C102.131 32.9706 102.126 33.0026 102.122 33.0366C102.12 33.0706 102.119 33.1106 102.119 33.1566V33.2526C102.119 33.2686 102.119 33.2856 102.119 33.3036C102.119 33.3216 102.12 33.3386 102.122 33.3546L102.095 33.3786C102.075 33.3666 102.052 33.3566 102.026 33.3486C102.002 33.3406 101.974 33.3366 101.942 33.3366C101.852 33.3366 101.781 33.3666 101.729 33.4266C101.677 33.4846 101.651 33.5536 101.651 33.6336V33.7536C101.651 33.8756 101.652 33.9906 101.654 34.0986C101.658 34.2066 101.665 34.3106 101.675 34.4106C101.649 34.4066 101.616 34.4046 101.576 34.4046C101.538 34.4046 101.496 34.4046 101.45 34.4046C101.404 34.4046 101.362 34.4046 101.324 34.4046C101.286 34.4046 101.253 34.4066 101.225 34.4106C101.235 34.3106 101.241 34.2066 101.243 34.0986C101.247 33.9906 101.249 33.8756 101.249 33.7536V33.6336C101.249 33.5116 101.247 33.3976 101.243 33.2916C101.241 33.1836 101.235 33.0756 101.225 32.9676C101.259 32.9716 101.293 32.9756 101.327 32.9796C101.363 32.9816 101.398 32.9826 101.432 32.9826C101.466 32.9826 101.5 32.9816 101.534 32.9796C101.57 32.9756 101.605 32.9716 101.639 32.9676L101.63 33.3336L101.636 33.3396Z" fill="#B5B2B0"/>
<path d="M102.291 32.4006C102.291 32.3346 102.314 32.2786 102.36 32.2326C102.406 32.1866 102.462 32.1636 102.528 32.1636C102.594 32.1636 102.65 32.1866 102.696 32.2326C102.742 32.2786 102.765 32.3346 102.765 32.4006C102.765 32.4666 102.742 32.5226 102.696 32.5686C102.65 32.6146 102.594 32.6376 102.528 32.6376C102.462 32.6376 102.406 32.6146 102.36 32.5686C102.314 32.5226 102.291 32.4666 102.291 32.4006ZM102.327 33.6336C102.327 33.5116 102.325 33.3976 102.321 33.2916C102.319 33.1836 102.313 33.0756 102.303 32.9676C102.331 32.9716 102.364 32.9756 102.402 32.9796C102.44 32.9816 102.482 32.9826 102.528 32.9826C102.622 32.9826 102.697 32.9776 102.753 32.9676C102.743 33.0756 102.736 33.1836 102.732 33.2916C102.73 33.3976 102.729 33.5116 102.729 33.6336V33.7536C102.729 33.8756 102.73 33.9906 102.732 34.0986C102.736 34.2066 102.743 34.3106 102.753 34.4106C102.727 34.4066 102.694 34.4046 102.654 34.4046C102.616 34.4046 102.574 34.4046 102.528 34.4046C102.482 34.4046 102.44 34.4046 102.402 34.4046C102.364 34.4046 102.331 34.4066 102.303 34.4106C102.313 34.3106 102.319 34.2066 102.321 34.0986C102.325 33.9906 102.327 33.8756 102.327 33.7536V33.6336Z" fill="#B5B2B0"/>
<path d="M112.873 32.6076C112.809 32.4356 112.688 32.3496 112.51 32.3496C112.418 32.3496 112.343 32.3766 112.285 32.4306C112.227 32.4846 112.198 32.5476 112.198 32.6196C112.198 32.6936 112.22 32.7546 112.264 32.8026C112.31 32.8486 112.367 32.8906 112.435 32.9286C112.503 32.9666 112.576 33.0036 112.654 33.0396C112.732 33.0736 112.805 33.1166 112.873 33.1686C112.941 33.2186 112.997 33.2806 113.041 33.3546C113.087 33.4266 113.11 33.5196 113.11 33.6336C113.11 33.7336 113.091 33.8256 113.053 33.9096C113.015 33.9916 112.961 34.0626 112.891 34.1226C112.821 34.1806 112.737 34.2256 112.639 34.2576C112.543 34.2876 112.435 34.3026 112.315 34.3026C112.207 34.3026 112.11 34.2906 112.024 34.2666C111.94 34.2446 111.876 34.2166 111.832 34.1826C111.852 34.1126 111.869 34.0486 111.883 33.9906C111.897 33.9326 111.909 33.8696 111.919 33.8016H111.976C111.984 33.8456 111.999 33.8876 112.021 33.9276C112.043 33.9656 112.071 33.9996 112.105 34.0296C112.139 34.0596 112.18 34.0836 112.228 34.1016C112.276 34.1176 112.33 34.1256 112.39 34.1256C112.51 34.1256 112.598 34.0956 112.654 34.0356C112.712 33.9756 112.741 33.9036 112.741 33.8196C112.741 33.7436 112.719 33.6816 112.675 33.6336C112.631 33.5856 112.576 33.5436 112.51 33.5076C112.444 33.4696 112.372 33.4336 112.294 33.3996C112.216 33.3636 112.144 33.3206 112.078 33.2706C112.012 33.2206 111.957 33.1596 111.913 33.0876C111.869 33.0136 111.847 32.9196 111.847 32.8056C111.847 32.7016 111.865 32.6096 111.901 32.5296C111.939 32.4496 111.989 32.3826 112.051 32.3286C112.113 32.2746 112.184 32.2336 112.264 32.2056C112.346 32.1776 112.432 32.1636 112.522 32.1636C112.63 32.1636 112.724 32.1766 112.804 32.2026C112.886 32.2286 112.956 32.2646 113.014 32.3106C112.996 32.3566 112.98 32.4016 112.966 32.4456C112.954 32.4876 112.938 32.5416 112.918 32.6076H112.873Z" fill="#B5B2B0"/>
<path d="M114.006 33.8076C114.006 33.7216 114.006 33.6566 114.006 33.6126C114.008 33.5666 114.009 33.5266 114.009 33.4926C113.967 33.5166 113.922 33.5366 113.874 33.5526C113.828 33.5666 113.785 33.5856 113.745 33.6096C113.707 33.6316 113.675 33.6626 113.649 33.7026C113.625 33.7426 113.613 33.8006 113.613 33.8766C113.613 33.9506 113.628 34.0076 113.658 34.0476C113.69 34.0856 113.732 34.1046 113.784 34.1046C113.85 34.1046 113.903 34.0796 113.943 34.0296C113.985 33.9796 114.006 33.9056 114.006 33.8076ZM113.295 32.9916C113.379 32.9236 113.469 32.8716 113.565 32.8356C113.663 32.7996 113.76 32.7816 113.856 32.7816C113.936 32.7816 114.009 32.7906 114.075 32.8086C114.143 32.8266 114.201 32.8556 114.249 32.8956C114.299 32.9336 114.337 32.9836 114.363 33.0456C114.391 33.1076 114.405 33.1826 114.405 33.2706C114.405 33.3986 114.403 33.5176 114.399 33.6276C114.397 33.7356 114.396 33.8436 114.396 33.9516C114.396 33.9996 114.399 34.0376 114.405 34.0656C114.413 34.0916 114.424 34.1116 114.438 34.1256C114.452 34.1396 114.47 34.1486 114.492 34.1526C114.516 34.1566 114.543 34.1586 114.573 34.1586V34.2306C114.515 34.2546 114.466 34.2726 114.426 34.2846C114.386 34.2966 114.343 34.3026 114.297 34.3026C114.223 34.3026 114.163 34.2846 114.117 34.2486C114.071 34.2126 114.036 34.1606 114.012 34.0926C113.966 34.1566 113.912 34.2076 113.85 34.2456C113.79 34.2836 113.714 34.3026 113.622 34.3026C113.546 34.3026 113.481 34.2926 113.427 34.2726C113.373 34.2526 113.328 34.2246 113.292 34.1886C113.258 34.1506 113.233 34.1086 113.217 34.0626C113.201 34.0146 113.193 33.9666 113.193 33.9186C113.193 33.8526 113.203 33.7956 113.223 33.7476C113.245 33.6996 113.275 33.6586 113.313 33.6246C113.353 33.5906 113.4 33.5626 113.454 33.5406C113.508 33.5166 113.569 33.4966 113.637 33.4806C113.721 33.4606 113.787 33.4436 113.835 33.4296C113.885 33.4136 113.922 33.3986 113.946 33.3846C113.97 33.3686 113.985 33.3516 113.991 33.3336C113.999 33.3156 114.003 33.2936 114.003 33.2676C114.003 33.1956 113.977 33.1346 113.925 33.0846C113.875 33.0326 113.805 33.0066 113.715 33.0066C113.681 33.0066 113.646 33.0116 113.61 33.0216C113.574 33.0296 113.539 33.0416 113.505 33.0576C113.473 33.0736 113.443 33.0916 113.415 33.1116C113.389 33.1296 113.369 33.1496 113.355 33.1716H113.334L113.295 32.9916Z" fill="#B5B2B0"/>
<path d="M115.469 32.8356C115.463 32.8656 115.46 32.8926 115.46 32.9166C115.46 32.9426 115.463 32.9676 115.469 32.9916L115.205 32.9856C115.201 33.0316 115.197 33.0846 115.193 33.1446C115.191 33.2046 115.189 33.2656 115.187 33.3276C115.187 33.3896 115.186 33.4496 115.184 33.5076C115.184 33.5656 115.184 33.6146 115.184 33.6546C115.184 33.7586 115.186 33.8426 115.19 33.9066C115.196 33.9706 115.205 34.0196 115.217 34.0536C115.229 34.0876 115.246 34.1106 115.268 34.1226C115.29 34.1346 115.318 34.1406 115.352 34.1406C115.39 34.1406 115.418 34.1386 115.436 34.1346C115.454 34.1286 115.472 34.1206 115.49 34.1106V34.2336C115.45 34.2516 115.4 34.2676 115.34 34.2816C115.28 34.2956 115.221 34.3026 115.163 34.3026C114.909 34.3026 114.782 34.1506 114.782 33.8466C114.782 33.7886 114.783 33.7236 114.785 33.6516C114.787 33.5776 114.789 33.5026 114.791 33.4266C114.795 33.3486 114.798 33.2726 114.8 33.1986C114.802 33.1226 114.803 33.0526 114.803 32.9886L114.593 32.9916C114.599 32.9676 114.602 32.9426 114.602 32.9166C114.602 32.8926 114.599 32.8656 114.593 32.8356L114.803 32.8446C114.803 32.7826 114.802 32.7246 114.8 32.6706C114.798 32.6166 114.795 32.5516 114.791 32.4756C114.861 32.4476 114.93 32.4186 114.998 32.3886C115.066 32.3566 115.134 32.3236 115.202 32.2896L115.232 32.3106C115.228 32.3426 115.224 32.3806 115.22 32.4246C115.218 32.4666 115.215 32.5116 115.211 32.5596C115.209 32.6056 115.207 32.6536 115.205 32.7036C115.205 32.7516 115.205 32.7976 115.205 32.8416L115.469 32.8356Z" fill="#B5B2B0"/>
<path d="M125.431 32.6076C125.367 32.4356 125.246 32.3496 125.068 32.3496C124.976 32.3496 124.901 32.3766 124.843 32.4306C124.785 32.4846 124.756 32.5476 124.756 32.6196C124.756 32.6936 124.778 32.7546 124.822 32.8026C124.868 32.8486 124.925 32.8906 124.993 32.9286C125.061 32.9666 125.134 33.0036 125.212 33.0396C125.29 33.0736 125.363 33.1166 125.431 33.1686C125.499 33.2186 125.555 33.2806 125.599 33.3546C125.645 33.4266 125.668 33.5196 125.668 33.6336C125.668 33.7336 125.649 33.8256 125.611 33.9096C125.573 33.9916 125.519 34.0626 125.449 34.1226C125.379 34.1806 125.295 34.2256 125.197 34.2576C125.101 34.2876 124.993 34.3026 124.873 34.3026C124.765 34.3026 124.668 34.2906 124.582 34.2666C124.498 34.2446 124.434 34.2166 124.39 34.1826C124.41 34.1126 124.427 34.0486 124.441 33.9906C124.455 33.9326 124.467 33.8696 124.477 33.8016H124.534C124.542 33.8456 124.557 33.8876 124.579 33.9276C124.601 33.9656 124.629 33.9996 124.663 34.0296C124.697 34.0596 124.738 34.0836 124.786 34.1016C124.834 34.1176 124.888 34.1256 124.948 34.1256C125.068 34.1256 125.156 34.0956 125.212 34.0356C125.27 33.9756 125.299 33.9036 125.299 33.8196C125.299 33.7436 125.277 33.6816 125.233 33.6336C125.189 33.5856 125.134 33.5436 125.068 33.5076C125.002 33.4696 124.93 33.4336 124.852 33.3996C124.774 33.3636 124.702 33.3206 124.636 33.2706C124.57 33.2206 124.515 33.1596 124.471 33.0876C124.427 33.0136 124.405 32.9196 124.405 32.8056C124.405 32.7016 124.423 32.6096 124.459 32.5296C124.497 32.4496 124.547 32.3826 124.609 32.3286C124.671 32.2746 124.742 32.2336 124.822 32.2056C124.904 32.1776 124.99 32.1636 125.08 32.1636C125.188 32.1636 125.282 32.1766 125.362 32.2026C125.444 32.2286 125.514 32.2646 125.572 32.3106C125.554 32.3566 125.538 32.4016 125.524 32.4456C125.512 32.4876 125.496 32.5416 125.476 32.6076H125.431Z" fill="#B5B2B0"/>
<path d="M126.762 34.0476C126.706 34.1316 126.64 34.1956 126.564 34.2396C126.49 34.2816 126.405 34.3026 126.309 34.3026C126.159 34.3026 126.043 34.2606 125.961 34.1766C125.881 34.0926 125.841 33.9536 125.841 33.7596C125.841 33.6576 125.843 33.5676 125.847 33.4896C125.851 33.4116 125.853 33.3336 125.853 33.2556C125.853 33.1916 125.851 33.1226 125.847 33.0486C125.845 32.9726 125.842 32.8966 125.838 32.8206C125.864 32.8246 125.897 32.8286 125.937 32.8326C125.977 32.8346 126.019 32.8356 126.063 32.8356C126.107 32.8356 126.149 32.8346 126.189 32.8326C126.229 32.8286 126.262 32.8246 126.288 32.8206C126.274 32.9286 126.265 33.0536 126.261 33.1956C126.257 33.3376 126.255 33.4996 126.255 33.6816C126.255 33.8076 126.276 33.9006 126.318 33.9606C126.362 34.0186 126.423 34.0476 126.501 34.0476C126.591 34.0476 126.657 34.0086 126.699 33.9306C126.741 33.8526 126.762 33.7446 126.762 33.6066V33.4866C126.762 33.3646 126.76 33.2506 126.756 33.1446C126.754 33.0366 126.748 32.9286 126.738 32.8206C126.794 32.8306 126.869 32.8356 126.963 32.8356C127.009 32.8356 127.051 32.8346 127.089 32.8326C127.127 32.8286 127.16 32.8246 127.188 32.8206C127.178 32.9286 127.171 33.0366 127.167 33.1446C127.165 33.2506 127.164 33.3646 127.164 33.4866V33.6066C127.164 33.7286 127.165 33.8436 127.167 33.9516C127.171 34.0596 127.178 34.1636 127.188 34.2636C127.152 34.2596 127.116 34.2576 127.08 34.2576C127.046 34.2576 127.011 34.2576 126.975 34.2576C126.939 34.2576 126.903 34.2576 126.867 34.2576C126.833 34.2576 126.796 34.2596 126.756 34.2636L126.768 34.0476H126.762Z" fill="#B5B2B0"/>
<path d="M127.831 33.0456C127.887 32.9616 127.952 32.8966 128.026 32.8506C128.102 32.8046 128.188 32.7816 128.284 32.7816C128.434 32.7816 128.549 32.8256 128.629 32.9136C128.711 32.9996 128.752 33.1396 128.752 33.3336C128.752 33.4356 128.75 33.5256 128.746 33.6036C128.742 33.6816 128.74 33.7596 128.74 33.8376C128.74 33.9016 128.741 33.9716 128.743 34.0476C128.747 34.1216 128.751 34.1936 128.755 34.2636C128.729 34.2596 128.696 34.2576 128.656 34.2576C128.616 34.2576 128.574 34.2576 128.53 34.2576C128.486 34.2576 128.444 34.2576 128.404 34.2576C128.364 34.2576 128.331 34.2596 128.305 34.2636C128.319 34.1596 128.328 34.0376 128.332 33.8976C128.336 33.7556 128.338 33.5936 128.338 33.4116C128.338 33.2856 128.316 33.1936 128.272 33.1356C128.23 33.0756 128.17 33.0456 128.092 33.0456C128.002 33.0456 127.936 33.0846 127.894 33.1626C127.852 33.2406 127.831 33.3486 127.831 33.4866V33.6066C127.831 33.7286 127.832 33.8436 127.834 33.9516C127.838 34.0596 127.845 34.1636 127.855 34.2636C127.829 34.2596 127.796 34.2576 127.756 34.2576C127.718 34.2576 127.676 34.2576 127.63 34.2576C127.584 34.2576 127.542 34.2576 127.504 34.2576C127.466 34.2576 127.433 34.2596 127.405 34.2636C127.415 34.1636 127.421 34.0596 127.423 33.9516C127.427 33.8436 127.429 33.7286 127.429 33.6066V33.4866C127.429 33.3646 127.427 33.2506 127.423 33.1446C127.421 33.0366 127.415 32.9286 127.405 32.8206C127.441 32.8246 127.476 32.8286 127.51 32.8326C127.546 32.8346 127.582 32.8356 127.618 32.8356C127.654 32.8356 127.689 32.8346 127.723 32.8326C127.759 32.8286 127.797 32.8246 127.837 32.8206L127.825 33.0456H127.831Z" fill="#B5B2B0"/>
<path fill-rule="evenodd" clip-rule="evenodd" d="M95.3213 47.1051C95.7808 47.7944 95.5946 48.7257 94.9053 49.1852C94.7496 49.289 94.5714 49.4605 94.338 49.7414C94.2621 49.8328 94.1868 49.9275 94.1069 50.0297C94.2208 50.0968 94.3251 50.1615 94.4196 50.2202C94.494 50.2663 94.5624 50.3087 94.6246 50.3456C95.9679 51.1411 97.8458 52.266 99.046 53.8091C99.449 54.3272 99.7524 54.97 99.9332 55.6102C100.112 56.2434 100.206 56.9983 100.063 57.7307C99.8863 58.6318 99.3426 59.2924 98.8639 59.7336C98.3785 60.181 97.8295 60.5213 97.4331 60.7539C96.8009 61.125 96.0767 61.2252 95.6181 61.2771C95.3919 61.3027 95.2143 61.3189 95.0659 61.3324C94.8216 61.3547 94.6564 61.3697 94.484 61.4075C93.3954 61.6461 92.5204 61.4516 91.762 61.0427C91.4245 60.8607 91.1257 60.6448 90.8831 60.4642C90.8162 60.4145 90.7535 60.3674 90.6933 60.3222C90.5154 60.1885 90.3593 60.0712 90.1801 59.9492C89.5361 59.5107 89.1958 58.8526 89.0108 58.3952C88.813 57.9059 88.7011 57.4097 88.6343 57.0755C88.3386 55.5971 88.6452 53.9328 88.9926 52.7663C89.0334 52.6292 89.0779 52.4934 89.1259 52.3589C88.8555 52.3837 88.5869 52.4142 88.3226 52.4501C87.5017 52.5614 86.746 51.9861 86.6347 51.1652C86.5234 50.3443 87.0986 49.5886 87.9195 49.4773C88.8667 49.3488 89.8742 49.277 90.8692 49.2827C90.9996 49.1133 91.131 48.9499 91.2619 48.7928C91.3695 48.6637 91.4787 48.523 91.6092 48.3547L91.6147 48.3476C91.7381 48.1884 91.8803 48.0049 92.0308 47.8239C92.3322 47.4613 92.7284 47.031 93.2412 46.6891C93.9305 46.2296 94.8618 46.4158 95.3213 47.1051ZM92.3462 52.4861C92.1435 52.865 91.9799 53.246 91.8678 53.6224C91.5737 54.6103 91.4219 55.7167 91.576 56.4871C91.6319 56.7665 91.7005 57.0443 91.792 57.2706C91.8365 57.3805 91.8754 57.4503 91.9016 57.4887C91.9032 57.4911 91.9047 57.4932 91.906 57.4951C92.1353 57.6528 92.3532 57.8166 92.5314 57.9506C92.5823 57.9889 92.6301 58.0248 92.6739 58.0574C92.9014 58.2266 93.053 58.3305 93.1859 58.4021C93.3684 58.5005 93.514 58.5489 93.8417 58.4771C94.1165 58.4169 94.3953 58.3839 94.6261 58.3604C94.7429 58.3485 94.8383 58.3397 94.927 58.3315C95.0455 58.3205 95.1519 58.3107 95.2811 58.2961C95.4801 58.2736 95.6313 58.2495 95.7501 58.2205C95.8072 58.2066 95.8485 58.1935 95.8771 58.1828C95.9036 58.1728 95.9147 58.1666 95.9147 58.1666L95.9145 58.1667C96.2719 57.9569 96.5912 57.7484 96.8307 57.5277C97.077 57.3006 97.1147 57.1736 97.1185 57.1546C97.1449 57.0196 97.1408 56.7607 97.0462 56.4257C96.9536 56.0978 96.8078 55.8179 96.6779 55.6509C95.8848 54.6312 94.5243 53.7729 93.0959 52.9269C92.9856 52.8615 92.8878 52.8031 92.8004 52.7509C92.6061 52.6347 92.463 52.5491 92.3462 52.4861Z" fill="#004B74"/>
<path d="M236.55 63.0845C236.55 85.1759 225.357 103.084 211.55 103.084C197.743 103.084 186.55 85.1759 186.55 63.0845C186.55 40.9931 197.743 23.0845 211.55 23.0845C225.357 23.0845 236.55 40.9931 236.55 63.0845Z" fill="#B5B2B0"/>
<path fill-rule="evenodd" clip-rule="evenodd" d="M242.795 99.8487C236.587 109.783 225.961 119.084 211.55 119.084C197.139 119.084 186.513 109.783 180.304 99.8487C173.954 89.689 170.55 76.6492 170.55 63.0845C170.55 49.5198 173.954 36.48 180.304 26.3202C186.513 16.386 197.139 7.08447 211.55 7.08447C225.961 7.08447 236.587 16.386 242.795 26.3202C249.145 36.48 252.55 49.5198 252.55 63.0845C252.55 76.6492 249.145 89.689 242.795 99.8487ZM211.55 103.084C225.357 103.084 236.55 85.1759 236.55 63.0845C236.55 40.9931 225.357 23.0845 211.55 23.0845C197.743 23.0845 186.55 40.9931 186.55 63.0845C186.55 85.1759 197.743 103.084 211.55 103.084Z" fill="#FDFCFC"/>
<path fill-rule="evenodd" clip-rule="evenodd" d="M243.219 100.114C236.959 110.13 226.197 119.584 211.55 119.584C196.902 119.584 186.14 110.13 179.88 100.114C173.473 89.8626 170.05 76.7278 170.05 63.0845C170.05 49.4412 173.473 36.3063 179.88 26.0552C186.14 16.0392 196.902 6.58447 211.55 6.58447C226.197 6.58447 236.959 16.0392 243.219 26.0552C249.626 36.3063 253.05 49.4412 253.05 63.0845C253.05 76.7278 249.626 89.8626 243.219 100.114ZM228.803 91.1037C233.271 83.9565 236.05 74.0514 236.05 63.0845C236.05 52.1175 233.271 42.2125 228.803 35.0652C224.332 27.9109 218.219 23.5845 211.55 23.5845C204.881 23.5845 198.768 27.9109 194.296 35.0652C189.829 42.2125 187.05 52.1175 187.05 63.0845C187.05 74.0514 189.829 83.9565 194.296 91.1037C198.768 98.2581 204.881 102.584 211.55 102.584C218.219 102.584 224.332 98.2581 228.803 91.1037ZM211.55 119.084C225.961 119.084 236.587 109.783 242.795 99.8487C249.145 89.689 252.55 76.6492 252.55 63.0845C252.55 49.5198 249.145 36.48 242.795 26.3202C236.587 16.386 225.961 7.08447 211.55 7.08447C197.139 7.08447 186.513 16.386 180.304 26.3202C173.954 36.48 170.55 49.5198 170.55 63.0845C170.55 76.6492 173.954 89.689 180.304 99.8487C186.513 109.783 197.139 119.084 211.55 119.084ZM236.55 63.0845C236.55 85.1759 225.357 103.084 211.55 103.084C197.743 103.084 186.55 85.1759 186.55 63.0845C186.55 40.9931 197.743 23.0845 211.55 23.0845C225.357 23.0845 236.55 40.9931 236.55 63.0845Z" fill="#384E62"/>
<mask id="mask0_299_2564" style="mask-type:alpha" maskUnits="userSpaceOnUse" x="187" y="14" width="49" height="89">
<ellipse cx="211.55" cy="58.0845" rx="24" ry="44" fill="#E6E5E5"/>
</mask>
<g mask="url(#mask0_299_2564)">
<circle cx="211.55" cy="51.4751" r="16" fill="white"/>
<path d="M188.55 91.0122C188.55 77.7574 199.295 67.0122 212.55 67.0122C225.805 67.0122 236.55 77.7574 236.55 91.0122V133.012H188.55V91.0122Z" fill="#F3F2F2"/>
</g>
<path d="M229.347 105.672L254.95 94.1055L259.632 102.68L240.015 107.918L229.347 105.672Z" fill="#B4A9A6"/>
<path d="M211.738 106.338C211.738 104.833 212.584 103.454 213.927 102.772L246.278 86.3368C249.794 84.5507 253.845 84.1259 257.655 85.1439L291.738 94.2509V116.743L251.738 101.525L214.253 111.508C212.983 111.846 211.738 110.889 211.738 109.576V106.338Z" fill="#D0C4C1"/>
<path fill-rule="evenodd" clip-rule="evenodd" d="M292.738 93.483V118.193L251.684 102.574L214.51 112.474C212.606 112.982 210.738 111.546 210.738 109.576V106.338C210.738 104.456 211.795 102.733 213.474 101.881L245.825 85.4453C249.561 83.5475 253.865 83.0962 257.913 84.1778L292.738 93.483ZM251.738 101.525L291.738 116.743V94.2509L257.655 85.1439C253.845 84.1259 249.794 84.5507 246.278 86.3368L213.927 102.772C212.584 103.454 211.738 104.833 211.738 106.338V109.576C211.738 110.889 212.983 111.846 214.253 111.508L251.738 101.525Z" fill="#384E62"/>
<path d="M189.001 104.877H335.099C335.651 104.877 336.099 105.325 336.099 105.877V107.877C336.099 108.429 335.651 108.877 335.099 108.877H189.001V104.877Z" fill="#384E62"/>
<path d="M189.001 104.877H335.099C335.651 104.877 336.099 105.325 336.099 105.877V107.877C336.099 108.429 335.651 108.877 335.099 108.877H189.001V104.877Z" fill="black" fill-opacity="0.2"/>
<path d="M203.406 104.084C203.406 112.921 196.243 120.084 187.406 120.084C169.769 120.084 169.078 96.4959 169.078 96.4959C169.078 96.4959 178.57 88.0845 187.406 88.0845C196.243 88.0845 203.406 95.2479 203.406 104.084Z" fill="#003351"/>
<circle cx="187.406" cy="104.084" r="16" fill="#004B74"/>
<path d="M98.2585 87.1161C106.893 87.1161 113.893 94.4963 113.893 103.6C113.893 112.704 106.893 120.084 98.2585 120.084C89.624 120.084 66.966 103.6 66.966 103.6C66.966 103.6 89.624 87.1161 98.2585 87.1161Z" fill="#004B74"/>
<ellipse cx="112.87" cy="103.6" rx="2" ry="3" transform="rotate(-0.296765 112.87 103.6)" fill="#384E62"/>
<path d="M113.893 101.652L340.91 116.569C341.435 116.604 341.844 117.04 341.844 117.567V119.563C341.844 120.141 341.355 120.598 340.778 120.56L113.893 105.652V101.652Z" fill="#384E62"/>
<path d="M113.893 101.652L340.91 116.569C341.435 116.604 341.844 117.04 341.844 117.567V119.563C341.844 120.141 341.355 120.598 340.778 120.56L113.893 105.652V101.652Z" fill="black" fill-opacity="0.1"/>
<path d="M159.957 85.3494C171.28 90.7228 168.018 103.964 168.018 103.964C162.452 111.641 139.983 105.263 122.728 86.8847C122.728 86.8847 148.634 79.976 159.957 85.3494Z" fill="#003351"/>
<path d="M152.322 87.5316C160.957 87.5316 167.956 94.9118 167.956 104.016C167.956 113.12 160.957 120.5 152.322 120.5C143.687 120.5 121.029 104.016 121.029 104.016C121.029 104.016 143.687 87.5316 152.322 87.5316Z" fill="#004B74"/>
<path d="M159.957 85.3494C171.28 90.7228 168.018 103.964 168.018 103.964C157.079 89.1875 142.458 88.7322 122.728 86.8847C122.728 86.8847 148.634 79.976 159.957 85.3494Z" fill="#004B74"/>
<path fill-rule="evenodd" clip-rule="evenodd" d="M168.256 102.622C168.14 103.465 168.018 103.964 168.018 103.964C167.749 103.601 167.477 103.246 167.204 102.9C157.019 90.0029 143.716 88.7945 126.198 87.2032C126.068 87.1914 125.938 87.1796 125.807 87.1677C124.795 87.0757 123.768 86.9821 122.728 86.8847C122.728 86.8847 123.855 86.5841 125.741 86.1571C132.9 84.537 150.996 81.0968 159.957 85.3494C169.082 89.6798 168.734 99.1202 168.256 102.622ZM167.373 101.519C167.483 100.271 167.515 98.614 167.244 96.8208C166.678 93.0626 164.804 88.7566 159.528 86.2528C156.883 84.9973 153.303 84.4285 149.336 84.322C145.387 84.216 141.145 84.5695 137.229 85.0932C134.217 85.496 131.411 85.9978 129.098 86.4629C144.902 87.9251 157.547 89.6574 167.373 101.519Z" fill="#1B7DBA"/>
<ellipse cx="167.956" cy="103.6" rx="2" ry="3" transform="rotate(5.89217 167.956 103.6)" fill="#384E62"/>
<path d="M168.56 101.6L335.183 115.641C335.701 115.685 336.099 116.118 336.099 116.638V118.631C336.099 119.216 335.598 119.676 335.015 119.627L168.56 105.6V101.6Z" fill="#384E62"/>
<path d="M251.738 115.5C251.738 111.082 255.32 107.5 259.738 107.5H291.738V119.5H254.738C253.081 119.5 251.738 118.157 251.738 116.5V115.5Z" fill="#D0C4C1"/>
<path fill-rule="evenodd" clip-rule="evenodd" d="M292.738 106.5V120.5H254.738C252.529 120.5 250.738 118.709 250.738 116.5V115.5C250.738 110.529 254.768 106.5 259.738 106.5H292.738ZM259.738 107.5C255.32 107.5 251.738 111.082 251.738 115.5V116.5C251.738 118.157 253.081 119.5 254.738 119.5H291.738V107.5H259.738Z" fill="#384E62"/>
<path d="M254.927 109.098C256.069 108.061 258.312 107.5 259.738 107.5H283.601V108.528L254.927 109.098Z" fill="#B4A9A6"/>
<path d="M257.716 103.797L291.739 103.484V107.877H284.071C280.872 107.767 276.108 107.463 276.108 107.463C276.108 107.463 265.441 105.719 257.716 103.797Z" fill="#D0C4C1"/>
<path d="M251.764 101.521C253.893 100.883 274.389 105.094 276.323 107.544C272.591 107.031 268.054 106.318 263.689 105.357C261.208 104.811 258.783 104.185 256.591 103.47C254.791 102.882 253.149 102.234 251.764 101.521Z" fill="#B4A9A6"/>
<path d="M291.695 94.25H339.82V119.5H291.625L291.695 94.25Z" fill="#D0C4C1"/>
<path d="M286.804 96.3575L294.925 94.25H291.667L286.804 96.3575Z" fill="#B4A9A6"/>
</g>
<defs>
<clipPath id="clip0_299_2564">
<rect width="320" height="120" fill="white" transform="translate(0 0.5)"/>
</clipPath>
</defs>
</svg>
