<svg width="64" height="64" viewBox="0 0 64 64" fill="none" xmlns="http://www.w3.org/2000/svg">
<circle cx="32" cy="32" r="32" fill="black"/>
<path fill-rule="evenodd" clip-rule="evenodd" d="M31.9999 26.3565C32.0601 26.2764 32.1189 26.1951 32.1761 26.1127C32.3223 25.3609 32.5561 24.6405 32.8667 23.9625C33.0528 23.5562 33.2664 23.1651 33.5051 22.7917C33.5675 22.3888 33.5999 21.9759 33.5999 21.5554C33.5999 19.7538 33.0055 18.0922 31.9999 16.7544C30.9943 18.0922 30.3999 19.7538 30.3999 21.5554C30.3999 21.9766 30.4324 22.3901 30.495 22.7937C30.7332 23.1665 30.9464 23.5569 31.1321 23.9625C31.4424 24.6399 31.6762 25.3597 31.8224 26.1108C31.88 26.1939 31.9392 26.2758 31.9999 26.3565ZM24.3076 24.1006C24.996 25.0209 25.8458 25.8134 26.8148 26.4365C26.5386 26.4126 26.259 26.4004 25.9766 26.4004C25.5028 26.4004 25.037 26.4347 24.5816 26.501C23.6379 25.8367 22.8442 24.9734 22.2617 23.972C22.4337 23.961 22.6072 23.9554 22.7823 23.9554C23.3038 23.9554 23.8137 24.0053 24.3076 24.1006ZM42.567 24.2569C42.1268 25.1337 41.5562 25.9338 40.8806 26.6317C42.1397 26.9132 43.3054 27.442 44.3241 28.1646C44.7623 28.4754 45.1734 28.822 45.5529 29.2003L45.5531 29.2004L45.5529 29.2005C45.1734 29.5787 44.7624 29.9254 44.3241 30.2362C42.7576 31.3473 40.8434 32.0004 38.7766 32.0004C36.7079 32.0004 34.7921 31.3461 33.2247 30.2331C33.0802 30.1305 32.9386 30.0239 32.8002 29.9137V49.5998H31.2002V30.4562C29.6969 31.433 27.903 32.0004 25.9766 32.0004C23.9099 32.0004 21.9957 31.3473 20.4291 30.2362C19.9909 29.9254 19.5798 29.5787 19.2002 29.2004C19.5798 28.8221 19.9909 28.4754 20.4291 28.1646C21.1097 27.6819 21.8559 27.2856 22.6516 26.9918C21.8141 26.2141 21.1156 25.2886 20.5976 24.2569C20.3586 23.7808 20.158 23.2821 19.9999 22.7648C20.5075 22.6113 21.0329 22.4987 21.5722 22.4309C21.9686 22.3811 22.3724 22.3554 22.7823 22.3554C22.9477 22.3554 23.1122 22.3596 23.2756 22.3678C22.9273 21.6119 22.6744 20.803 22.5323 19.9566C22.4449 19.4359 22.3994 18.901 22.3994 18.3555C22.9449 18.3555 23.4798 18.401 24.0005 18.4884C25.8394 18.7971 27.5011 19.6287 28.8273 20.825C29.019 18.2766 30.2057 16.0058 31.9999 14.3999C33.7939 16.0056 34.9805 18.2761 35.1725 20.8241C36.4985 19.6283 38.1598 18.797 39.9983 18.4884C40.519 18.401 41.0539 18.3555 41.5994 18.3555C41.5994 18.901 41.5539 19.4359 41.4665 19.9566C41.3248 20.8006 41.0729 21.6073 40.7262 22.3614C41.0184 22.3717 41.3073 22.3951 41.5924 22.4309C42.1317 22.4987 42.657 22.6113 43.1647 22.7648C43.0066 23.2821 42.806 23.7808 42.567 24.2569ZM39.2051 28.0116C37.9899 28.8011 36.5849 29.323 35.0736 29.494C36.1806 30.0733 37.4396 30.4004 38.7766 30.4004C40.3248 30.4004 41.769 29.9616 42.9935 29.2004C41.8827 28.5098 40.5911 28.0847 39.2051 28.0116ZM29.1823 29.5554C27.3757 29.5554 25.6856 29.0563 24.2425 28.1886C23.3497 28.3857 22.5131 28.732 21.7597 29.2004C22.9842 29.9616 24.4284 30.4004 25.9766 30.4004C27.272 30.4004 28.4941 30.0934 29.5757 29.5475C29.4452 29.5527 29.3141 29.5554 29.1823 29.5554ZM36.97 26.5701C37.538 26.462 38.1237 26.4038 38.7225 26.4005C39.605 25.7506 40.3493 24.9237 40.9029 23.972C40.7309 23.961 40.5573 23.9554 40.3823 23.9554C40.1803 23.9554 39.98 23.9629 39.7818 23.9776C39.0287 25.0183 38.0719 25.9019 36.97 26.5701ZM33.5538 27.9441C33.637 27.8901 33.7211 27.8373 33.8061 27.7857C33.7378 27.7987 33.6693 27.811 33.6005 27.8226L33.5986 27.8229C33.5735 27.8271 33.5483 27.8312 33.5231 27.8352C33.5024 27.8696 33.482 27.9041 33.4618 27.9388C33.4924 27.9407 33.523 27.9425 33.5538 27.9441ZM34.8582 24.103C36.0264 23.2797 37.3865 22.7104 38.8582 22.4757C39.2844 21.7677 39.6041 20.9883 39.7951 20.1598C37.8283 20.6132 36.1387 21.7917 35.0231 23.3988C34.9768 23.6368 34.9217 23.8716 34.8582 24.103ZM36.5819 24.9138C36.3112 25.0602 36.05 25.2217 35.7993 25.3972C36.0699 25.2508 36.3311 25.0893 36.5819 24.9138ZM29.4585 25.0569C29.2505 24.5263 29.0884 23.9726 28.9771 23.4007C27.8615 21.7927 26.1713 20.6133 24.2037 20.1598C24.4133 21.069 24.7778 21.9189 25.2681 22.6803C26.868 23.108 28.3033 23.9387 29.4585 25.0569ZM24.6264 37.2624C25.1422 36.191 24.6713 34.6204 23.155 33.8903C22.9154 33.7749 22.3366 33.6479 21.3849 33.5957C20.4938 33.5468 19.4643 33.5708 18.4666 33.6292C18.0492 33.6536 17.6426 33.6837 17.2607 33.716C17.4736 34.0347 17.7036 34.3713 17.9448 34.7128C18.5214 35.5292 19.1446 36.3489 19.7385 37.0151C20.3728 37.7265 20.8331 38.0998 21.0727 38.2151C22.589 38.9452 24.1105 38.3338 24.6264 37.2624ZM15.4662 33.8983C16.6968 35.8033 18.8836 38.9369 20.3786 39.6567C22.3007 40.5821 24.5042 40.1034 25.6583 38.6183L27.093 39.6226C28.1623 40.3711 28.7992 41.5943 28.7992 42.8995L28.7992 49.6004H30.3992L30.3992 42.8995C30.3992 41.0722 29.5076 39.3597 28.0105 38.3118L26.3473 37.1476C26.7432 35.3395 25.7446 33.3613 23.8491 32.4487C22.3541 31.7289 18.5408 31.9735 16.2841 32.1995C15.2444 32.3036 14.5352 32.4037 14.5352 32.4037C14.5352 32.4037 14.8992 33.0206 15.4662 33.8983ZM42.0907 40.9321C40.9623 42.1807 39.3226 42.189 38.4404 41.3917C37.5582 40.5944 37.4011 38.9622 38.5296 37.7137C38.7079 37.5164 39.1959 37.1802 40.0574 36.7725C40.8641 36.3908 41.8264 36.0243 42.7723 35.7016C43.1681 35.5666 43.5559 35.4409 43.9218 35.3267C43.845 35.7022 43.7591 36.1007 43.6646 36.5081C43.439 37.4817 43.1714 38.4761 42.873 39.3171C42.5543 40.2154 42.269 40.7348 42.0907 40.9321ZM37.3425 36.6409C38.4551 35.4098 42.0785 34.1966 44.2535 33.5537C45.2555 33.2575 45.95 33.0824 45.95 33.0824C45.95 33.0824 45.8459 33.7911 45.6523 34.8179C45.232 37.0466 44.3903 40.7739 43.2777 42.0049C41.7069 43.743 39.1823 44.0411 37.5353 42.7215L36.8409 43.3286C35.7984 44.2401 35.2003 45.5574 35.2003 46.9422L35.2003 49.5999L33.6003 49.5999L33.6003 46.9422C33.6003 45.0958 34.3977 43.3394 35.7878 42.1241L36.5325 41.4729C35.8003 39.9877 36.0689 38.0501 37.3425 36.6409Z" fill="white"/>
</svg>
