<svg width="532" height="220" viewBox="0 0 532 220" fill="none" xmlns="http://www.w3.org/2000/svg">
<path fill-rule="evenodd" clip-rule="evenodd" d="M332.256 93.4192C339.127 93.4189 344.849 88.6112 346.086 82.2523C341.885 80.3355 337.198 79.2648 332.255 79.2648C327.312 79.2648 322.625 80.3355 318.424 82.2524C319.662 88.6115 325.383 93.4192 332.255 93.4192C332.255 93.4192 332.255 93.4192 332.256 93.4192ZM331.427 94.2059C324.599 93.8411 318.994 88.9883 317.653 82.6162C306.915 87.8557 299.542 98.6935 299.542 111.213V116.897C315.17 117.446 328.106 128.309 331.427 142.727V94.2059ZM332.256 142.723V94.228C339.455 94.2277 345.462 89.2437 346.857 82.6161C357.595 87.8556 364.969 98.6934 364.969 111.213V116.878C348.972 117.064 335.637 128.053 332.256 142.723ZM332.256 150.209V149.864C332.35 132.21 346.922 117.902 364.969 117.686V137.545L352.546 149.678L364.969 161.81V182.387C346.922 182.171 332.35 167.863 332.256 150.209ZM331.427 157.347C328.106 171.764 315.17 182.628 299.542 183.177V187.243C299.542 204.617 313.743 218.752 331.427 219.181V157.347ZM332.256 219.191V157.351C335.637 172.02 348.972 183.01 364.969 183.196V187.243C364.969 204.887 350.323 219.191 332.256 219.191ZM332.255 78.456C337.239 78.456 341.969 79.5175 346.221 81.4218C346.296 80.8479 346.334 80.2629 346.334 79.6692C346.334 72.0753 340.031 65.9192 332.255 65.9192C324.479 65.9192 318.176 72.0753 318.176 79.6692C318.176 80.263 318.214 80.8479 318.289 81.4219C322.541 79.5176 327.271 78.456 332.255 78.456ZM347.162 79.6692C347.162 80.388 347.109 81.0946 347.006 81.7855C358.135 87.1162 365.797 98.291 365.797 111.213V117.684V137.454L378.313 149.678L365.797 161.901V182.39V187.243C365.797 205.334 350.78 220 332.255 220C313.73 220 298.713 205.334 298.713 187.243V182.39V161.81L286.291 149.678L298.713 137.545V117.684V111.213C298.713 98.2911 306.375 87.1164 317.504 81.7857C317.401 81.0947 317.348 80.388 317.348 79.6692C317.348 71.6286 324.022 65.1104 332.255 65.1104C340.488 65.1104 347.162 71.6286 347.162 79.6692ZM353.717 149.678L364.969 160.666V138.689L353.717 149.678ZM377.142 149.678L365.797 138.598V160.757L377.142 149.678ZM298.713 138.689L287.462 149.678L298.713 160.666V138.689ZM299.542 138.598L310.887 149.678L299.542 160.757V138.598ZM299.542 161.901L312.058 149.678L299.542 137.454V117.706C317.262 118.344 331.427 132.575 331.427 150.037C331.427 167.499 317.262 181.73 299.542 182.367V161.901Z" fill="#998E8C"/>
<path fill-rule="evenodd" clip-rule="evenodd" d="M199.745 93.4192C206.616 93.4189 212.338 88.6112 213.575 82.2523C209.374 80.3355 204.687 79.2648 199.744 79.2648C194.801 79.2648 190.114 80.3355 185.913 82.2524C187.151 88.6115 192.872 93.4192 199.744 93.4192C199.744 93.4192 199.744 93.4192 199.745 93.4192ZM198.916 94.2059C192.088 93.841 186.483 88.9883 185.142 82.6162C174.404 87.8557 167.031 98.6935 167.031 111.213V116.897C182.659 117.446 195.595 128.309 198.916 142.727V94.2059ZM199.745 142.723V94.228C206.944 94.2277 212.951 89.2437 214.346 82.6161C225.084 87.8556 232.458 98.6934 232.458 111.213V116.878C216.461 117.064 203.126 128.053 199.745 142.723ZM199.745 150.209V149.865C199.839 132.211 214.411 117.902 232.458 117.686V137.545L220.035 149.678L232.458 161.81V182.387C214.411 182.171 199.839 167.863 199.745 150.209ZM198.916 157.347C195.595 171.764 182.659 182.628 167.031 183.177V187.243C167.031 204.617 181.232 218.752 198.916 219.181V157.347ZM199.745 219.191V157.351C203.126 172.02 216.461 183.01 232.458 183.196V187.243C232.458 204.887 217.812 219.191 199.745 219.191ZM199.744 78.456C204.728 78.456 209.458 79.5175 213.71 81.4218C213.785 80.8479 213.823 80.2629 213.823 79.6692C213.823 72.0753 207.52 65.9192 199.744 65.9192C191.968 65.9192 185.665 72.0753 185.665 79.6692C185.665 80.263 185.703 80.8479 185.778 81.4219C190.03 79.5176 194.76 78.456 199.744 78.456ZM214.651 79.6692C214.651 80.388 214.598 81.0946 214.495 81.7855C225.624 87.1162 233.286 98.291 233.286 111.213V117.684V137.454L245.802 149.678L233.286 161.901V182.39V187.243C233.286 205.334 218.269 220 199.744 220C181.22 220 166.202 205.334 166.202 187.243V182.39V161.81L153.78 149.678L166.202 137.545V117.684V111.213C166.202 98.2911 173.864 87.1164 184.993 81.7857C184.89 81.0947 184.837 80.388 184.837 79.6692C184.837 71.6286 191.511 65.1104 199.744 65.1104C207.977 65.1104 214.651 71.6286 214.651 79.6692ZM221.206 149.678L232.458 160.666V138.689L221.206 149.678ZM244.631 149.678L233.286 138.598V160.757L244.631 149.678ZM166.202 138.689L154.951 149.678L166.202 160.666V138.689ZM167.031 138.598L178.376 149.678L167.031 160.757V138.598ZM167.031 161.901L179.547 149.678L167.031 137.454V117.706C184.751 118.344 198.916 132.575 198.916 150.037C198.916 167.499 184.751 181.73 167.031 182.367V161.901Z" fill="#998E8C"/>
<path fill-rule="evenodd" clip-rule="evenodd" d="M464.766 93.4192C472.542 93.4192 478.845 87.2631 478.845 79.6692C478.845 72.0753 472.542 65.9192 464.766 65.9192C456.99 65.9192 450.687 72.0753 450.687 79.6692C450.687 87.2631 456.99 93.4192 464.766 93.4192ZM464.766 94.228C472.999 94.228 479.674 87.7098 479.674 79.6692C479.674 71.6286 472.999 65.1104 464.766 65.1104C456.533 65.1104 449.859 71.6286 449.859 79.6692C449.859 87.7098 456.533 94.228 464.766 94.228Z" fill="#998E8C"/>
<path d="M298.714 27.9043L299.542 32.7573C299.542 50.402 314.188 64.7059 332.255 64.7059C350.323 64.7059 364.969 50.402 364.969 32.7573L365.797 27.9044V32.7573C365.797 50.8487 350.78 65.5147 332.255 65.5147C313.731 65.5147 298.714 50.8487 298.714 32.7573V27.9043Z" fill="#998E8C"/>
<path d="M166.25 27.9043L167.078 32.7573C167.078 50.402 181.725 64.7059 199.792 64.7059C217.859 64.7059 232.506 50.402 232.506 32.7573L233.334 27.9044V32.7573C233.334 50.8487 218.317 65.5147 199.792 65.5147C181.267 65.5147 166.25 50.8487 166.25 32.7573V27.9043Z" fill="#998E8C"/>
<path d="M100.776 32.7572C100.776 50.8486 85.7591 65.5146 67.2345 65.5146C50.6897 65.5146 36.9427 53.8159 34.1932 38.4266H35.0344C37.7741 53.3669 51.1484 64.7058 67.2345 64.7058C85.3017 64.7058 99.9481 50.4019 99.9481 32.7572L100.776 27.9043V32.7572Z" fill="#998E8C"/>
<path d="M431.185 27.9043L432.013 32.7573C432.013 50.402 446.66 64.7059 464.727 64.7059C480.979 64.7059 494.464 53.1312 497.009 37.962H497.848C495.294 53.5799 481.438 65.5147 464.727 65.5147C446.202 65.5147 431.185 50.8487 431.185 32.7573V27.9043Z" fill="#998E8C"/>
<path fill-rule="evenodd" clip-rule="evenodd" d="M133.49 169.448C141.266 169.448 147.569 163.292 147.569 155.698C147.569 148.105 141.266 141.948 133.49 141.948C125.714 141.948 119.41 148.105 119.41 155.698C119.41 163.292 125.714 169.448 133.49 169.448ZM133.49 170.257C141.723 170.257 148.397 163.739 148.397 155.698C148.397 147.658 141.723 141.14 133.49 141.14C125.257 141.14 118.582 147.658 118.582 155.698C118.582 163.739 125.257 170.257 133.49 170.257Z" fill="#998E8C"/>
<path fill-rule="evenodd" clip-rule="evenodd" d="M66.8198 93.4192C74.5956 93.4192 80.8991 87.2631 80.8991 79.6692C80.8991 72.0753 74.5956 65.9192 66.8198 65.9192C59.044 65.9192 52.7405 72.0753 52.7405 79.6692C52.7405 87.2631 59.044 93.4192 66.8198 93.4192ZM66.8198 94.228C75.053 94.228 81.7273 87.7098 81.7273 79.6692C81.7273 71.6286 75.053 65.1104 66.8198 65.1104C58.5867 65.1104 51.9124 71.6286 51.9124 79.6692C51.9124 87.7098 58.5867 94.228 66.8198 94.228Z" fill="#998E8C"/>
<path fill-rule="evenodd" clip-rule="evenodd" d="M398.511 169.448C406.286 169.448 412.59 163.292 412.59 155.698C412.59 148.105 406.286 141.948 398.511 141.948C390.735 141.948 384.431 148.105 384.431 155.698C384.431 163.292 390.735 169.448 398.511 169.448ZM398.511 170.257C406.744 170.257 413.418 163.739 413.418 155.698C413.418 147.658 406.744 141.14 398.511 141.14C390.278 141.14 383.603 147.658 383.603 155.698C383.603 163.739 390.278 170.257 398.511 170.257Z" fill="#998E8C"/>
<path fill-rule="evenodd" clip-rule="evenodd" d="M266.001 169.448C273.776 169.448 280.08 163.292 280.08 155.698C280.08 148.105 273.776 141.948 266.001 141.948C258.225 141.948 251.921 148.105 251.921 155.698C251.921 163.292 258.225 169.448 266.001 169.448ZM266.001 170.257C274.234 170.257 280.908 163.739 280.908 155.698C280.908 147.658 274.234 141.14 266.001 141.14C257.768 141.14 251.093 147.658 251.093 155.698C251.093 163.739 257.768 170.257 266.001 170.257Z" fill="#998E8C"/>
<path fill-rule="evenodd" clip-rule="evenodd" d="M133.489 0C133.489 0 133.489 0 133.49 0C152.014 0.000243619 167.031 14.6661 167.031 32.7574V39.2279V58.9981L179.547 71.2217L167.031 83.4453V103.934V108.787C167.031 126.878 152.014 141.544 133.489 141.544C114.964 141.544 99.9473 126.878 99.9473 108.787V103.934V83.3539L87.5245 71.2217L99.9473 59.0894V39.2281V32.7574C99.9473 14.9362 114.519 0.438901 132.661 0.00977936V0H133.489ZM132.661 0.818851C114.977 1.24778 100.776 15.3829 100.776 32.7574V38.4409C116.404 38.9899 129.34 49.8534 132.661 64.2707V0.818851ZM133.49 71.7535V71.4083C133.584 53.7545 148.156 39.4463 166.203 39.2304V59.0894L153.78 71.2217L166.203 83.3539V103.931C148.156 103.715 133.584 89.4073 133.49 71.7535ZM132.661 78.891C129.34 93.3083 116.404 104.172 100.776 104.721V108.787C100.776 126.161 114.977 140.296 132.661 140.725V78.891ZM133.49 140.735V78.895C136.871 93.5643 150.206 104.554 166.203 104.74V108.787C166.203 126.431 151.557 140.735 133.49 140.735ZM133.49 64.2667V0.808824C151.557 0.809067 166.203 15.1128 166.203 32.7574V38.4215C150.206 38.6082 136.871 49.5975 133.49 64.2667ZM154.951 71.2217L166.203 82.2101V60.2333L154.951 71.2217ZM178.376 71.2217L167.031 60.1419V82.3014L178.376 71.2217ZM99.9473 60.2333L88.6958 71.2217L99.9473 82.2101V60.2333ZM100.776 60.1419L112.121 71.2217L100.776 82.3014V60.1419ZM100.776 83.4453L113.292 71.2217L100.776 58.9981V39.2503C118.496 39.8882 132.661 54.1191 132.661 71.5809C132.661 89.0427 118.496 103.274 100.776 103.912V83.4453Z" fill="#998E8C"/>
<path fill-rule="evenodd" clip-rule="evenodd" d="M398.511 0C398.511 0 398.511 0 398.511 0C417.036 0.000243619 432.053 14.6661 432.053 32.7574V39.2279V58.9978L444.569 71.2217L432.053 83.4455V103.934V108.787C432.053 126.878 417.036 141.544 398.511 141.544C379.986 141.544 364.969 126.878 364.969 108.787V103.934V83.3541L352.546 71.2217L364.969 59.0892V39.2281V32.7574C364.969 14.9362 379.541 0.438901 397.683 0.00977936V0H398.511ZM397.683 0.818851C379.998 1.24778 365.797 15.3829 365.797 32.7574V38.4409C381.426 38.9899 394.362 49.8534 397.683 64.2707V0.818851ZM398.511 71.7535V71.4083C398.606 53.7545 413.178 39.4463 431.225 39.2304V59.0897L418.802 71.2217L431.225 83.3537V103.931C413.178 103.715 398.606 89.4073 398.511 71.7535ZM397.683 78.891C394.362 93.3083 381.426 104.172 365.797 104.721V108.787C365.797 126.161 379.998 140.296 397.683 140.725V78.891ZM398.511 140.735V78.895C401.893 93.5643 415.228 104.554 431.225 104.74V108.787C431.225 126.431 416.578 140.735 398.511 140.735ZM398.511 64.2667V0.808824C416.578 0.809067 431.225 15.1128 431.225 32.7574V38.4215C415.228 38.6082 401.893 49.5975 398.511 64.2667ZM419.973 71.2217L431.225 82.2098V60.2335L419.973 71.2217ZM443.398 71.2217L432.053 60.1417V82.3017L443.398 71.2217ZM364.969 60.2331L353.717 71.2217L364.969 82.2103V60.2331ZM365.797 60.1421L377.142 71.2217L365.797 82.3012V60.1421ZM365.797 83.4451L378.313 71.2217L365.797 58.9983V39.2503C383.518 39.8882 397.683 54.1191 397.683 71.5809C397.683 89.0427 383.518 103.274 365.797 103.912V83.4451Z" fill="#998E8C"/>
<path fill-rule="evenodd" clip-rule="evenodd" d="M266 0C266 0 266 0 266.001 0C284.525 0.000243619 299.542 14.6661 299.542 32.7574V39.2279V58.998L312.058 71.2217L299.542 83.4454V103.934V108.787C299.542 126.878 284.525 141.544 266 141.544C247.475 141.544 232.458 126.878 232.458 108.787V103.934V83.354L220.035 71.2217L232.458 59.0893V39.2281V32.7574C232.458 14.9362 247.03 0.438901 265.172 0.00977936V0H266ZM265.172 0.818851C247.488 1.24778 233.286 15.3829 233.286 32.7574V38.4409C248.915 38.9899 261.851 49.8534 265.172 64.2707V0.818851ZM266.001 71.7535V71.4083C266.095 53.7545 280.667 39.4463 298.714 39.2304V59.0895L286.291 71.2217L298.714 83.3538V103.931C280.667 103.715 266.095 89.4073 266.001 71.7535ZM265.172 78.8911C261.851 93.3084 248.915 104.172 233.286 104.721V108.787C233.286 126.161 247.488 140.296 265.172 140.725V78.8911ZM266.001 140.735V78.895C269.382 93.5643 282.717 104.554 298.714 104.74V108.787C298.714 126.431 284.068 140.735 266.001 140.735ZM266.001 64.2667V0.808824C284.068 0.809067 298.714 15.1128 298.714 32.7574V38.4215C282.717 38.6082 269.382 49.5975 266.001 64.2667ZM287.462 71.2217L298.714 82.21V60.2334L287.462 71.2217ZM310.887 71.2217L299.542 60.1418V82.3016L310.887 71.2217ZM232.458 60.2332L221.207 71.2217L232.458 82.2102V60.2332ZM233.286 60.142L244.631 71.2217L233.286 82.3013V60.142ZM233.286 83.4452L245.803 71.2217L233.286 58.9982V39.2503C251.007 39.8882 265.172 54.1191 265.172 71.5809C265.172 89.0427 251.007 103.274 233.286 103.912V83.4452Z" fill="#998E8C"/>
<path fill-rule="evenodd" clip-rule="evenodd" d="M34.1528 59.7842L22.4404 71.2227L34.1528 82.6611L45.8652 71.2227L34.1528 59.7842ZM21.2692 71.2227L34.1528 83.805L47.0365 71.2227L34.1528 58.6403L21.2692 71.2227Z" fill="#998E8C"/>
<rect x="33.6927" y="38.4209" width="0.828192" height="66.3219" fill="#998E8C"/>
<path d="M33.6923 104.74C33.7611 104.741 33.7268 104.742 33.6923 104.742V104.743C33.6231 104.743 33.6577 104.743 33.6923 104.742V104.74C15.1298 104.524 0.150513 89.7607 0.150513 71.5809C0.150513 53.4012 15.1298 38.6383 33.6923 38.4216V39.2305C15.5872 39.447 0.978705 53.8479 0.978705 71.5809C0.978705 89.314 15.5872 103.715 33.6923 103.931V104.74Z" fill="#998E8C"/>
<path fill-rule="evenodd" clip-rule="evenodd" d="M100.408 138.144L88.6953 149.582L100.408 161.021L112.12 149.582L100.408 138.144ZM87.524 149.582L100.408 162.164L113.291 149.582L100.408 137L87.524 149.582Z" fill="#998E8C"/>
<rect x="99.9476" y="110.647" width="0.828192" height="72.4548" fill="#998E8C"/>
<path d="M99.9472 183.1C100.016 183.1 99.9816 183.101 99.9472 183.101V183.102C99.878 183.102 99.9126 183.102 99.9472 183.101V183.1C81.3847 182.883 66.4054 168.12 66.4054 149.94C66.4054 131.761 81.3847 116.998 99.9472 116.781V117.59C81.8421 117.806 67.2336 132.207 67.2336 149.94C67.2336 167.673 81.8421 182.074 99.9472 182.291V183.1Z" fill="#998E8C"/>
<path fill-rule="evenodd" clip-rule="evenodd" d="M497.847 82.9082L509.56 71.4697L497.847 60.0312L486.135 71.4697L497.847 82.9082ZM510.731 71.4697L497.847 58.8874L484.964 71.4697L497.847 84.0521L510.731 71.4697Z" fill="#998E8C"/>
<rect x="498.307" y="104.271" width="0.828192" height="66.3229" transform="rotate(-180 498.307 104.271)" fill="#998E8C"/>
<path d="M498.308 37.9521C498.239 37.9513 498.273 37.9507 498.308 37.9503V37.9496C498.377 37.9496 498.342 37.9498 498.308 37.9503V37.9521C516.87 38.1687 531.85 52.9317 531.85 71.1115C531.85 89.2912 516.87 104.054 498.308 104.271V103.462C516.413 103.245 531.021 88.8445 531.021 71.1115C531.021 53.3784 516.413 38.9776 498.308 38.761V37.9521Z" fill="#998E8C"/>
<path fill-rule="evenodd" clip-rule="evenodd" d="M431.592 160.978L443.305 149.539L431.592 138.101L419.88 149.539L431.592 160.978ZM444.476 149.539L431.592 136.957L418.709 149.539L431.592 162.121L444.476 149.539Z" fill="#998E8C"/>
<rect x="432.052" y="182.341" width="0.828192" height="71.128" transform="rotate(-180 432.052 182.341)" fill="#998E8C"/>
<path d="M432.053 116.021C431.984 116.021 432.018 116.02 432.053 116.02V116.019C432.122 116.019 432.087 116.019 432.053 116.02V116.021C450.615 116.238 465.595 131.001 465.595 149.181C465.595 167.361 450.615 182.123 432.053 182.34V181.531C450.158 181.315 464.767 166.914 464.767 149.181C464.767 131.448 450.158 117.047 432.053 116.83V116.021Z" fill="#998E8C"/>
<path d="M464.766 79.2649C446.699 79.2649 432.053 93.5687 432.053 111.213L431.224 117.684V111.213C431.224 93.122 446.242 78.4561 464.766 78.4561C480.852 78.4561 494.293 89.5145 497.553 104.272H496.705C493.46 89.9647 480.392 79.2649 464.766 79.2649Z" fill="#998E8C"/>
<path d="M166.203 187.19C166.203 169.545 151.556 155.241 133.489 155.241C116.841 155.241 103.097 167.387 101.041 183.1H100.206C102.267 166.939 116.383 154.433 133.489 154.433C152.014 154.433 167.031 169.099 167.031 187.19V193.661L166.203 187.19Z" fill="#998E8C"/>
<path d="M99.9506 111.2C99.9506 93.5551 85.3042 79.2512 67.237 79.2512C51.4348 79.2512 38.2495 90.1935 35.1919 104.743H34.3467C37.417 89.7437 50.9756 78.4424 67.237 78.4424C85.7616 78.4424 100.779 93.1084 100.779 111.2V117.67L99.9506 111.2Z" fill="#998E8C"/>
<path d="M266.045 155.238C247.978 155.238 233.331 169.541 233.331 187.186L232.503 193.657V187.186C232.503 169.095 247.52 154.429 266.045 154.429C284.57 154.429 299.587 169.095 299.587 187.186V193.657L298.759 187.186C298.759 169.541 284.112 155.238 266.045 155.238Z" fill="#998E8C"/>
<path d="M398.511 155.241C380.444 155.241 365.797 169.545 365.797 187.19L364.969 193.661V187.19C364.969 169.099 379.986 154.433 398.511 154.433C415.346 154.433 429.285 166.546 431.687 182.335H430.849C428.454 166.994 414.888 155.241 398.511 155.241Z" fill="#998E8C"/>
</svg>
