<svg width="626" height="227" viewBox="0 0 626 227" fill="none" xmlns="http://www.w3.org/2000/svg">
<path opacity="0.8" fill-rule="evenodd" clip-rule="evenodd" d="M412.854 0L425.561 12.7071H462.854V13.207H463.354H500.561L512.854 25.4999L525.146 13.207H563.354V13.707V50.9999L576.061 63.707L569.811 69.957L606.604 106.75L612.854 100.5L625.707 113.353L625.354 113.707L625.707 114.061L612.854 126.914L606.604 120.664L569.811 157.457L576.061 163.707L563.354 176.414V213.707V214.207H525.146L512.854 201.914L500.561 214.207H463.354H462.854H462.354H425.561L412.854 226.914L400.146 214.207H363.354H362.854H362.354H325.146L312.854 201.914L300.561 214.207H263.354H262.854H262.354H225.561L212.854 226.914L200.146 214.207H163.354H162.854H162.354H125.146L112.854 201.914L100.561 214.207H62.3535L62.3536 176.414L49.6464 163.707L55.8964 157.457L19.1036 120.664L12.8536 126.914L0 114.061L0.353553 113.707L0 113.353L12.8536 100.5L19.1036 106.75L55.8964 69.957L49.6464 63.707L62.3535 51V13.207H100.561L112.854 25.4999L125.146 13.207H162.354H163.354L200.146 13.2071L212.854 0.5L225.561 13.2071L262.354 13.207H263.354H300.561L312.854 25.4999L325.146 13.207H362.354H362.854V12.7071H400.146L412.854 0ZM562.354 213.207V176.414L556.604 170.664L519.811 207.457L525.561 213.207H562.354ZM562.854 175.5L574.646 163.707L562.854 151.914L551.061 163.707L562.854 175.5ZM562.354 151V114.207H525.561L519.811 119.957L556.604 156.75L562.354 151ZM563.354 113.207H600.146L605.896 107.457L569.104 70.6641L563.354 76.4141V113.207ZM600.146 114.207H563.354V151L569.104 156.75L605.896 119.957L600.146 114.207ZM601.061 113.707L612.854 101.914L624.646 113.707L612.854 125.5L601.061 113.707ZM562.354 113.207H525.561L519.811 107.457L556.604 70.6641L562.354 76.4141V113.207ZM525.561 14.207H562.354V50.9999L556.604 56.7499L519.811 19.957L525.561 14.207ZM551.061 63.707L562.854 51.9141L574.646 63.707L562.854 75.4999L551.061 63.707ZM524.646 113.707L512.854 125.5L501.061 113.707L512.854 101.914L524.646 113.707ZM500.146 114.207H463.354V151L469.104 156.75L505.896 119.957L500.146 114.207ZM462.354 113.207V76.4141L456.604 70.6641L419.811 107.457L425.561 113.207H462.354ZM463.354 76.4141V113.207H500.146L505.896 107.457L469.104 70.6641L463.354 76.4141ZM462.854 75.4999L451.061 63.707L462.854 51.9141L474.646 63.707L462.854 75.4999ZM462.354 50.9999V14.207H425.561L419.811 19.957L456.604 56.7499L462.354 50.9999ZM463.354 50.9999L469.104 56.7499L505.896 19.957L500.146 14.207H463.354V50.9999ZM412.854 1.41421L424.896 13.4571L412.854 25.4999L400.811 13.4571L412.854 1.41421ZM363.354 50.9999V14.207H400.146L405.896 19.957L369.104 56.7499L363.354 50.9999ZM362.354 14.207V50.9999L356.604 56.7499L319.811 19.957L325.561 14.207H362.354ZM374.646 63.707L362.854 51.9141L351.061 63.707L362.854 75.4999L374.646 63.707ZM363.354 113.207V76.4141L369.104 70.6641L405.896 107.457L400.146 113.207H363.354ZM363.354 114.207H400.146L405.896 119.957L369.104 156.75L363.354 151V114.207ZM362.354 76.4141V113.207H325.561L319.811 107.457L356.604 70.6641L362.354 76.4141ZM412.854 101.914L401.061 113.707L412.854 125.5L424.646 113.707L412.854 101.914ZM419.811 119.957L425.561 114.207H462.354V151L456.604 156.75L419.811 119.957ZM263.354 14.207V50.9999L269.104 56.7499L305.896 19.957L300.146 14.207H263.354ZM262.354 50.9999V14.207H225.561L219.811 19.957L256.604 56.7499L262.354 50.9999ZM262.854 51.9141L274.646 63.707L262.854 75.4999L251.061 63.707L262.854 51.9141ZM263.354 76.4141V113.207H300.146L305.896 107.457L269.104 70.6641L263.354 76.4141ZM300.146 114.207H263.354V151L269.104 156.75L305.896 119.957L300.146 114.207ZM262.354 113.207V76.4141L256.604 70.6641L219.811 107.457L225.561 113.207H262.354ZM301.061 113.707L312.854 101.914L324.646 113.707L312.854 125.5L301.061 113.707ZM325.561 114.207L319.811 119.957L356.604 156.75L362.354 151V114.207H325.561ZM224.646 13.7071L212.854 1.91421L201.061 13.7071L212.854 25.4999L224.646 13.7071ZM200.146 14.207H163.354V50.9999L169.104 56.7499L205.896 19.957L200.146 14.207ZM219.811 119.957L225.561 114.207H262.354V151L256.604 156.75L219.811 119.957ZM212.854 125.5L224.646 113.707L212.854 101.914L201.061 113.707L212.854 125.5ZM163.354 151V114.207H200.146L205.896 119.957L169.104 156.75L163.354 151ZM162.354 76.4141V113.207H125.561L119.811 107.457L156.604 70.6641L162.354 76.4141ZM163.354 113.207V76.4141L169.104 70.6641L205.896 107.457L200.146 113.207H163.354ZM151.061 63.707L162.854 75.4999L174.646 63.707L162.854 51.9141L151.061 63.707ZM162.354 14.207V50.9999L156.604 56.7499L119.811 19.957L125.561 14.207H162.354ZM462.854 151.914L451.061 163.707L462.854 175.5L474.646 163.707L462.854 151.914ZM463.354 176.414V213.207H500.146L505.896 207.457L469.104 170.664L463.354 176.414ZM462.354 176.414L456.604 170.664L419.811 207.457L425.561 213.207H462.354V176.414ZM362.354 176.414V213.207H325.561L319.811 207.457L356.604 170.664L362.354 176.414ZM363.354 213.207V176.414L369.104 170.664L405.896 207.457L400.146 213.207H363.354ZM412.854 225.5L401.061 213.707L412.854 201.914L424.646 213.707L412.854 225.5ZM351.061 163.707L362.854 175.5L374.646 163.707L362.854 151.914L351.061 163.707ZM274.646 163.707L262.854 151.914L251.061 163.707L262.854 175.5L274.646 163.707ZM263.354 176.414V213.207H300.146L305.896 207.457L269.104 170.664L263.354 176.414ZM262.354 176.414L256.604 170.664L219.811 207.457L225.561 213.207H262.354V176.414ZM224.646 213.707L212.854 201.914L201.061 213.707L212.854 225.5L224.646 213.707ZM200.146 213.207L205.896 207.457L169.104 170.664L163.354 176.414V213.207H200.146ZM162.354 176.414V213.207H125.561L119.811 207.457L156.604 170.664L162.354 176.414ZM151.061 163.707L162.854 175.5L174.646 163.707L162.854 151.914L151.061 163.707ZM162.354 114.207V151L156.604 156.75L119.811 119.957L125.561 114.207H162.354ZM124.646 113.707L112.854 101.914L101.061 113.707L112.854 125.5L124.646 113.707ZM100.146 114.207H63.3536L63.3535 151L69.1035 156.75L105.896 119.957L100.146 114.207ZM62.3536 151L62.3535 114.207H25.5607L19.8107 119.957L56.6036 156.75L62.3536 151ZM63.3535 113.207H100.146L105.896 107.457L69.1035 70.6641L63.3535 76.4141V113.207ZM62.3536 113.207H25.5607L19.8107 107.457L56.6036 70.6641L62.3536 76.4141V113.207ZM62.8535 151.914L74.6464 163.707L62.8535 175.5L51.0607 163.707L62.8535 151.914ZM63.3535 176.414V213.207H100.146L105.896 207.457L69.1035 170.664L63.3535 176.414ZM12.8536 125.5L1.06066 113.707L12.8536 101.914L24.6464 113.707L12.8536 125.5ZM62.8535 75.4999L74.6464 63.707L62.8535 51.9142L51.0607 63.707L62.8535 75.4999ZM63.3536 51L69.1035 56.7499L105.896 19.957L100.146 14.207H63.3536V51ZM69.8106 69.957L75.5606 64.207H112.354V101L106.604 106.75L69.8106 69.957ZM113.354 101V64.207H150.146L155.896 69.957L119.104 106.75L113.354 101ZM113.354 63.207H150.146L155.896 57.457L119.104 20.6641L113.354 26.4141V63.207ZM112.354 63.207V26.4141L106.604 20.6641L69.8106 57.457L75.5606 63.207H112.354ZM69.8106 169.957L75.5606 164.207H112.354V201L106.604 206.75L69.8106 169.957ZM119.104 206.75L113.354 201V164.207H150.146L155.896 169.957L119.104 206.75ZM113.354 163.207H150.146L155.896 157.457L119.104 120.664L113.354 126.414V163.207ZM112.354 163.207V126.414L106.604 120.664L69.8106 157.457L75.5606 163.207H112.354ZM175.561 164.207L169.811 169.957L206.604 206.75L212.354 201V164.207H175.561ZM213.354 164.207V201L219.104 206.75L255.896 169.957L250.146 164.207H213.354ZM250.146 163.207H213.354V126.414L219.104 120.664L255.896 157.457L250.146 163.207ZM212.354 126.414V163.207H175.561L169.811 157.457L206.604 120.664L212.354 126.414ZM269.811 169.957L275.561 164.207H312.354V201L306.604 206.75L269.811 169.957ZM313.354 201V164.207H350.146L355.896 169.957L319.104 206.75L313.354 201ZM313.354 163.207H350.146L355.896 157.457L319.104 120.664L313.354 126.414V163.207ZM312.354 163.207V126.414L306.604 120.664L269.811 157.457L275.561 163.207H312.354ZM375.561 164.207L369.811 169.957L406.604 206.75L412.354 201V164.207H375.561ZM413.354 164.207V201L419.104 206.75L455.896 169.957L450.146 164.207H413.354ZM450.146 163.207H413.354V126.414L419.104 120.664L455.896 157.457L450.146 163.207ZM412.354 126.414V163.207H375.561L369.811 157.457L406.604 120.664L412.354 126.414ZM469.811 169.957L475.561 164.207H512.354V201L506.604 206.75L469.811 169.957ZM513.354 201V164.207H550.146L555.896 169.957L519.104 206.75L513.354 201ZM513.354 163.207H550.146L555.896 157.457L519.104 120.664L513.354 126.414V163.207ZM512.354 163.207V126.414L506.604 120.664L469.811 157.457L475.561 163.207H512.354ZM212.354 101V64.207H175.561L169.811 69.957L206.604 106.75L212.354 101ZM213.354 64.207V101L219.104 106.75L255.896 69.957L250.146 64.207H213.354ZM250.146 63.207H213.354V26.4141L219.104 20.6641L255.896 57.457L250.146 63.207ZM212.354 26.4141V63.207H175.561L169.811 57.457L206.604 20.6641L212.354 26.4141ZM269.811 69.957L275.561 64.207H312.354V101L306.604 106.75L269.811 69.957ZM313.354 101V64.207H350.146L355.896 69.957L319.104 106.75L313.354 101ZM313.354 63.207H350.146L355.896 57.457L319.104 20.6641L313.354 26.4141V63.207ZM312.354 63.207V26.4141L306.604 20.6641L269.811 57.457L275.561 63.207H312.354ZM375.561 64.207L369.811 69.957L406.604 106.75L412.354 101V64.207H375.561ZM413.354 64.207V101L419.104 106.75L455.896 69.957L450.146 64.207H413.354ZM450.146 63.207H413.354V26.4141L419.104 20.6641L455.896 57.457L450.146 63.207ZM412.354 26.4141V63.207H375.561L369.811 57.457L406.604 20.6641L412.354 26.4141ZM469.811 69.957L475.561 64.207H512.354V101L506.604 106.75L469.811 69.957ZM513.354 101V64.207H550.146L555.896 69.957L519.104 106.75L513.354 101ZM513.354 63.207H550.146L555.896 57.457L519.104 20.6641L513.354 26.4141V63.207ZM512.354 63.207V26.4141L506.604 20.6641L469.811 57.457L475.561 63.207H512.354Z" fill="#828282"/>
</svg>
