<svg width="320" height="121" viewBox="0 0 320 121" fill="none" xmlns="http://www.w3.org/2000/svg">
<g clip-path="url(#clip0_299_2745)">
<ellipse cx="149.775" cy="118.833" rx="34.5688" ry="2" fill="#CECCCA"/>
<path d="M176.794 112.833C176.794 116.147 164.258 118.833 148.794 118.833C133.33 118.833 120.794 116.147 120.794 112.833C120.794 109.52 133.33 106.833 148.794 106.833C164.258 106.833 176.794 109.52 176.794 112.833Z" fill="#E6E5E5"/>
<path fill-rule="evenodd" clip-rule="evenodd" d="M175.502 113.352C175.763 113.079 175.794 112.909 175.794 112.833C175.794 112.758 175.763 112.588 175.502 112.315C175.237 112.037 174.796 111.722 174.142 111.39C172.836 110.729 170.881 110.104 168.383 109.569C163.404 108.502 156.477 107.833 148.794 107.833C141.111 107.833 134.184 108.502 129.204 109.569C126.706 110.104 124.752 110.729 123.446 111.39C122.792 111.722 122.351 112.037 122.086 112.315C121.825 112.588 121.794 112.758 121.794 112.833C121.794 112.909 121.825 113.079 122.086 113.352C122.351 113.63 122.792 113.945 123.446 114.277C124.752 114.938 126.706 115.563 129.204 116.098C134.184 117.165 141.111 117.833 148.794 117.833C156.477 117.833 163.404 117.165 168.383 116.098C170.881 115.563 172.836 114.938 174.142 114.277C174.796 113.945 175.237 113.63 175.502 113.352ZM148.794 118.833C164.258 118.833 176.794 116.147 176.794 112.833C176.794 109.52 164.258 106.833 148.794 106.833C133.33 106.833 120.794 109.52 120.794 112.833C120.794 116.147 133.33 118.833 148.794 118.833Z" fill="#384E62"/>
<path fill-rule="evenodd" clip-rule="evenodd" d="M175.219 110.845C168.172 113.328 158.923 114.833 148.794 114.833C138.665 114.833 129.415 113.328 122.368 110.845C126.197 108.509 136.582 106.833 148.794 106.833C161.005 106.833 171.391 108.509 175.219 110.845Z" fill="#B5B2B0"/>
<path fill-rule="evenodd" clip-rule="evenodd" d="M175.219 110.845C174.863 110.628 174.45 110.416 173.984 110.211C169.442 108.211 159.869 106.833 148.794 106.833C137.719 106.833 128.146 108.211 123.604 110.211C123.138 110.416 122.725 110.628 122.368 110.845C122.792 110.994 123.224 111.14 123.664 111.283C130.532 113.503 139.275 114.833 148.794 114.833C158.313 114.833 167.056 113.503 173.923 111.283C174.363 111.14 174.795 110.994 175.219 110.845ZM172.471 110.687C170.612 110.026 168.076 109.427 164.998 108.951C160.455 108.25 154.857 107.833 148.794 107.833C142.73 107.833 137.133 108.25 132.59 108.951C129.511 109.427 126.975 110.026 125.117 110.687C131.686 112.657 139.883 113.833 148.794 113.833C157.704 113.833 165.902 112.657 172.471 110.687Z" fill="#384E62"/>
<path d="M188.794 96.8335C188.794 105.67 170.885 112.833 148.794 112.833C126.703 112.833 108.794 105.67 108.794 96.8335C108.794 87.9969 126.703 80.8335 148.794 80.8335C170.885 80.8335 188.794 87.9969 188.794 96.8335Z" fill="white"/>
<path fill-rule="evenodd" clip-rule="evenodd" d="M184.963 102.335C186.863 100.538 187.794 98.6791 187.794 96.8335C187.794 94.9879 186.863 93.1285 184.963 91.3321C183.062 89.5337 180.256 87.8681 176.707 86.4483C169.613 83.6108 159.745 81.8335 148.794 81.8335C137.843 81.8335 127.975 83.6108 120.881 86.4483C117.332 87.8681 114.526 89.5337 112.624 91.3321C110.725 93.1285 109.794 94.9879 109.794 96.8335C109.794 98.6791 110.725 100.538 112.624 102.335C114.526 104.133 117.332 105.799 120.881 107.219C127.975 110.056 137.843 111.833 148.794 111.833C159.745 111.833 169.613 110.056 176.707 107.219C180.256 105.799 183.062 104.133 184.963 102.335ZM148.794 112.833C170.885 112.833 188.794 105.67 188.794 96.8335C188.794 87.9969 170.885 80.8335 148.794 80.8335C126.703 80.8335 108.794 87.9969 108.794 96.8335C108.794 105.67 126.703 112.833 148.794 112.833Z" fill="#384E62"/>
<path d="M176.794 86.0688C176.794 88.278 164.258 90.0688 148.794 90.0688C133.33 90.0688 120.794 88.278 120.794 86.0688C120.794 85.2356 120.794 84.7431 120.794 84.7431C120.794 84.7431 139.163 82.0688 148.794 82.0688C160.095 82.0688 176.794 84.7413 176.794 84.7413C176.794 84.7413 176.794 85.4741 176.794 86.0688Z" fill="#CECCCA"/>
<ellipse cx="148.794" cy="84.8335" rx="28" ry="4" fill="#B5B2B0"/>
<path d="M175.916 84.1608C175.916 85.9984 163.774 87.488 148.797 87.488C133.819 87.488 121.678 85.9984 121.678 84.1608C121.678 82.3232 133.819 80.8335 148.797 80.8335C163.774 80.8335 175.916 82.3232 175.916 84.1608Z" fill="#E6E5E5"/>
<path fill-rule="evenodd" clip-rule="evenodd" d="M168.095 87.5061C163.136 88.1145 156.313 88.488 148.797 88.488C141.281 88.488 134.458 88.1145 129.499 87.5061C127.026 87.2027 124.979 86.8365 123.53 86.4163C122.814 86.2084 122.185 85.971 121.714 85.689C121.318 85.4512 120.678 84.9684 120.678 84.1608C120.678 83.3531 121.318 82.8703 121.714 82.6326C122.185 82.3505 122.814 82.1131 123.53 81.9052C124.979 81.4851 127.026 81.1189 129.499 80.8155C134.458 80.207 141.281 79.8335 148.797 79.8335C156.313 79.8335 163.136 80.207 168.095 80.8155C170.567 81.1189 172.615 81.4851 174.063 81.9052C174.78 82.1131 175.409 82.3505 175.879 82.6326C176.276 82.8703 176.916 83.3531 176.916 84.1608C176.916 84.9684 176.276 85.4512 175.879 85.689C175.409 85.971 174.78 86.2084 174.063 86.4163C172.615 86.8365 170.567 87.2027 168.095 87.5061ZM148.797 87.488C163.774 87.488 175.916 85.9984 175.916 84.1608C175.916 82.3232 163.774 80.8335 148.797 80.8335C133.819 80.8335 121.678 82.3232 121.678 84.1608C121.678 85.9984 133.819 87.488 148.797 87.488Z" fill="#384E62"/>
<path d="M80 53.8335C80 75.9249 62.0914 93.8335 40 93.8335C17.9086 93.8335 0 75.9249 0 53.8335C0 31.7421 17.9086 13.8335 40 13.8335C62.0914 13.8335 80 31.7421 80 53.8335Z" fill="#E6E5E5"/>
<path fill-rule="evenodd" clip-rule="evenodd" d="M4.41977 35.5384C1.59485 41.0211 0 47.2411 0 53.8337C0 75.9251 17.9086 93.8337 40 93.8337C62.0914 93.8337 80 75.9251 80 53.8337C80 40.444 73.421 28.5909 63.3193 21.3306L63.0521 21.7543C73.0138 28.9254 79.5 40.6221 79.5 53.8337C79.5 75.6489 61.8152 93.3337 40 93.3337C18.1848 93.3337 0.5 75.6489 0.5 53.8337C0.5 47.331 2.07132 41.1953 4.85497 35.7856L4.41977 35.5384Z" fill="#384E62"/>
<path fill-rule="evenodd" clip-rule="evenodd" d="M102.041 81.605H68.9492V114.697C68.9492 116.981 76.3571 118.833 85.4951 118.833C94.6332 118.833 102.041 116.981 102.041 114.697V81.605Z" fill="#001D32"/>
<ellipse cx="16.209" cy="0.5" rx="16.209" ry="0.5" transform="matrix(1 0 0 -1 69.7422 120.419)" fill="#CECCCA"/>
<ellipse cx="85.4951" cy="81.8484" rx="16.5459" ry="4.13648" fill="#004B74"/>
<ellipse cx="85.4297" cy="80.6533" rx="14.6155" ry="2.94135" fill="#006398"/>
<path d="M88.598 77.5511C88.598 79.2645 87.2091 80.6535 85.4957 80.6535C83.7823 80.6535 82.3933 79.2645 82.3933 77.5511C82.3933 74.4851 85.1256 63.3317 85.4957 62.8335C85.0848 64.0682 86.1868 68.2244 87.1893 71.8413C87.9201 74.4783 88.598 76.8286 88.598 77.5511Z" fill="#93CCFF"/>
<path d="M87.2061 79.2175C87.2061 80.0106 86.4453 80.6536 85.5068 80.6536C84.5684 80.6536 83.8076 80.0106 83.8076 79.2175C83.8076 78.4244 84.5684 72.3736 85.5068 72.3736C86.4453 72.3736 87.2061 78.4244 87.2061 79.2175Z" fill="#E7F2FF"/>
<mask id="mask0_299_2745" style="mask-type:alpha" maskUnits="userSpaceOnUse" x="0" y="13" width="80" height="81">
<circle cx="40" cy="53.8335" r="40" fill="#E6E5E5"/>
</mask>
<g mask="url(#mask0_299_2745)">
<path d="M61.1818 114.794C59.0434 114.794 8.90402 113.728 12.3596 8.33545H56.1287C44.6099 67.0786 46.2291 93.6804 61.182 93.6804L61.1818 114.794Z" fill="#B4A9A6"/>
<path d="M12.3599 8.33545H56.129C53.266 22.9359 51.6211 34.9991 51.2321 45.1967C47.3683 59.008 18.0986 59.5927 13.8849 53.6306C11.1886 40.8932 11.7948 25.5717 12.3599 8.33545Z" fill="#D0C4C1"/>
</g>
<path d="M61.0967 114.845C77.2733 117.946 97.5373 117.285 101.458 113.808C105.379 110.331 106.405 107.694 106.405 104.642C106.405 101.59 105.838 91.2893 96.922 93.541C89.4225 95.4348 82.1465 99.0636 69.0389 96.007V90.4453C67.6187 90.1682 63.2651 91.9097 61.0967 93.5409V114.845Z" fill="#B4A9A6"/>
<path fill-rule="evenodd" clip-rule="evenodd" d="M60.0967 115.671V93.0415L60.4955 92.7415C61.6753 91.854 63.394 90.9714 64.9823 90.3466C65.7818 90.0321 66.5746 89.7724 67.2764 89.6086C67.9385 89.454 68.6539 89.351 69.2303 89.4635L70.0389 89.6212V95.2068C80.1122 97.3906 86.5234 95.5032 92.6143 93.7101C93.9722 93.3104 95.3141 92.9153 96.6772 92.5711C99.0914 91.9615 101.063 92.1755 102.636 93.0137C104.193 93.8436 105.226 95.2155 105.912 96.6774C107.268 99.5658 107.405 103.096 107.405 104.642C107.405 106.293 107.124 107.876 106.294 109.517C105.472 111.142 104.139 112.766 102.122 114.555C101.494 115.112 100.612 115.555 99.5993 115.919C98.5723 116.287 97.3403 116.598 95.9551 116.855C93.1839 117.371 89.7227 117.685 85.9013 117.792C78.258 118.007 69.0748 117.392 60.9084 115.827L60.0967 115.671ZM69.0389 96.0067V90.445C68.8335 90.4049 68.5668 90.4071 68.2542 90.445C68.1846 90.4534 68.1128 90.4636 68.0389 90.4756C66.1476 90.7802 62.8817 92.1978 61.0967 93.5406V114.845C77.2733 117.946 97.5373 117.284 101.458 113.807C105.379 110.33 106.405 107.694 106.405 104.642C106.405 101.59 105.838 91.289 96.922 93.5407C95.5988 93.8749 94.2824 94.263 92.9398 94.659C86.6733 96.507 79.8337 98.524 69.0389 96.0067Z" fill="#384E62"/>
<path d="M61.1823 93.6807L61.1821 114.794C59.5593 114.794 30.2917 114.18 17.7832 67.8208L48.6327 63.5039C48.0049 84.0255 52.1739 93.6807 61.1823 93.6807Z" fill="#B4A9A6"/>
<path d="M320 80.4194C320 102.511 302.091 120.419 280 120.419C257.909 120.419 240 102.511 240 80.4194C240 58.328 257.909 40.4194 280 40.4194C302.091 40.4194 320 58.328 320 80.4194Z" fill="#E6E5E5"/>
<path fill-rule="evenodd" clip-rule="evenodd" d="M315.694 63.4811C309.353 50.1413 295.753 40.9194 280 40.9194C258.185 40.9194 240.5 58.6042 240.5 80.4194C240.5 98.9424 253.25 114.488 270.452 118.758L270.327 119.242C252.909 114.916 240 99.1755 240 80.4194C240 58.328 257.909 40.4194 280 40.4194C295.947 40.4194 309.714 49.7514 316.139 63.2523L315.694 63.4811ZM320 80.282V80.5572C320 80.5113 320 80.4654 320 80.4194C320 80.3736 320 80.3278 320 80.282Z" fill="#384E62"/>
<ellipse cx="150" cy="-6.41504" rx="78" ry="50" fill="#F3F2F2"/>
<mask id="mask1_299_2745" style="mask-type:alpha" maskUnits="userSpaceOnUse" x="240" y="40" width="80" height="81">
<circle cx="280" cy="80.4194" r="40" fill="#E6E5E5"/>
</mask>
<g mask="url(#mask1_299_2745)">
<path d="M252.848 68.4759C295.93 66.8745 300.956 65.2805 339.913 79.1789L327.962 119.913L251.595 80.6583L252.848 68.4759Z" fill="#B4A9A6"/>
<path d="M234.272 61.6816C268.181 80.6125 287.273 88.5845 321.12 96.9933L322.334 149.667C284.592 125.936 272.925 114.119 243.252 75.1648L234.272 61.6816Z" fill="#D0C4C1"/>
</g>
<path d="M233.121 75.5153C238.875 79.006 251.676 80.8722 251.676 80.8722L252.841 68.4505C252.841 68.4505 235.517 52.9378 230.499 58.2699C225.481 63.602 227.367 72.0247 233.121 75.5153Z" fill="#B4A9A6"/>
<path fill-rule="evenodd" clip-rule="evenodd" d="M251.532 81.8618L251.676 80.8723L252.841 68.4506L253.508 67.7056L253.884 68.0419L252.574 82.0137L251.532 81.8618ZM252.841 68.4506C252.841 68.4506 235.517 52.9379 230.499 58.27C225.481 63.6021 227.367 72.0248 233.121 75.5154C237.909 78.4197 247.574 80.1994 250.687 80.7154C251.315 80.8196 251.676 80.8723 251.676 80.8723C251.532 81.8618 251.532 81.8618 251.532 81.8618L251.521 81.8602L251.492 81.8559L251.38 81.839C251.283 81.8241 251.14 81.802 250.957 81.7727C250.591 81.714 250.062 81.6265 249.411 81.5107C248.109 81.2791 246.312 80.9334 244.332 80.4773C240.413 79.5746 235.631 78.2076 232.603 76.3704C226.376 72.593 224.261 63.4388 229.77 57.5847C231.443 55.8078 233.994 55.9277 236.396 56.6541C238.861 57.3994 241.591 58.8991 244.095 60.5215C246.613 62.1525 248.965 63.9478 250.683 65.3312C251.543 66.0238 252.247 66.6154 252.737 67.0347C252.982 67.2443 253.173 67.411 253.304 67.5257C253.37 67.5831 253.42 67.6275 253.454 67.6579L253.494 67.6927L253.504 67.7019L253.508 67.7056C253.508 67.7058 253.508 67.7056 252.841 68.4506Z" fill="#384E62"/>
<path d="M240.381 12.2137C246.517 15.3585 248.942 22.8822 245.797 29.0185C242.652 35.1547 235.129 37.5798 228.992 34.435C222.856 31.2902 220.431 23.7665 223.576 17.6302C225.21 14.4416 229.176 4.18437 229.176 4.18437C229.176 4.18437 237.433 10.7031 240.381 12.2137Z" fill="#001D32"/>
<path fill-rule="evenodd" clip-rule="evenodd" d="M235.928 38.5209C235.463 35.6805 234.977 32.7082 234.486 29.5683L238.01 29.0173C238.497 32.1294 238.982 35.0894 239.448 37.9313C242.786 58.2949 245.13 72.5891 239.807 93.2478C239.561 94.2016 238.578 94.7637 237.628 94.5037C236.678 94.2438 236.121 93.2609 236.366 92.3069C241.477 72.4436 239.256 58.8683 235.928 38.5209Z" fill="#837F7C"/>
<path d="M279.544 33.9162C275.519 40.1115 267.234 41.8714 261.039 37.8471C254.844 33.8227 253.084 25.538 257.108 19.3427C261.795 12.1281 276.571 11.4494 281.359 6.56606C280.051 10.0085 283.568 27.7209 279.544 33.9162Z" fill="#003351"/>
<path fill-rule="evenodd" clip-rule="evenodd" d="M249.228 48.668C253.687 43.4365 258.357 37.9584 263.321 31.8865L266.083 34.1443C261.017 40.3404 256.291 45.8848 251.804 51.1483C248.544 54.9726 245.411 58.6487 242.365 62.3188L232.548 100.74C232.317 101.643 231.425 102.212 230.508 102.04L-nan -nanL230.508 102.04C229.496 101.85 228.86 100.838 229.127 99.8435L237.65 68.096C231.303 76.0258 225.266 84.2694 219.165 94.2242C218.65 95.064 217.554 95.3368 216.71 94.8282L-nan -nanL216.71 94.8282C215.867 94.3195 215.595 93.2219 216.11 92.382C223.615 80.137 231.061 70.3955 239.03 60.7527L244.295 32.7201L247.801 33.3786L243.71 55.1592C245.516 53.0218 247.353 50.8667 249.228 48.668Z" fill="#837F7C"/>
<path d="M260.294 27.5249C258.12 34.5855 250.634 38.5469 243.574 36.3731C236.513 34.1992 232.552 26.7132 234.726 19.6526C238.689 11.6901 253.708 5.29681 254.55 0.723237C253.626 3.47617 263.003 18.7256 260.294 27.5249Z" fill="#003351"/>
<path fill-rule="evenodd" clip-rule="evenodd" d="M253.656 2.47619C252.295 4.21527 249.599 6.16964 246.619 8.32885C242.057 11.6355 236.831 15.4226 234.726 19.6526C232.552 26.7132 236.513 34.1992 243.574 36.3731C250.634 38.5469 258.12 34.5855 260.294 27.5249C262.019 21.9216 258.844 13.7028 256.547 7.76081C255.768 5.74448 255.09 3.99032 254.74 2.6895C254.538 1.94055 254.445 1.34187 254.503 0.929958C254.522 0.860644 254.537 0.791736 254.55 0.723237C254.529 0.78577 254.513 0.854751 254.503 0.929958C254.368 1.42472 254.075 1.94023 253.656 2.47619ZM253.978 3.64516C253.497 4.17805 252.929 4.71317 252.307 5.24866C250.883 6.47437 249.078 7.78226 247.204 9.13979C246.936 9.33421 246.666 9.52964 246.396 9.726C244.218 11.3091 241.982 12.9696 240.048 14.7203C238.133 16.4535 236.572 18.2229 235.657 20.0255C233.699 26.5351 237.362 33.4141 243.868 35.4174C250.401 37.4287 257.327 33.7634 259.339 27.2306C259.949 25.2492 259.896 22.8276 259.425 20.1878C258.956 17.5597 258.089 14.804 257.151 12.1951C256.682 10.893 256.2 9.63566 255.743 8.45336C255.7 8.3416 255.657 8.23044 255.614 8.11993C255.207 7.06598 254.822 6.07099 254.498 5.17513C254.304 4.63669 254.127 4.12347 253.978 3.64516Z" fill="#006398"/>
<path d="M290.684 53.379C287.612 59.5518 280.117 62.0652 273.944 58.9929C267.772 55.9205 265.258 48.4258 268.33 42.253C271.403 36.0802 278.898 33.5668 285.07 36.6391C288.278 38.2356 298.581 42.0801 298.581 42.0801C298.581 42.0801 292.16 50.4138 290.684 53.379Z" fill="#004B74"/>
<path d="M234.646 82.666C237.087 75.1681 240.608 66.0923 244.828 60.5891C249.169 54.9289 255.443 52.0594 260.484 50.5966C263.02 49.8604 265.292 49.4665 266.933 49.2561C267.755 49.1507 268.422 49.0909 268.888 49.0572C269.122 49.0404 269.306 49.0301 269.434 49.0239C269.498 49.0209 269.549 49.0188 269.585 49.0175L269.628 49.016L269.641 49.0156L269.645 49.0155C269.645 49.0155 270.462 49.2529 270.508 51.0358C270.533 51.9885 269.743 52.5812 269.743 52.5812L269.74 52.5813L269.716 52.5821C269.605 52.5869 269.656 52.5845 269.605 52.5869C269.504 52.5918 269.349 52.6004 269.145 52.6151C268.737 52.6445 268.136 52.698 267.387 52.7942C265.885 52.9867 263.8 53.3484 261.478 54.0223C256.801 55.3795 251.349 57.9481 247.659 62.7598C243.848 67.7284 240.479 76.2694 238.038 83.7702C236.829 87.4822 235.868 90.873 235.21 93.336L234.63 95.6173C234.391 96.5582 233.439 97.1341 232.494 96.9145C231.524 96.6893 230.922 95.7132 231.165 94.748C231.372 93.9246 231.608 92.9983 231.764 92.4145C232.434 89.9075 233.413 86.4534 234.646 82.666Z" fill="#9C9896"/>
<path fill-rule="evenodd" clip-rule="evenodd" d="M238.998 49.0002C238.966 47.4244 238.737 46.371 238.436 45.767L241.629 44.1774C242.275 45.4747 242.528 47.1458 242.564 48.927C242.602 50.7449 242.415 52.8515 242.052 55.1333C241.324 59.7 239.86 65.1245 237.882 70.6362C234.207 80.8784 228.627 91.7848 222.382 98.088C221.689 98.7877 220.558 98.7207 219.902 97.9857C219.247 97.2507 219.313 96.127 220.001 95.4222C225.613 89.6755 230.925 79.4649 234.525 69.4315C236.447 64.0728 237.844 58.8678 238.529 54.5718C238.872 52.4224 239.03 50.5395 238.998 49.0002Z" fill="#B5B2B0"/>
<path d="M252.435 28.1488C256.328 33.8394 254.871 41.6089 249.181 45.5024C243.49 49.3959 235.72 47.939 231.827 42.2484C227.933 36.5577 229.39 28.7882 235.081 24.8947C238.038 22.8715 246.416 15.7473 246.416 15.7473C246.416 15.7473 250.564 25.4152 252.435 28.1488Z" fill="#004B74"/>
<path fill-rule="evenodd" clip-rule="evenodd" d="M248.616 44.6771C253.851 41.0955 255.191 33.9483 251.609 28.7134C250.616 27.2623 249.075 24.0758 247.815 21.3414C247.177 19.9556 246.598 18.6563 246.178 17.7038C246.128 17.5904 246.08 17.4819 246.035 17.3788C245.931 17.4663 245.821 17.5593 245.704 17.6573C244.871 18.3582 243.729 19.314 242.494 20.3335C240.04 22.359 237.169 24.6777 235.646 25.72C230.411 29.3016 229.071 36.4488 232.652 41.6837C236.234 46.9186 243.381 48.2588 248.616 44.6771ZM245.618 16.4224C243.455 18.2475 237.482 23.2521 235.081 24.8947C229.39 28.7882 227.933 36.5577 231.827 42.2484C235.72 47.939 243.49 49.3959 249.181 45.5024C254.871 41.6089 256.328 33.8394 252.435 28.1488C250.925 25.942 247.93 19.2159 246.832 16.7055C246.57 16.1063 246.416 15.7473 246.416 15.7473C246.416 15.7473 246.119 15.9995 245.618 16.4224Z" fill="#006398"/>
<path fill-rule="evenodd" clip-rule="evenodd" d="M245.016 47.2664C245.887 45.9388 246.901 44.7352 248.104 44.1076L249.754 47.2701C249.389 47.4605 248.788 48.0195 247.999 49.2233C247.241 50.3774 246.431 51.9323 245.572 53.8398C243.853 57.6526 242.028 62.6621 240.084 68.2252C239.516 69.8483 238.939 71.5179 238.353 73.2155C235.169 82.4272 231.702 92.4602 227.978 100.327C227.557 101.217 226.485 101.575 225.603 101.136L-nan -nanL225.603 101.136C224.722 100.698 224.363 99.628 224.784 98.7374C228.397 91.0929 231.779 81.3105 234.964 72.0982C235.555 70.3896 236.139 68.7005 236.716 67.0484C238.658 61.4928 240.529 56.3464 242.32 52.3739C243.215 50.3887 244.112 48.6436 245.016 47.2664Z" fill="#CECCCA"/>
<path d="M269.766 50.3169C265.751 55.9231 257.952 57.2135 252.346 53.1992C246.74 49.1849 245.45 41.386 249.464 35.7799C253.478 30.1738 261.277 28.8834 266.883 32.8976C269.797 34.9836 279.358 40.4166 279.358 40.4166C279.358 40.4166 271.694 47.624 269.766 50.3169Z" fill="#004B74"/>
<path fill-rule="evenodd" clip-rule="evenodd" d="M252.929 52.3862C258.086 56.0789 265.26 54.8918 268.953 49.7347C269.976 48.3052 272.443 45.7664 274.581 43.6468C275.664 42.5725 276.687 41.5834 277.438 40.863C277.528 40.7773 277.613 40.6953 277.695 40.6175C277.577 40.5498 277.452 40.4778 277.32 40.4019C276.376 39.8589 275.087 39.113 273.706 38.3015C270.963 36.6892 267.802 34.7853 266.301 33.7107C261.144 30.0179 253.97 31.205 250.277 36.3621C246.584 41.5192 247.771 48.6934 252.929 52.3862ZM278.45 39.8982C275.995 38.4907 269.248 34.5912 266.883 32.8976C261.277 28.8834 253.478 30.1738 249.464 35.7799C245.45 41.386 246.74 49.1849 252.346 53.1992C257.952 57.2135 265.751 55.9231 269.766 50.3169C271.322 48.1429 276.617 43.0267 278.6 41.1357C279.073 40.6843 279.358 40.4166 279.358 40.4166C279.358 40.4166 279.019 40.2243 278.45 39.8982Z" fill="#006398"/>
<path d="M252.847 68.4759L251.595 80.6583L274.914 92.645L302.993 68.648C289.742 66.6418 277.551 67.5577 252.847 68.4759Z" fill="#B4A9A6"/>
<path d="M232.185 78.0198C238.219 80.7809 249.72 83.2296 249.72 83.2296L251.164 70.7392C251.164 70.7392 236.175 53.1364 229.287 60.8481C222.399 68.5597 226.15 75.2587 232.185 78.0198Z" fill="#D0C4C1"/>
<path fill-rule="evenodd" clip-rule="evenodd" d="M250.586 84.4365L249.511 84.2076L249.719 83.2295L251.163 70.7391L251.925 70.0908L252.207 70.422L250.586 84.4365ZM248.738 83.0124C249.361 83.1532 249.719 83.2295 249.719 83.2295C249.511 84.2076 249.511 84.2076 249.511 84.2076L249.476 84.2L249.377 84.1785C249.289 84.1596 249.162 84.1317 248.997 84.0951C248.668 84.0221 248.192 83.9149 247.602 83.7777C246.422 83.5034 244.786 83.1086 242.96 82.6269C239.327 81.6685 234.87 80.3482 231.769 78.929C228.567 77.4642 225.858 74.9044 224.926 71.5586C223.98 68.1627 224.935 64.2192 228.541 60.1818C230.574 57.9054 233.22 57.5423 235.843 58.1674C238.414 58.7802 241.064 60.3532 243.406 62.1001C245.765 63.8592 247.892 65.8563 249.425 67.406C250.193 68.1826 250.815 68.8506 251.246 69.3257C251.462 69.5633 251.63 69.7528 251.745 69.8838C251.803 69.9493 251.847 70.0002 251.877 70.0351L251.912 70.0754L251.921 70.0863L251.923 70.0894L251.925 70.0908C251.925 70.0911 251.925 70.0908 251.163 70.7391C251.163 70.7391 236.175 53.1363 229.287 60.8479C222.398 68.5596 226.15 75.2586 232.185 78.0197C237.154 80.2934 245.83 82.3553 248.738 83.0124Z" fill="#384E62"/>
<path d="M234.271 61.6816L243.251 75.1648C255.847 91.7007 265.199 103.347 274.678 113.089L295.275 89.7061C275.289 83.1989 258.591 75.2587 234.271 61.6816Z" fill="#D0C4C1"/>
<path d="M228 -6.41504C228 21.1992 193.078 43.585 150 43.585C106.922 43.585 72 21.1992 72 -6.41504C72 -34.0293 106.922 -56.415 150 -56.415C193.078 -56.415 228 -34.0293 228 -6.41504Z" fill="#E6E5E5"/>
<rect x="148.843" y="57.4736" width="0.5" height="22.245" fill="#006398"/>
<rect x="146.203" y="57.8525" width="0.5" height="22.245" transform="rotate(-13.7658 146.203 57.8525)" fill="#006398"/>
<rect x="151.72" y="57.7856" width="0.5" height="22.245" transform="rotate(14.9488 151.72 57.7856)" fill="#006398"/>
<rect x="148.343" y="7.19629" width="2" height="55.5369" fill="#003351"/>
<rect x="163.335" y="11.0088" width="2" height="55.7677" transform="rotate(15.1222 163.335 11.0088)" fill="#003351"/>
<path d="M134.942 11.953L136.891 11.5034L148.712 62.7438L146.763 63.1934L134.942 11.953Z" fill="#003351"/>
<path d="M84.4463 -4.72461H118.605C110.077 18.3339 106.049 37.3787 121.599 55.4457C126.709 56.1718 128.084 71.1862 121.601 72.4488C90.923 57.376 76.6749 38.1639 84.4463 -4.72461Z" fill="#D9D9D9"/>
<path d="M182.263 -4.72461H216.422C217.994 33.8851 214.254 55.2219 176.689 71.9264C170.294 70.1594 169.76 54.2069 176.689 55.2219C200.947 41.3998 189.809 17.0315 182.263 -4.72461Z" fill="#D9D9D9"/>
<path fill-rule="evenodd" clip-rule="evenodd" d="M224.082 8.15488C220.34 15.9143 213.683 22.8796 204.885 28.5194C190.861 37.5086 171.458 43.085 150 43.085C128.542 43.085 109.139 37.5086 95.1156 28.5194C86.3175 22.8796 79.6598 15.9143 75.9183 8.15488H75.3635C85.0934 28.6622 114.828 43.585 150 43.585C185.172 43.585 214.907 28.6622 224.637 8.15488H224.082ZM222.599 -23.7623H223.178C212.176 -42.8258 183.564 -56.415 150 -56.415C116.436 -56.415 87.8242 -42.8258 76.8224 -23.7623H77.4011C81.3002 -30.4084 87.3807 -36.3912 95.1156 -41.3494C109.139 -50.3387 128.542 -55.915 150 -55.915C171.458 -55.915 190.861 -50.3387 204.885 -41.3494C212.619 -36.3912 218.7 -30.4084 222.599 -23.7623Z" fill="#384E62"/>
<path d="M121.116 56.1952L132.416 55.4301C133.64 55.3472 134.869 55.4903 136.042 55.8524L145.77 58.8564C148.285 59.6329 150 61.9575 150 64.5893V65.2948C150 67.9867 148.207 70.3491 145.615 71.0734L136.046 73.7468C134.871 74.0752 133.645 74.1856 132.43 74.0727L121.116 73.0213L121.116 56.1952Z" fill="#998E8C"/>
<path fill-rule="evenodd" clip-rule="evenodd" d="M149 65.2948V64.5893C149 62.3961 147.571 60.459 145.475 59.8119L135.747 56.8079C134.692 56.482 133.585 56.3532 132.484 56.4278L122.116 57.1297L122.116 72.1099L132.523 73.077C133.616 73.1786 134.719 73.0792 135.777 72.7837L145.346 70.1103C147.506 69.5067 149 67.538 149 65.2948ZM121.116 73.0213L121.116 56.1952L132.416 55.4301C133.64 55.3472 134.869 55.4903 136.042 55.8524L145.77 58.8564C148.285 59.6329 150 61.9575 150 64.5893V65.2948C150 67.9867 148.207 70.3491 145.615 71.0734L136.046 73.7468C134.871 74.0752 133.645 74.1856 132.43 74.0727L121.116 73.0213Z" fill="#384E62"/>
<path d="M177.226 72.3529L166.598 73.8807C164.942 74.1187 163.253 73.9375 161.686 73.3538L152.249 69.8401C149.9 68.9656 148.343 66.7234 148.343 64.2172V63.2533C148.343 60.5614 150.136 58.199 152.728 57.4746L162.297 54.8013C163.472 54.4729 164.698 54.3624 165.913 54.4753L177.227 55.5268L177.226 72.3529Z" fill="#998E8C"/>
<path fill-rule="evenodd" clip-rule="evenodd" d="M149.343 63.2533V64.2172C149.343 66.3057 150.641 68.1742 152.598 68.9029L162.035 72.4167C163.445 72.942 164.965 73.1051 166.456 72.8909L176.226 71.4864L176.227 56.4382L165.82 55.4711C164.727 55.3694 163.624 55.4688 162.566 55.7644L152.997 58.4377C150.837 59.0414 149.343 61.01 149.343 63.2533ZM177.227 55.5268L177.226 72.3529L166.598 73.8807C164.942 74.1187 163.253 73.9375 161.686 73.3538L152.249 69.8401C149.9 68.9656 148.343 66.7234 148.343 64.2172V63.2533C148.343 60.5614 150.136 58.199 152.728 57.4746L162.297 54.8013C163.472 54.4729 164.698 54.3624 165.913 54.4753L177.227 55.5268Z" fill="#384E62"/>
<path d="M84.4463 -4.72412H118.605C110.077 18.3344 106.049 37.3792 121.599 55.4462C126.709 56.1722 128.194 71.8799 121.22 72.2406C90.5423 57.1678 76.6749 38.1644 84.4463 -4.72412Z" fill="#D0C4C1"/>
<path d="M182.405 -4.78271H216.563C218.135 33.827 215.52 55.907 177.218 71.6705C170.823 69.9035 169.901 54.1488 176.83 55.1638C201.088 41.3417 189.95 16.9734 182.405 -4.78271Z" fill="#D0C4C1"/>
</g>
<defs>
<clipPath id="clip0_299_2745">
<rect width="320" height="120" fill="white" transform="translate(0 0.833496)"/>
</clipPath>
</defs>
</svg>
