<svg width="201" height="200" viewBox="0 0 201 200" fill="none" xmlns="http://www.w3.org/2000/svg">
<g clip-path="url(#clip0_327_7438)">
<rect x="0.5" width="200" height="200" rx="60" fill="#CECCCA"/>
<path d="M140.5 153.846C160.884 178.462 0.499849 178.462 0.499849 178.462L-19.8848 220.769L44.346 225.769C44.346 225.769 21.2691 211.923 79.7306 211.923C138.192 211.923 196.654 172.692 185.884 153.846C175.115 135 88.9614 127.308 79.7306 120C70.4999 112.692 145.115 106.19 162.808 98.8462C180.5 91.5022 140.5 85 140.5 85H117.808C117.808 85 155.884 87.6923 144.731 93.8462C133.577 100 57.4229 104.231 28.9614 117.692C0.499849 131.154 120.115 129.231 140.5 153.846Z" fill="#E6E5E5"/>
<path fill-rule="evenodd" clip-rule="evenodd" d="M117.78 85.3835L117.807 84.6152H140.531L140.561 84.6202L140.5 84.9998C140.561 84.6202 140.561 84.6202 140.561 84.6202L140.563 84.6205L140.591 84.6251L140.677 84.6393C140.753 84.652 140.865 84.6708 141.009 84.6956C141.299 84.7452 141.722 84.8188 142.253 84.9151C143.314 85.1078 144.811 85.3911 146.552 85.754C150.031 86.4795 154.494 87.5251 158.408 88.8033C160.364 89.4423 162.193 90.1423 163.696 90.8936C165.189 91.6396 166.405 92.4573 167.091 93.35C167.438 93.8018 167.663 94.291 167.702 94.8126C167.741 95.3393 167.587 95.8585 167.246 96.359C166.58 97.3373 165.18 98.2776 162.955 99.2012C158.488 101.055 150.467 102.845 141.136 104.6C135.11 105.733 128.516 106.856 121.951 107.974C118.338 108.589 114.735 109.202 111.239 109.815C101.38 111.544 92.3869 113.268 86.4373 115.013C83.449 115.89 81.2845 116.757 80.1547 117.602C79.5848 118.028 79.3584 118.39 79.3307 118.676C79.3054 118.937 79.4367 119.277 79.9692 119.698C80.5032 120.121 81.3406 120.563 82.47 121.021C83.5939 121.476 84.9843 121.939 86.6075 122.41C89.854 123.352 94.0077 124.324 98.7773 125.345C103.121 126.275 107.968 127.245 113.098 128.271C113.599 128.372 114.104 128.473 114.611 128.574C120.299 129.713 126.299 130.921 132.312 132.22C144.334 134.817 156.422 137.778 166.182 141.272C171.062 143.02 175.373 144.904 178.807 146.95C182.234 148.992 184.824 151.215 186.218 153.655C189.031 158.578 187.272 164.745 182.367 171.106C177.446 177.487 169.277 184.187 158.965 190.283C138.337 202.476 109.04 212.308 79.7305 212.308C65.1249 212.308 55.6372 213.173 49.6187 214.462C46.6093 215.107 44.4846 215.855 43.0262 216.642C41.5666 217.431 40.8043 218.242 40.4665 219.002C39.8044 220.492 40.6878 222.048 41.9306 223.339C42.5354 223.967 43.1899 224.493 43.6957 224.864C43.948 225.049 44.1618 225.194 44.3118 225.292C44.3867 225.341 44.4457 225.378 44.4854 225.403C44.5053 225.416 44.5203 225.425 44.5302 225.431L44.541 225.438L44.5434 225.439L44.316 226.153L-20.4756 221.109L0.258066 178.077H0.499683V178.461C0.499683 178.077 0.500265 178.077 0.501459 178.077L0.615381 178.077C0.651602 178.077 0.69623 178.077 0.749128 178.076C0.808472 178.076 0.878223 178.076 0.958195 178.076C1.26071 178.075 1.70942 178.074 2.29392 178.071C3.46294 178.065 5.1751 178.053 7.34714 178.029C11.6912 177.981 17.8747 177.885 25.2312 177.692C39.9451 177.308 59.3484 176.539 78.1125 175.001C96.8844 173.463 114.989 171.157 127.119 167.707C133.199 165.978 137.709 163.979 140.069 161.695C141.24 160.561 141.853 159.387 141.902 158.163C141.952 156.937 141.44 155.585 140.203 154.091C137.71 151.08 133.673 148.447 128.529 146.128C123.391 143.811 117.181 141.821 110.374 140.078C96.7605 136.592 80.8058 134.107 66.3568 131.967C64.8934 131.75 63.4452 131.537 62.0162 131.327C49.3548 129.463 38.2054 127.821 31.4121 125.929C29.5197 125.402 27.9473 124.851 26.7672 124.262C25.6048 123.682 24.748 123.03 24.3964 122.261C24.2141 121.862 24.172 121.44 24.285 121.01C24.3958 120.587 24.6492 120.179 25.0184 119.784C25.7515 118.998 27.0056 118.192 28.7968 117.344C35.9546 113.959 46.0873 111.163 57.4095 108.776C68.7379 106.388 81.2837 104.403 93.2806 102.648C97.5772 102.02 101.802 101.421 105.876 100.843C113.183 99.8072 120.003 98.8403 125.877 97.8954C130.451 97.1596 134.442 96.4385 137.635 95.7103C140.841 94.9794 143.203 94.2496 144.545 93.5092C145.223 93.1351 145.689 92.787 145.985 92.4701C146.28 92.1543 146.383 91.8934 146.392 91.6838C146.4 91.4778 146.319 91.2516 146.097 90.9966C145.873 90.7381 145.522 90.4715 145.042 90.2034C143.105 89.1216 139.453 88.2162 135.384 87.4939C131.335 86.7751 126.935 86.2474 123.543 85.8993C121.848 85.7253 120.407 85.5963 119.39 85.5108C118.881 85.4681 118.478 85.4362 118.203 85.4151C118.065 85.4045 117.959 85.3966 117.888 85.3913L117.807 85.3854L117.78 85.3835C117.78 85.3835 117.78 85.3835 117.807 84.9998L117.78 85.3835ZM125.943 85.3845C128.907 85.72 132.32 86.1686 135.519 86.7365C139.575 87.4566 143.351 88.3781 145.417 89.5319C145.937 89.8226 146.373 90.1405 146.678 90.4924C146.987 90.8477 147.178 91.2577 147.16 91.7143C147.142 92.1673 146.92 92.5952 146.547 92.9949C146.175 93.3936 145.632 93.7877 144.916 94.1828C143.47 94.9809 141.012 95.7294 137.807 96.4603C134.589 97.194 130.579 97.9182 125.999 98.6548C120.119 99.6008 113.286 100.57 105.973 101.606C101.901 102.184 97.6798 102.782 93.3919 103.409C81.3984 105.164 68.8721 107.146 57.5682 109.529C46.2582 111.913 36.1986 114.695 29.1257 118.04C27.3592 118.875 26.2124 119.632 25.5808 120.309C25.2676 120.644 25.0977 120.943 25.029 121.205C24.9626 121.458 24.985 121.698 25.096 121.941C25.3312 122.456 25.9764 123.008 27.1106 123.574C28.2271 124.131 29.7459 124.667 31.6185 125.188C38.3616 127.066 49.4584 128.7 62.1415 130.567C63.5655 130.777 65.0094 130.99 66.4695 131.206C80.9148 133.345 96.9072 135.836 110.565 139.333C117.394 141.081 123.651 143.085 128.845 145.427C134.033 147.766 138.193 150.458 140.796 153.601C142.107 155.184 142.731 156.716 142.671 158.195C142.611 159.675 141.868 161.025 140.604 162.247C138.095 164.675 133.42 166.714 127.33 168.447C115.121 171.919 96.9515 174.229 78.1753 175.768C59.3914 177.307 39.9725 178.077 25.2513 178.461C17.8903 178.654 11.7029 178.75 7.35565 178.798C5.18198 178.822 3.46829 178.834 2.29788 178.84C1.71267 178.843 1.26327 178.845 0.960102 178.845C0.875845 178.845 0.802881 178.846 0.741436 178.846L-19.2943 220.429L42.9624 225.276C42.4823 224.908 41.9134 224.43 41.3765 223.872C40.1193 222.567 38.8873 220.661 39.7636 218.69C40.1951 217.719 41.1155 216.8 42.6607 215.965C44.2071 215.13 46.4093 214.363 49.4576 213.71C55.5545 212.404 65.1053 211.538 79.7305 211.538C108.883 211.538 138.047 201.754 158.573 189.621C168.838 183.553 176.918 176.912 181.758 170.636C186.612 164.342 188.122 158.537 185.55 154.037C184.252 151.765 181.794 149.625 178.413 147.611C175.038 145.6 170.778 143.735 165.923 141.997C156.212 138.52 144.165 135.567 132.149 132.972C126.143 131.675 120.148 130.467 114.46 129.328C113.952 129.227 113.448 129.126 112.946 129.025C107.818 127.999 102.965 127.028 98.6163 126.097C93.8426 125.075 89.667 124.099 86.3931 123.149C84.7561 122.673 83.3384 122.203 82.181 121.734C81.029 121.267 80.1116 120.792 79.4917 120.301C78.8704 119.81 78.5029 119.242 78.5651 118.602C78.6249 117.985 79.0724 117.451 79.6938 116.986C80.9469 116.048 83.2355 115.151 86.2208 114.275C92.2183 112.516 101.254 110.786 111.106 109.058C114.61 108.443 118.218 107.829 121.832 107.214C128.392 106.097 134.974 104.976 140.993 103.844C150.34 102.086 158.28 100.309 162.66 98.4908C164.858 97.5784 166.078 96.709 166.611 95.9261C166.869 95.5459 166.959 95.1966 166.935 94.8696C166.91 94.5376 166.765 94.1879 166.481 93.8187C165.905 93.069 164.819 92.3149 163.352 91.5817C161.896 90.8539 160.106 90.1674 158.169 89.5346C154.294 88.2692 149.863 87.2303 146.395 86.5071C144.662 86.1457 143.172 85.8637 142.115 85.672C141.587 85.5762 141.167 85.503 140.88 85.4538C140.736 85.4292 140.625 85.4105 140.551 85.3981L140.468 85.3845H125.943Z" fill="#384E62"/>
<path d="M74.3457 193.846H88.9611C91.5101 193.846 93.5765 195.913 93.5765 198.462L-nan -nanL93.5765 198.462C93.5765 199.311 92.8877 200 92.038 200H74.3457V193.846Z" fill="#B4A9A6"/>
<path fill-rule="evenodd" clip-rule="evenodd" d="M88.9611 194.615H75.1149V199.231H92.038C92.4628 199.231 92.8072 198.886 92.8072 198.462C92.8072 196.337 91.0853 194.615 88.9611 194.615ZM74.3457 193.846V200H92.038C92.8877 200 93.5765 199.311 93.5765 198.462C93.5765 195.913 91.5101 193.846 88.9611 193.846H74.3457Z" fill="#384E62"/>
<path d="M47.4232 87.6924H71.2694V134.409C71.2694 137.049 70.4704 139.627 68.9774 141.804L34.3463 192.308H10.8848C10.8848 192.308 39.7309 153.846 43.1925 141.539C46.654 129.231 47.4232 87.6924 47.4232 87.6924Z" fill="#D0C4C1"/>
<path fill-rule="evenodd" clip-rule="evenodd" d="M48.1767 88.4616C48.1706 88.7422 48.1626 89.0971 48.1524 89.5197C48.1246 90.6811 48.081 92.3536 48.0178 94.3988C47.8915 98.489 47.687 104.072 47.3741 110.04C47.0613 116.008 46.6399 122.367 46.0793 128.009C45.5203 133.635 44.8184 138.599 43.933 141.747C43.0363 144.935 40.532 149.727 37.3442 155.058C34.1416 160.414 30.2013 166.39 26.3751 171.973C22.5478 177.558 18.8295 182.756 16.0685 186.558C14.6878 188.459 13.5462 190.011 12.7495 191.088C12.6306 191.249 12.5194 191.399 12.4163 191.539H33.9411L68.343 141.369C69.7481 139.32 70.5002 136.893 70.5002 134.409V88.4616H48.1767ZM34.3463 192.308H10.8848C10.8848 192.308 11.0865 192.039 11.4583 191.539C15.5321 186.058 40.0204 152.817 43.1925 141.539C46.654 129.231 47.4232 87.6924 47.4232 87.6924H71.2694V134.409C71.2694 137.049 70.4703 139.627 68.9774 141.804L34.3463 192.308Z" fill="#384E62"/>
<path d="M68.9619 87.6924H44.3466C38.962 102.308 63.5774 186.154 67.4237 198.846C67.4237 198.846 73.9621 201.154 78.5775 198.846L87.0389 194.615L68.9619 87.6924Z" fill="#D0C4C1"/>
<path fill-rule="evenodd" clip-rule="evenodd" d="M67.4237 198.846C67.4237 198.846 73.9621 201.154 78.5775 198.846L87.0389 194.615L68.9619 87.6924H44.3466C38.962 102.308 63.5774 186.154 67.4237 198.846ZM44.9045 88.4616C44.4153 90.1628 44.2537 92.7549 44.4029 96.11C44.5664 99.7854 45.0965 104.277 45.8995 109.32C47.5053 119.404 50.1919 131.628 53.1708 143.808C59.0131 167.695 65.9655 191.355 68.0432 198.237C68.214 198.289 68.4404 198.355 68.7132 198.427C69.3746 198.601 70.3033 198.81 71.3693 198.949C73.5269 199.23 76.1305 199.21 78.2334 198.158L86.1855 194.182L68.3118 88.4616H44.9045Z" fill="#384E62"/>
<path fill-rule="evenodd" clip-rule="evenodd" d="M60.4999 36.1538H52.8076V45.9258C47.0318 47.5924 42.8076 52.9183 42.8076 59.2307V88.4615C50.1911 89.2299 62.334 93.2006 71.2692 88.4615V59.2307C71.2692 52.6412 66.666 47.1268 60.4999 45.7277V36.1538Z" fill="#FBEEEB"/>
<path fill-rule="evenodd" clip-rule="evenodd" d="M53.5768 46.5044L53.0209 46.6648C47.5655 48.2391 43.5768 53.2701 43.5768 59.2307V87.7753C45.0948 87.9634 46.7807 88.2604 48.553 88.5725C48.7826 88.613 49.0137 88.6537 49.246 88.6944C51.5617 89.1006 54.0256 89.5162 56.5314 89.7612C61.3978 90.2371 66.3196 90.0572 70.4999 87.9913V59.2307C70.4999 53.0083 66.1531 47.7992 60.3297 46.4778L59.7307 46.3419V36.923H53.5768V46.5044ZM71.2692 88.4615C64.3441 92.1345 55.4922 90.5756 48.4226 89.3307C46.3705 88.9693 44.4686 88.6344 42.8076 88.4615V59.2307C42.8076 52.9183 47.0318 47.5924 52.8076 45.9258V36.1538H60.4999V45.7277C66.666 47.1268 71.2692 52.6412 71.2692 59.2307V88.4615Z" fill="#384E62"/>
<path d="M69.74 26.1537C69.74 32.5262 64.5741 37.6922 58.2015 37.6922C51.829 37.6922 46.6631 32.5262 46.6631 26.1537C46.6631 19.7812 51.829 14.6152 58.2015 14.6152C64.5741 14.6152 69.74 19.7812 69.74 26.1537Z" fill="#FBEEEB"/>
<path fill-rule="evenodd" clip-rule="evenodd" d="M58.2015 36.9229C64.1492 36.9229 68.9708 32.1014 68.9708 26.1537C68.9708 20.206 64.1492 15.3845 58.2015 15.3845C52.2539 15.3845 47.4323 20.206 47.4323 26.1537C47.4323 32.1014 52.2539 36.9229 58.2015 36.9229ZM58.2015 37.6922C64.5741 37.6922 69.74 32.5262 69.74 26.1537C69.74 19.7812 64.5741 14.6152 58.2015 14.6152C51.829 14.6152 46.6631 19.7812 46.6631 26.1537C46.6631 32.5262 51.829 37.6922 58.2015 37.6922Z" fill="#384E62"/>
<path fill-rule="evenodd" clip-rule="evenodd" d="M56.6538 47.6921C58.8529 47.6921 60.6927 46.9231 61.1564 45.8936C66.9899 47.5231 71.2692 52.8771 71.2692 59.2305V88.4613C71.2692 88.4613 71.2692 88.4613 71.2692 88.4613C71.2692 90.5855 64.8978 92.3075 57.0384 92.3075C49.1789 92.3075 42.8076 90.5855 42.8076 88.4613C42.8076 88.4613 42.8076 88.4613 42.8076 88.4613V59.2305C42.8076 53.1187 46.7675 47.9318 52.2617 46.0955C52.8613 47.022 54.601 47.6921 56.6538 47.6921Z" fill="white"/>
<path fill-rule="evenodd" clip-rule="evenodd" d="M59.8445 47.8919C58.947 48.2552 57.8372 48.4613 56.6538 48.4613C55.5481 48.4613 54.5083 48.2815 53.6461 47.9627C53.0256 47.7334 52.4501 47.4141 52.0192 46.9984C47.0838 48.8693 43.5768 53.6413 43.5768 59.2305V88.4613C43.5768 88.5816 43.6775 88.8869 44.3401 89.3102C44.9667 89.7106 45.9244 90.1 47.1764 90.4384C49.6693 91.1122 53.1564 91.5383 57.0384 91.5383C60.9204 91.5383 64.4074 91.1122 66.9004 90.4384C68.1524 90.1 69.1101 89.7106 69.7366 89.3102C70.3992 88.8869 70.4999 88.5817 70.4999 88.4613V59.2305C70.4999 53.4257 66.717 48.5025 61.4807 46.7951C61.0701 47.2733 60.4778 47.6356 59.8445 47.8919ZM61.1564 45.8936C60.6927 46.9231 58.8529 47.6921 56.6538 47.6921C54.601 47.6921 52.8613 47.022 52.2617 46.0955C46.7675 47.9318 42.8076 53.1187 42.8076 59.2305V88.4613C42.8076 90.5855 49.1789 92.3075 57.0384 92.3075C64.8978 92.3075 71.2692 90.5855 71.2692 88.4613V59.2305C71.2692 52.8771 66.9899 47.5231 61.1564 45.8936Z" fill="#384E62"/>
<path d="M54.3555 76.2432L74.7203 69.2305L76.9744 75.7764L63.1554 80.5349C59.5402 81.7798 55.6004 79.8583 54.3555 76.2432C-nan -nan -nan -nan 54.3555 76.2432L-nan -nanL54.3555 76.2432Z" fill="#FBEEEB"/>
<path fill-rule="evenodd" clip-rule="evenodd" d="M54.6459 76.9567C54.5372 76.727 54.4401 76.489 54.3555 76.2432L74.7203 69.2305L76.9744 75.7764L63.1554 80.5349C59.7861 81.6952 56.1347 80.105 54.6459 76.9567ZM75.9966 75.2995L74.2435 70.2083L55.3783 76.7045C56.7245 79.4515 59.9378 80.8294 62.9049 79.8076L75.9966 75.2995Z" fill="#384E62"/>
<path d="M49.9238 57.9055C49.3974 53.6899 52.3881 49.8457 56.6037 49.3194C60.8193 48.793 64.6635 51.7837 65.1899 55.9993L66.8787 69.5244C67.4051 73.74 64.4144 77.5841 60.1988 78.1105C55.9832 78.6369 52.139 75.6462 51.6126 71.4306L49.9238 57.9055Z" fill="white"/>
<path fill-rule="evenodd" clip-rule="evenodd" d="M66.1154 69.6197L64.4266 56.0946C63.9528 52.3005 60.4931 49.6089 56.699 50.0827C52.905 50.5564 50.2134 54.0161 50.6871 57.8102L52.3759 71.3353C52.8497 75.1293 56.3094 77.821 60.1035 77.3472C63.8975 76.8735 66.5892 73.4138 66.1154 69.6197ZM56.6037 49.3194C52.3881 49.8457 49.3974 53.6899 49.9238 57.9055L51.6126 71.4306C52.139 75.6462 55.9832 78.6369 60.1988 78.1105C64.4144 77.5841 67.4051 73.74 66.8787 69.5244L65.1899 55.9993C64.6635 51.7837 60.8193 48.793 56.6037 49.3194Z" fill="#384E62"/>
<path fill-rule="evenodd" clip-rule="evenodd" d="M60.5087 26.7405C60.1005 26.3757 59.5618 26.1538 58.9713 26.1538C57.6968 26.1538 56.6636 27.187 56.6636 28.4615C56.6636 29.7334 57.6925 30.765 58.9634 30.7692C58.8757 34.8743 58.0261 36.9671 55.1251 37.6923C53.0662 37.6923 51.1122 37.2429 49.3559 36.4368C50.7204 34.094 49.2105 33.3952 47.1409 32.4375C44.5437 31.2355 41.0648 29.6255 41.279 23.8462C41.279 16.1991 47.4781 10 55.1251 10C60.4834 10 65.1308 13.0437 67.4327 17.4965C69.3045 21.554 67.0152 22.7426 64.3352 24.1341C63.0015 24.8265 61.5712 25.5692 60.5087 26.7405Z" fill="#FBEEEB"/>
<path fill-rule="evenodd" clip-rule="evenodd" d="M60.5087 26.7405C60.1005 26.3757 59.5618 26.1538 58.9713 26.1538C57.6968 26.1538 56.6636 27.187 56.6636 28.4615C56.6636 29.7334 57.6925 30.765 58.9634 30.7692C58.8757 34.8743 58.0261 36.9671 55.1251 37.6923C53.0662 37.6923 51.1122 37.2429 49.3559 36.4368C50.7204 34.094 49.2105 33.3952 47.1409 32.4375C44.5437 31.2355 41.0648 29.6255 41.279 23.8462C41.279 16.1991 47.4781 10 55.1251 10C60.4834 10 65.1308 13.0437 67.4327 17.4965C69.3045 21.554 67.0152 22.7426 64.3352 24.1341C63.0015 24.8265 61.5712 25.5692 60.5087 26.7405Z" fill="#B4A9A6"/>
<path fill-rule="evenodd" clip-rule="evenodd" d="M50.116 31.1541C46.2698 17.3079 66.27 24.231 63.8292 13.0771C65.3155 14.2799 66.5478 15.7841 67.4332 17.4967C67.8084 26.5387 50.5005 22.3079 50.116 31.1541Z" fill="#998E8C"/>
<path fill-rule="evenodd" clip-rule="evenodd" d="M66.6693 17.6967C66.1571 16.7372 65.5285 15.8489 64.8025 15.0506C64.7841 15.659 64.686 16.2187 64.5117 16.7345C64.1481 17.8111 63.476 18.6279 62.6453 19.269C61.8247 19.9024 60.8406 20.3712 59.8271 20.7647C59.0502 21.0662 58.2203 21.3362 57.4088 21.6002C57.166 21.6792 56.9248 21.7577 56.6872 21.8363C54.5562 22.5413 52.6955 23.2712 51.5567 24.565C50.8718 25.343 50.4012 26.3874 50.3918 27.9049C50.9693 27.0803 51.75 26.4273 52.6451 25.8976C54.3696 24.8772 56.5852 24.2746 58.6602 23.7103C58.7261 23.6923 58.7918 23.6745 58.8574 23.6566C61.0519 23.0592 63.067 22.4908 64.5238 21.5542C65.2368 21.0958 65.7831 20.568 66.1446 19.9352C66.4827 19.3433 66.6827 18.6187 66.6693 17.6967ZM50.4997 29.3071C50.2794 29.8513 50.146 30.4627 50.116 31.1541C49.9224 30.457 49.7892 29.8126 49.7105 29.2159C48.9623 23.5396 53.148 22.1776 57.1849 20.8641C60.8391 19.6751 64.3713 18.5257 64.011 14.2518C63.98 13.884 63.9202 13.4932 63.8292 13.0771C64.1471 13.3344 64.4534 13.6055 64.7472 13.8894C65.8268 14.9329 66.7372 16.1504 67.4332 17.4967C67.6229 22.0686 63.2918 23.2472 58.9133 24.4386C55.3091 25.4194 51.6727 26.4089 50.4997 29.3071Z" fill="#384E62"/>
<path fill-rule="evenodd" clip-rule="evenodd" d="M49.3464 30.3846C42.8079 20.7692 55.8848 21.1538 52.0389 10.3845C54.7312 9.6153 56.6543 9.99996 57.8081 10.3846C63.1926 16.5384 45.1157 23.0769 49.3464 30.3846Z" fill="#998E8C"/>
<path fill-rule="evenodd" clip-rule="evenodd" d="M57.8081 10.3846C56.7643 10.0366 55.0908 9.68864 52.7878 10.195C52.5452 10.2484 52.2955 10.3112 52.0389 10.3845C52.128 10.6342 52.2081 10.8779 52.2795 11.1158C53.698 15.841 51.709 18.306 49.8782 20.575C48.2218 22.6278 46.6949 24.5201 47.9375 27.7806C48.2356 28.5628 48.6931 29.4238 49.3464 30.3846C48.8144 29.4655 48.6351 28.5587 48.7176 27.6632C48.9632 24.9985 51.527 22.4348 54.0099 19.9519C57.3273 16.6346 60.5003 13.4615 57.8081 10.3846ZM48.2906 26.1038C48.4672 25.609 48.7013 25.1249 48.9769 24.6537C50.0427 22.831 51.7951 21.0788 53.42 19.4539L53.466 19.408C55.152 17.7219 56.6809 16.1835 57.4878 14.7088C57.8828 13.9869 58.0706 13.3375 58.0482 12.7398C58.0282 12.2053 57.8379 11.6457 57.3618 11.0495C56.4245 10.764 54.9848 10.5138 53.0269 10.9303C53.7553 13.3797 53.6335 15.3171 53.0454 16.9599C52.455 18.6093 51.4068 19.907 50.4896 21.0424C50.4197 21.1289 50.3506 21.2145 50.2824 21.2992C49.285 22.54 48.5174 23.5842 48.3084 24.8435C48.2451 25.2245 48.2314 25.6409 48.2906 26.1038Z" fill="#384E62"/>
<path fill-rule="evenodd" clip-rule="evenodd" d="M41.279 23.8462C41.0648 29.6255 44.5437 31.2355 47.1409 32.4375C48.9916 33.2939 50.3946 33.9432 49.6952 35.7462C49.6124 35.9595 49.5002 36.189 49.3559 36.4368C49.5901 36.5443 49.8278 36.6454 50.0687 36.74C51.6351 37.3548 53.3407 37.6923 55.1251 37.6923C57.839 37.0138 58.7577 35.1384 58.9366 31.5383C58.949 31.2902 58.9578 31.0339 58.9634 30.7692C58.9351 30.7691 58.9068 30.7685 58.8787 30.7674C57.6471 30.7188 56.6636 29.705 56.6636 28.4615C56.6636 27.187 57.6968 26.1538 58.9713 26.1538C59.5618 26.1538 60.1005 26.3757 60.5087 26.7405C61.5712 25.5692 63.0015 24.8265 64.3352 24.1341C67.0152 22.7426 69.3045 21.554 67.4327 17.4965C65.1308 13.0437 60.4834 10 55.1251 10C47.4781 10 41.279 16.1991 41.279 23.8462ZM66.7414 17.8344C64.5637 13.6354 60.1785 10.7692 55.1251 10.7692C47.9029 10.7692 42.0482 16.624 42.0482 23.8462V23.8604L42.0477 23.8746C41.9471 26.5874 42.708 28.2304 43.723 29.3388C44.7711 30.4835 46.1482 31.1304 47.464 31.7394L47.4836 31.7484C47.9863 31.9811 48.4947 32.2164 48.9358 32.4703C49.3804 32.7263 49.8176 33.0346 50.139 33.4399C50.4779 33.8673 50.6717 34.3833 50.645 34.992C50.63 35.3333 50.5466 35.6836 50.4042 36.0452C51.8396 36.6011 53.3982 36.911 55.0291 36.9227C56.2449 36.6001 56.9589 36.0239 57.4168 35.1433C57.8591 34.2927 58.0932 33.1006 58.1715 31.4335C56.8599 31.0814 55.8943 29.8842 55.8943 28.4615C55.8943 26.7622 57.2719 25.3846 58.9713 25.3846C59.4924 25.3846 59.9841 25.5146 60.4146 25.7437C61.4953 24.7416 62.8006 24.064 63.9301 23.4777L63.9807 23.4514C64.659 23.0992 65.2671 22.7826 65.7897 22.4382C66.3103 22.0952 66.6991 21.7539 66.9572 21.3789C67.4173 20.7105 67.6061 19.7164 66.7414 17.8344Z" fill="#384E62"/>
<path fill-rule="evenodd" clip-rule="evenodd" d="M41.279 23.8462C41.0648 29.6255 44.5437 31.2355 47.1409 32.4375C48.9916 33.2939 50.3946 33.9432 49.6952 35.7462C49.6124 35.9595 49.5002 36.189 49.3559 36.4368C49.5901 36.5443 49.8278 36.6454 50.0687 36.74C51.6351 37.3548 53.3407 37.6923 55.1251 37.6923C57.839 37.0138 58.7577 35.1384 58.9366 31.5383C58.949 31.2902 58.9578 31.0339 58.9634 30.7692C58.9351 30.7691 58.9068 30.7685 58.8787 30.7674C57.6471 30.7188 56.6636 29.705 56.6636 28.4615C56.6636 27.187 57.6968 26.1538 58.9713 26.1538C59.5618 26.1538 60.1005 26.3757 60.5087 26.7405C61.5712 25.5692 63.0015 24.8265 64.3352 24.1341C67.0152 22.7426 69.3045 21.554 67.4327 17.4965C65.1308 13.0437 60.4834 10 55.1251 10C47.4781 10 41.279 16.1991 41.279 23.8462ZM66.7414 17.8344C64.5637 13.6354 60.1785 10.7692 55.1251 10.7692C47.9029 10.7692 42.0482 16.624 42.0482 23.8462V23.8604L42.0477 23.8746C41.9471 26.5874 42.708 28.2304 43.723 29.3388C44.7711 30.4835 46.1482 31.1304 47.464 31.7394L47.4836 31.7484C47.9863 31.9811 48.4947 32.2164 48.9358 32.4703C49.3804 32.7263 49.8176 33.0346 50.139 33.4399C50.4779 33.8673 50.6717 34.3833 50.645 34.992C50.63 35.3333 50.5466 35.6836 50.4042 36.0452C51.8396 36.6011 53.3982 36.911 55.0291 36.9227C56.2449 36.6001 56.9589 36.0239 57.4168 35.1433C57.8591 34.2927 58.0932 33.1006 58.1715 31.4335C56.8599 31.0814 55.8943 29.8842 55.8943 28.4615C55.8943 26.7622 57.2719 25.3846 58.9713 25.3846C59.4924 25.3846 59.9841 25.5146 60.4146 25.7437C61.4953 24.7416 62.8006 24.064 63.9301 23.4777L63.9807 23.4514C64.659 23.0992 65.2671 22.7826 65.7897 22.4382C66.3103 22.0952 66.6991 21.7539 66.9572 21.3789C67.4173 20.7105 67.6061 19.7164 66.7414 17.8344Z" fill="#384E62"/>
<path d="M77.4238 76.9228C77.4238 79.047 75.7018 80.769 73.5776 80.769C71.4534 80.769 69.7314 79.047 69.7314 76.9228C69.7314 74.7986 71.4534 73.0767 73.5776 73.0767C75.7018 73.0767 77.4238 74.7986 77.4238 76.9228Z" fill="#E7F2FF"/>
<path fill-rule="evenodd" clip-rule="evenodd" d="M73.5776 79.9997C75.2769 79.9997 76.6545 78.6222 76.6545 76.9228C76.6545 75.2235 75.2769 73.8459 73.5776 73.8459C71.8783 73.8459 70.5007 75.2235 70.5007 76.9228C70.5007 78.6222 71.8783 79.9997 73.5776 79.9997ZM73.5776 80.769C75.7018 80.769 77.4238 79.047 77.4238 76.9228C77.4238 74.7986 75.7018 73.0767 73.5776 73.0767C71.4534 73.0767 69.7314 74.7986 69.7314 76.9228C69.7314 79.047 71.4534 80.769 73.5776 80.769Z" fill="#384E62"/>
<path d="M83.5772 67.3077C83.5772 73.4678 78.5835 78.4615 72.4234 78.4615C66.2633 78.4615 61.2695 73.4678 61.2695 67.3077C61.2695 61.1476 66.2633 56.1538 72.4234 56.1538C78.5835 56.1538 83.5772 61.1476 83.5772 67.3077Z" fill="#E7F2FF"/>
<path fill-rule="evenodd" clip-rule="evenodd" d="M72.4234 77.6923C78.1586 77.6923 82.808 73.0429 82.808 67.3077C82.808 61.5724 78.1586 56.923 72.4234 56.923C66.6881 56.923 62.0388 61.5724 62.0388 67.3077C62.0388 73.0429 66.6881 77.6923 72.4234 77.6923ZM72.4234 78.4615C78.5835 78.4615 83.5772 73.4678 83.5772 67.3077C83.5772 61.1476 78.5835 56.1538 72.4234 56.1538C66.2633 56.1538 61.2695 61.1476 61.2695 67.3077C61.2695 73.4678 66.2633 78.4615 72.4234 78.4615Z" fill="#384E62"/>
<path d="M83.5772 63.8461C83.5772 68.0945 78.5835 71.5384 72.4234 71.5384C66.2633 71.5384 61.2695 68.0945 61.2695 63.8461C61.2695 59.5978 66.2633 56.1538 72.4234 56.1538C78.5835 56.1538 83.5772 59.5978 83.5772 63.8461Z" fill="#CDE5FF"/>
<path fill-rule="evenodd" clip-rule="evenodd" d="M79.8736 68.6522C81.7514 67.3572 82.808 65.6452 82.808 63.8461C82.808 62.0471 81.7514 60.3351 79.8736 59.0401C77.9991 57.7473 75.3674 56.923 72.4234 56.923C69.4794 56.923 66.8477 57.7473 64.9731 59.0401C63.0954 60.3351 62.0388 62.0471 62.0388 63.8461C62.0388 65.6452 63.0954 67.3572 64.9731 68.6522C66.8477 69.9449 69.4794 70.7692 72.4234 70.7692C75.3674 70.7692 77.9991 69.9449 79.8736 68.6522ZM72.4234 71.5384C78.5835 71.5384 83.5772 68.0945 83.5772 63.8461C83.5772 59.5978 78.5835 56.1538 72.4234 56.1538C66.2633 56.1538 61.2695 59.5978 61.2695 63.8461C61.2695 68.0945 66.2633 71.5384 72.4234 71.5384Z" fill="#384E62"/>
<path d="M67.423 64.6153C67.423 65.8898 66.3898 66.923 65.1153 66.923C63.8408 66.923 62.8076 65.8898 62.8076 64.6153C62.8076 63.3408 63.8408 62.3076 65.1153 62.3076C66.3898 62.3076 67.423 63.3408 67.423 64.6153Z" fill="#FFDBD1"/>
<path fill-rule="evenodd" clip-rule="evenodd" d="M65.1153 66.1538C65.965 66.1538 66.6538 65.465 66.6538 64.6153C66.6538 63.7656 65.965 63.0768 65.1153 63.0768C64.2656 63.0768 63.5768 63.7656 63.5768 64.6153C63.5768 65.465 64.2656 66.1538 65.1153 66.1538ZM65.1153 66.923C66.3898 66.923 67.423 65.8898 67.423 64.6153C67.423 63.3408 66.3898 62.3076 65.1153 62.3076C63.8408 62.3076 62.8076 63.3408 62.8076 64.6153C62.8076 65.8898 63.8408 66.923 65.1153 66.923Z" fill="#384E62"/>
<path d="M82.8078 63.8458C82.8078 65.1203 81.7746 66.1535 80.5001 66.1535C79.2256 66.1535 78.1924 65.1203 78.1924 63.8458C78.1924 62.5713 79.2256 61.5381 80.5001 61.5381C81.7746 61.5381 82.8078 62.5713 82.8078 63.8458Z" fill="#FFDBD1"/>
<path fill-rule="evenodd" clip-rule="evenodd" d="M80.5001 65.3842C81.3497 65.3842 82.0385 64.6954 82.0385 63.8458C82.0385 62.9961 81.3497 62.3073 80.5001 62.3073C79.6504 62.3073 78.9616 62.9961 78.9616 63.8458C78.9616 64.6954 79.6504 65.3842 80.5001 65.3842ZM80.5001 66.1535C81.7746 66.1535 82.8078 65.1203 82.8078 63.8458C82.8078 62.5713 81.7746 61.5381 80.5001 61.5381C79.2256 61.5381 78.1924 62.5713 78.1924 63.8458C78.1924 65.1203 79.2256 66.1535 80.5001 66.1535Z" fill="#384E62"/>
<path d="M75.8853 65.3845C75.8853 67.0839 74.5077 68.4615 72.8084 68.4615C71.109 68.4615 69.7314 67.0839 69.7314 65.3845C69.7314 63.6852 71.109 62.3076 72.8084 62.3076C74.5077 62.3076 75.8853 63.6852 75.8853 65.3845Z" fill="#FFDBD1"/>
<path fill-rule="evenodd" clip-rule="evenodd" d="M72.8084 67.6922C74.0829 67.6922 75.1161 66.659 75.1161 65.3845C75.1161 64.11 74.0829 63.0768 72.8084 63.0768C71.5339 63.0768 70.5007 64.11 70.5007 65.3845C70.5007 66.659 71.5339 67.6922 72.8084 67.6922ZM72.8084 68.4615C74.5077 68.4615 75.8853 67.0839 75.8853 65.3845C75.8853 63.6852 74.5077 62.3076 72.8084 62.3076C71.109 62.3076 69.7314 63.6852 69.7314 65.3845C69.7314 67.0839 71.109 68.4615 72.8084 68.4615Z" fill="#384E62"/>
<path d="M78.1929 58.4612C78.1929 60.1605 76.8153 61.5381 75.116 61.5381C73.4166 61.5381 72.0391 60.1605 72.0391 58.4612C72.0391 56.7619 73.4166 55.3843 75.116 55.3843C76.8153 55.3843 78.1929 56.7619 78.1929 58.4612Z" fill="#FFDBD1"/>
<path fill-rule="evenodd" clip-rule="evenodd" d="M75.116 60.7689C76.3905 60.7689 77.4237 59.7357 77.4237 58.4612C77.4237 57.1867 76.3905 56.1535 75.116 56.1535C73.8415 56.1535 72.8083 57.1867 72.8083 58.4612C72.8083 59.7357 73.8415 60.7689 75.116 60.7689ZM75.116 61.5381C76.8153 61.5381 78.1929 60.1605 78.1929 58.4612C78.1929 56.7619 76.8153 55.3843 75.116 55.3843C73.4166 55.3843 72.0391 56.7619 72.0391 58.4612C72.0391 60.1605 73.4166 61.5381 75.116 61.5381Z" fill="#384E62"/>
<path fill-rule="evenodd" clip-rule="evenodd" d="M76.7992 66.9612C78.357 66.6029 80.058 67.0646 81.2228 68.3209C82.381 69.5701 82.7159 71.2887 82.2527 72.8087C80.6949 73.167 78.9939 72.7053 77.8291 71.449C76.6709 70.1998 76.336 68.4812 76.7992 66.9612Z" fill="#EDE0DD"/>
<path fill-rule="evenodd" clip-rule="evenodd" d="M77.4415 67.6168C77.2187 68.7612 77.5169 69.9907 78.3541 70.9235C79.1966 71.8624 80.3968 72.2908 81.5656 72.1852C81.7884 71.0408 81.4902 69.8113 80.6531 68.8785C79.8105 67.9396 78.6104 67.5112 77.4415 67.6168ZM82.1825 72.8686C82.6703 71.3563 82.3634 69.6325 81.2256 68.3647C80.0813 67.0897 78.388 66.6004 76.8246 66.9334C76.3368 68.4457 76.6438 70.1695 77.7816 71.4373C78.9258 72.7123 80.6191 73.2016 82.1825 72.8686Z" fill="#384E62"/>
<path fill-rule="evenodd" clip-rule="evenodd" d="M65.3643 56.071C66.9431 55.821 68.6082 56.3991 69.6835 57.7328C70.7527 59.059 70.9681 60.7966 70.4011 62.281C68.8223 62.531 67.1572 61.9529 66.0819 60.6192C65.0127 59.293 64.7973 57.5554 65.3643 56.071Z" fill="#EDE0DD"/>
<path fill-rule="evenodd" clip-rule="evenodd" d="M65.9442 56.786C65.6613 57.9171 65.8941 59.1606 66.6808 60.1364C67.4726 61.1184 68.6484 61.6097 69.8212 61.566C70.1041 60.4349 69.8713 59.1914 69.0846 58.2156C68.2928 57.2336 67.117 56.7423 65.9442 56.786ZM70.4011 62.281C70.9681 60.7966 70.7527 59.059 69.6835 57.7328C68.6082 56.3991 66.9431 55.821 65.3643 56.071C64.7973 57.5554 65.0127 59.293 66.0819 60.6192C67.1572 61.9529 68.8223 62.531 70.4011 62.281Z" fill="#384E62"/>
<path fill-rule="evenodd" clip-rule="evenodd" d="M64.8995 73.5975C63.9934 72.2807 63.7974 70.529 64.5374 68.9839C65.2732 67.4475 66.7483 66.5042 68.3321 66.376C69.2382 67.6929 69.4342 69.4446 68.6942 70.9897C67.9584 72.5261 66.4833 73.4694 64.8995 73.5975Z" fill="#EDE0DD"/>
<path fill-rule="evenodd" clip-rule="evenodd" d="M65.2947 72.7661C66.4373 72.5339 67.459 71.7879 68.0004 70.6574C68.5453 69.5197 68.4818 68.2469 67.9369 67.2075C66.7943 67.4397 65.7726 68.1857 65.2312 69.3162C64.6863 70.4539 64.7498 71.7266 65.2947 72.7661ZM68.3321 66.376C66.7483 66.5042 65.2732 67.4475 64.5374 68.9839C63.7974 70.529 63.9934 72.2807 64.8995 73.5975C66.4833 73.4694 67.9584 72.5261 68.6942 70.9897C69.4342 69.4446 69.2382 67.6929 68.3321 66.376Z" fill="#384E62"/>
<path d="M100.5 46.9229H156.654V85.3844H100.5V46.9229Z" fill="#EDE0DD"/>
<path fill-rule="evenodd" clip-rule="evenodd" d="M155.885 47.6921H101.269V84.6152H155.885V47.6921ZM100.5 46.9229V85.3844H156.654V46.9229H100.5Z" fill="#384E62"/>
<path d="M122.038 69.2309C122.038 64.9825 125.482 61.5386 129.73 61.5386L-nan -nanL129.73 61.5386C133.979 61.5386 137.423 64.9825 137.423 69.2309V85.3847H122.038V69.2309Z" fill="white"/>
<path fill-rule="evenodd" clip-rule="evenodd" d="M136.653 84.6155V69.2309C136.653 65.4074 133.554 62.3078 129.73 62.3078C125.907 62.3078 122.807 65.4074 122.807 69.2309V84.6155H136.653ZM129.73 61.5386C125.482 61.5386 122.038 64.9825 122.038 69.2309V85.3847H137.423V69.2309C137.423 64.9825 133.979 61.5386 129.73 61.5386Z" fill="#384E62"/>
<path d="M108.192 23.0771H128.192H148.192C148.192 38.4618 153.192 42.3079 168.192 47.6925H88.1924C100.115 42.6925 108.192 39.6156 108.192 23.0771Z" fill="#D0C4C1"/>
<path fill-rule="evenodd" clip-rule="evenodd" d="M151.989 39.6425C148.791 36.0009 147.509 31.1719 147.427 23.8464H108.956C108.833 31.7973 106.789 36.7232 103.204 40.2594C100.305 43.1184 96.4386 45.0164 91.9976 46.9233H163.949C158.563 44.7925 154.646 42.6671 151.989 39.6425ZM166.093 46.9233C166.77 47.1771 167.47 47.433 168.192 47.6925H88.1924C88.4092 47.6016 88.6248 47.5113 88.839 47.4216C89.2396 47.2538 89.6356 47.0879 90.0269 46.9233C100.936 42.3347 108.192 38.7526 108.192 23.0771H148.192C148.192 37.7203 152.722 41.9104 166.093 46.9233Z" fill="#384E62"/>
<path d="M178.192 71.154C178.192 73.9154 175.954 76.154 173.192 76.154C170.431 76.154 168.192 73.9154 168.192 71.154C168.192 68.3925 170.431 51.5386 173.192 51.5386C175.954 51.5386 178.192 68.3925 178.192 71.154Z" fill="#F3F2F2"/>
<path fill-rule="evenodd" clip-rule="evenodd" d="M173.192 75.3847C175.529 75.3847 177.423 73.4905 177.423 71.154C177.423 69.8496 176.875 65.0046 175.973 60.4605C175.524 58.1938 174.994 56.0474 174.417 54.4811C174.126 53.6931 173.839 53.0953 173.569 52.7085C173.361 52.4107 173.232 52.3333 173.192 52.3138C173.152 52.3333 173.023 52.4107 172.815 52.7085C172.545 53.0953 172.258 53.6931 171.968 54.4811C171.391 56.0474 170.861 58.1938 170.411 60.4605C169.509 65.0046 168.962 69.8496 168.962 71.154C168.962 73.4905 170.856 75.3847 173.192 75.3847ZM173.192 76.154C175.954 76.154 178.192 73.9154 178.192 71.154C178.192 68.3925 175.954 51.5386 173.192 51.5386C170.431 51.5386 168.192 68.3925 168.192 71.154C168.192 73.9154 170.431 76.154 173.192 76.154Z" fill="#384E62"/>
<path d="M172.808 76.1538H173.577V85.3846H172.808V76.1538Z" fill="#384E62"/>
<path d="M96.6543 87.3078C96.6543 90.0692 94.4157 92.3078 91.6543 92.3078C88.8929 92.3078 86.6543 90.0692 86.6543 87.3078C86.6543 84.5463 88.8929 67.6924 91.6543 67.6924C94.4157 67.6924 96.6543 84.5463 96.6543 87.3078Z" fill="#F3F2F2"/>
<path fill-rule="evenodd" clip-rule="evenodd" d="M91.6543 91.5385C93.9909 91.5385 95.8851 89.6444 95.8851 87.3078C95.8851 86.0034 95.3373 81.1584 94.4353 76.6143C93.9854 74.3477 93.456 72.2012 92.8787 70.635C92.5883 69.8469 92.3012 69.2491 92.0312 68.8623C91.8233 68.5645 91.6942 68.4871 91.6543 68.4676C91.6144 68.4871 91.4853 68.5645 91.2774 68.8623C91.0073 69.2491 90.7203 69.8469 90.4298 70.635C89.8526 72.2012 89.3232 74.3477 88.8733 76.6143C87.9713 81.1584 87.4235 86.0034 87.4235 87.3078C87.4235 89.6444 89.3177 91.5385 91.6543 91.5385ZM91.6543 92.3078C94.4157 92.3078 96.6543 90.0692 96.6543 87.3078C96.6543 84.5463 94.4157 67.6924 91.6543 67.6924C88.8929 67.6924 86.6543 84.5463 86.6543 87.3078C86.6543 90.0692 88.8929 92.3078 91.6543 92.3078Z" fill="#384E62"/>
<path d="M91.2695 92.3076H92.0388V101.538H91.2695V92.3076Z" fill="#384E62"/>
<path d="M105.115 157.308C105.115 160.069 102.877 162.308 100.115 162.308C97.3538 162.308 95.1152 160.069 95.1152 157.308C95.1152 154.546 97.3538 137.692 100.115 137.692C102.877 137.692 105.115 154.546 105.115 157.308Z" fill="#F3F2F2"/>
<path fill-rule="evenodd" clip-rule="evenodd" d="M100.115 161.539C102.452 161.539 104.346 159.644 104.346 157.308C104.346 156.003 103.798 151.158 102.896 146.614C102.446 144.348 101.917 142.201 101.34 140.635C101.049 139.847 100.762 139.249 100.492 138.862C100.284 138.564 100.155 138.487 100.115 138.468C100.075 138.487 99.9462 138.564 99.7383 138.862C99.4683 139.249 99.1812 139.847 98.8908 140.635C98.3136 142.201 97.7841 144.348 97.3342 146.614C96.4323 151.158 95.8845 156.003 95.8845 157.308C95.8845 159.644 97.7786 161.539 100.115 161.539ZM100.115 162.308C102.877 162.308 105.115 160.069 105.115 157.308C105.115 154.546 102.877 137.692 100.115 137.692C97.3538 137.692 95.1152 154.546 95.1152 157.308C95.1152 160.069 97.3538 162.308 100.115 162.308Z" fill="#384E62"/>
<path d="M99.7305 162.308H100.5V171.538H99.7305V162.308Z" fill="#384E62"/>
<path d="M187.423 132.693C187.423 135.454 185.184 137.693 182.423 137.693C179.661 137.693 177.423 135.454 177.423 132.693C177.423 129.931 179.661 113.077 182.423 113.077C185.184 113.077 187.423 129.931 187.423 132.693Z" fill="#F3F2F2"/>
<path fill-rule="evenodd" clip-rule="evenodd" d="M182.423 136.923C184.759 136.923 186.654 135.029 186.654 132.693C186.654 131.388 186.106 126.543 185.204 121.999C184.754 119.732 184.225 117.586 183.647 116.02C183.357 115.232 183.07 114.634 182.8 114.247C182.592 113.949 182.463 113.872 182.423 113.852C182.383 113.872 182.254 113.949 182.046 114.247C181.776 114.634 181.489 115.232 181.198 116.02C180.621 117.586 180.092 119.732 179.642 121.999C178.74 126.543 178.192 131.388 178.192 132.693C178.192 135.029 180.086 136.923 182.423 136.923ZM182.423 137.693C185.184 137.693 187.423 135.454 187.423 132.693C187.423 129.931 185.184 113.077 182.423 113.077C179.661 113.077 177.423 129.931 177.423 132.693C177.423 135.454 179.661 137.693 182.423 137.693Z" fill="#384E62"/>
<path d="M182.038 137.692H182.807V146.923H182.038V137.692Z" fill="#384E62"/>
<path fill-rule="evenodd" clip-rule="evenodd" d="M16.2695 75.3847C18.6061 75.3847 20.5003 73.4905 20.5003 71.154C20.5003 69.8496 19.9525 65.0046 19.0506 60.4605C18.6007 58.1938 18.0712 56.0474 17.494 54.4811C17.2035 53.6931 16.9165 53.0953 16.6465 52.7085C16.4386 52.4107 16.3095 52.3333 16.2695 52.3138C16.2296 52.3333 16.1005 52.4107 15.8926 52.7085C15.6226 53.0953 15.3355 53.6931 15.0451 54.4811C14.4679 56.0474 13.9384 58.1938 13.4885 60.4605C12.5866 65.0046 12.0388 69.8496 12.0388 71.154C12.0388 73.4905 13.9329 75.3847 16.2695 75.3847ZM16.2695 76.154C19.031 76.154 21.2695 73.9154 21.2695 71.154C21.2695 68.3925 19.031 51.5386 16.2695 51.5386C13.5081 51.5386 11.2695 68.3925 11.2695 71.154C11.2695 73.9154 13.5081 76.154 16.2695 76.154Z" fill="#384E62"/>
<path d="M15.8848 76.1538H16.654V85.3846H15.8848V76.1538Z" fill="#384E62"/>
<path d="M192.808 71.154C192.808 73.9154 190.569 76.154 187.808 76.154C185.046 76.154 182.808 73.9154 182.808 71.154C182.808 68.3925 185.046 51.5386 187.808 51.5386C190.569 51.5386 192.808 68.3925 192.808 71.154Z" fill="#F3F2F2"/>
<path fill-rule="evenodd" clip-rule="evenodd" d="M187.808 75.3847C190.144 75.3847 192.038 73.4905 192.038 71.154C192.038 69.8496 191.491 65.0046 190.589 60.4605C190.139 58.1938 189.609 56.0474 189.032 54.4811C188.742 53.6931 188.455 53.0953 188.185 52.7085C187.977 52.4107 187.848 52.3333 187.808 52.3138C187.768 52.3333 187.639 52.4107 187.431 52.7085C187.161 53.0953 186.874 53.6931 186.583 54.4811C186.006 56.0474 185.476 58.1938 185.027 60.4605C184.125 65.0046 183.577 69.8496 183.577 71.154C183.577 73.4905 185.471 75.3847 187.808 75.3847ZM187.808 76.154C190.569 76.154 192.808 73.9154 192.808 71.154C192.808 68.3925 190.569 51.5386 187.808 51.5386C185.046 51.5386 182.808 68.3925 182.808 71.154C182.808 73.9154 185.046 76.154 187.808 76.154Z" fill="#384E62"/>
<path d="M187.423 76.1538H188.192V85.3846H187.423V76.1538Z" fill="#384E62"/>
<path d="M32.8076 71.1537C32.8076 73.9151 30.569 76.1537 27.8076 76.1537C25.0462 76.1537 22.8076 73.9151 22.8076 71.1537C22.8076 68.3923 25.0462 64.6152 27.8076 64.6152C30.569 64.6152 32.8076 68.3923 32.8076 71.1537Z" fill="#F3F2F2"/>
<path fill-rule="evenodd" clip-rule="evenodd" d="M27.8076 75.3845C30.1442 75.3845 32.0384 73.4903 32.0384 71.1537C32.0384 69.9545 31.5419 68.4713 30.7135 67.2908C29.8746 66.0954 28.8271 65.3845 27.8076 65.3845C26.7881 65.3845 25.7406 66.0954 24.9018 67.2908C24.0734 68.4713 23.5768 69.9545 23.5768 71.1537C23.5768 73.4903 25.471 75.3845 27.8076 75.3845ZM27.8076 76.1537C30.569 76.1537 32.8076 73.9151 32.8076 71.1537C32.8076 68.3923 30.569 64.6152 27.8076 64.6152C25.0462 64.6152 22.8076 68.3923 22.8076 71.1537C22.8076 73.9151 25.0462 76.1537 27.8076 76.1537Z" fill="#384E62"/>
<path d="M27.4229 76.1538H28.1921V85.3846H27.4229V76.1538Z" fill="#384E62"/>
<path d="M173.577 125.769C173.577 128.531 171.339 130.769 168.577 130.769C165.816 130.769 163.577 128.531 163.577 125.769C163.577 123.008 165.816 119.231 168.577 119.231C171.339 119.231 173.577 123.008 173.577 125.769Z" fill="#F3F2F2"/>
<path fill-rule="evenodd" clip-rule="evenodd" d="M168.577 130C170.914 130 172.808 128.106 172.808 125.769C172.808 124.57 172.311 123.087 171.483 121.907C170.644 120.711 169.597 120 168.577 120C167.558 120 166.51 120.711 165.671 121.907C164.843 123.087 164.346 124.57 164.346 125.769C164.346 128.106 166.241 130 168.577 130ZM168.577 130.769C171.339 130.769 173.577 128.531 173.577 125.769C173.577 123.008 171.339 119.231 168.577 119.231C165.816 119.231 163.577 123.008 163.577 125.769C163.577 128.531 165.816 130.769 168.577 130.769Z" fill="#384E62"/>
<path d="M168.192 130.77H168.962V140H168.192V130.77Z" fill="#384E62"/>
<path d="M115.885 132.692C115.885 135.454 113.646 137.692 110.885 137.692C108.123 137.692 105.885 135.454 105.885 132.692C105.885 129.931 108.123 126.154 110.885 126.154C113.646 126.154 115.885 129.931 115.885 132.692Z" fill="#F3F2F2"/>
<path fill-rule="evenodd" clip-rule="evenodd" d="M110.885 136.923C113.221 136.923 115.116 135.029 115.116 132.692C115.116 131.493 114.619 130.01 113.791 128.829C112.952 127.634 111.904 126.923 110.885 126.923C109.865 126.923 108.818 127.634 107.979 128.829C107.151 130.01 106.654 131.493 106.654 132.692C106.654 135.029 108.548 136.923 110.885 136.923ZM110.885 137.692C113.646 137.692 115.885 135.454 115.885 132.692C115.885 129.931 113.646 126.154 110.885 126.154C108.123 126.154 105.885 129.931 105.885 132.692C105.885 135.454 108.123 137.692 110.885 137.692Z" fill="#384E62"/>
<path d="M110.5 137.692H111.269V146.923H110.5V137.692Z" fill="#384E62"/>
<path d="M105.885 85.7694C105.885 88.5308 103.646 90.7694 100.885 90.7694C98.1233 90.7694 95.8848 88.5308 95.8848 85.7694C95.8848 83.008 98.1233 79.231 100.885 79.231C103.646 79.231 105.885 83.008 105.885 85.7694Z" fill="#F3F2F2"/>
<path fill-rule="evenodd" clip-rule="evenodd" d="M100.885 90.0002C103.221 90.0002 105.116 88.106 105.116 85.7694C105.116 84.5702 104.619 83.087 103.791 81.9065C102.952 80.7111 101.904 80.0002 100.885 80.0002C99.8653 80.0002 98.8177 80.7111 97.9789 81.9065C97.1505 83.087 96.654 84.5702 96.654 85.7694C96.654 88.106 98.5482 90.0002 100.885 90.0002ZM100.885 90.7694C103.646 90.7694 105.885 88.5308 105.885 85.7694C105.885 83.008 103.646 79.231 100.885 79.231C98.1233 79.231 95.8848 83.008 95.8848 85.7694C95.8848 88.5308 98.1233 90.7694 100.885 90.7694Z" fill="#384E62"/>
<path d="M100.5 90.7695H101.269V100H100.5V90.7695Z" fill="#384E62"/>
</g>
<defs>
<clipPath id="clip0_327_7438">
<rect x="0.5" width="200" height="200" rx="60" fill="white"/>
</clipPath>
</defs>
</svg>
