<svg width="24" height="24" viewBox="0 0 24 24" fill="none" xmlns="http://www.w3.org/2000/svg">
<path fill-rule="evenodd" clip-rule="evenodd" d="M10 17C13.866 17 17 13.866 17 10C17 6.13401 13.866 3 10 3C6.13401 3 3 6.13401 3 10C3 13.866 6.13401 17 10 17ZM10 18C14.4183 18 18 14.4183 18 10C18 5.58172 14.4183 2 10 2C5.58172 2 2 5.58172 2 10C2 14.4183 5.58172 18 10 18ZM10 15C12.7614 15 15 12.7614 15 10C15 7.23858 12.7614 5 10 5C7.23858 5 5 7.23858 5 10C5 12.7614 7.23858 15 10 15ZM10 16C13.3137 16 16 13.3137 16 10C16 6.68629 13.3137 4 10 4C6.68629 4 4 6.68629 4 10C4 13.3137 6.68629 16 10 16ZM17.6197 14.7915C17.4391 15.0782 17.2426 15.354 17.0317 15.6177L17.7427 16.3287L21.1756 19.7616C21.5662 20.1521 21.5662 20.7853 21.1756 21.1758C20.7851 21.5664 20.1519 21.5664 19.7614 21.1758L16.3285 17.7429L15.6175 17.0319C15.3538 17.2428 15.078 17.4392 14.7913 17.6199L19.0543 21.8829C19.8354 22.664 21.1017 22.664 21.8827 21.8829C22.6638 21.1019 22.6638 19.8356 21.8827 19.0545L17.6197 14.7915Z" fill="#1A1919"/>
</svg>
