<svg width="48" height="49" viewBox="0 0 48 49" fill="none" xmlns="http://www.w3.org/2000/svg">
<g clip-path="url(#clip0_299_2897)">
<circle cx="24" cy="24.5" r="24" fill="#696563"/>
<path fill-rule="evenodd" clip-rule="evenodd" d="M33.8666 16.3668C33.8666 16.1459 33.6875 15.9668 33.4666 15.9668H16C14.2326 15.9668 12.8 17.3995 12.8 19.1668V29.8335C12.8 31.6008 14.2326 33.0335 16 33.0335H33.4666C33.6875 33.0335 33.8666 32.8544 33.8666 32.6335V29.8335H36V33.8335C36 34.5699 35.403 35.1668 34.6666 35.1668H16C13.0544 35.1668 10.6666 32.779 10.6666 29.8335V19.1668C10.6666 16.2213 13.0544 13.8335 16 13.8335H34.6666C35.403 13.8335 36 14.4304 36 15.1668V19.1668H33.8666V16.3668ZM34.8 22.6335C35.0209 22.6335 35.2 22.8126 35.2 23.0335V25.9668C35.2 26.1877 35.0209 26.3668 34.8 26.3668H28C26.969 26.3668 26.1333 25.5311 26.1333 24.5002C26.1333 23.4692 26.969 22.6335 28 22.6335H34.8ZM24 24.5002C24 22.291 25.7908 20.5002 28 20.5002H36C36.7363 20.5002 37.3333 21.0971 37.3333 21.8335V27.1668C37.3333 27.9032 36.7363 28.5002 36 28.5002H28C25.7908 28.5002 24 26.7093 24 24.5002Z" fill="white"/>
</g>
<defs>
<clipPath id="clip0_299_2897">
<rect width="48" height="48" fill="white" transform="translate(0 0.5)"/>
</clipPath>
</defs>
</svg>
