<svg width="16" height="16" viewBox="0 0 16 16" fill="none" xmlns="http://www.w3.org/2000/svg">
<path fill-rule="evenodd" clip-rule="evenodd" d="M0.928978 2.67469C0.538454 2.28416 0.538453 1.651 0.928978 1.26048C1.3195 0.869951 1.95267 0.869951 2.34319 1.26048L6.58615 5.50343L5.17193 6.91764L0.928978 2.67469ZM9.41426 8.33154L15.0711 2.67469C15.4616 2.28416 15.4616 1.651 15.0711 1.26048C14.6806 0.869951 14.0474 0.869951 13.6569 1.26048L0.928978 13.9884C0.538454 14.3789 0.538453 15.0121 0.928978 15.4026C1.3195 15.7931 1.95267 15.7931 2.34319 15.4026L8.00005 9.74576L9.41426 8.33154ZM13.6569 15.4026L9.41426 11.16L10.8285 9.74576L15.0711 13.9884C15.4616 14.3789 15.4616 15.0121 15.0711 15.4026C14.6806 15.7931 14.0474 15.7931 13.6569 15.4026Z" fill="#201A19"/>
</svg>
