<svg width="201" height="200" viewBox="0 0 201 200" fill="none" xmlns="http://www.w3.org/2000/svg">
<g clip-path="url(#clip0_327_7251)">
<rect x="0.5" width="200" height="200" rx="60" fill="#CECCCA"/>
<path fill-rule="evenodd" clip-rule="evenodd" d="M203.064 93.4357H-1.39776V146.564H203.064V93.4357ZM-2.16699 92.6665V147.333H203.833V92.6665H-2.16699Z" fill="#384E62"/>
<path fill-rule="evenodd" clip-rule="evenodd" d="M205.064 118.769H-1.39776V146.564H205.064V118.769ZM-2.16699 118V147.333H205.833V118H-2.16699Z" fill="#384E62"/>
<path fill-rule="evenodd" clip-rule="evenodd" d="M80.3916 68.4784C80.3916 76.8755 75.6306 84.1606 68.6609 87.7817V106.522H84.1959C93.2006 106.522 100.5 113.822 100.5 122.826V200H18.9785V122.826C18.9785 113.822 26.2782 106.522 35.2829 106.522H49.0957V88.0097C49.0957 79.348 49.0957 67.1197 49.0957 67.1197C49.0957 67.1197 46.6462 46.7393 58.6524 46.7393C70.6586 46.7393 80.3916 56.4722 80.3916 68.4784Z" fill="#FBEEEB"/>
<path fill-rule="evenodd" clip-rule="evenodd" d="M67.8916 87.3145L68.3062 87.0991C75.0313 83.6051 79.6223 76.5773 79.6223 68.4784C79.6223 56.897 70.2338 47.5085 58.6524 47.5085C55.9089 47.5085 54.0302 48.6554 52.7055 50.3905C51.3541 52.1605 50.5641 54.5692 50.1295 57.0616C49.6969 59.5427 49.6282 62.0363 49.6696 63.9183C49.6902 64.8572 49.7382 65.6388 49.7807 66.1841C49.802 66.4566 49.822 66.6699 49.8364 66.8139C49.8437 66.8858 49.8496 66.9405 49.8536 66.9766L49.8581 67.0167L49.8592 67.0259L49.8594 67.0278L49.8649 67.0736V67.1197H49.0957C49.0957 67.1197 46.6462 46.7393 58.6524 46.7393C70.6586 46.7393 80.3916 56.4722 80.3916 68.4784C80.3916 76.8755 75.6306 84.1606 68.6609 87.7817V106.522H84.1959C93.2006 106.522 100.5 113.822 100.5 122.826V200H18.9785V122.826C18.9785 113.822 26.2782 106.522 35.2829 106.522H49.0957V67.1197C49.8649 67.1197 49.8649 67.1196 49.8649 67.1197V107.291H35.2829C26.7031 107.291 19.7477 114.246 19.7477 122.826V199.231H99.731V122.826C99.731 114.246 92.7757 107.291 84.1959 107.291H67.8916V87.3145Z" fill="#384E62"/>
<path d="M80.3915 68.4784C80.3915 80.4846 70.6585 90.2175 58.6523 90.2175L58.6524 68.4784L58.6523 46.7393C70.6585 46.7393 80.3915 56.4722 80.3915 68.4784Z" fill="#FBEEEB"/>
<path fill-rule="evenodd" clip-rule="evenodd" d="M59.4216 89.4344C70.6466 89.0297 79.6222 79.8022 79.6222 68.4784C79.6222 57.1546 70.6466 47.9271 59.4216 47.5223V89.4344ZM59.4216 90.2042C59.1663 90.213 58.9098 90.2175 58.6523 90.2175V46.7393C58.9098 46.7393 59.1663 46.7437 59.4216 46.7526C71.0715 47.1578 80.3915 56.7297 80.3915 68.4784C80.3915 80.2271 71.0715 89.799 59.4216 90.2042Z" fill="#384E62"/>
<path d="M93.4346 14.1304H158.652V90.2173H93.4346V14.1304Z" fill="white"/>
<path fill-rule="evenodd" clip-rule="evenodd" d="M157.652 15.1304H94.4346V89.2173H157.652V15.1304ZM93.4346 14.1304V90.2173H158.652V14.1304H93.4346Z" fill="#384E62"/>
<path d="M101.587 22.8262H150.5V82.6088H101.587V22.8262Z" fill="#D0C4C1"/>
<path fill-rule="evenodd" clip-rule="evenodd" d="M149.731 23.5954H102.356V81.8395H149.731V23.5954ZM101.587 22.8262V82.6088H150.5V22.8262H101.587Z" fill="#384E62"/>
<path d="M147.782 46.2382C147.782 57.9678 139.358 70.9239 147.782 82.6087H104.304C113.815 69.2935 104.304 60.5978 104.304 46.2382C104.304 34.5087 114.037 25 126.043 25C138.049 25 147.782 34.5087 147.782 46.2382Z" fill="#B4A9A6"/>
<path fill-rule="evenodd" clip-rule="evenodd" d="M104.304 82.6087H147.782C147.598 82.3529 147.421 82.0965 147.253 81.8395C142.261 74.2274 144.12 66.1039 145.941 58.1498C146.866 54.1056 147.782 50.1053 147.782 46.2382C147.782 34.5087 138.049 25 126.043 25C114.037 25 104.304 34.5087 104.304 46.2382C104.304 51.3029 105.487 55.663 106.601 59.7698C108.585 67.0808 110.351 73.5888 104.836 81.8395C104.665 82.0942 104.488 82.3506 104.304 82.6087ZM105.756 81.8395H146.34C142.777 76.1183 142.869 70.1436 143.865 64.3108C144.227 62.1892 144.716 60.052 145.197 57.9514C145.419 56.9793 145.64 56.0151 145.845 55.0639C146.501 52.0292 147.013 49.0856 147.013 46.2382C147.013 34.9503 137.641 25.7692 126.043 25.7692C114.444 25.7692 105.073 34.9503 105.073 46.2382C105.073 49.7422 105.653 52.9116 106.388 55.9241C106.683 57.1286 107.009 58.3328 107.333 59.5271C107.805 61.2678 108.271 62.9874 108.623 64.6563C109.228 67.5211 109.542 70.4059 109.076 73.4442C108.666 76.1242 107.655 78.887 105.756 81.8395Z" fill="#384E62"/>
<path fill-rule="evenodd" clip-rule="evenodd" d="M143.434 48.3693C143.434 55.8737 138.681 62.268 132.021 64.7059V72.4663C132.021 74.1657 133.399 75.5432 135.098 75.5432H149.956V82.065H102.13V75.5432H116.988C118.687 75.5432 120.065 74.1657 120.065 72.4663V64.7059C113.405 62.268 108.652 55.8737 108.652 48.3693C108.652 38.7644 116.438 30.978 126.043 30.978C135.648 30.978 143.434 38.7644 143.434 48.3693Z" fill="#FBEEEB"/>
<path fill-rule="evenodd" clip-rule="evenodd" d="M131.252 64.1683L131.757 63.9835C138.123 61.6531 142.665 55.5406 142.665 48.3693C142.665 39.1892 135.223 31.7473 126.043 31.7473C116.863 31.7473 109.421 39.1892 109.421 48.3693C109.421 55.5406 113.963 61.6531 120.329 63.9835L120.834 64.1683V72.4663C120.834 74.5905 119.112 76.3125 116.988 76.3125H102.899V81.2957H149.187V76.3125H135.098C132.974 76.3125 131.252 74.5905 131.252 72.4663V64.1683ZM132.021 64.7059C138.681 62.268 143.434 55.8737 143.434 48.3693C143.434 38.7644 135.648 30.978 126.043 30.978C116.438 30.978 108.652 38.7644 108.652 48.3693C108.652 55.8737 113.405 62.268 120.065 64.7059V72.4663C120.065 74.1657 118.687 75.5432 116.988 75.5432H102.13V82.065H149.956V75.5432H135.098C133.399 75.5432 132.021 74.1657 132.021 72.4663V64.7059Z" fill="#384E62"/>
<path d="M110.147 39.6737C119.25 47.0107 135.555 48.3694 141.94 39.6737C139.232 33.5896 133.133 29.3477 126.044 29.3477C118.954 29.3477 112.856 33.5896 110.147 39.6737Z" fill="#B4A9A6"/>
<path fill-rule="evenodd" clip-rule="evenodd" d="M141.047 39.5752C138.013 43.3913 132.782 45.078 127.084 44.917C121.43 44.7573 115.474 42.7751 111.103 39.4453C113.805 33.9199 119.481 30.1169 126.044 30.1169C132.657 30.1169 138.371 33.9796 141.047 39.5752ZM141.94 39.6737C135.555 48.3694 119.25 47.0107 110.147 39.6737C112.856 33.5896 118.954 29.3477 126.044 29.3477C133.133 29.3477 139.232 33.5896 141.94 39.6737Z" fill="#384E62"/>
<path fill-rule="evenodd" clip-rule="evenodd" d="M112.216 75.5435L101.587 75.5435V82.6087H150.5V75.5435H139.871C139.173 78.5187 133.249 80.8424 126.043 80.8424C118.838 80.8424 112.913 78.5187 112.216 75.5435Z" fill="#E7F2FF"/>
<path fill-rule="evenodd" clip-rule="evenodd" d="M111.663 76.3127H102.356V81.8394H149.731V76.3127H140.424C140.118 77.0277 139.587 77.6649 138.921 78.2183C138.072 78.923 136.961 79.5297 135.674 80.0263C133.1 81.0197 129.721 81.6116 126.043 81.6116C122.366 81.6116 118.987 81.0197 116.412 80.0263C115.126 79.5297 114.015 78.923 113.166 78.2183C112.5 77.6649 111.968 77.0277 111.663 76.3127ZM112.216 75.5435H101.587V82.6087H150.5V75.5435H139.871C139.173 78.5187 133.249 80.8424 126.043 80.8424C118.838 80.8424 112.913 78.5187 112.216 75.5435Z" fill="#384E62"/>
<path fill-rule="evenodd" clip-rule="evenodd" d="M93.9782 65.3366C93.9782 62.8695 95.9781 60.8696 98.4451 60.8696C99.5799 60.8696 100.5 61.7896 100.5 62.9244V82.8125C100.5 84.1129 100.241 85.4003 99.7372 86.5993L66.5172 165.727C64.7805 169.863 60.732 172.554 56.2456 172.554C48.0431 172.554 42.6533 163.99 46.2021 156.595L80.4022 85.3262H80.3912V78.2609C80.3912 72.558 85.0144 67.9348 90.7173 67.9348H93.4347V77.9056C93.7348 77.9056 93.9782 77.9608 93.9782 78.2609V65.3366Z" fill="#FBEEEB"/>
<path fill-rule="evenodd" clip-rule="evenodd" d="M81.6245 84.5569L46.8956 156.927C43.5919 163.812 48.6095 171.785 56.2456 171.785C60.4222 171.785 64.1912 169.28 65.8079 165.429L99.028 86.3015C99.4918 85.1968 99.7307 84.0106 99.7307 82.8125V62.9244C99.7307 62.2144 99.1551 61.6389 98.4451 61.6389C96.4029 61.6389 94.7474 63.2944 94.7474 65.3366V78.2609H93.9782V65.3366C93.9782 62.8695 95.9781 60.8696 98.4451 60.8696C99.5799 60.8696 100.5 61.7896 100.5 62.9244V82.8125C100.5 84.1129 100.241 85.4003 99.7372 86.5993L66.5172 165.727C64.7805 169.863 60.732 172.554 56.2456 172.554C48.0431 172.554 42.6533 163.99 46.2021 156.595L80.4022 85.3262H80.3912V78.2609C80.3912 72.558 85.0144 67.9348 90.7173 67.9348H93.4347V77.7175C93.7348 77.7175 93.9782 77.9608 93.9782 78.2609H93.2089C93.2089 78.3856 93.31 78.4867 93.4347 78.4867H92.6655V68.7041H90.7173C85.4392 68.7041 81.1604 72.9828 81.1604 78.2609V84.5569H81.6245Z" fill="#384E62"/>
<path fill-rule="evenodd" clip-rule="evenodd" d="M151.601 61.8583C151.601 61.3247 152.033 60.8921 152.567 60.8921C155.635 60.8921 158.122 63.3794 158.122 66.4476V79.14C158.223 78.9415 158.428 78.8054 158.666 78.8054V67.9573H161.383C167.086 67.9573 171.709 72.5805 171.709 78.2834V83.0504C171.709 84.2109 171.503 85.3623 171.1 86.4505L147.756 149.426C144.595 157.951 136.464 163.609 127.372 163.609H122.218C118.21 163.609 115.581 159.42 117.324 155.811L151.601 84.8472V61.8583Z" fill="#FBEEEB"/>
<path fill-rule="evenodd" clip-rule="evenodd" d="M157.353 79.14V66.4476C157.353 63.8042 155.21 61.6613 152.567 61.6613C152.458 61.6613 152.37 61.7495 152.37 61.8583V85.0232L118.017 156.145C116.52 159.243 118.777 162.84 122.218 162.84H127.372C136.142 162.84 143.986 157.382 147.034 149.159L170.378 86.1831C170.75 85.1805 170.94 84.1197 170.94 83.0504V78.2834C170.94 73.0053 166.661 68.7265 161.383 68.7265H159.435V79.5747H158.666C158.73 79.5747 158.784 79.5373 158.809 79.4868L157.353 79.14ZM161.383 67.9573C167.086 67.9573 171.709 72.5805 171.709 78.2834V83.0504C171.709 84.2109 171.503 85.3623 171.1 86.4505L147.756 149.426C144.595 157.951 136.464 163.609 127.372 163.609H122.218C118.21 163.609 115.581 159.42 117.324 155.811L151.601 84.8472V61.8583C151.601 61.3247 152.033 60.8921 152.567 60.8921C155.635 60.8921 158.122 63.3794 158.122 66.4476V79.14C158.223 78.9415 158.428 78.8054 158.666 78.8054V67.9573H161.383Z" fill="#384E62"/>
<path d="M14.1116 125.247C17.2011 115.739 26.0616 109.302 36.0589 109.302H45.7505V145.946C45.7505 154.523 38.7976 161.476 30.2206 161.476C16.4589 161.476 6.70287 148.047 10.9557 134.959L14.1116 125.247Z" fill="#FCFCFF"/>
<path fill-rule="evenodd" clip-rule="evenodd" d="M44.9813 110.071H36.0589C26.3948 110.071 17.8297 116.294 14.8432 125.485L11.6873 135.197C7.59594 147.788 16.9815 160.706 30.2206 160.706C38.3727 160.706 44.9813 154.098 44.9813 145.946V110.071ZM36.0589 109.302C26.0616 109.302 17.2011 115.739 14.1116 125.247L10.9557 134.959C6.70287 148.047 16.4589 161.476 30.2206 161.476C38.7976 161.476 45.7505 154.523 45.7505 145.946V109.302H36.0589Z" fill="#384E62"/>
<path fill-rule="evenodd" clip-rule="evenodd" d="M46.0917 106.154H35.2696C26.2631 106.154 18.9619 113.903 18.9619 123.462V205.385H100.5V123.461C100.5 113.903 93.1992 106.154 84.1927 106.154H71.1962C68.6221 110.65 63.9635 113.654 58.644 113.654C53.3244 113.654 48.6658 110.65 46.0917 106.154Z" fill="#FCFCFF"/>
<path fill-rule="evenodd" clip-rule="evenodd" d="M45.6528 106.923H35.2696C26.7304 106.923 19.7311 114.284 19.7311 123.462V204.615H99.7311V123.461C99.7311 114.284 92.7318 106.923 84.1927 106.923H71.6352C68.8948 111.421 64.1102 114.423 58.644 114.423C53.1777 114.423 48.3931 111.421 45.6528 106.923ZM46.0917 106.154H35.2696C26.2631 106.154 18.9619 113.903 18.9619 123.462V205.385H100.5V123.461C100.5 113.903 93.1992 106.154 84.1927 106.154H71.1962C68.6221 110.65 63.9635 113.654 58.644 113.654C53.3244 113.654 48.6658 110.65 46.0917 106.154Z" fill="#384E62"/>
<path d="M84.8322 137.341C78.1777 131.729 77.332 121.786 82.9432 115.132C88.5544 108.477 98.4978 107.631 105.152 113.243L131.743 135.665C138.398 141.276 139.243 151.219 133.632 157.874C128.021 164.528 118.078 165.374 111.423 159.763L84.8322 137.341Z" fill="#FCFCFF"/>
<path fill-rule="evenodd" clip-rule="evenodd" d="M131.247 136.253L104.656 113.831C98.3267 108.493 88.8686 109.298 83.5313 115.628C78.1939 121.957 78.9984 131.415 85.3281 136.753L111.919 159.175C118.249 164.512 127.707 163.708 133.044 157.378C138.382 151.048 137.577 141.59 131.247 136.253ZM82.9432 115.132C77.332 121.786 78.1777 131.729 84.8322 137.341L111.423 159.763C118.078 165.374 128.021 164.528 133.632 157.874C139.243 151.219 138.398 141.276 131.743 135.665L105.152 113.243C98.4978 107.631 88.5544 108.477 82.9432 115.132Z" fill="#384E62"/>
<path d="M72.2217 66.6968C67.4597 69.0748 67.5503 75.6676 72.2217 75.6676C68.0814 78.0029 64.1021 82.8915 66.4075 88.6549C61.5871 91.5891 56.6619 92.8466 49.0122 92.113C49.7458 79.3286 25.5 88.5256 25.5 65.7608C25.5 56.3595 32.837 45.9238 39.3587 45.9238C41.8043 41.576 46.8242 39.1304 52.1304 39.1304C63.459 39.1304 73.1355 46.2041 76.9837 56.1756C78.1316 59.1498 76.9837 64.3189 72.2217 66.6968Z" fill="#B4A9A6"/>
<path fill-rule="evenodd" clip-rule="evenodd" d="M39.3587 45.9238C32.837 45.9238 25.5 56.3595 25.5 65.7608C25.5 78.7213 33.3587 81.3221 39.9925 83.5175C45.0108 85.1783 49.3281 86.6071 49.0122 92.113C56.6619 92.8466 61.5871 91.5891 66.4075 88.6549C64.3011 83.3891 67.4411 78.8536 71.1568 76.3285C71.5079 76.0899 71.8642 75.8692 72.2217 75.6676C71.7785 75.6676 71.3765 75.6083 71.016 75.4988C67.5768 74.4546 67.9115 68.8491 72.2217 66.6968C76.9837 64.3189 78.1316 59.1498 76.9837 56.1756C73.1355 46.2041 63.459 39.1304 52.1304 39.1304C46.8242 39.1304 41.8043 41.576 39.3587 45.9238ZM70.2494 76.028C69.7694 75.8051 69.3537 75.4964 69.0101 75.1155C68.2691 74.294 67.9215 73.2016 67.915 72.0784C67.9019 69.8371 69.2373 67.3273 71.8781 66.0086C76.2736 63.8137 77.2759 59.069 76.2661 56.4526C72.5285 46.7678 63.1306 39.8996 52.1304 39.8996C47.0399 39.8996 42.3106 42.2451 40.0291 46.301L39.8086 46.6931H39.3587C36.4812 46.6931 33.2173 49.0397 30.6138 52.758C28.0387 56.4359 26.2692 61.2441 26.2692 65.7608C26.2692 71.306 27.741 74.8037 29.8513 77.1728C31.9808 79.5632 34.8369 80.8944 37.7912 81.9556C38.6309 82.2572 39.4237 82.5192 40.21 82.7791C40.8534 82.9918 41.4926 83.203 42.1497 83.4334C43.5463 83.923 44.8883 84.4562 46.0413 85.1423C47.1998 85.8318 48.1992 86.694 48.877 87.8564C49.4573 88.8514 49.7758 90.0215 49.7967 91.4103C56.6096 91.9635 61.1223 90.8416 65.4662 88.3198C64.5093 85.4339 64.9909 82.7547 66.2228 80.5061C67.2064 78.7108 68.6651 77.1909 70.2494 76.028Z" fill="#384E62"/>
<path d="M72.2234 66.697C64.8795 70.8519 61.9122 77.5777 65.9601 81.195C51.7576 70.0933 76.9855 64.6917 73.5437 49.9238C74.9551 51.8288 76.1182 53.9287 76.9854 56.1758C78.1333 59.15 79.5673 62.5422 72.2234 66.697Z" fill="#998E8C"/>
<path fill-rule="evenodd" clip-rule="evenodd" d="M76.2795 56.4832L76.2678 56.4527C75.8072 55.2593 75.2606 54.1085 74.6355 53.0079C74.5691 55.5631 73.7043 57.8293 72.4726 59.8757C71.0704 62.2052 69.1593 64.2975 67.407 66.2159C67.0247 66.6344 66.6501 67.0446 66.2899 67.4471C64.2169 69.7641 62.6771 71.7753 62.3995 73.8062C62.2469 74.9226 62.4728 76.1317 63.3784 77.4835C63.3226 76.3019 63.5831 75.0625 64.1145 73.8408C65.3522 70.9948 68.0703 68.1629 71.8446 66.0275C75.4423 63.9921 76.6979 62.2479 77.0407 60.8147C77.3891 59.3581 76.8675 58.0066 76.2795 56.4832ZM64.3552 78.7075C64.6256 79.6301 65.1536 80.4742 65.9601 81.195C65.0354 80.4722 64.2779 79.7735 63.6687 79.0949C59.1758 74.0898 62.752 70.1729 66.8578 65.676C70.3987 61.7978 74.3335 57.4882 73.8257 51.6772C73.7759 51.1075 73.6834 50.5234 73.5437 49.9238C73.9035 50.4094 74.2471 50.9077 74.5738 51.4178C75.5288 52.9089 76.3393 54.5015 76.9854 56.1758C77.001 56.2161 77.0166 56.2565 77.0323 56.297C78.1705 59.2421 79.4678 62.5985 72.2234 66.697C66.3428 70.024 63.2684 74.9995 64.3552 78.7075Z" fill="#384E62"/>
<path d="M36.0199 68.5627C47.3403 74.1507 46.3827 81.9637 43.5156 84.1973C47.2697 73.8537 31.1306 75.9338 27.4272 70.9573C20.6446 61.843 34.3294 40.1084 39.2595 46.0246C39.2595 46.0246 24.6994 62.9747 36.0199 68.5627Z" fill="#998E8C"/>
<path fill-rule="evenodd" clip-rule="evenodd" d="M39.2595 46.0246C34.3294 40.1084 20.6446 61.843 27.4272 70.9573C28.7955 72.7959 31.8611 73.6713 34.9938 74.5659C39.8206 75.9441 44.8067 77.3679 43.9893 82.4302C43.9012 82.9755 43.7458 83.5631 43.5156 84.1973C43.9856 83.8312 44.4042 83.3152 44.7259 82.6836C46.3667 79.4621 45.4847 73.2347 36.0199 68.5627C24.6994 62.9747 39.2595 46.0246 39.2595 46.0246ZM44.6203 79.7439C44.6174 79.1508 44.5337 78.5138 44.3471 77.8445C43.6058 75.1861 41.2096 71.9823 35.6794 69.2525C32.608 67.7364 31.2366 65.3945 30.9845 62.7568C30.7388 60.1856 31.5597 57.3968 32.6933 54.882C33.8337 52.3521 35.3301 50.0139 36.5338 48.3156C37.1371 47.4644 37.6701 46.7694 38.0532 46.286C38.1084 46.2164 38.1605 46.1511 38.2093 46.0903C37.867 45.8556 37.4978 45.7696 37.0998 45.7916C36.4713 45.8262 35.7001 46.1373 34.8268 46.7668C33.084 48.023 31.1905 50.3624 29.626 53.2236C28.0672 56.0745 26.8762 59.3687 26.4845 62.4806C26.0915 65.6028 26.5131 68.4405 28.0444 70.4981C28.8149 71.5336 30.3056 72.2769 32.2773 72.9421C33.2032 73.2546 34.1931 73.5372 35.2114 73.828L35.3463 73.8665C36.4044 74.1688 37.4896 74.4811 38.5197 74.8378C40.5512 75.5413 42.5225 76.4652 43.7129 77.9916C44.1243 78.5191 44.4305 79.1014 44.6203 79.7439Z" fill="#384E62"/>
<path d="M60.5956 66.6677C50.4796 75.3359 46.7538 83.1988 50.5572 85.0965C41.9723 85.0965 51.0067 70.1509 55.8011 63.0719C60.5956 55.9929 44.345 47.5475 39.0635 46.3491C39.9194 41.9462 45.7768 37.1301 52.9948 39.8191C60.2128 42.5082 70.7117 57.9995 60.5956 66.6677Z" fill="#998E8C"/>
<path fill-rule="evenodd" clip-rule="evenodd" d="M49.1034 84.9141C43.1262 83.1912 51.3176 69.6918 55.8011 63.0719C60.5956 55.9929 44.345 47.5475 39.0635 46.3491C39.0885 46.2202 39.1179 46.091 39.1514 45.9617C39.1823 45.8424 39.2168 45.7231 39.2547 45.6037C40.5826 41.4282 46.1827 37.2813 52.9948 39.8191C60.2128 42.5082 70.7117 57.9995 60.5956 66.6677C51.6204 74.3584 47.6754 81.4152 49.5561 84.2343C49.7951 84.5926 50.1283 84.8825 50.5572 85.0965C50.0005 85.0965 49.5179 85.0336 49.1034 84.9141ZM48.4962 83.7563C48.1648 83.4748 47.9427 83.071 47.8364 82.5079C47.5941 81.2239 47.9931 79.3111 48.8795 77.0159C50.6304 72.4823 54.0441 67.0379 56.438 63.5032C57.8296 61.4487 57.6644 59.2836 56.6349 57.2883C55.6267 55.3343 53.7757 53.4946 51.6774 51.8937C47.8397 48.9657 42.9265 46.6532 39.9997 45.7994C41.2198 42.0404 46.3623 38.1691 52.7262 40.54C54.3815 41.1566 56.2956 42.5411 58.0886 44.4555C59.8737 46.3615 61.495 48.7464 62.5881 51.3036C64.7774 56.4249 64.8001 62.052 60.0951 66.0836C54.9972 70.4518 51.4581 74.6586 49.6751 78.0643C48.7876 79.7596 48.2976 81.3273 48.3296 82.6539C48.339 83.0432 48.3941 83.4126 48.4962 83.7563Z" fill="#384E62"/>
<path d="M193.966 64.1905C193.495 66.2382 191.454 67.5168 189.406 67.0462C187.358 66.5757 186.08 64.5342 186.55 62.4865C187.021 60.4388 189.062 59.1603 191.11 59.6308C193.158 60.1013 194.436 62.1428 193.966 64.1905Z" fill="white"/>
<path fill-rule="evenodd" clip-rule="evenodd" d="M189.578 66.2965C191.212 66.6719 192.841 65.6519 193.216 64.0182C193.592 62.3845 192.571 60.7559 190.938 60.3805C189.304 60.0051 187.675 61.0251 187.3 62.6588C186.925 64.2925 187.945 65.9211 189.578 66.2965ZM189.406 67.0462C191.454 67.5168 193.495 66.2382 193.966 64.1905C194.436 62.1428 193.158 60.1013 191.11 59.6308C189.062 59.1603 187.021 60.4388 186.55 62.4865C186.08 64.5342 187.358 66.5757 189.406 67.0462Z" fill="#384E62"/>
<path d="M196.539 66.6314C196.069 68.6791 194.027 69.9577 191.979 69.4871C189.932 69.0166 188.653 66.9752 189.124 64.9274C189.594 62.8797 191.636 61.6012 193.683 62.0717C195.731 62.5422 197.01 64.5837 196.539 66.6314Z" fill="white"/>
<path fill-rule="evenodd" clip-rule="evenodd" d="M192.152 68.7375C193.785 69.1128 195.414 68.0928 195.789 66.4591C196.165 64.8255 195.145 63.1968 193.511 62.8214C191.877 62.446 190.249 63.466 189.873 65.0997C189.498 66.7334 190.518 68.3621 192.152 68.7375ZM191.979 69.4871C194.027 69.9577 196.069 68.6791 196.539 66.6314C197.01 64.5837 195.731 62.5422 193.683 62.0717C191.636 61.6012 189.594 62.8797 189.124 64.9274C188.653 66.9752 189.932 69.0166 191.979 69.4871Z" fill="#384E62"/>
<path d="M191.188 65.9869C190.718 68.0346 188.676 69.3131 186.629 68.8426C184.581 68.3721 183.302 66.3306 183.773 64.2829C184.244 62.2352 186.285 60.9566 188.333 61.4272C190.38 61.8977 191.659 63.9391 191.188 65.9869Z" fill="white"/>
<path fill-rule="evenodd" clip-rule="evenodd" d="M186.801 68.0929C188.435 68.4683 190.063 67.4483 190.439 65.8146C190.814 64.1809 189.794 62.5523 188.16 62.1769C186.527 61.8015 184.898 62.8215 184.523 64.4552C184.147 66.0889 185.167 67.7175 186.801 68.0929ZM186.629 68.8426C188.676 69.3131 190.718 68.0346 191.188 65.9869C191.659 63.9391 190.38 61.8977 188.333 61.4272C186.285 60.9566 184.244 62.2352 183.773 64.2829C183.302 66.3306 184.581 68.3721 186.629 68.8426Z" fill="#384E62"/>
<rect x="189.406" y="67.8154" width="0.769231" height="16.8478" transform="rotate(12.941 189.406 67.8154)" fill="#384E62"/>
<rect x="176.044" y="52.1743" width="0.769231" height="31.5217" fill="#384E62"/>
<path d="M179.848 48.3698C179.848 50.4709 178.145 52.1741 176.044 52.1741C173.943 52.1741 172.239 50.4709 172.239 48.3698C172.239 46.2687 173.943 44.5654 176.044 44.5654C178.145 44.5654 179.848 46.2687 179.848 48.3698Z" fill="white"/>
<path fill-rule="evenodd" clip-rule="evenodd" d="M176.044 51.4049C177.72 51.4049 179.079 50.046 179.079 48.3698C179.079 46.6935 177.72 45.3347 176.044 45.3347C174.367 45.3347 173.008 46.6935 173.008 48.3698C173.008 50.046 174.367 51.4049 176.044 51.4049ZM176.044 52.1741C178.145 52.1741 179.848 50.4709 179.848 48.3698C179.848 46.2687 178.145 44.5654 176.044 44.5654C173.943 44.5654 172.239 46.2687 172.239 48.3698C172.239 50.4709 173.943 52.1741 176.044 52.1741Z" fill="#384E62"/>
<path d="M182.114 50.0001C182.114 52.1012 180.41 53.8045 178.309 53.8045C176.208 53.8045 174.505 52.1012 174.505 50.0001C174.505 47.8991 176.208 46.1958 178.309 46.1958C180.41 46.1958 182.114 47.8991 182.114 50.0001Z" fill="white"/>
<path fill-rule="evenodd" clip-rule="evenodd" d="M178.309 53.0353C179.985 53.0353 181.344 51.6764 181.344 50.0001C181.344 48.3239 179.985 46.965 178.309 46.965C176.633 46.965 175.274 48.3239 175.274 50.0001C175.274 51.6764 176.633 53.0353 178.309 53.0353ZM178.309 53.8045C180.41 53.8045 182.114 52.1012 182.114 50.0001C182.114 47.8991 180.41 46.1958 178.309 46.1958C176.208 46.1958 174.505 47.8991 174.505 50.0001C174.505 52.1012 176.208 53.8045 178.309 53.8045Z" fill="#384E62"/>
<path d="M177.34 50.7277C177.34 52.8288 175.637 54.532 173.536 54.532C171.435 54.532 169.731 52.8288 169.731 50.7277C169.731 48.6266 171.435 46.9233 173.536 46.9233C175.637 46.9233 177.34 48.6266 177.34 50.7277Z" fill="white"/>
<path fill-rule="evenodd" clip-rule="evenodd" d="M173.536 53.7628C175.212 53.7628 176.571 52.4039 176.571 50.7277C176.571 49.0514 175.212 47.6926 173.536 47.6926C171.86 47.6926 170.501 49.0514 170.501 50.7277C170.501 52.4039 171.86 53.7628 173.536 53.7628ZM173.536 54.532C175.637 54.532 177.34 52.8288 177.34 50.7277C177.34 48.6266 175.637 46.9233 173.536 46.9233C171.435 46.9233 169.731 48.6266 169.731 50.7277C169.731 52.8288 171.435 54.532 173.536 54.532Z" fill="#384E62"/>
<path d="M175.064 59.6894C175.527 61.7388 174.241 63.7754 172.191 64.2382C170.142 64.701 168.105 63.4147 167.643 61.3652C167.18 59.3157 168.466 57.2791 170.516 56.8164C172.565 56.3536 174.602 57.6399 175.064 59.6894Z" fill="white"/>
<path fill-rule="evenodd" clip-rule="evenodd" d="M172.022 63.4879C173.657 63.1187 174.683 61.4939 174.314 59.8588C173.945 58.2237 172.32 57.1975 170.685 57.5667C169.05 57.9359 168.024 59.5607 168.393 61.1958C168.762 62.8309 170.387 63.8571 172.022 63.4879ZM172.191 64.2382C174.241 63.7754 175.527 61.7388 175.064 59.6894C174.602 57.6399 172.565 56.3536 170.516 56.8164C168.466 57.2791 167.18 59.3157 167.643 61.3652C168.105 63.4147 170.142 64.701 172.191 64.2382Z" fill="#384E62"/>
<path d="M173.565 59.8754C174.028 61.9249 172.742 63.9615 170.692 64.4242C168.643 64.887 166.606 63.6007 166.144 61.5513C165.681 59.5018 166.967 57.4652 169.017 57.0024C171.066 56.5396 173.103 57.8259 173.565 59.8754Z" fill="white"/>
<path fill-rule="evenodd" clip-rule="evenodd" d="M170.523 63.6739C172.158 63.3047 173.184 61.6799 172.815 60.0448C172.446 58.4097 170.821 57.3835 169.186 57.7527C167.551 58.1219 166.525 59.7467 166.894 61.3818C167.263 63.0169 168.888 64.0431 170.523 63.6739ZM170.692 64.4242C172.742 63.9615 174.028 61.9249 173.565 59.8754C173.103 57.8259 171.066 56.5396 169.017 57.0024C166.967 57.4652 165.681 59.5018 166.144 61.5513C166.606 63.6007 168.643 64.887 170.692 64.4242Z" fill="#384E62"/>
<path d="M171.804 60.7763C172.266 62.8258 170.98 64.8623 168.931 65.3251C166.881 65.7879 164.845 64.5016 164.382 62.4521C163.919 60.4026 165.205 58.3661 167.255 57.9033C169.304 57.4405 171.341 58.7268 171.804 60.7763Z" fill="white"/>
<path fill-rule="evenodd" clip-rule="evenodd" d="M168.761 64.5748C170.396 64.2056 171.423 62.5808 171.053 60.9457C170.684 59.3106 169.059 58.2844 167.424 58.6536C165.789 59.0228 164.763 60.6476 165.132 62.2827C165.501 63.9178 167.126 64.944 168.761 64.5748ZM168.931 65.3251C170.98 64.8623 172.266 62.8258 171.804 60.7763C171.341 58.7268 169.304 57.4405 167.255 57.9033C165.205 58.3661 163.919 60.4026 164.382 62.4521C164.845 64.5016 166.881 65.7879 168.931 65.3251Z" fill="#384E62"/>
<rect x="170.692" y="64.4243" width="0.769231" height="31.5217" transform="rotate(-12.7241 170.692 64.4243)" fill="#384E62"/>
<path d="M185.738 57.8232C185.678 59.9235 183.928 61.5778 181.827 61.5182C179.727 61.4586 178.073 59.7077 178.132 57.6075C178.192 55.5073 179.943 53.853 182.043 53.9125C184.143 53.9721 185.798 55.723 185.738 57.8232Z" fill="white"/>
<path fill-rule="evenodd" clip-rule="evenodd" d="M181.849 60.7493C183.525 60.7968 184.922 59.477 184.969 57.8014C185.017 56.1258 183.697 54.729 182.021 54.6815C180.346 54.6339 178.949 55.9537 178.901 57.6293C178.854 59.3049 180.174 60.7017 181.849 60.7493ZM181.827 61.5182C183.928 61.5778 185.678 59.9235 185.738 57.8232C185.798 55.723 184.143 53.9721 182.043 53.9125C179.943 53.853 178.192 55.5073 178.132 57.6075C178.073 59.7077 179.727 61.4586 181.827 61.5182Z" fill="#384E62"/>
<rect x="181.827" y="61.5181" width="0.769231" height="31.5217" transform="rotate(1.62463 181.827 61.5181)" fill="#384E62"/>
<path fill-rule="evenodd" clip-rule="evenodd" d="M190.174 83.6958H172.782V99.507C170.114 101.497 168.435 104.39 168.435 107.609C168.435 110.828 170.114 113.72 172.782 115.711V118.478H190.174V115.711C192.842 113.72 194.522 110.828 194.522 107.609C194.522 104.39 192.842 101.497 190.174 99.507V83.6958Z" fill="#F3F2F2"/>
<path fill-rule="evenodd" clip-rule="evenodd" d="M173.552 99.8929L173.242 100.124C170.734 101.995 169.204 104.673 169.204 107.609C169.204 110.545 170.734 113.223 173.242 115.094L173.552 115.325V117.709H189.404V115.325L189.714 115.094C192.222 113.223 193.752 110.545 193.752 107.609C193.752 104.673 192.222 101.995 189.714 100.124L189.404 99.8929V84.465H173.552V99.8929ZM190.174 83.6958V99.507C192.842 101.497 194.522 104.39 194.522 107.609C194.522 110.828 192.842 113.72 190.174 115.711V118.478H172.782V115.711C170.114 113.72 168.435 110.828 168.435 107.609C168.435 104.39 170.114 101.497 172.782 99.507V83.6958H190.174Z" fill="#384E62"/>
</g>
<defs>
<clipPath id="clip0_327_7251">
<rect x="0.5" width="200" height="200" rx="60" fill="white"/>
</clipPath>
</defs>
</svg>
